<svg width="516" height="516" viewBox="0 0 516 516" fill="none" xmlns="http://www.w3.org/2000/svg">
<path fill-rule="evenodd" clip-rule="evenodd" d="M515.35 257.68C515.35 331.84 483.99 398.64 433.83 445.6C414.15 464.08 391.43 479.44 366.71 491.04C363.99 492.32 361.27 493.52 358.55 494.64L357.11 495.28C326.63 508 293.11 515.04 257.99 515.04C256.47 515.04 254.87 515.04 253.35 514.96C252.71 514.96 252.07 514.96 251.43 514.96C250.71 514.96 249.91 514.88 249.19 514.88C248.71 514.88 248.31 514.88 247.83 514.8H247.75C245.91 514.72 244.15 514.64 242.31 514.56H242.23C240.95 514.48 239.75 514.4 238.47 514.32C238.23 514.32 237.99 514.32 237.75 514.24C201.99 511.44 168.31 501.36 138.15 485.52C137.91 485.44 137.67 485.28 137.43 485.12C134.15 483.36 130.95 481.6 127.83 479.76C111.27 470.08 95.91 458.56 82.07 445.52C31.83 398.56 0.469971 331.68 0.469971 257.52C0.469971 115.36 115.75 0.079834 257.91 0.079834C400.15 0.239834 515.35 115.52 515.35 257.68Z" fill="#1C77C3"/>
<path fill-rule="evenodd" clip-rule="evenodd" d="M404.23 366.72C402.71 364.64 401.11 362.64 399.43 360.72C399.19 360.4 398.87 360.08 398.55 359.76C398.23 359.36 397.91 359.04 397.51 358.64C396.95 358.08 396.39 357.52 395.83 356.96C395.43 356.56 395.03 356.16 394.55 355.76C394.31 355.52 394.15 355.36 393.91 355.2C393.35 354.64 392.71 354.16 392.15 353.6C391.75 353.28 391.35 352.88 390.95 352.56C390.55 352.24 390.23 351.92 389.83 351.6C389.27 351.12 388.63 350.64 388.07 350.16C387.67 349.84 387.27 349.52 386.79 349.2C386.47 348.96 386.15 348.72 385.91 348.48C385.51 348.16 385.11 347.92 384.71 347.6C384.39 347.36 383.99 347.12 383.67 346.88C383.35 346.64 383.03 346.4 382.71 346.24C382.31 346 381.91 345.68 381.51 345.44C381.19 345.2 380.87 345.04 380.63 344.88C380.15 344.56 379.67 344.24 379.19 344C378.95 343.84 378.71 343.68 378.47 343.52C377.83 343.12 377.19 342.72 376.55 342.4C375.91 342 375.27 341.68 374.63 341.28C374.39 341.2 374.15 341.04 373.99 340.96C373.27 340.56 372.55 340.24 371.91 339.84C371.35 339.52 370.79 339.28 370.23 338.96C369.43 338.56 368.55 338.08 367.67 337.68C366.79 337.28 365.99 336.88 365.11 336.48C364.55 336.24 363.99 336 363.43 335.68C362.87 335.44 362.31 335.2 361.67 334.96C360.55 334.48 359.35 334 358.23 333.52C356.71 332.88 355.11 332.32 353.59 331.76C351.67 331.04 349.75 330.4 347.83 329.76C346.79 329.44 345.67 329.04 344.63 328.72C338.23 326.72 331.99 325.2 326.23 324C325.19 323.76 324.15 323.6 323.11 323.36C322.63 323.28 322.07 323.12 321.59 323.04C321.19 322.96 320.71 322.88 320.31 322.8C317.67 322.32 315.11 321.92 312.71 321.52C311.99 321.36 311.19 321.28 310.47 321.2C310.07 321.12 309.75 321.12 309.43 321.04C309.35 321.04 309.35 321.04 309.27 321.04C308.55 320.96 307.83 320.88 307.11 320.72C306.39 320.64 305.67 320.56 304.95 320.48C304.87 320.48 304.87 320.48 304.79 320.48C304.71 320.48 304.55 320.48 304.39 320.4C304.31 320.4 304.15 320.4 304.07 320.4C303.99 320.4 303.91 320.4 303.75 320.4C303.51 320.4 303.27 320.32 303.03 320.32C302.55 320.24 302.15 320.24 301.67 320.16C301.27 320.16 300.87 320.08 300.47 320.08C300.15 320.08 299.83 320 299.59 320C299.27 320 299.03 319.92 298.71 319.92C298.63 319.92 298.55 319.92 298.55 319.92C298.31 319.92 298.15 319.92 297.91 319.84C296.87 319.76 295.91 319.68 295.19 319.6C294.39 319.52 293.75 319.52 293.27 319.52C293.11 319.52 292.95 319.52 292.87 319.52C292.47 319.52 292.31 319.52 292.23 319.52H223.91C223.91 319.52 223.59 319.52 223.11 319.6C222.63 319.6 221.83 319.68 220.87 319.76C220.47 319.76 220.07 319.84 219.59 319.84C218.95 319.92 218.31 319.92 217.59 320C217.43 320 217.19 320 217.03 320.08C216.87 320.08 216.63 320.08 216.47 320.16C216.07 320.24 215.67 320.24 215.27 320.32C215.19 320.32 215.11 320.32 215.03 320.32C214.71 320.4 214.39 320.4 213.99 320.4C213.67 320.4 213.27 320.48 212.95 320.48H212.87C212.63 320.48 212.47 320.56 212.23 320.56C212.07 320.56 211.99 320.56 211.83 320.64C211.75 320.64 211.67 320.64 211.59 320.64H211.51H211.43C211.27 320.64 211.19 320.64 211.03 320.72C210.55 320.8 210.15 320.8 209.67 320.88C207.91 321.12 205.99 321.36 203.99 321.68C203.43 321.76 202.95 321.84 202.39 321.92C199.67 322.32 196.71 322.88 193.67 323.44C193.35 323.52 192.95 323.6 192.63 323.68C188.87 324.4 184.87 325.36 180.79 326.4C179.75 326.64 178.63 326.96 177.59 327.28C177.03 327.44 176.55 327.6 175.99 327.76C175.27 327.92 174.63 328.16 173.91 328.4C172.95 328.64 172.07 328.96 171.11 329.28C170.63 329.44 170.07 329.6 169.59 329.76C168.71 330.08 167.75 330.32 166.87 330.64C166.15 330.88 165.35 331.12 164.63 331.36C163.19 331.92 161.67 332.4 160.15 332.96C159.43 333.28 158.71 333.52 157.91 333.84C157.27 334.08 156.63 334.32 155.99 334.64C155.43 334.88 154.87 335.12 154.23 335.36C153.67 335.6 153.19 335.84 152.63 336.08C152.63 336.08 152.55 336.08 152.55 336.16C152.47 336.16 152.47 336.24 152.39 336.24C152.23 336.32 152.07 336.4 151.91 336.48C151.19 336.8 150.47 337.12 149.75 337.52C148.55 338.08 147.43 338.64 146.31 339.2C145.59 339.6 144.79 339.92 144.07 340.32C143.83 340.4 143.67 340.56 143.43 340.64C143.19 340.72 143.03 340.88 142.79 340.96C142.39 341.2 141.91 341.44 141.51 341.68C141.19 341.84 140.87 342 140.55 342.24C139.83 342.64 139.11 343.04 138.39 343.52C137.75 343.92 137.11 344.32 136.47 344.72C135.83 345.12 135.19 345.52 134.55 345.92C134.39 346 134.23 346.16 133.99 346.24C133.67 346.48 133.43 346.64 133.11 346.88C132.95 346.96 132.79 347.12 132.63 347.2C132.31 347.36 132.07 347.6 131.83 347.76C131.83 347.76 131.83 347.76 131.75 347.76C131.67 347.76 131.67 347.84 131.59 347.84C131.59 347.84 131.51 347.84 131.51 347.92C131.35 348 131.27 348.08 131.11 348.16C130.79 348.4 130.47 348.64 130.15 348.88C130.15 348.88 130.07 348.88 130.07 348.96C130.07 348.96 130.07 348.96 129.99 348.96C129.51 349.28 128.95 349.68 128.47 350.08C128.15 350.32 127.83 350.56 127.59 350.8C126.31 351.76 125.11 352.8 123.91 353.84C123.27 354.4 122.63 354.96 121.99 355.52C121.35 356.08 120.71 356.72 120.15 357.28C119.51 357.92 118.95 358.48 118.31 359.12C117.75 359.76 117.11 360.4 116.55 361.04C115.99 361.68 115.43 362.32 114.87 362.96C114.31 363.6 113.83 364.24 113.35 364.88C113.35 364.96 113.27 364.96 113.27 365.04C112.79 365.68 112.23 366.4 111.75 367.12C111.43 367.6 111.03 368.08 110.71 368.64C110.71 368.64 110.71 368.64 110.71 368.72C110.55 368.96 110.39 369.2 110.23 369.44C109.43 370.64 108.71 371.84 107.91 373.12C107.83 373.28 107.75 373.36 107.67 373.52C107.67 373.52 107.67 373.6 107.59 373.6L107.51 373.68C107.27 374.08 107.03 374.48 106.79 374.88C106.63 375.12 106.47 375.44 106.31 375.68C105.59 376.96 104.95 378.16 104.31 379.52C103.91 380.32 103.51 381.04 103.11 381.84C102.47 383.12 101.91 384.32 101.27 385.68C101.03 386.16 100.87 386.56 100.63 387.04C99.8298 388.88 99.0298 390.8 98.2298 392.72C98.0698 393.04 97.9899 393.28 97.9099 393.6C96.8699 396.08 95.9098 398.64 95.0298 401.2C94.7098 402.16 94.3901 403.04 94.0701 404C93.6701 405.04 93.3498 406.08 93.0298 407.12C92.7898 407.76 92.5499 408.48 92.3099 409.12C92.0699 409.76 91.9101 410.48 91.6701 411.12C91.3501 412 91.11 412.88 90.79 413.84C90.79 413.92 90.7899 414 90.7099 414.08C90.1499 415.84 89.6699 417.6 89.1099 419.28C88.8699 420.16 88.5499 421.12 88.3099 422C88.2299 422.32 88.15 422.64 87.99 422.96V423.04C87.91 423.2 87.9098 423.36 87.8298 423.52C87.4298 424.88 87.0299 426.24 86.7099 427.6C86.5499 428.24 86.3898 428.88 86.2298 429.52C85.9898 430.4 85.7499 431.2 85.5099 432.08C85.4299 432.32 85.3501 432.64 85.2701 432.88C84.7901 434.56 84.39 436.32 83.99 438C83.91 438.16 83.9098 438.32 83.8298 438.56C83.8298 438.64 83.7501 438.8 83.7501 438.88C83.1101 441.36 82.55 443.84 81.99 446.24C95.91 459.28 111.27 470.72 127.75 480.48C130.87 482.32 134.15 484.08 137.35 485.84C137.59 486 137.83 486.08 138.07 486.24C168.23 502.16 201.91 512.16 237.67 514.96C237.91 514.96 238.15 514.96 238.39 515.04C239.59 515.12 240.87 515.2 242.15 515.28H242.23C244.07 515.36 245.83 515.52 247.67 515.52H247.75C248.23 515.52 248.63 515.6 249.11 515.6C249.83 515.6 250.55 515.68 251.35 515.68C251.99 515.68 252.63 515.68 253.27 515.68C254.79 515.68 256.31 515.76 257.91 515.76C293.03 515.76 326.55 508.72 357.03 496L358.47 495.36C361.27 494.16 363.99 492.96 366.63 491.76C391.43 480.16 414.07 464.8 433.75 446.32C426.71 415.28 416.95 384.56 404.23 366.72Z" fill="#7F3937"/>
<path fill-rule="evenodd" clip-rule="evenodd" d="M433.83 445.68C414.15 464.16 391.43 479.52 366.71 491.12C363.99 492.4 361.27 493.6 358.55 494.72C357.75 483.04 356.95 470.16 356.23 456.24C355.67 446.4 355.75 436.56 356.31 426.88C356.31 426.8 356.31 426.72 356.31 426.64C358.15 393.28 365.43 362 371.99 339.84C372.71 340.24 373.43 340.56 374.07 340.96C374.31 341.12 374.47 341.2 374.71 341.28C375.35 341.68 375.99 342 376.63 342.4C377.27 342.8 377.91 343.12 378.55 343.52C378.79 343.68 379.03 343.84 379.27 344C379.75 344.24 380.23 344.56 380.71 344.88C381.03 345.04 381.35 345.28 381.59 345.44C381.99 345.68 382.39 346 382.79 346.24C383.11 346.48 383.43 346.72 383.75 346.88C384.07 347.12 384.47 347.36 384.79 347.6C385.19 347.84 385.59 348.16 385.99 348.48C386.31 348.72 386.63 348.96 386.87 349.2C387.27 349.52 387.75 349.84 388.15 350.16C388.79 350.64 389.35 351.12 389.91 351.6C390.31 351.92 390.63 352.24 391.03 352.56C391.43 352.88 391.83 353.28 392.23 353.6C392.79 354.08 393.43 354.64 393.99 355.2C394.23 355.36 394.39 355.6 394.63 355.76C395.03 356.16 395.51 356.56 395.91 356.96C396.47 357.52 397.03 358.08 397.59 358.64C397.99 358.96 398.31 359.36 398.63 359.76C398.95 360.08 399.19 360.4 399.51 360.72C401.19 362.64 402.79 364.64 404.31 366.72C416.95 384.56 426.71 415.28 433.83 445.68Z" fill="#974441"/>
<path fill-rule="evenodd" clip-rule="evenodd" d="M180.71 326.08C169.27 341.76 156.47 363.84 148.63 391.44C147.27 396.16 146.07 401.6 144.95 407.52C140.87 429.2 138.47 457.68 137.43 485.28C134.15 483.52 130.95 481.76 127.83 479.92C111.27 470.24 95.9101 458.72 82.0701 445.68C82.6301 443.2 83.2698 440.72 83.8298 438.32C83.9098 438.08 83.91 437.84 83.99 437.68C83.99 437.6 83.9901 437.6 84.0701 437.52C84.4701 435.76 84.9501 434.08 85.3501 432.4C85.4301 432.16 85.51 431.84 85.59 431.6C85.83 430.72 86.0699 429.92 86.3099 429.04C86.4699 428.4 86.63 427.76 86.79 427.12C87.19 425.76 87.5099 424.4 87.9099 423.04C87.9899 422.88 87.9901 422.64 88.0701 422.48C88.1501 422.16 88.23 421.84 88.39 421.52C88.63 420.64 88.95 419.68 89.19 418.8C89.67 417.04 90.23 415.28 90.79 413.6C90.79 413.52 90.8701 413.44 90.8701 413.36C91.1901 412.48 91.4301 411.6 91.7501 410.64C91.9901 410 92.15 409.36 92.39 408.64C92.63 408 92.8699 407.28 93.1099 406.64C93.4299 405.6 93.8301 404.56 94.1501 403.52C94.4701 402.56 94.7899 401.68 95.1099 400.72C96.0699 398.16 97.03 395.6 97.99 393.12C98.07 392.8 98.2299 392.56 98.3099 392.24C99.1099 390.32 99.9099 388.4 100.71 386.56C100.95 386.08 101.11 385.68 101.35 385.2C101.99 383.92 102.55 382.64 103.19 381.36C103.59 380.56 103.99 379.84 104.39 379.04C105.03 377.76 105.75 376.48 106.39 375.2C106.55 374.96 106.71 374.72 106.87 374.4C107.11 374 107.35 373.6 107.59 373.2C107.59 373.2 107.59 373.12 107.67 373.12C107.67 373.12 107.67 373.04 107.75 373.04V372.96C107.83 372.88 107.91 372.72 107.99 372.64C108.71 371.36 109.51 370.16 110.31 368.96C110.47 368.72 110.63 368.48 110.79 368.24C111.11 367.76 111.51 367.2 111.83 366.72C112.31 366 112.87 365.36 113.35 364.64C113.35 364.56 113.43 364.56 113.43 364.48C113.91 363.84 114.47 363.2 114.95 362.56C115.51 361.92 116.07 361.2 116.63 360.64C117.19 360 117.75 359.36 118.39 358.72C118.95 358.08 119.59 357.52 120.23 356.88C120.87 356.24 121.51 355.68 122.07 355.12C122.71 354.56 123.35 354 123.99 353.44C125.19 352.4 126.47 351.36 127.67 350.4C127.99 350.16 128.31 349.92 128.55 349.68C129.03 349.28 129.51 348.96 130.07 348.56C130.15 348.56 130.15 348.48 130.15 348.48C130.47 348.24 130.79 348 131.11 347.76C131.19 347.68 131.27 347.68 131.27 347.6C131.35 347.52 131.43 347.52 131.43 347.44C131.43 347.44 131.43 347.36 131.51 347.36C131.59 347.28 131.59 347.28 131.67 347.28C131.67 347.28 131.67 347.28 131.75 347.28C131.99 347.04 132.31 346.88 132.55 346.72C132.71 346.56 132.87 346.48 133.03 346.4C133.35 346.16 133.59 346 133.91 345.76C134.07 345.68 134.23 345.52 134.47 345.44C135.11 345.04 135.75 344.64 136.39 344.24C137.03 343.84 137.67 343.44 138.31 343.04C139.03 342.64 139.75 342.16 140.47 341.76C140.79 341.6 141.11 341.44 141.43 341.2C141.83 340.96 142.31 340.72 142.71 340.48C142.95 340.4 143.11 340.24 143.35 340.16C143.59 340 143.75 339.92 143.99 339.84C144.71 339.44 145.43 339.04 146.23 338.72C147.35 338.16 148.55 337.6 149.67 337.04C150.39 336.72 151.11 336.4 151.83 336C152.07 335.92 152.23 335.84 152.39 335.76C152.39 335.76 152.47 335.76 152.47 335.68C153.03 335.44 153.51 335.2 154.07 334.96C154.63 334.72 155.19 334.48 155.83 334.24C156.47 334 157.11 333.68 157.75 333.44C158.47 333.12 159.19 332.88 159.99 332.56C161.51 332 162.95 331.44 164.47 330.96C165.19 330.72 165.99 330.48 166.71 330.24C167.59 329.92 168.55 329.6 169.43 329.36C169.91 329.2 170.47 329.04 170.95 328.88C171.91 328.56 172.79 328.32 173.75 328C174.47 327.76 175.11 327.6 175.83 327.36C176.39 327.2 176.95 327.04 177.43 326.88C178.63 326.64 179.67 326.4 180.71 326.08Z" fill="#974441"/>
<path fill-rule="evenodd" clip-rule="evenodd" d="M145.11 406.48C145.11 406.8 145.03 407.2 144.95 407.52C141.51 435.12 139.19 461.04 138.07 485.6C137.83 485.52 137.59 485.36 137.35 485.2C134.07 483.44 130.87 481.68 127.75 479.84C131.83 455.2 137.27 430.88 145.11 406.48Z" fill="#753532"/>
<path fill-rule="evenodd" clip-rule="evenodd" d="M309.11 398.08L321.99 416L253.35 515.12C252.71 515.12 252.07 515.12 251.43 515.12C250.71 515.12 249.91 515.04 249.19 515.04L265.27 468.64L288.79 396.64L289.19 395.36L289.67 393.84L295.51 376.08L302.23 335.52L304.71 320.64L304.87 319.52L304.95 319.6L307.03 320.96L319.03 328.64L323.11 331.2L326.47 395.28L309.11 398.08Z" fill="#703230"/>
<path fill-rule="evenodd" clip-rule="evenodd" d="M242.31 514.64H242.23C240.95 514.56 239.75 514.48 238.47 514.4C238.23 514.4 237.99 514.4 237.75 514.32L183.59 415.92L199.03 398L181.99 395.04L194.47 330.96L197.51 329.04L206.31 323.36H206.39L210.95 320.48L211.43 320.16L211.59 320.08L212.71 319.36L212.79 320V320.24L212.87 321.6L213.35 330.16V330.24L213.51 332.72L213.67 334.96L215.91 376L219.35 394.72L219.59 395.76L219.91 397.44L233.03 468.64L241.83 511.84L242.07 513.2L242.31 514.64Z" fill="#703230"/>
<path fill-rule="evenodd" clip-rule="evenodd" d="M242.23 514.64L232.95 453.04L232.71 451.36L224.71 398.48L224.47 396.96L223.59 396.56L223.51 396.48L219.27 394.56L211.35 390.96L209.67 393.04L208.55 394.48L193.35 413.68L238.47 514.32C239.75 514.48 240.95 514.56 242.23 514.64Z" fill="#974441"/>
<path fill-rule="evenodd" clip-rule="evenodd" d="M310.63 413.76L251.35 515.04C250.63 515.04 249.83 514.96 249.11 514.96C248.63 514.96 248.23 514.96 247.75 514.88H247.67L265.11 454L266.71 448.48V448.4L267.99 443.84V443.76L281.03 398.32L281.43 396.88L281.83 396.72L281.91 396.64L289.59 393.52L296.23 390.8L297.51 392.88L298.15 393.92L310.63 413.76Z" fill="#974441"/>
<path fill-rule="evenodd" clip-rule="evenodd" d="M214.87 318.96L197.75 328.08L190.55 388.08L224.47 397.04L214.87 318.96Z" fill="#974441"/>
<path d="M202.512 391.494L201.84 394.213L223.663 399.608L224.335 396.89L202.512 391.494Z" fill="#703230"/>
<path d="M302.851 391.864L281.028 397.257L281.699 399.975L303.523 394.582L302.851 391.864Z" fill="#703230"/>
<path fill-rule="evenodd" clip-rule="evenodd" d="M304.79 318.96L319.19 325.6L317.75 388.08L281.99 397.12L304.79 318.96Z" fill="#974441"/>
<path fill-rule="evenodd" clip-rule="evenodd" d="M211.35 319.36L211.51 320.16V320.24L211.59 320.48V320.72L213.51 332.72L214.07 336.4C214.07 336.64 214.15 336.8 214.15 337.04V337.12L215.03 342.56L219.67 371.84L219.99 374L223.59 396.64V396.8L223.83 398.32L232.47 452.8L232.55 453.2L241.99 513.04L242.23 514.56H242.31C244.15 514.64 245.91 514.8 247.75 514.8H247.83L251.03 503.68L265.27 454.48L267.91 445.36V445.28L268.15 444.4L281.51 398.24L281.91 396.8L295.35 350.24L295.99 348L301.59 328.64L303.99 320.32L304.31 319.28H211.35V319.36Z" fill="white"/>
<path fill-rule="evenodd" clip-rule="evenodd" d="M221.91 364.24L236.47 451.68L232.31 453.44L215.19 342.88C216.23 350.24 219.51 360.16 221.91 364.24Z" fill="#C0C0C0"/>
<path opacity="0.13" fill-rule="evenodd" clip-rule="evenodd" d="M271.83 351.04L263.83 376.72L268.15 444.64L257.91 473.84L257.83 376L266.95 347.04L271.83 351.04Z" fill="black"/>
<path fill-rule="evenodd" clip-rule="evenodd" d="M236.47 348.24L245.03 376.72H260.79L271.75 343.52L253.91 341.12L236.47 348.24Z" fill="#FF2936"/>
<path opacity="0.25" fill-rule="evenodd" clip-rule="evenodd" d="M226.71 314.8C233.43 329.2 240.39 333.28 254.15 341.12L226.95 370.8C217.27 362.08 213.75 339.76 212.71 321.84L226.71 314.8Z" fill="black"/>
<path opacity="0.25" fill-rule="evenodd" clip-rule="evenodd" d="M291.19 314.8C284.47 329.2 270.63 339.6 254.15 341.12L279.11 370.8C290.07 362.56 300.63 345.36 301.75 327.44L291.19 314.8Z" fill="black"/>
<path fill-rule="evenodd" clip-rule="evenodd" d="M265.19 454.08L265.11 453.2L260.79 376.64L260.71 376H244.87L244.79 376.48L234.39 440.24L232.55 451.44L232.31 452.88L232.23 453.36L232.15 454L241.59 511.84L242.07 514.72H242.15C243.99 514.8 245.75 514.96 247.59 514.96H247.67L250.87 503.84L265.11 454.64L265.19 454.08Z" fill="#FF414D"/>
<path fill-rule="evenodd" clip-rule="evenodd" d="M288.15 145.76L291.19 288.48L292.31 322.64C292.31 322.64 287.59 342.96 253.19 340.96C226.07 339.36 222.23 327.52 223.11 316.16C223.91 305.6 226.47 279.84 226.47 279.84C226.47 279.84 173.67 289.2 175.19 223.68C176.71 158.08 179.59 162.16 179.59 162.16L257.35 126.88L288.15 145.76Z" fill="#F8BEA1"/>
<path d="M209.35 253.2C206.95 253.2 205.35 252.88 205.11 252.88C204.31 252.72 203.75 251.92 203.91 251.12C204.07 250.32 204.87 249.76 205.67 249.92C205.83 249.92 219.27 252.24 229.83 241.68C230.39 241.12 231.35 241.12 231.99 241.68C232.55 242.24 232.55 243.2 231.99 243.84C223.99 251.92 214.63 253.2 209.35 253.2Z" fill="#2B2B51"/>
<path fill-rule="evenodd" clip-rule="evenodd" d="M223.91 307.36C229.59 323.04 239.27 334.64 254.15 341.12L227.35 363.04C218.87 351.6 212.47 338.32 211.43 320.4L223.91 307.36Z" fill="white"/>
<path fill-rule="evenodd" clip-rule="evenodd" d="M292.23 307.36C282.87 324.4 269.91 335.2 254.07 341.12L278.47 363.04C293.35 355.2 303.83 342 304.87 319.44L292.23 307.36Z" fill="white"/>
<path fill-rule="evenodd" clip-rule="evenodd" d="M289.35 173.68C288.55 176.48 280.87 151.44 199.51 166C131.35 178.16 151.99 89.6799 151.99 89.6799C151.99 89.6799 171.43 114.8 197.51 106C294.39 73.2 298.55 134.48 298.55 134.48C298.55 134.48 337.35 137.44 319.03 195.2C300.71 252.96 290.87 278.4 290.87 278.4L289.35 173.68Z" fill="#2B2B51"/>
<path fill-rule="evenodd" clip-rule="evenodd" d="M152.79 89.6799C152.79 89.6799 148.23 166 206.55 148.24C271.91 128.32 308.63 158.64 303.99 184C299.35 209.36 291.35 278.32 291.35 278.32L288.07 173.2C288.07 173.2 279.03 161.2 234.31 161.2C214.39 161.2 182.63 176.72 160.23 157.76C133.03 134.56 152.79 89.6799 152.79 89.6799Z" fill="#1F1F3B"/>
<path fill-rule="evenodd" clip-rule="evenodd" d="M212.39 210.72L204.63 228C204.31 228.8 204.31 229.76 204.79 230.48C205.27 231.2 205.99 231.68 206.79 231.68L216.07 231.6C217.35 231.6 218.31 230.48 218.31 229.04C218.31 227.68 217.19 226.56 215.91 226.56L210.47 226.64L216.55 213.04C217.11 211.84 216.63 210.32 215.51 209.68C214.39 208.96 212.95 209.44 212.39 210.72Z" fill="#FF767E"/>
<path fill-rule="evenodd" clip-rule="evenodd" d="M226.47 279.84C242.63 278.64 255.67 275.92 266.55 272.16C258.07 287.12 240.47 301.6 224.23 305.28L226.47 279.84Z" fill="#FF767E"/>
<path fill-rule="evenodd" clip-rule="evenodd" d="M286.23 173.68C286.23 173.68 310.31 171.44 310.79 193.6C311.27 216 287.19 216.64 287.19 216.64L273.75 196.8L286.23 173.68Z" fill="#F8BEA1"/>
<path fill-rule="evenodd" clip-rule="evenodd" d="M291.59 183.2C296.79 184.16 299.51 189.36 299.67 194.32C299.83 199.2 297.59 204.16 292.07 204.96C290.71 205.2 289.67 206.48 289.91 207.84C290.07 209.2 291.43 210.24 292.79 210C301.19 208.8 305.11 201.6 304.79 194.16C304.55 186.88 300.07 179.6 292.55 178.24C291.19 178 289.83 178.88 289.59 180.24C289.27 181.6 290.23 182.96 291.59 183.2Z" fill="#FF767E"/>
<path fill-rule="evenodd" clip-rule="evenodd" d="M358.55 494.72C361.35 493.52 364.07 492.32 366.71 491.12C361.91 463.92 359.19 434.16 358.15 409.12C357.35 414.56 356.71 420.48 356.31 426.64C356.31 426.72 356.31 426.8 356.31 426.88C354.87 447.28 355.43 471.12 357.11 495.36L358.55 494.72Z" fill="#753532"/>
</svg>
