<svg width="516" height="516" viewBox="0 0 516 516" fill="none" xmlns="http://www.w3.org/2000/svg">
<path fill-rule="evenodd" clip-rule="evenodd" d="M515.37 258.32C515.37 331.36 484.97 397.28 436.09 444.16C419.29 460.24 400.33 474.08 379.69 485.2C377.29 486.56 374.81 487.76 372.33 489.04C371.85 489.28 371.37 489.52 370.89 489.76C370.89 489.76 370.81 489.76 370.81 489.84C370.33 490.08 369.93 490.32 369.45 490.48C335.69 506.72 297.85 515.84 257.93 515.84C211.21 515.84 167.45 503.44 129.69 481.68C129.05 481.36 128.49 480.96 127.85 480.64C127.37 480.4 126.97 480.08 126.49 479.84C126.01 479.6 125.61 479.28 125.13 478.96C123.05 477.68 120.97 476.4 118.97 475.12C102.65 464.64 87.5302 452.32 74.0102 438.48C28.5702 392.08 0.490234 328.48 0.490234 258.4C0.490234 116.24 115.77 0.960003 257.93 0.960003C400.09 0.880003 515.37 116.16 515.37 258.32Z" fill="#1C77C3"/>
<path fill-rule="evenodd" clip-rule="evenodd" d="M370.81 489.76C336.73 506.4 298.41 515.76 257.93 515.76C211.21 515.76 167.45 503.36 129.69 481.6C128.65 480.96 127.53 480.32 126.49 479.76C123.93 478.24 121.45 476.64 118.97 475.04C102.65 464.56 87.53 452.24 74.01 438.4C81.29 403.36 92.1699 364.72 107.05 343.84C124.33 319.6 156.25 307.68 181.61 301.92C182.73 301.68 183.85 301.44 184.97 301.2C190.41 300.08 195.45 299.2 199.93 298.56C204.73 297.84 208.81 297.36 212.01 297.12C213.29 297.04 214.41 296.88 215.37 296.8C217.85 296.64 219.21 296.56 219.21 296.56H287.53C287.53 296.56 287.69 296.56 287.93 296.56C288.01 296.56 288.17 296.56 288.33 296.56C288.41 296.56 288.41 296.56 288.49 296.56C288.57 296.56 288.65 296.56 288.73 296.56C288.89 296.56 289.05 296.56 289.29 296.56C289.53 296.56 289.69 296.56 290.01 296.64H290.09C290.25 296.64 290.41 296.64 290.57 296.64C290.89 296.64 291.21 296.72 291.61 296.72C291.93 296.72 292.17 296.8 292.49 296.8C294.09 296.96 296.09 297.12 298.33 297.36C298.73 297.44 299.21 297.44 299.61 297.52C300.09 297.6 300.65 297.68 301.13 297.68C302.17 297.84 303.29 297.92 304.41 298.08C308.81 298.72 313.77 299.52 319.21 300.56C324.65 301.68 330.49 303.04 336.49 304.8C337.53 305.12 338.65 305.44 339.69 305.76C361.69 312.48 385.45 324 399.53 343.76C415.21 365.84 427.61 407.6 436.01 444.08C419.21 460.16 400.25 474 379.61 485.12C376.73 486.72 373.77 488.16 370.81 489.6V489.76Z" fill="#B041FF"/>
<path fill-rule="evenodd" clip-rule="evenodd" d="M137.93 429.28L137.37 432.64L129.61 481.6C128.57 480.96 127.45 480.32 126.41 479.76C123.85 478.24 121.37 476.64 118.89 475.04C124.41 459.68 130.81 444.48 137.93 429.28Z" fill="#9705FF"/>
<path d="M372.33 489.04C371.85 489.28 371.37 489.52 370.89 489.76C370.89 489.76 370.81 489.76 370.81 489.84C370.33 490.08 369.93 490.32 369.45 490.48L369.37 489.92L364.41 436.56V436.48L363.29 424.64C363.21 423.84 363.85 423.12 364.65 423.04C365.45 422.96 366.17 423.6 366.25 424.4L367.37 436.24V436.32L372.33 489.04Z" fill="#9705FF"/>
<path fill-rule="evenodd" clip-rule="evenodd" d="M319.21 300.72C306.01 348.08 286.89 388.4 244.57 412.96C211.77 384.64 200.89 345.2 199.77 298.56C204.57 297.84 208.65 297.36 211.85 297.12C213.13 297.04 214.25 296.88 215.21 296.8C217.69 296.64 219.05 296.56 219.05 296.56H287.37C287.37 296.56 292.65 296.72 301.05 297.76C302.09 297.92 303.21 298 304.33 298.16C308.73 298.8 313.77 299.6 319.21 300.72Z" fill="white"/>
<path fill-rule="evenodd" clip-rule="evenodd" d="M287.53 123.04L290.57 265.76L291.69 299.92C291.69 299.92 286.97 320.24 252.57 318.24C225.45 316.64 221.61 304.8 222.49 293.44C223.29 282.88 225.85 257.12 225.85 257.12C225.85 257.12 173.05 266.48 174.57 200.96C176.09 135.36 178.97 139.44 178.97 139.44L256.73 104.16L287.53 123.04Z" fill="#F8BEA1"/>
<path fill-rule="evenodd" clip-rule="evenodd" d="M211.85 188L204.09 205.28C203.77 206.08 203.77 207.04 204.25 207.76C204.65 208.48 205.45 208.96 206.25 208.96L215.53 208.88C216.81 208.88 217.77 207.76 217.77 206.32C217.77 204.96 216.65 203.84 215.37 203.84L209.93 203.92L216.01 190.32C216.57 189.12 216.09 187.6 214.97 186.96C213.77 186.32 212.41 186.8 211.85 188Z" fill="#FF767E"/>
<path fill-rule="evenodd" clip-rule="evenodd" d="M225.93 257.12C242.09 255.92 255.13 253.2 266.01 249.44C257.53 264.4 239.53 276.88 223.29 280.56L225.93 257.12Z" fill="#FF767E"/>
<path fill-rule="evenodd" clip-rule="evenodd" d="M286.41 150.64C286.41 150.64 207.61 160.64 177.77 150.8C147.93 140.96 141.69 110.4 151.21 80.6402C160.73 50.8802 194.09 42.4802 225.77 61.7602C257.45 81.0402 258.89 88.2402 275.69 90.9602C297.05 94.4002 322.89 102.48 324.17 128.08C325.45 153.6 313.29 165.52 309.69 204C307.21 230.4 289.93 239.28 289.93 239.28L286.41 150.64Z" fill="#2B2B51"/>
<path fill-rule="evenodd" clip-rule="evenodd" d="M167.29 58.5601C167.29 58.5601 130.57 105.76 178.01 133.84C214.09 155.2 265.13 136.56 282.01 135.52C298.89 134.48 311.29 140 305.77 162.16C300.25 184.4 290.01 239.2 290.01 239.2L284.33 150.56C284.33 150.56 205.29 161.76 175.13 150.48C144.97 139.2 138.41 113.84 144.57 88.0001C149.69 66.3201 167.29 58.5601 167.29 58.5601Z" fill="#1F1F3B"/>
<path fill-rule="evenodd" clip-rule="evenodd" d="M285.69 151.04C285.69 151.04 309.77 148.8 310.25 170.96C310.73 193.36 286.65 194 286.65 194L273.21 174.16L285.69 151.04Z" fill="#F8BEA1"/>
<path fill-rule="evenodd" clip-rule="evenodd" d="M290.97 160.48C296.17 161.44 298.89 166.64 299.05 171.6C299.21 176.48 296.97 181.44 291.45 182.24C290.09 182.4 289.05 183.76 289.29 185.12C289.45 186.48 290.81 187.52 292.17 187.28C300.57 186.08 304.49 178.88 304.17 171.44C303.85 164.16 299.45 156.88 291.93 155.52C290.57 155.28 289.21 156.16 288.97 157.52C288.73 158.88 289.61 160.24 290.97 160.48Z" fill="#FF767E"/>
<path d="M304.41 298.16C302.65 306.4 293.69 334.56 253.29 334.56C239.45 334.56 228.81 330.64 221.61 322.96C212.73 313.44 211.93 301.12 211.93 297.04C213.21 296.96 214.33 296.8 215.29 296.72V296.8C215.29 300.24 215.93 312 224.09 320.72C230.65 327.68 240.41 331.2 253.29 331.2C291.37 331.2 299.53 305.44 301.13 297.68C302.17 297.92 303.29 298 304.41 298.16Z" fill="#B041FF"/>
<path d="M339.77 305.84C328.01 339.6 317.29 366.72 303.37 388.88C287.05 414.8 267.53 431.2 243.85 439.04C243.69 439.12 243.53 439.12 243.29 439.12C242.97 439.12 242.65 439.04 242.41 438.88C202.49 412.32 181.53 365.04 181.61 302C182.73 301.76 183.85 301.52 184.97 301.28C184.73 363.12 204.97 409.6 243.61 435.6C293.29 418.8 315.21 366.48 336.65 304.96C337.61 305.2 338.65 305.52 339.77 305.84Z" fill="#9705FF"/>
<path d="M256.01 498.56C255.61 498.56 255.29 498.4 254.97 498.16L220.89 470.72L182.41 496.32C181.61 496.8 180.57 496.64 180.09 495.84C179.61 495.04 179.77 494 180.57 493.52L220.09 467.28C220.73 466.88 221.53 466.88 222.09 467.36L256.17 494.8L297.45 466.48C298.17 465.92 299.21 466.16 299.77 466.88C300.33 467.6 300.09 468.64 299.37 469.2L257.13 498.24C256.65 498.48 256.33 498.56 256.01 498.56Z" fill="#9705FF"/>
<path d="M141.29 424.96C140.41 427.84 139.61 430.48 138.89 433.04C134.65 447.6 130.97 463.44 127.93 480C127.93 480.16 127.85 480.32 127.85 480.56C127.37 480.32 126.97 480 126.49 479.76C126.01 479.52 125.61 479.2 125.13 478.88C128.17 462.4 131.85 446.72 136.01 432.24C136.73 429.68 137.53 426.96 138.49 424.08C138.73 423.28 139.61 422.88 140.41 423.12C141.13 423.28 141.53 424.16 141.29 424.96Z" fill="#9705FF"/>
<path fill-rule="evenodd" clip-rule="evenodd" d="M370.81 489.76L364.89 433.28C365.29 434.32 365.61 435.28 366.01 436.4C371.21 451.2 375.77 468.08 379.77 485.2C376.89 486.8 373.93 488.24 370.97 489.68L370.81 489.76Z" fill="#9705FF"/>
<path d="M214.17 231.36C211.69 231.36 210.09 231.04 209.93 231.04C209.05 230.88 208.41 230 208.57 229.12C208.73 228.24 209.61 227.6 210.49 227.76C210.65 227.76 224.01 230.08 234.49 219.6C235.13 218.96 236.17 218.96 236.81 219.6C237.45 220.24 237.45 221.28 236.81 221.92C228.89 230 219.53 231.36 214.17 231.36Z" fill="#2B2B51"/>
</svg>
