<svg width="516" height="516" viewBox="0 0 516 516" fill="none" xmlns="http://www.w3.org/2000/svg">
<path fill-rule="evenodd" clip-rule="evenodd" d="M0.490234 258.32C0.490234 326.96 27.3701 389.36 71.1301 435.52C95.1301 460.8 124.25 481.28 156.81 495.2C159.21 496.24 161.61 497.2 164.09 498.16C166.01 498.96 168.01 499.68 169.93 500.4C197.37 510.4 226.97 515.84 257.85 515.84C271.05 515.84 284.01 514.88 296.65 512.96C297.21 512.88 297.77 512.8 298.33 512.72C298.89 512.64 299.45 512.56 300.01 512.48C329.53 507.6 357.29 497.76 382.49 483.76C382.81 483.6 383.13 483.44 383.45 483.2C387.77 480.72 392.09 478.16 396.33 475.52C408.73 467.6 420.41 458.64 431.29 448.72C482.97 401.6 515.37 333.84 515.37 258.4C515.37 116.24 400.09 0.960003 257.93 0.960003C115.77 0.880003 0.490234 116.16 0.490234 258.32Z" fill="#1C77C3"/>
<path fill-rule="evenodd" clip-rule="evenodd" d="M326.73 148.16C319.53 228 348.81 227.52 348.17 315.36L257.21 293.76L249.93 122.24L326.73 148.16Z" fill="#2B2B51"/>
<path fill-rule="evenodd" clip-rule="evenodd" d="M331.29 223.52C331.29 223.52 317.53 254.4 316.89 272.16C316.17 289.84 326.33 317.6 326.33 317.6L290.09 304.56L289.29 289.28L284.57 241.2L331.29 223.52Z" fill="#1F1F3B"/>
<path fill-rule="evenodd" clip-rule="evenodd" d="M71.1299 435.52C95.1299 460.8 124.25 481.28 156.81 495.2C159.21 496.24 161.61 497.2 164.09 498.16C166.01 498.96 168.01 499.68 169.93 500.4C197.37 510.4 226.97 515.84 257.85 515.84C271.61 515.84 285.13 514.72 298.25 512.64C328.33 507.92 356.73 497.92 382.41 483.68C382.73 483.52 383.05 483.36 383.37 483.12C387.69 480.64 392.01 478.08 396.25 475.44C408.65 467.52 420.33 458.56 431.21 448.64C430.01 442.64 428.73 436.4 427.37 430.16C420.09 397.44 409.85 363.12 396.09 343.84C395.77 343.36 395.45 342.96 395.13 342.48C394.89 342.16 394.57 341.76 394.33 341.44C393.37 340.24 392.41 339.04 391.37 337.92C391.13 337.6 390.89 337.36 390.65 337.12C390.41 336.8 390.09 336.48 389.77 336.16C389.45 335.84 389.21 335.52 388.89 335.28C388.81 335.12 388.65 335.04 388.57 334.96C388.17 334.56 387.77 334.16 387.37 333.76C386.89 333.28 386.33 332.8 385.85 332.32C385.61 332.08 385.29 331.84 385.05 331.6C384.41 331.04 383.77 330.48 383.13 329.92C382.81 329.6 382.49 329.36 382.17 329.12C381.85 328.8 381.53 328.56 381.21 328.32C380.89 328.08 380.57 327.76 380.17 327.52C379.77 327.28 379.53 326.96 379.13 326.72C378.73 326.48 378.41 326.24 378.09 326C377.45 325.52 376.89 325.12 376.25 324.64C375.85 324.32 375.37 324 374.89 323.76C374.49 323.52 374.09 323.2 373.69 322.96C373.05 322.56 372.41 322.08 371.69 321.68C371.13 321.36 370.65 321.04 370.09 320.64C370.09 320.64 370.01 320.64 370.01 320.56C369.53 320.24 369.05 320 368.65 319.76C368.01 319.36 367.29 318.96 366.65 318.56C366.01 318.24 365.37 317.84 364.73 317.52C364.01 317.12 363.37 316.8 362.65 316.4C362.65 316.4 362.57 316.4 362.57 316.32C361.93 316 361.29 315.68 360.57 315.36C358.33 314.24 356.01 313.2 353.69 312.16C353.05 311.92 352.49 311.6 351.85 311.36C351.21 311.12 350.65 310.88 350.01 310.64C349.37 310.4 348.65 310.08 348.01 309.84C346.89 309.36 345.69 308.96 344.57 308.56C344.09 308.4 343.61 308.24 343.05 308C342.09 307.68 341.13 307.36 340.25 307.04C339.77 306.88 339.29 306.72 338.81 306.56C337.85 306.24 336.89 305.92 335.93 305.68C335.45 305.52 334.97 305.36 334.49 305.28C334.01 305.12 333.53 304.96 333.05 304.88C332.57 304.72 332.17 304.64 331.69 304.48C328.09 303.44 324.49 302.56 321.13 301.84C320.97 301.76 320.89 301.76 320.73 301.76C320.25 301.6 319.69 301.52 319.13 301.44C317.53 301.12 315.93 300.8 314.41 300.48C313.61 300.32 312.81 300.16 312.01 300C310.65 299.76 309.29 299.52 307.93 299.28C307.29 299.2 306.65 299.04 306.09 298.96C302.25 298.32 298.73 297.84 295.77 297.52C295.37 297.52 295.05 297.44 294.65 297.44C293.61 297.36 292.73 297.2 291.85 297.12C290.97 297.04 290.17 296.96 289.37 296.88C289.37 296.88 289.37 296.88 289.29 296.88C289.21 296.88 289.21 296.88 289.13 296.88C288.73 296.88 288.41 296.8 288.09 296.8C287.77 296.8 287.53 296.8 287.29 296.72C287.13 296.72 286.89 296.72 286.73 296.64C286.57 296.64 286.41 296.64 286.25 296.64C285.61 296.64 285.13 296.56 284.73 296.56C284.65 296.56 284.49 296.56 284.41 296.56H284.33C284.17 296.56 284.01 296.56 283.93 296.56C283.77 296.56 283.69 296.56 283.69 296.56H215.37C215.37 296.56 215.21 296.56 214.97 296.56C214.89 296.56 214.81 296.56 214.73 296.56C214.49 296.56 214.09 296.56 213.61 296.64C213.37 296.64 213.21 296.64 212.97 296.72C212.57 296.72 212.17 296.8 211.69 296.8C211.45 296.8 211.21 296.8 210.97 296.88H210.89C210.73 296.88 210.57 296.88 210.41 296.88C210.17 296.88 209.93 296.96 209.69 296.96C209.37 296.96 208.97 297.04 208.57 297.04C208.33 297.04 208.09 297.12 207.77 297.12C206.73 297.2 205.53 297.36 204.33 297.52C203.85 297.6 203.37 297.6 202.89 297.68C202.57 297.76 202.17 297.76 201.85 297.84C201.61 297.84 201.45 297.92 201.21 297.92C200.73 298 200.25 298 199.77 298.08C198.65 298.24 197.61 298.4 196.41 298.56C196.25 298.56 196.09 298.64 196.01 298.64C195.61 298.72 195.29 298.72 194.89 298.8C193.93 298.96 192.89 299.12 191.93 299.28C190.97 299.44 190.01 299.6 189.05 299.76C188.49 299.84 188.01 299.92 187.45 300.08C187.37 300.08 187.21 300.16 187.05 300.16C186.41 300.24 185.69 300.4 185.05 300.56C184.01 300.8 182.97 300.96 181.85 301.2C181.21 301.36 180.49 301.52 179.85 301.68C179.53 301.76 179.13 301.84 178.81 301.92C178.09 302.08 177.37 302.24 176.65 302.4C174.81 302.8 172.97 303.28 171.05 303.76C169.53 304.16 168.01 304.56 166.57 304.96C165.77 305.2 165.05 305.44 164.25 305.68C163.61 305.84 162.89 306.08 162.25 306.32C161.29 306.64 160.25 306.96 159.21 307.28C158.57 307.52 157.85 307.68 157.21 307.92C157.13 307.92 157.05 308 156.97 308H156.89C156.25 308.24 155.53 308.48 154.81 308.72C153.45 309.2 152.09 309.76 150.65 310.24C149.61 310.64 148.57 311.04 147.61 311.44C146.09 312.08 144.57 312.72 143.13 313.36C142.33 313.68 141.61 314.08 140.81 314.4C140.01 314.72 139.29 315.12 138.49 315.52C137.69 315.92 136.97 316.24 136.17 316.64C135.37 317.04 134.65 317.44 133.93 317.84C133.21 318.24 132.57 318.56 131.85 318.96C131.77 318.96 131.77 319.04 131.69 319.04C131.05 319.36 130.49 319.76 129.85 320.08C129.37 320.32 128.89 320.64 128.49 320.88C127.85 321.28 127.13 321.68 126.49 322.16C126.17 322.4 125.77 322.64 125.45 322.8C123.93 323.84 122.41 324.88 120.97 325.92C120.33 326.4 119.77 326.88 119.13 327.36C118.33 328 117.61 328.56 116.81 329.2C116.17 329.68 115.61 330.24 115.05 330.72C114.49 331.2 114.01 331.68 113.45 332.16C113.21 332.4 112.97 332.56 112.73 332.8C112.33 333.12 111.93 333.52 111.61 333.92C110.97 334.56 110.33 335.12 109.77 335.76C109.53 336 109.37 336.24 109.13 336.4C108.73 336.88 108.25 337.36 107.85 337.84C107.29 338.4 106.81 339.04 106.25 339.68C106.17 339.76 106.17 339.84 106.09 339.92C105.61 340.48 105.21 341.04 104.81 341.52C104.73 341.68 104.57 341.84 104.49 342C104.01 342.64 103.53 343.28 103.13 343.84C89.1299 364.24 78.4899 401.28 71.1299 435.52Z" fill="#7D6ED7"/>
<path fill-rule="evenodd" clip-rule="evenodd" d="M71.1299 435.52C95.1299 460.8 124.25 481.28 156.81 495.2C159.21 496.24 161.61 497.2 164.09 498.16C166.73 470.24 168.81 435.68 167.13 404.88C167.05 403.44 166.97 402.08 166.89 400.72C163.61 350.16 152.33 320.8 148.09 311.36C146.57 312 145.05 312.64 143.61 313.28C142.81 313.6 142.09 314 141.29 314.32C140.49 314.64 139.77 315.04 138.97 315.44C138.17 315.84 137.45 316.16 136.65 316.56C135.85 316.96 135.13 317.36 134.41 317.76C133.69 318.16 133.05 318.48 132.33 318.88C132.25 318.88 132.25 318.96 132.17 318.96C131.53 319.28 130.97 319.68 130.33 320C129.85 320.24 129.37 320.56 128.97 320.8C128.33 321.2 127.61 321.6 126.97 322.08C126.65 322.32 126.25 322.56 125.93 322.72C124.41 323.76 122.89 324.8 121.45 325.84C120.81 326.32 120.25 326.8 119.61 327.28C118.81 327.92 118.09 328.48 117.29 329.12C116.65 329.6 116.09 330.16 115.53 330.64C114.97 331.12 114.49 331.6 113.93 332.08C113.69 332.32 113.45 332.48 113.21 332.72C112.81 333.04 112.41 333.44 112.09 333.84C111.45 334.48 110.81 335.04 110.25 335.68C110.01 335.92 109.85 336.16 109.61 336.32C109.21 336.8 108.73 337.28 108.33 337.76C107.77 338.32 107.29 338.96 106.73 339.6C106.65 339.68 106.65 339.76 106.57 339.84C106.09 340.4 105.69 340.96 105.29 341.44C105.21 341.6 105.05 341.76 104.97 341.92C104.49 342.56 104.01 343.2 103.61 343.76C89.13 364.24 78.4899 401.28 71.1299 435.52Z" fill="#9588DE"/>
<path fill-rule="evenodd" clip-rule="evenodd" d="M164.09 498.16C166.01 498.96 168.01 499.68 169.93 500.4C172.25 463.36 172.01 424.16 167.69 391.28C167.37 394.4 167.13 397.52 166.81 400.72C163.77 434.8 160.89 468.08 156.73 495.2C159.21 496.24 161.69 497.2 164.09 498.16Z" fill="#7261D4"/>
<path fill-rule="evenodd" clip-rule="evenodd" d="M344.73 308.64C345.85 310.88 346.97 313.12 348.01 315.36C363.29 347.2 371.85 374.96 376.73 399.92C382.89 431.28 383.13 458.24 383.45 483.2C387.77 480.72 392.09 478.16 396.33 475.52C408.73 467.6 420.41 458.64 431.29 448.72C430.09 442.72 428.81 436.48 427.45 430.24C420.17 397.52 409.93 363.2 396.17 343.92C395.85 343.44 395.53 343.04 395.21 342.56C394.97 342.24 394.65 341.84 394.41 341.52C393.45 340.32 392.49 339.12 391.45 338C391.21 337.68 390.97 337.44 390.73 337.2C390.49 336.88 390.17 336.56 389.85 336.24C389.53 335.92 389.29 335.6 388.97 335.36C388.89 335.2 388.73 335.12 388.65 335.04C388.25 334.64 387.85 334.24 387.45 333.84C386.97 333.36 386.41 332.88 385.93 332.4C385.69 332.16 385.37 331.92 385.13 331.68C384.49 331.12 383.85 330.56 383.21 330C382.89 329.68 382.57 329.44 382.25 329.2C381.93 328.88 381.61 328.64 381.29 328.4C380.97 328.16 380.65 327.84 380.25 327.6C379.85 327.36 379.61 327.04 379.21 326.8C378.81 326.56 378.49 326.32 378.17 326.08C377.53 325.6 376.97 325.2 376.33 324.72C375.93 324.4 375.45 324.08 374.97 323.84C374.57 323.6 374.17 323.28 373.77 323.04C373.13 322.64 372.49 322.16 371.77 321.76C371.21 321.44 370.73 321.12 370.17 320.72C370.17 320.72 370.09 320.72 370.09 320.64C369.61 320.32 369.13 320.08 368.73 319.84C368.09 319.44 367.37 319.04 366.73 318.64C366.09 318.32 365.45 317.92 364.81 317.6C364.09 317.2 363.45 316.88 362.73 316.48C362.73 316.48 362.65 316.48 362.65 316.4C362.01 316.08 361.37 315.76 360.65 315.44C358.41 314.32 356.09 313.28 353.77 312.24C353.13 312 352.57 311.68 351.93 311.44C351.29 311.2 350.73 310.96 350.09 310.72C349.45 310.48 348.73 310.16 348.09 309.92C347.05 309.44 345.85 309.04 344.73 308.64Z" fill="#9588DE"/>
<path fill-rule="evenodd" clip-rule="evenodd" d="M373.53 391.28C380.41 426.64 382.01 457.92 382.57 483.6C382.89 483.44 383.21 483.28 383.53 483.04C387.85 480.56 392.17 478 396.41 475.36C392.57 449.76 386.09 424.88 376.89 399.84C375.69 397.04 374.65 394.16 373.53 391.28Z" fill="#7261D4"/>
<path d="M294.57 480.4L296.73 512.88C297.29 512.8 297.85 512.72 298.41 512.64C298.97 512.56 299.53 512.48 300.09 512.4L298.01 480.24L294.57 480.4Z" fill="#5F4CCE"/>
<path fill-rule="evenodd" clip-rule="evenodd" d="M314.57 300C324.57 321.92 333.29 347.68 338.33 384.32L319.37 378.08L333.85 399.12C324.81 433.04 311.37 461.84 296.49 488.88L298.49 386.24L300.01 300H314.57V300Z" fill="#5F4CCE"/>
<path fill-rule="evenodd" clip-rule="evenodd" d="M296.49 489.76C268.97 469.52 241.53 445.52 214.97 402.64L225.93 384.48L206.01 391.04C196.41 363.28 193.45 332 192.33 299.68L204.33 298.64L249.85 387.6L296.49 489.76Z" fill="#5F4CCE"/>
<path fill-rule="evenodd" clip-rule="evenodd" d="M289.37 289.68L306.49 335.6L299.53 385.68H243.37L217.21 323.52L224.65 289.68H289.37Z" fill="#F8BEA1"/>
<path fill-rule="evenodd" clip-rule="evenodd" d="M298.65 358.88H238.65L296.09 488.88L298.65 358.88Z" fill="white"/>
<path fill-rule="evenodd" clip-rule="evenodd" d="M296.49 358.88H285.61L296.49 488.88V358.88Z" fill="#D6D6D6"/>
<path d="M299.21 371.84H251.29V375.12H299.21V371.84Z" fill="#7D6ED7"/>
<path fill-rule="evenodd" clip-rule="evenodd" d="M251.21 370.4L296.41 488.96L226.01 400.56L238.73 373.76L251.21 370.4Z" fill="#988CDF"/>
<path fill-rule="evenodd" clip-rule="evenodd" d="M291.77 354.96L296.33 488.88L325.45 398.4L308.97 369.36L291.77 354.96Z" fill="#988CDF"/>
<path fill-rule="evenodd" clip-rule="evenodd" d="M224.33 123.04L221.29 265.76L220.17 299.92C220.17 299.92 224.89 320.24 259.29 318.24C286.41 316.64 290.25 304.8 289.37 293.44C288.57 282.88 286.01 257.12 286.01 257.12C286.01 257.12 338.81 266.48 337.29 200.96C335.77 135.36 332.89 139.44 332.89 139.44L255.13 104.16L224.33 123.04Z" fill="#F8BEA1"/>
<path d="M273.77 328.08L277.85 319.44H300.97V316.08H276.73C276.09 316.08 275.53 316.48 275.21 317.04L270.73 326.64L273.77 328.08Z" fill="#FF767E"/>
<path d="M253.29 328.08L256.33 326.64L251.85 317.04C251.61 316.48 250.97 316.08 250.33 316.08H226.09V319.44H249.29L253.29 328.08Z" fill="#FF767E"/>
<path fill-rule="evenodd" clip-rule="evenodd" d="M224.89 150.96C242.09 147.52 254.49 141.36 263.45 130.4C263.45 130.4 310.25 161.92 337.37 161.28C360.49 160.8 369.53 127.2 352.49 96.1601C335.37 65.0401 302.97 56.48 266.97 56.48C230.97 56.48 173.29 84.5601 179.05 142.8C183.53 187.52 187.29 201.2 175.53 238.56C163.77 275.92 157.37 307.92 157.37 307.92C179.53 301.44 204.25 297.44 223.77 296.56L224.89 150.96Z" fill="#2B2B51"/>
<path fill-rule="evenodd" clip-rule="evenodd" d="M344.49 84.48C344.49 84.48 374.57 139.44 327.37 139.84C279.69 140.24 262.97 115.52 262.97 115.52C262.97 115.52 235.53 140.88 217.13 143.36C198.73 145.76 212.57 201.04 211.61 230.56C210.65 260.08 201.45 301.76 201.45 301.76L223.77 289.44L225.13 151.04C241.61 148.4 255.05 143.28 263.21 130.72C263.21 130.72 305.45 168 343.21 161.44C375.45 155.84 357.77 95.52 344.49 84.48Z" fill="#1F1F3B"/>
<path fill-rule="evenodd" clip-rule="evenodd" d="M223.69 289.36L251.21 370.4L212.81 381.44L196.49 298.4L223.69 289.36Z" fill="#988CDF"/>
<path fill-rule="evenodd" clip-rule="evenodd" d="M300.01 188L307.77 205.28C308.09 206.08 308.09 207.04 307.61 207.76C307.21 208.48 306.41 208.96 305.61 208.96L296.33 208.88C295.05 208.88 294.09 207.76 294.09 206.32C294.09 204.96 295.21 203.84 296.49 203.84L301.93 203.92L295.85 190.32C295.29 189.12 295.77 187.6 296.89 186.96C298.09 186.32 299.45 186.8 300.01 188Z" fill="#FF767E"/>
<path fill-rule="evenodd" clip-rule="evenodd" d="M286.17 257.04L249.53 250.88C258.01 265.84 272.01 278.08 288.33 281.76L286.17 257.04Z" fill="#FF767E"/>
<path fill-rule="evenodd" clip-rule="evenodd" d="M226.17 151.04C226.17 151.04 202.09 148.8 201.61 170.96C201.13 193.36 225.21 194 225.21 194L238.65 174.16L226.17 151.04Z" fill="#F8BEA1"/>
<path fill-rule="evenodd" clip-rule="evenodd" d="M220.89 160.48C215.69 161.44 212.97 166.64 212.81 171.6C212.65 176.48 214.89 181.44 220.41 182.24C221.77 182.4 222.81 183.76 222.57 185.12C222.41 186.48 221.05 187.52 219.69 187.28C211.29 186.08 207.37 178.88 207.69 171.44C208.01 164.16 212.41 156.88 219.93 155.52C221.29 155.28 222.65 156.16 222.89 157.52C223.13 158.88 222.25 160.24 220.89 160.48Z" fill="#FF767E"/>
<path fill-rule="evenodd" clip-rule="evenodd" d="M289.37 289.68L291.85 365.44L328.89 374.56L311.69 296.48L289.37 289.68Z" fill="#988CDF"/>
<path d="M299.93 231.36C302.41 231.36 304.01 231.04 304.17 231.04C305.05 230.88 305.69 230 305.53 229.12C305.37 228.24 304.49 227.6 303.61 227.76C303.45 227.76 290.09 230.16 279.61 219.6C278.97 218.96 277.93 218.96 277.29 219.6C276.65 220.24 276.65 221.28 277.29 221.92C285.29 230 294.65 231.36 299.93 231.36Z" fill="#2B2B51"/>
</svg>
