<svg width="516" height="516" viewBox="0 0 516 516" fill="none" xmlns="http://www.w3.org/2000/svg">
<path fill-rule="evenodd" clip-rule="evenodd" d="M515.44 258.32C515.44 330.4 485.84 395.52 438.16 442.24C419.36 460.72 397.68 476.32 373.92 488.32C369.84 490.4 365.6 492.4 361.36 494.24C361.2 494.32 360.96 494.4 360.72 494.48C358.56 495.44 356.4 496.32 354.24 497.2C353.44 497.52 352.56 497.84 351.76 498.24C344.72 500.96 337.6 503.44 330.32 505.6C328.96 506 327.68 506.4 326.32 506.72C314.08 510.08 301.52 512.56 288.64 514.08C287.28 514.24 286 514.4 284.64 514.48C275.92 515.36 267.04 515.84 258.08 515.84C252.32 515.84 246.64 515.68 240.96 515.28C239.6 515.2 238.32 515.12 236.96 514.96C224.48 513.92 212.24 512.08 200.4 509.36C199.04 509.04 197.76 508.72 196.4 508.4C185.2 505.68 174.32 502.16 163.76 498C162.4 497.44 161.12 496.96 159.76 496.4C148.96 491.92 138.48 486.72 128.48 480.88C128.4 480.8 128.24 480.72 128.16 480.72C124.64 478.64 121.2 476.56 117.84 474.32C103.52 464.96 90.1598 454.24 77.9198 442.32C30.1598 395.6 0.560059 330.4 0.560059 258.4C0.560059 116.24 115.84 0.960003 258 0.960003C400.16 0.880003 515.44 116.16 515.44 258.32Z" fill="#1C77C3"/>
<path fill-rule="evenodd" clip-rule="evenodd" d="M186.32 136.4L185.36 165.44C185.36 165.44 174.64 164.8 174.64 153.44C174.64 142.08 186.32 136.4 186.32 136.4Z" fill="#E6E6E6"/>
<path fill-rule="evenodd" clip-rule="evenodd" d="M128.4 480.88C138.4 486.72 148.88 491.92 159.68 496.4C161.04 496.96 162.32 497.52 163.68 498C174.24 502.16 185.12 505.68 196.32 508.4C197.68 508.72 198.96 509.04 200.32 509.36C212.24 512.08 224.4 514 236.88 514.96C238.24 515.04 239.52 515.2 240.88 515.28C246.56 515.68 252.24 515.84 258 515.84C266.96 515.84 275.84 515.36 284.56 514.48C285.92 514.32 287.2 514.24 288.56 514.08C301.44 512.56 314.08 510.08 326.24 506.72C327.6 506.4 328.96 506 330.24 505.6C337.52 503.44 344.72 501.04 351.68 498.24C352.56 497.92 353.36 497.6 354.16 497.2C356.32 496.32 358.48 495.44 360.64 494.48C360.88 494.4 361.04 494.32 361.28 494.24C365.52 492.4 369.68 490.4 373.84 488.32C397.6 476.32 419.28 460.72 438.08 442.24C430.8 406.24 419.68 365.52 404.24 343.84C401.2 339.52 397.6 335.6 393.76 332.08C393.2 331.6 392.64 331.04 392.08 330.56C390.96 329.6 389.76 328.64 388.56 327.68C387.36 326.72 386.16 325.84 384.96 324.96C384.48 324.56 383.92 324.24 383.36 323.84C382.64 323.36 381.92 322.88 381.2 322.4C380.56 322 379.92 321.6 379.28 321.2C378.64 320.8 378 320.4 377.36 320C377.28 319.92 377.2 319.92 377.12 319.84C375.44 318.8 373.68 317.84 371.92 316.96C365.44 313.52 358.64 310.64 351.92 308.32C350.64 307.84 349.36 307.44 348.08 307.04C343.6 305.52 339.2 304.32 334.88 303.2C333.6 302.88 332.24 302.56 330.96 302.24C328.64 301.68 326.4 301.2 324.16 300.8C322.48 300.48 320.88 300.16 319.28 299.84C313.44 298.8 308.16 298.08 303.84 297.6C301.44 297.28 299.28 297.12 297.52 296.96C294.96 296.72 293.2 296.64 292.4 296.64C292.16 296.64 292 296.64 292 296.64H286H236.88H228.32H225.12H223.84C223.84 296.64 223.12 296.64 221.76 296.72C219.04 296.88 213.68 297.36 206.8 298.24C205.52 298.4 204.08 298.64 202.72 298.88C200.96 299.12 199.12 299.44 197.2 299.84C195.92 300.08 194.56 300.32 193.2 300.56C191.12 300.96 188.96 301.44 186.8 301.92C185.36 302.24 183.92 302.56 182.48 302.96C174.08 305.04 165.04 307.84 156.16 311.44C139.12 318.48 122.64 328.8 111.76 343.92C98.0002 363.2 87.7601 397.52 80.4801 430.24C79.6001 434.32 78.7199 438.4 77.9199 442.32C90.0799 454.24 103.44 464.96 117.84 474.32C121.2 476.56 124.64 478.64 128.16 480.72L128.4 480.88Z" fill="#FCC149"/>
<path fill-rule="evenodd" clip-rule="evenodd" d="M438.08 442.24C419.28 460.72 397.6 476.32 373.84 488.32C369.76 490.4 365.52 492.4 361.28 494.24C361.12 494.32 360.88 494.4 360.64 494.48C358.48 495.44 356.32 496.32 354.16 497.2C354.32 484.4 354.88 469.44 355.84 452.24C358.72 401.2 370.96 345.28 377.12 319.92C377.2 320 377.28 320 377.36 320.08C378 320.48 378.64 320.88 379.28 321.28C379.92 321.68 380.56 322.08 381.2 322.48C381.92 322.96 382.64 323.44 383.36 323.92C383.92 324.24 384.4 324.64 384.96 325.04C386.16 325.92 387.36 326.8 388.56 327.76C389.76 328.72 390.88 329.68 392.08 330.64C392.64 331.12 393.2 331.68 393.76 332.16C397.6 335.68 401.12 339.6 404.24 343.92C419.76 365.52 430.8 406.24 438.08 442.24Z" fill="white"/>
<path fill-rule="evenodd" clip-rule="evenodd" d="M377.44 320.08C371.76 354.16 367.84 384.64 365.36 413.6C365.28 414.08 365.28 414.56 365.2 415.04C362.88 442.08 361.68 467.92 361.28 494.24C361.12 494.32 360.88 494.4 360.64 494.48C358.48 495.44 356.32 496.32 354.16 497.2C353.36 497.52 352.48 497.84 351.68 498.24C352.56 473.76 354.32 442.88 357.76 410.8C363.44 357.52 369.76 326.8 371.92 316.96C373.68 317.84 375.44 318.88 377.12 319.84C377.28 319.92 377.36 320 377.44 320.08Z" fill="#FBB018"/>
<path fill-rule="evenodd" clip-rule="evenodd" d="M156.08 311.36C150 327.92 140.64 357.92 134.72 398.48C133.04 409.68 131.68 421.76 130.72 434.56C129.44 451.2 128.64 466.72 128.08 480.72C124.56 478.64 121.12 476.56 117.76 474.32C103.44 464.96 90.0801 454.24 77.8401 442.32C78.6401 438.32 79.5199 434.24 80.3999 430.24C87.5999 397.52 97.9199 363.2 111.68 343.92C122.48 328.72 139.04 318.4 156.08 311.36Z" fill="white"/>
<path fill-rule="evenodd" clip-rule="evenodd" d="M128.4 480.88C130.16 450.4 133.76 418.72 138.48 385.76C137.2 390 135.92 394.24 134.72 398.48C127.68 423.12 121.92 448.32 117.76 474.32C121.12 476.56 124.56 478.64 128.08 480.72L128.4 480.88Z" fill="#D9D9D9"/>
<path d="M186.72 301.84C172.4 362.16 164.72 426.72 163.68 497.92C162.32 497.36 161.04 496.88 159.68 496.32C160.8 426.16 168.32 362.4 182.4 302.8C183.84 302.48 185.28 302.16 186.72 301.84Z" fill="#FBB018"/>
<path d="M351.92 308.32C338 368.88 330.88 433.84 330.32 505.52C328.96 505.92 327.68 506.32 326.32 506.64C326.88 434.08 334.08 368.32 348.16 307.04C349.36 307.44 350.64 307.84 351.92 308.32Z" fill="#FBB018"/>
<path d="M215.12 342V342.08L214.8 343.92C214.64 344.8 214.48 345.76 214.32 346.64C205.12 397.76 200.56 450.32 200.32 509.28C198.96 508.96 197.68 508.64 196.32 508.32C196.64 448.56 201.36 395.28 210.88 343.28V343.2L211.2 341.2L214.96 341.92L215.12 342Z" fill="#FBB018"/>
<path d="M303.04 344.64L302.72 346.4V346.56C293.36 398.8 288.72 453.84 288.56 513.92C287.2 514.08 285.92 514.24 284.56 514.32C284.64 455.2 289.12 400.96 298.16 349.44C298.4 348.24 298.56 347.04 298.8 345.84L299.12 344.16L299.2 343.84L299.52 343.92L303.04 344.64Z" fill="#FBB018"/>
<path d="M252.4 357.44L252.08 359.44C252 360 251.92 360.48 251.84 360.96C244.16 409.28 240.48 460.16 240.88 515.2C239.52 515.12 238.24 515.04 236.88 514.88C236.48 459.84 240.16 408.96 247.84 360.64C247.92 360 248.08 359.36 248.16 358.72L248.48 356.72L252.4 357.44Z" fill="#FBB018"/>
<path d="M334.88 303.2C333.76 306.4 328.56 320 316.96 333.36C313.2 337.76 308.4 342.32 302.72 346.48C301.28 347.52 299.68 348.56 298.08 349.6C287.44 356.24 273.68 361.12 256.56 361.12C254.96 361.12 253.36 361.12 251.76 360.96C251.2 360.96 250.56 360.88 250 360.88C249.2 360.8 248.48 360.8 247.76 360.72C232.8 359.2 222 353.68 214.24 346.72C213.04 345.6 211.84 344.48 210.8 343.36C206.4 338.72 203.2 333.68 200.88 328.96C194.24 315.6 193.2 302.88 193.12 300.48C194.48 300.24 195.84 299.92 197.12 299.76V300C197.12 300.16 197.68 313.6 204.56 327.28C207.44 332.96 210.96 337.92 215.04 341.92L215.2 342C224.16 350.8 235.92 355.76 250.4 356.8C268.88 358.08 285.2 353.84 299.12 344.24C299.28 344.16 299.36 344.08 299.44 344C304.64 340.4 309.44 336 313.92 330.8C324.56 318.56 329.76 305.68 331.04 302.16C332.32 302.56 333.6 302.88 334.88 303.2Z" fill="#FBB018"/>
<path fill-rule="evenodd" clip-rule="evenodd" d="M222.4 303.92C222.4 303.92 220.56 339.28 258.4 340.88C296.32 342.56 304.08 305.28 304.08 305.28L303.84 290.64H221.2L222.4 303.92Z" fill="white"/>
<path fill-rule="evenodd" clip-rule="evenodd" d="M373.84 488.32C369.76 490.4 365.52 492.4 361.28 494.24C361.12 494.32 360.88 494.4 360.64 494.48C361.04 467.68 362.64 441.76 365.12 415.04C365.12 414.56 365.2 414.08 365.28 413.6C365.68 409.04 366.16 404.4 366.72 399.76C368.72 431.04 370.48 460.48 373.84 488.32Z" fill="#D9D9D9"/>
<path opacity="0.5" fill-rule="evenodd" clip-rule="evenodd" d="M201.92 299.12C205.44 309.84 209.76 322.48 216.4 333.36C219.12 337.68 223.68 340.48 228.8 340.8C233.92 341.12 238.8 339.04 242.08 335.04C248.64 327.12 255.52 318.8 255.52 318.8L232.48 298.16L213.2 293.92L201.92 299.12Z" fill="#FBAA04"/>
<path opacity="0.5" fill-rule="evenodd" clip-rule="evenodd" d="M324.24 300.64C319.04 313.52 308.4 330.72 293.68 341.6C290.24 344.08 286 345.12 281.84 344.48C277.68 343.84 273.92 341.52 271.44 338.08C267.12 332 262.56 325.76 262.56 325.76L257.6 318.8L283.6 298.16L307.2 293.92L324.24 300.64Z" fill="#FBAA04"/>
<path fill-rule="evenodd" clip-rule="evenodd" d="M310.16 122.96L297.36 150.88L297.6 250.8V299.84C297.6 299.84 291.12 320.56 256.72 318.56C229.6 316.96 227.6 304.72 228.48 293.36C229.28 282.8 231.84 257.04 231.84 257.04C231.84 257.04 179.04 266.4 180.56 200.88C182.08 135.28 184.96 136.72 184.96 136.72C191.04 93.04 270.64 57.36 310.16 122.96Z" fill="#F8BEA1"/>
<path fill-rule="evenodd" clip-rule="evenodd" d="M258.48 132.08C259.12 143.76 259.44 152.64 261.36 160.72L279.12 155.76C286.96 171.6 288.16 183.04 288.8 189.76C290.88 180.4 292.08 168.08 291.76 150.96H297.68V250.88C297.68 250.88 319.52 209.2 321.52 146.64C322.32 122.16 310.72 122.96 310.72 122.96L258.48 132.08Z" fill="#E6E6E6"/>
<path fill-rule="evenodd" clip-rule="evenodd" d="M304.32 156.48C304.8 188.24 303.2 219.84 297.68 250.88L295.68 188.32L304.32 156.48Z" fill="#D6D6D6"/>
<path fill-rule="evenodd" clip-rule="evenodd" d="M217.84 188L210.08 205.28C209.76 206.08 209.76 207.04 210.24 207.76C210.64 208.48 211.44 208.96 212.24 208.96L221.52 208.88C222.8 208.88 223.76 207.76 223.76 206.32C223.76 204.96 222.64 203.84 221.36 203.84L215.92 203.92L222 190.32C222.56 189.12 222.08 187.6 220.96 186.96C219.76 186.32 218.4 186.8 217.84 188Z" fill="#FF767E"/>
<path fill-rule="evenodd" clip-rule="evenodd" d="M231.68 257.04L268.32 250.88C259.84 265.84 245.84 278.08 229.52 281.76L231.68 257.04Z" fill="#FF767E"/>
<path fill-rule="evenodd" clip-rule="evenodd" d="M291.68 151.04C291.68 151.04 315.76 148.8 316.24 170.96C316.72 193.36 292.64 194 292.64 194L292.24 188.64L291.68 151.04Z" fill="#F8BEA1"/>
<path fill-rule="evenodd" clip-rule="evenodd" d="M296.96 160.48C302.16 161.44 304.88 166.64 305.04 171.6C305.2 176.48 302.96 181.44 297.44 182.24C296.08 182.4 295.04 183.76 295.28 185.12C295.44 186.48 296.8 187.52 298.16 187.28C306.56 186.08 310.48 178.88 310.16 171.44C309.84 164.16 305.44 156.88 297.92 155.52C296.56 155.28 295.2 156.16 294.96 157.52C294.72 158.88 295.6 160.24 296.96 160.48Z" fill="#FF767E"/>
<path fill-rule="evenodd" clip-rule="evenodd" d="M206.16 296.32L229.04 278.08C234.32 295.52 243.28 308.88 255.52 318.72C255.52 318.72 251.92 321.04 247.44 324C242.24 327.44 235.92 328.56 229.84 327.28C223.76 325.92 218.48 322.24 215.2 316.96C211.36 310.64 208.24 303.84 206.16 296.32Z" fill="white"/>
<path fill-rule="evenodd" clip-rule="evenodd" d="M321.04 296.32L298.64 278.08C290.88 294.56 276.88 307.92 257.68 318.72C257.68 318.72 259.12 320 261.2 321.84C268 328 277.12 330.96 286.24 330C295.36 329.04 303.68 324.32 309.12 316.96C313.92 310.4 317.92 303.36 321.04 296.32Z" fill="white"/>
<path fill-rule="evenodd" clip-rule="evenodd" d="M258.48 131.68L263.52 157.28L283.12 152.32L289.36 188.32L279.28 156.48L261.6 160.88C259.04 152.24 256.64 142.48 258.48 131.68Z" fill="#D6D6D6"/>
<path d="M218.48 231.2C216.08 231.2 214.48 230.88 214.24 230.88C213.44 230.72 212.88 229.92 213.04 229.12C213.2 228.32 214 227.76 214.8 227.92C214.96 227.92 228.4 230.24 238.88 219.68C239.44 219.12 240.4 219.12 241.04 219.68C241.6 220.24 241.6 221.2 241.04 221.84C233.12 229.84 223.76 231.2 218.48 231.2Z" fill="#2B2B51"/>
<path d="M253.84 239.12C253.52 239.12 253.12 239.04 252.88 238.8C252.24 238.24 252.16 237.28 252.72 236.72L259.2 229.2L259.04 220.88C259.04 220.08 259.68 219.36 260.48 219.36C261.28 219.36 262 220 262 220.8L262.16 229.76C262.16 230.16 262 230.48 261.84 230.8L255.04 238.8C254.64 238.96 254.24 239.12 253.84 239.12Z" fill="#FF767E"/>
<path d="M199.76 239.12C199.36 239.12 198.96 238.96 198.64 238.64L191.68 230.64C191.44 230.32 191.28 230 191.28 229.6L191.6 220.64C191.6 219.84 192.32 219.2 193.12 219.2C193.92 219.2 194.56 219.92 194.56 220.72L194.24 229.04L200.8 236.56C201.36 237.2 201.28 238.16 200.64 238.64C200.48 239.04 200.08 239.12 199.76 239.12Z" fill="#FF767E"/>
</svg>
