<svg width="516" height="516" viewBox="0 0 516 516" fill="none" xmlns="http://www.w3.org/2000/svg">
<path fill-rule="evenodd" clip-rule="evenodd" d="M0.490234 257.68C0.490234 331.04 31.1302 397.2 80.4102 444.08C102.25 464.88 127.77 481.92 155.93 494.08C159.13 495.52 162.41 496.8 165.69 498.08C166.01 498.24 166.33 498.32 166.65 498.48C195.05 509.28 225.77 515.12 257.93 515.12C302.73 515.12 344.89 503.68 381.53 483.52C386.41 480.8 391.29 478 396.01 474.96C410.17 465.92 423.37 455.6 435.45 444.08C484.65 397.2 515.37 331.04 515.37 257.68C515.37 115.52 400.09 0.23999 257.93 0.23999C115.77 0.23999 0.490234 115.52 0.490234 257.68Z" fill="#1C77C3"/>
<path d="M198.767 125.711C212.259 122.48 220.577 108.924 217.346 95.4318C214.115 81.9399 200.558 73.622 187.066 76.8531C173.574 80.0842 165.256 93.6409 168.487 107.133C171.718 120.625 185.275 128.942 198.767 125.711Z" fill="#EFEFEF"/>
<path d="M211.85 151.52C227.005 151.52 239.29 138.554 239.29 122.56C239.29 106.566 227.005 93.6001 211.85 93.6001C196.695 93.6001 184.41 106.566 184.41 122.56C184.41 138.554 196.695 151.52 211.85 151.52Z" fill="#FF5A64"/>
<path fill-rule="evenodd" clip-rule="evenodd" d="M381.53 483.6C344.81 503.76 302.73 515.2 257.93 515.2C225.77 515.2 195.05 509.28 166.65 498.56C166.33 498.48 166.01 498.32 165.69 498.16C162.41 496.88 159.13 495.6 155.93 494.16C127.85 482 102.25 464.96 80.4102 444.16C87.6102 411.52 97.9302 377.28 111.61 358C120.65 345.36 133.61 336.08 147.53 329.28C166.65 319.92 187.61 315.28 202.73 312.96C215.29 311.04 223.77 310.72 223.77 310.72H224.73H243.93H279.61H292.09C292.09 310.72 292.49 310.72 293.13 310.8C295.93 310.96 304.09 311.52 314.97 313.28C321.13 314.32 328.09 315.68 335.53 317.6C359.77 323.84 388.25 335.68 404.17 358.08C404.49 358.56 404.89 359.04 405.21 359.6C405.53 360 405.77 360.4 406.01 360.88C406.01 360.88 406.01 360.96 406.09 360.96C406.33 361.36 406.57 361.76 406.89 362.16C407.45 363.04 407.93 363.92 408.49 364.8C408.73 365.2 408.97 365.6 409.21 366.08C410.01 367.52 410.81 368.96 411.61 370.48C412.41 372 413.13 373.6 413.93 375.2C414.33 376 414.65 376.8 415.05 377.6C415.29 378.16 415.53 378.72 415.77 379.28C415.85 379.52 416.01 379.84 416.09 380.08C416.49 380.96 416.81 381.76 417.21 382.64C417.29 382.8 417.37 383.04 417.45 383.2C417.61 383.68 417.85 384.08 418.01 384.56C418.09 384.8 418.17 385.04 418.25 385.2C418.57 386.08 418.97 386.96 419.29 387.84C419.29 387.92 419.37 388.08 419.37 388.16C419.61 388.8 419.85 389.44 420.09 390.08C420.57 391.36 420.97 392.56 421.45 393.92C422.17 396 422.89 398.08 423.61 400.16C423.85 400.88 424.09 401.68 424.33 402.4C424.73 403.68 425.13 404.96 425.53 406.32C425.61 406.4 425.61 406.56 425.61 406.72C425.93 407.84 426.33 408.88 426.65 410C427.05 411.28 427.45 412.64 427.77 413.92C428.01 414.8 428.25 415.68 428.49 416.56C428.73 417.36 428.97 418.24 429.21 419.04C429.37 419.6 429.53 420.16 429.69 420.8C430.41 423.6 431.21 426.4 431.85 429.2C432.09 430.24 432.41 431.28 432.65 432.4C433.05 433.92 433.37 435.44 433.77 436.96C434.33 439.44 434.89 441.84 435.45 444.32C423.37 455.84 410.17 466.16 396.01 475.2C391.29 478 386.49 480.88 381.53 483.6Z" fill="#FF5A64"/>
<path d="M385.69 447.36H164.65V476.72H385.69V447.36Z" fill="#FF3B47"/>
<path d="M382.25 380.8H161.21V410.08H382.25V380.8Z" fill="#FF3B47"/>
<path fill-rule="evenodd" clip-rule="evenodd" d="M80.3301 444.16C102.17 464.96 127.69 482 155.85 494.16C159.05 495.6 162.33 496.88 165.61 498.16C166.01 491.36 166.41 484.24 166.81 476.72C167.13 471.36 167.45 465.84 167.69 460.08C167.77 458.24 167.85 456.4 167.93 454.56C168.01 452.16 168.01 449.76 168.01 447.36C168.09 434.64 167.21 422.16 165.77 410.08C164.57 399.92 162.97 390.16 161.13 380.96C156.89 359.92 151.61 341.84 147.45 329.28C133.53 336.08 120.57 345.36 111.53 358C97.8501 377.2 87.6101 411.52 80.3301 444.16Z" fill="white"/>
<path fill-rule="evenodd" clip-rule="evenodd" d="M155.85 494.08C159.05 495.52 162.33 496.8 165.61 498.08C165.93 498.24 166.25 498.32 166.57 498.48C166.97 491.04 167.29 483.76 167.53 476.72C167.77 469.12 167.93 461.76 167.93 454.64C167.93 452.16 167.93 449.76 167.85 447.44C167.61 434.96 166.97 423.52 165.53 413.44C164.09 445.84 160.81 471.68 155.85 494.08Z" fill="#D9D9D9"/>
<path fill-rule="evenodd" clip-rule="evenodd" d="M335.53 317.44C346.41 331.36 360.33 352.88 369.61 380.8C370.73 384.24 371.85 387.84 372.81 391.44C373.85 395.12 374.73 399.12 375.53 403.44C375.93 405.6 376.33 407.76 376.65 410.08C378.41 421.28 379.61 434 380.41 447.36C380.97 456.96 381.37 466.8 381.53 476.64C381.53 478.96 381.61 481.2 381.61 483.52C386.49 480.8 391.37 478 396.09 474.96C410.25 465.92 423.45 455.6 435.53 444.08C434.97 441.68 434.41 439.2 433.85 436.72C433.53 435.2 433.13 433.68 432.73 432.16C432.49 431.12 432.25 430.08 431.93 428.96C431.21 426.16 430.49 423.36 429.77 420.56C429.61 420 429.45 419.44 429.29 418.8C429.05 418 428.81 417.12 428.57 416.32C428.33 415.44 428.09 414.56 427.85 413.68C427.45 412.4 427.05 411.04 426.73 409.76C426.41 408.64 426.09 407.52 425.69 406.48C425.69 406.4 425.61 406.24 425.61 406.08C425.21 404.8 424.81 403.44 424.41 402.16C424.17 401.44 423.93 400.64 423.69 399.92C422.97 397.84 422.25 395.68 421.53 393.68C421.05 392.4 420.57 391.12 420.17 389.84C419.93 389.2 419.69 388.56 419.45 387.92C419.45 387.84 419.37 387.68 419.37 387.6C419.05 386.72 418.65 385.84 418.33 384.96C418.25 384.72 418.17 384.48 418.09 384.32C417.93 383.84 417.69 383.44 417.53 382.96C417.45 382.72 417.37 382.56 417.29 382.4C416.89 381.52 416.57 380.64 416.17 379.84C416.09 379.6 415.93 379.28 415.85 379.04C415.61 378.48 415.37 377.92 415.13 377.36C414.73 376.56 414.41 375.76 414.01 374.96C413.29 373.36 412.49 371.76 411.69 370.24C410.89 368.72 410.09 367.2 409.29 365.84C409.05 365.44 408.81 365.04 408.57 364.56C408.01 363.68 407.53 362.8 406.97 361.92C406.73 361.52 406.49 361.12 406.17 360.72C406.17 360.72 406.17 360.64 406.09 360.64C405.85 360.24 405.53 359.84 405.29 359.36C404.97 358.88 404.57 358.32 404.25 357.84C388.17 335.52 359.77 323.68 335.53 317.44Z" fill="white"/>
<path fill-rule="evenodd" clip-rule="evenodd" d="M381.53 483.6C381.45 481.28 381.37 479.04 381.29 476.72C380.97 467.12 380.41 457.28 379.61 447.44C378.73 435.2 377.53 422.72 376.17 410.16C375.93 407.92 375.69 405.76 375.45 403.52C375.29 401.92 375.05 400.4 374.89 398.8C376.25 402.56 377.53 406.32 378.81 410.16C385.93 431.44 391.53 453.12 395.93 475.04C391.29 478 386.49 480.88 381.53 483.6Z" fill="#D9D9D9"/>
<path fill-rule="evenodd" clip-rule="evenodd" d="M263.21 324.96C263.21 324.96 272.25 372.64 301.13 353.6C330.01 334.56 313.93 311.52 313.93 311.52L292.49 299.28L263.21 324.96Z" fill="white"/>
<path fill-rule="evenodd" clip-rule="evenodd" d="M262.97 324.96C262.97 324.96 252.33 372.64 218.57 353.6C184.81 334.56 203.61 311.52 203.61 311.52L228.65 299.28L262.97 324.96Z" fill="white"/>
<path fill-rule="evenodd" clip-rule="evenodd" d="M228.41 132.56L225.37 275.28L224.25 309.44C224.25 309.44 228.97 329.76 263.37 327.76C290.49 326.16 294.33 314.32 293.45 302.96C292.65 292.4 290.09 266.64 290.09 266.64C290.09 266.64 342.89 276 341.37 210.48C339.85 144.88 336.97 148.96 336.97 148.96L259.21 113.68L228.41 132.56Z" fill="#F8BEA1"/>
<path fill-rule="evenodd" clip-rule="evenodd" d="M177.53 167.44C177.53 209.12 225.77 260 225.77 260L226.89 160.4C249.45 161.2 265.85 153.04 282.49 137.2C299.61 152.08 321.61 165.68 348.17 166.32C348.17 166.32 356.73 77.1199 274.81 77.1199C259.61 77.1199 246.41 79.52 235.05 83.6C231.45 84.88 228.09 86.4 224.89 88C191.93 104.8 177.53 137.92 177.53 167.44Z" fill="#EFEFEF"/>
<path fill-rule="evenodd" clip-rule="evenodd" d="M332.33 105.12C332.33 105.12 350.89 155.12 331.61 151.04C312.41 146.96 282.81 126.96 282.81 126.96C282.81 126.96 273.93 135.6 262.89 142.4C256.49 146.32 249.37 149.6 242.81 150.24C224.81 152 208.57 147.92 211.77 168.88C214.97 189.84 225.29 260 225.29 260L228.09 160.4C249.29 161.12 267.05 151.84 282.89 137.12C303.85 157.84 325.85 165.28 348.41 166.56C349.69 138.96 343.45 119.44 332.33 105.12Z" fill="#E5E5E5"/>
<path fill-rule="evenodd" clip-rule="evenodd" d="M305.13 196.8L312.89 214.08C313.21 214.88 313.21 215.84 312.73 216.56C312.33 217.28 311.53 217.76 310.73 217.76L301.45 217.68C300.17 217.68 299.21 216.56 299.21 215.12C299.21 213.76 300.33 212.64 301.61 212.64L307.05 212.72L300.97 199.12C300.41 197.92 300.89 196.4 302.01 195.76C303.21 195.12 304.57 195.6 305.13 196.8Z" fill="#FF767E"/>
<path fill-rule="evenodd" clip-rule="evenodd" d="M290.09 266.56C273.93 265.36 260.89 262.64 250.01 258.88C258.49 273.84 276.49 286.32 292.73 290L290.09 266.56Z" fill="#FF767E"/>
<path fill-rule="evenodd" clip-rule="evenodd" d="M230.33 160.48C230.33 160.48 206.25 158.24 205.77 180.4C205.29 202.8 229.37 203.44 229.37 203.44L242.81 183.6L230.33 160.48Z" fill="#F8BEA1"/>
<path fill-rule="evenodd" clip-rule="evenodd" d="M224.97 170C219.77 170.96 217.05 176.16 216.89 181.12C216.73 186 218.97 190.96 224.49 191.76C225.85 191.92 226.89 193.28 226.65 194.64C226.49 196 225.13 197.04 223.77 196.8C215.37 195.6 211.45 188.4 211.77 180.96C212.09 173.68 216.49 166.4 224.01 165.04C225.37 164.8 226.73 165.68 226.97 167.04C227.29 168.4 226.33 169.68 224.97 170Z" fill="#FF767E"/>
<path d="M224.81 88.16L226.41 87.8401C236.65 85.5201 247.61 88.3201 256.97 94.2401C271.37 103.36 280.65 120 283.45 132.4L283.77 134L287.05 133.28L286.65 131.68C283.69 118.64 273.93 101.12 258.73 91.4401C251.45 86.8001 243.13 84 234.89 83.76C231.37 85.04 228.01 86.48 224.81 88.16Z" fill="#E5E5E5"/>
<path d="M304.41 240C306.81 240 308.41 239.68 308.65 239.68C309.45 239.52 310.01 238.72 309.85 237.92C309.69 237.12 308.89 236.56 308.09 236.72C307.93 236.72 294.49 239.04 284.01 228.48C283.45 227.92 282.49 227.92 281.85 228.48C281.29 229.04 281.29 230 281.85 230.64C289.85 238.64 299.13 240 304.41 240Z" fill="#2B2B51"/>
<path d="M269.13 247.92C269.45 247.92 269.85 247.84 270.09 247.6C270.73 247.04 270.81 246.08 270.25 245.52L263.77 238L263.93 229.68C263.93 228.88 263.29 228.16 262.49 228.16C261.61 228.16 260.97 228.8 260.97 229.6L260.81 238.56C260.81 238.96 260.97 239.28 261.13 239.6L267.93 247.6C268.25 247.76 268.73 247.92 269.13 247.92Z" fill="#FF767E"/>
<path d="M323.21 247.92C323.61 247.92 324.01 247.76 324.33 247.44L331.29 239.44C331.53 239.12 331.69 238.8 331.69 238.4L331.37 229.44C331.37 228.64 330.65 228 329.85 228C329.05 228 328.41 228.72 328.41 229.52L328.73 237.84L322.17 245.36C321.61 246 321.69 246.96 322.33 247.44C322.49 247.84 322.81 247.92 323.21 247.92Z" fill="#FF767E"/>
<path d="M305.77 186.96C305.77 174.08 315.29 163.6 327.05 163.6C338.81 163.6 348.33 174.08 348.33 186.96C348.33 199.84 338.81 210.32 327.05 210.32C315.29 210.32 305.77 199.92 305.77 186.96ZM309.77 186.96C309.77 197.68 317.53 206.32 327.05 206.32C336.57 206.32 344.33 197.6 344.33 186.96C344.33 176.24 336.57 167.6 327.05 167.6C317.53 167.6 309.77 176.32 309.77 186.96Z" fill="#FF5A64"/>
<path d="M258.49 186.96C258.49 174.08 268.01 163.6 279.77 163.6C291.53 163.6 301.05 174.08 301.05 186.96C301.05 199.84 291.53 210.32 279.77 210.32C268.01 210.32 258.49 199.92 258.49 186.96ZM262.49 186.96C262.49 197.68 270.25 206.32 279.77 206.32C289.29 206.32 297.05 197.6 297.05 186.96C297.05 176.24 289.29 167.6 279.77 167.6C270.25 167.6 262.49 176.32 262.49 186.96Z" fill="#FF5A64"/>
<path d="M299.05 186.24H307.77C308.73 186.24 309.45 185.52 309.45 184.56C309.45 183.6 308.73 182.88 307.77 182.88H299.05C298.09 182.88 297.37 183.6 297.37 184.56C297.37 185.52 298.17 186.24 299.05 186.24Z" fill="#FF5A64"/>
<path d="M266.65 173.36C267.37 173.36 268.01 172.88 268.25 172.16C268.49 171.28 268.01 170.32 267.13 170.08L226.97 157.92C226.81 157.84 226.57 157.84 226.41 157.84L220.65 158.08C219.77 158.16 219.05 158.88 219.05 159.84C219.13 160.8 219.85 161.44 220.81 161.44L226.25 161.2L266.17 173.28C266.33 173.28 266.49 173.36 266.65 173.36Z" fill="#FF5A64"/>
</svg>
