<svg width="516" height="516" viewBox="0 0 516 516" fill="none" xmlns="http://www.w3.org/2000/svg">
<path fill-rule="evenodd" clip-rule="evenodd" d="M0.560059 257.68C0.560059 332.4 32.3999 399.68 83.1999 446.64C105.68 467.44 131.76 484.24 160.56 496C162.64 496.8 164.64 497.68 166.72 498.4C167.28 498.64 167.92 498.88 168.48 499.04C179.36 503.12 190.64 506.4 202.16 508.96C203.52 509.28 204.88 509.52 206.24 509.84C218 512.24 230 513.84 242.32 514.56C243.68 514.64 245.04 514.72 246.4 514.8C250.24 514.96 254.08 515.04 257.92 515.04C266.32 515.04 274.64 514.64 282.8 513.84C284.16 513.68 285.6 513.6 286.96 513.44C297.36 512.24 307.6 510.48 317.6 508.08C319.04 507.76 320.4 507.44 321.76 507.04C331.76 504.48 341.44 501.36 350.96 497.68C352.4 497.12 353.84 496.56 355.28 496C364.8 492.08 374.08 487.6 383.04 482.64L383.36 482.48C386.96 480.48 390.48 478.4 393.92 476.24C408 467.44 421.2 457.36 433.28 446.08C483.76 399.04 515.36 332 515.36 257.6C515.36 115.44 400.08 0.159912 257.92 0.159912C115.84 0.239912 0.560059 115.52 0.560059 257.68Z" fill="#1C77C3"/>
<path fill-rule="evenodd" clip-rule="evenodd" d="M83.2 446.72C105.68 467.52 131.76 484.32 160.56 496.08C162.64 496.88 164.64 497.76 166.72 498.48C167.28 498.72 167.92 498.96 168.48 499.12C179.36 503.2 190.64 506.48 202.16 509.04C203.52 509.36 204.88 509.6 206.24 509.92C218 512.32 230 513.92 242.32 514.64C243.68 514.72 245.04 514.8 246.4 514.88C250.24 515.04 254.08 515.12 257.92 515.12C266.32 515.12 274.64 514.72 282.8 513.92C284.16 513.76 285.6 513.68 286.96 513.52C297.36 512.32 307.6 510.56 317.6 508.16C319.04 507.84 320.4 507.52 321.76 507.12C331.76 504.56 341.44 501.44 350.96 497.76C352.4 497.2 353.84 496.64 355.28 496.08C364.8 492.16 374.08 487.68 383.04 482.72L383.36 482.56C386.96 480.56 390.48 478.48 393.92 476.32C408 467.52 421.2 457.44 433.28 446.16C432.88 444.48 432.48 442.88 432.08 441.28C431.76 440 431.44 438.72 431.04 437.44C430.56 435.68 430.08 433.92 429.6 432.16C429.36 431.28 429.12 430.4 428.88 429.6C428.48 428.32 428.08 427.04 427.76 425.76C427.36 424.48 426.96 423.2 426.56 422C426.32 421.12 426 420.32 425.76 419.52C425.44 418.72 425.2 417.84 424.96 417.04C424.64 416.16 424.32 415.28 424.08 414.4C423.6 413.04 423.12 411.76 422.64 410.48C422.32 409.68 422.08 408.88 421.76 408.16C421.44 407.36 421.12 406.64 420.88 405.84C420.72 405.52 420.64 405.12 420.48 404.8C420.4 404.64 420.32 404.48 420.24 404.24C419.6 402.72 418.96 401.12 418.32 399.6C418 398.8 417.6 398 417.28 397.2C415.92 394.16 414.56 391.28 413.12 388.56C412.88 388 412.56 387.52 412.24 386.96C411.2 385.04 410.24 383.28 409.12 381.44C408.8 380.8 408.4 380.24 408 379.68C407.68 379.2 407.44 378.72 407.12 378.24C407.04 378.16 406.96 378 406.88 377.92C406.72 377.68 406.64 377.52 406.48 377.28C406.08 376.72 405.76 376.16 405.36 375.6C404.96 375.04 404.64 374.48 404.24 374C404 373.6 403.68 373.28 403.44 372.88C403.2 372.56 403.04 372.32 402.8 372.08C402.48 371.68 402.16 371.2 401.84 370.8C401.76 370.72 401.68 370.56 401.52 370.48C400.24 368.8 398.8 367.2 397.36 365.68C396.88 365.12 396.32 364.64 395.84 364.08C395.44 363.68 395.12 363.36 394.72 362.96C394.4 362.64 394 362.32 393.68 362C393.52 361.84 393.28 361.68 393.12 361.52C392.96 361.36 392.72 361.2 392.56 361.04C391.6 360.16 390.72 359.36 389.76 358.56C389.28 358.16 388.8 357.76 388.32 357.36C387.84 356.96 387.36 356.56 386.88 356.16C386.56 355.92 386.16 355.6 385.84 355.36C384.88 354.64 383.92 353.92 382.96 353.2C382.56 352.96 382.24 352.64 381.84 352.4C381.36 352.08 380.96 351.76 380.48 351.52C380.4 351.44 380.4 351.44 380.32 351.44C380 351.2 379.76 351.04 379.44 350.88C379.36 350.8 379.2 350.72 379.12 350.72C378.72 350.48 378.32 350.16 377.92 349.92C377.52 349.68 377.12 349.44 376.72 349.12C376.24 348.8 375.76 348.56 375.36 348.24C374.96 348 374.56 347.76 374.16 347.52C373.76 347.28 373.36 347.04 372.88 346.8C372.48 346.56 372.08 346.32 371.6 346.08C371.36 345.92 371.04 345.76 370.8 345.6C370 345.12 369.2 344.72 368.4 344.32C367.52 343.84 366.64 343.36 365.76 342.96C364.8 342.48 363.84 342 362.8 341.52C361.84 341.04 360.8 340.56 359.84 340.16C358.88 339.76 357.84 339.28 356.88 338.88C356.32 338.64 355.76 338.4 355.2 338.16C352.8 337.12 350.4 336.16 348 335.28C347.52 335.12 347.12 334.96 346.64 334.8C344.8 334.16 343.04 333.52 341.28 332.88C336.72 331.36 332.24 330 327.92 328.8C326.32 328.32 324.72 327.92 323.2 327.6C323.12 327.6 323.04 327.6 322.96 327.52C321.92 327.28 320.88 327.04 319.84 326.8C318.16 326.4 316.56 326.08 314.96 325.68C314.48 325.6 313.92 325.44 313.44 325.36C313.36 325.36 313.28 325.28 313.12 325.28C312.24 325.12 311.36 324.88 310.56 324.72C310.08 324.64 309.6 324.56 309.2 324.48C308.72 324.4 308.32 324.32 307.84 324.24C306.96 324.08 306.08 323.92 305.28 323.76C304.88 323.68 304.48 323.6 304.08 323.52C303.68 323.44 303.28 323.36 302.96 323.28H302.88C302.56 323.2 302.24 323.2 301.92 323.12C301.76 323.12 301.52 323.04 301.36 323.04C300.8 322.96 300.24 322.88 299.68 322.8C298.8 322.64 298 322.56 297.28 322.48C297.2 322.48 297.2 322.48 297.12 322.48C296.8 322.4 296.48 322.4 296.16 322.32C295.12 322.16 294.24 322.08 293.52 322C293.28 322 293.12 321.92 292.96 321.92C292.88 321.92 292.88 321.92 292.8 321.92C292.72 321.92 292.56 321.92 292.48 321.92C292.32 321.92 292.24 321.92 292.16 321.92C292.08 321.92 292 321.92 292 321.92H223.68C223.68 321.92 223.6 321.92 223.44 321.92C223.28 321.92 223.04 322 222.72 322C222.48 322 222.24 322.08 221.92 322.08C221.68 322.08 221.52 322.16 221.2 322.16C220.96 322.16 220.72 322.24 220.48 322.24C220.4 322.24 220.4 322.24 220.32 322.24C220.24 322.24 220.08 322.24 219.92 322.32C218.56 322.48 216.88 322.72 214.96 323.04C214.88 323.04 214.8 323.04 214.72 323.04H214.64C213.12 323.28 211.52 323.52 209.76 323.84C209.04 324 208.32 324.08 207.6 324.24C207.2 324.32 206.8 324.4 206.4 324.48C205.68 324.64 204.96 324.8 204.16 324.96C201.76 325.44 199.12 326 196.4 326.64C195.92 326.72 195.52 326.88 195.04 326.96C193.2 327.36 191.28 327.84 189.36 328.4C188.64 328.56 188 328.8 187.28 328.96C186 329.28 184.72 329.68 183.44 330.08C182.96 330.24 182.4 330.4 181.92 330.56C180.88 330.88 179.84 331.2 178.8 331.52C178.64 331.6 178.4 331.6 178.24 331.68C176.96 332.08 175.6 332.56 174.24 332.96C172.8 333.44 171.36 333.92 169.92 334.48C169.36 334.64 168.88 334.88 168.32 335.04C167.6 335.36 166.8 335.6 166.08 335.92C165.52 336.16 165.04 336.32 164.48 336.56C164 336.8 163.44 336.96 162.96 337.2C161.68 337.76 160.32 338.32 159.04 338.88C158.4 339.12 157.84 339.44 157.2 339.68C155.36 340.48 153.44 341.36 151.6 342.32C151.44 342.4 151.28 342.48 151.12 342.56C150.32 342.96 149.6 343.28 148.8 343.68C148.72 343.68 148.72 343.76 148.64 343.76C147.68 344.24 146.72 344.72 145.84 345.28C145.04 345.76 144.16 346.16 143.36 346.72C143.12 346.88 142.8 347.04 142.56 347.2C142.08 347.52 141.6 347.76 141.12 348.08C140.72 348.32 140.32 348.56 139.92 348.8C139.2 349.28 138.48 349.68 137.76 350.16C137.28 350.48 136.72 350.8 136.24 351.2C136 351.36 135.84 351.44 135.6 351.6C135.2 351.92 134.72 352.16 134.32 352.48C133.76 352.88 133.2 353.28 132.64 353.68C130.56 355.2 128.56 356.72 126.64 358.32C126.32 358.56 126.08 358.8 125.84 359.04C124.96 359.76 124.08 360.56 123.2 361.36C122.88 361.68 122.48 362 122.16 362.32C121.76 362.72 121.28 363.12 120.88 363.52C120.4 364 119.92 364.4 119.44 364.96C118.32 366.08 117.28 367.2 116.24 368.4C116 368.72 115.76 369.04 115.44 369.28C115.12 369.68 114.72 370.16 114.4 370.56C113.92 371.12 113.52 371.68 113.04 372.24C112.96 372.32 112.88 372.48 112.8 372.56C112.32 373.12 111.92 373.76 111.52 374.32C99.5999 390.96 90.24 418.8 83.2 446.72Z" fill="#19FAB6"/>
<path fill-rule="evenodd" clip-rule="evenodd" d="M83.2 446.72C105.68 467.52 131.76 484.32 160.56 496.08C162.64 496.88 164.64 497.76 166.72 498.48C167.36 487.44 168 475.44 168.72 462.56C169.2 453.76 169.2 444.96 168.8 436.24C167.12 399.6 158.8 365.28 151.84 342.16C151.68 342.24 151.52 342.32 151.36 342.4C150.56 342.8 149.84 343.12 149.04 343.52C148.96 343.52 148.96 343.6 148.88 343.6C147.92 344.08 146.96 344.56 146.08 345.12C145.28 345.6 144.4 346 143.6 346.56C143.36 346.72 143.04 346.88 142.8 347.04C142.32 347.36 141.84 347.6 141.36 347.92C140.96 348.16 140.56 348.4 140.16 348.64C139.44 349.12 138.72 349.52 138 350C137.52 350.32 136.96 350.64 136.48 351.04C136.24 351.2 136.08 351.28 135.84 351.44C135.44 351.76 134.96 352 134.56 352.32C134 352.72 133.44 353.12 132.88 353.52C130.8 355.04 128.8 356.56 126.88 358.16C126.56 358.4 126.32 358.64 126.08 358.88C125.2 359.6 124.32 360.4 123.44 361.2C123.12 361.52 122.72 361.84 122.4 362.16C122 362.56 121.52 362.96 121.12 363.36C120.64 363.84 120.16 364.24 119.68 364.8C118.56 365.92 117.52 367.04 116.48 368.24C116.24 368.56 116 368.88 115.68 369.12C115.36 369.52 114.96 370 114.64 370.4C114.16 370.96 113.76 371.52 113.28 372.08C113.2 372.16 113.12 372.32 113.04 372.4C112.56 372.96 112.16 373.6 111.76 374.16C99.6001 390.96 90.24 418.8 83.2 446.72Z" fill="#05E6A2"/>
<path fill-rule="evenodd" clip-rule="evenodd" d="M160.56 496.08C162.64 496.88 164.64 497.76 166.72 498.48C167.28 498.72 167.92 498.96 168.48 499.12C169.28 475.68 169.36 452.48 169.04 432.64C168.96 433.84 168.88 435.04 168.72 436.16C167.04 457.36 164.24 477.6 160.56 496.08Z" fill="#04C289"/>
<path fill-rule="evenodd" clip-rule="evenodd" d="M348 335.28C357.68 350.32 367.84 370.08 374.32 393.92C380.16 415.44 382.64 449.52 383.04 482.72L383.36 482.56C386.96 480.56 390.48 478.48 393.92 476.32C408 467.52 421.2 457.44 433.28 446.16C432.88 444.48 432.48 442.88 432.08 441.28C431.76 440 431.44 438.72 431.04 437.44C430.56 435.68 430.08 433.92 429.6 432.16C429.36 431.28 429.12 430.4 428.88 429.6C428.48 428.32 428.08 427.04 427.76 425.76C427.36 424.48 426.96 423.2 426.56 422C426.32 421.12 426 420.32 425.76 419.52C425.44 418.72 425.2 417.84 424.96 417.04C424.64 416.16 424.32 415.28 424.08 414.4C423.6 413.04 423.12 411.76 422.64 410.48C422.32 409.68 422.08 408.88 421.76 408.16C421.44 407.36 421.12 406.64 420.88 405.84C420.72 405.52 420.64 405.12 420.48 404.8C420.4 404.64 420.32 404.48 420.24 404.24C419.6 402.72 418.96 401.12 418.32 399.6C418 398.8 417.6 398 417.28 397.2C415.92 394.16 414.56 391.28 413.12 388.56C412.88 388 412.56 387.52 412.24 386.96C411.2 385.04 410.24 383.28 409.12 381.44C408.8 380.8 408.4 380.24 408 379.68C407.68 379.2 407.44 378.72 407.12 378.24C407.04 378.16 406.96 378 406.88 377.92C406.72 377.68 406.64 377.52 406.48 377.28C406.08 376.72 405.76 376.16 405.36 375.6C404.96 375.04 404.64 374.48 404.24 374C404 373.6 403.68 373.28 403.44 372.88C403.2 372.56 403.04 372.32 402.8 372.08C402.48 371.68 402.16 371.2 401.84 370.8C401.76 370.72 401.68 370.56 401.52 370.48C400.24 368.8 398.8 367.2 397.36 365.68C396.88 365.12 396.32 364.64 395.84 364.08C395.44 363.68 395.12 363.36 394.72 362.96C394.4 362.64 394 362.32 393.68 362C393.52 361.84 393.28 361.68 393.12 361.52C392.96 361.36 392.72 361.2 392.56 361.04C391.6 360.16 390.72 359.36 389.76 358.56C389.28 358.16 388.8 357.76 388.32 357.36C387.84 356.96 387.36 356.56 386.88 356.16C386.56 355.92 386.16 355.6 385.84 355.36C384.88 354.64 383.92 353.92 382.96 353.2C382.56 352.96 382.24 352.64 381.84 352.4C381.36 352.08 380.96 351.76 380.48 351.52C380.4 351.44 380.4 351.44 380.32 351.44C380 351.2 379.76 351.04 379.44 350.88C379.36 350.8 379.2 350.72 379.12 350.72C378.72 350.48 378.32 350.16 377.92 349.92C377.52 349.68 377.12 349.44 376.72 349.12C376.24 348.8 375.76 348.56 375.36 348.24C374.96 348 374.56 347.76 374.16 347.52C373.76 347.28 373.36 347.04 372.88 346.8C372.48 346.56 372.08 346.32 371.6 346.08C371.36 345.92 371.04 345.76 370.8 345.6C370 345.12 369.2 344.72 368.4 344.32C367.52 343.84 366.64 343.36 365.76 342.96C364.8 342.48 363.84 342 362.8 341.52C361.84 341.04 360.8 340.56 359.84 340.16C358.88 339.76 357.84 339.28 356.88 338.88C356.32 338.64 355.76 338.4 355.2 338.16C352.8 337.12 350.4 336.16 348 335.28Z" fill="#05E6A2"/>
<path fill-rule="evenodd" clip-rule="evenodd" d="M394 476.32C390.4 461.6 386.16 447.04 381.44 432.72C382.56 450 383.28 466.64 383.52 482.56C386.96 480.56 390.48 478.48 394 476.32Z" fill="#04C289"/>
<path fill-rule="evenodd" clip-rule="evenodd" d="M227.76 148.16L224.72 290.88L223.6 325.04C223.6 325.04 228.32 345.36 262.72 343.36C289.84 341.76 293.68 329.92 292.8 318.56C292 308 289.44 282.24 289.44 282.24C289.44 282.24 342.24 291.6 340.72 226.08C339.2 160.48 336.32 164.56 336.32 164.56L258.56 129.28L227.76 148.16Z" fill="#F8BEA1"/>
<path d="M308 255.68C310.4 255.68 312 255.36 312.24 255.36C313.04 255.2 313.6 254.4 313.44 253.6C313.28 252.8 312.48 252.24 311.68 252.4C311.52 252.4 298.08 254.72 287.6 244.16C287.04 243.6 286.08 243.6 285.44 244.16C284.88 244.72 284.88 245.68 285.44 246.32C293.44 254.32 302.72 255.68 308 255.68Z" fill="#2B2B51"/>
<path fill-rule="evenodd" clip-rule="evenodd" d="M226.64 176.08C245.04 177.92 295.92 174.72 287.92 148.96C287.92 148.96 302.24 168.64 319.36 170.32C389.12 176.96 357.12 116.8 333.2 103.28C244.56 53.1199 222.72 136.48 222.72 136.48C222.72 136.48 178.72 139.84 197.04 197.6C215.36 255.36 225.2 280.8 225.2 280.8L226.64 176.08Z" fill="#2B2B51"/>
<path fill-rule="evenodd" clip-rule="evenodd" d="M287.84 148.88C287.84 148.88 274.88 165.92 251.2 165.68C227.44 165.44 212.4 160.88 213.84 179.84C215.28 198.8 225.04 280.8 225.04 280.8L226.72 176.08C265.6 176.4 293.84 170.32 287.84 148.88Z" fill="#1F1F3B"/>
<path fill-rule="evenodd" clip-rule="evenodd" d="M303.52 213.12L311.28 230.4C311.6 231.2 311.6 232.16 311.12 232.88C310.64 233.6 309.92 234.08 309.12 234.08L299.84 234C298.56 234 297.6 232.88 297.6 231.44C297.6 230.08 298.72 228.96 300 228.96L305.44 229.04L299.36 215.44C298.8 214.24 299.28 212.72 300.4 212.08C301.6 211.44 302.96 211.92 303.52 213.12Z" fill="#FF767E"/>
<path fill-rule="evenodd" clip-rule="evenodd" d="M289.44 282.24C273.28 281.04 260.24 278.32 249.36 274.56C257.84 289.52 275.44 304 291.68 307.68L289.44 282.24Z" fill="#FF767E"/>
<path fill-rule="evenodd" clip-rule="evenodd" d="M229.68 176.16C229.68 176.16 205.6 173.92 205.12 196.08C204.64 218.48 228.72 219.12 228.72 219.12L242.16 199.28L229.68 176.16Z" fill="#F8BEA1"/>
<path fill-rule="evenodd" clip-rule="evenodd" d="M224.32 185.6C219.12 186.56 216.4 191.76 216.24 196.72C216.08 201.6 218.32 206.56 223.84 207.36C225.2 207.6 226.24 208.88 226 210.24C225.84 211.6 224.48 212.64 223.12 212.4C214.72 211.2 210.8 204 211.12 196.56C211.44 189.28 215.84 182 223.36 180.64C224.72 180.4 226.08 181.28 226.32 182.64C226.64 184 225.76 185.36 224.32 185.6Z" fill="#FF767E"/>
<path fill-rule="evenodd" clip-rule="evenodd" d="M291.6 307.68C291.6 307.68 302.08 312.16 302.08 321.84C302.08 331.52 287.84 343.12 261.2 343.52C217.84 344.24 214.64 321.84 214.64 321.84C214.88 314.32 217.84 309.52 223.68 307.68C248.16 327.76 270.96 329.2 291.6 307.68Z" fill="#05E6A2"/>
<path fill-rule="evenodd" clip-rule="evenodd" d="M340.32 108.4C340.32 108.4 372.72 143.76 343.92 156.4C318 167.76 287.44 148.56 287.44 148.56C287.44 148.56 312.4 185.04 348.8 167.68C384.72 150.56 340.32 108.4 340.32 108.4Z" fill="#1F1F3B"/>
<path d="M323.04 327.52C341.68 379.36 351.28 438.56 351.04 497.76C352.48 497.2 353.92 496.64 355.36 496.08C355.36 478.88 354.56 461.52 352.88 444.24C348.96 403.44 340.56 364.64 327.92 328.8C326.32 328.32 324.72 327.92 323.2 327.6C323.12 327.6 323.12 327.6 323.04 327.52Z" fill="#05E6A2"/>
<path d="M292.4 326.88C292.4 326.96 292.4 326.96 292.48 327.04C293.36 329.36 294.16 331.6 294.96 333.92C312.88 386 320.48 444.4 317.76 508.16C319.2 507.84 320.56 507.52 321.92 507.12C324.56 442.64 316.64 383.52 298.24 330.8C297.6 329.04 297.04 327.28 296.4 325.52C296 324.4 294.8 323.92 293.76 324.32C293.36 324.48 293.04 324.72 292.8 325.04C292.32 325.6 292.16 326.24 292.4 326.88Z" fill="#05E6A2"/>
<path d="M256.08 327.52C258 332.8 259.76 338.08 261.52 343.44V343.52C278.32 396.16 285.52 453.28 282.88 513.92C284.24 513.76 285.68 513.68 287.04 513.52C289.52 452.96 282.4 396 265.76 343.36C265.76 343.28 265.76 343.28 265.68 343.2C263.84 337.44 261.92 331.76 259.92 326.16C259.52 325.12 258.32 324.56 257.28 324.96C256.24 325.28 255.68 326.48 256.08 327.52Z" fill="#05E6A2"/>
<path d="M215.52 326.32C236.32 383.92 245.28 447.04 242.32 514.64C243.68 514.72 245.04 514.8 246.4 514.88C249.2 450.08 241.2 389.36 222.32 333.6C221.36 330.72 220.32 327.76 219.28 324.88C218.88 323.84 217.68 323.28 216.64 323.6C216.08 323.84 215.68 324.24 215.44 324.72C215.36 325.28 215.28 325.76 215.52 326.32Z" fill="#05E6A2"/>
<path d="M202.16 509.04C203.52 509.36 204.88 509.6 206.24 509.92C206.8 489.68 206.24 469.68 204.48 450.08C200.8 408.8 192.08 368.96 178.4 331.6C177.12 332 175.76 332.48 174.4 332.88C194.64 388.08 203.92 447.04 202.16 509.04Z" fill="#05E6A2"/>
</svg>
