<svg width="516" height="516" viewBox="0 0 516 516" fill="none" xmlns="http://www.w3.org/2000/svg">
<path fill-rule="evenodd" clip-rule="evenodd" d="M0.490234 258.25C0.490234 332.41 31.8502 399.21 82.0102 446.17C104.17 466.89 129.93 483.77 158.33 495.69C161.21 496.89 164.09 498.01 166.97 499.13C167.45 499.29 167.93 499.45 168.41 499.69C196.25 510.01 226.41 515.69 257.85 515.69C301.05 515.69 341.85 505.05 377.61 486.17C377.85 486.01 378.09 485.93 378.33 485.77C381.61 484.09 384.81 482.25 387.93 480.41C404.49 470.73 419.85 459.21 433.69 446.25C483.93 399.29 515.29 332.41 515.29 258.25C515.29 116.09 400.01 0.810059 257.85 0.810059C115.69 0.810059 0.490234 116.09 0.490234 258.25Z" fill="#1C77C3"/>
<path fill-rule="evenodd" clip-rule="evenodd" d="M82.01 446.25C104.17 466.97 129.93 483.85 158.33 495.77C161.21 496.97 164.09 498.09 166.97 499.21C167.45 499.37 167.93 499.53 168.41 499.77C196.25 510.09 226.41 515.77 257.85 515.77C301.05 515.77 341.85 505.13 377.61 486.25C377.85 486.09 378.09 486.01 378.33 485.85C381.61 484.17 384.81 482.33 387.93 480.49C404.49 470.81 419.85 459.29 433.69 446.33C433.29 444.49 432.81 442.65 432.33 440.73C431.85 438.89 431.45 437.05 430.97 435.21C430.73 434.17 430.41 433.13 430.17 432.09C429.69 430.41 429.29 428.65 428.81 426.97C427.93 423.61 426.97 420.33 425.93 417.05C425.29 415.05 424.73 413.13 424.09 411.21C423.21 408.57 422.33 405.93 421.45 403.37C421.21 402.65 420.97 401.93 420.73 401.29C420.65 401.05 420.57 400.89 420.49 400.65C420.17 399.77 419.85 398.89 419.53 398.01C419.45 397.69 419.29 397.45 419.21 397.13C418.97 396.57 418.73 395.93 418.49 395.37C418.25 394.81 418.01 394.25 417.77 393.61C417.69 393.29 417.53 393.05 417.45 392.73C417.29 392.41 417.21 392.09 417.05 391.77C416.73 391.05 416.49 390.33 416.17 389.69C416.09 389.45 416.01 389.29 415.93 389.05C415.69 388.49 415.45 387.93 415.21 387.45C415.13 387.21 414.97 386.97 414.89 386.73C414.65 386.17 414.41 385.61 414.17 385.13C413.85 384.41 413.45 383.61 413.13 382.89C412.81 382.17 412.41 381.45 412.09 380.81C409.93 376.49 407.69 372.57 405.29 369.05C404.89 368.49 404.49 367.93 404.09 367.37C389.61 347.13 364.97 335.45 342.49 328.81C328.49 324.65 315.29 322.49 305.93 321.29C299.37 320.49 294.65 320.17 292.81 320.09C292.25 320.09 292.01 320.01 292.01 320.01H223.69C223.37 320.01 220.09 320.17 214.73 320.73C201.61 322.09 176.25 325.85 152.65 336.25C136.81 343.21 121.69 353.13 111.61 367.37C98.89 385.13 89.13 415.85 82.01 446.25Z" fill="#2F60BF"/>
<path fill-rule="evenodd" clip-rule="evenodd" d="M82.01 446.25C104.17 466.97 129.93 483.85 158.33 495.77C161.21 496.97 164.09 498.09 166.97 499.21C167.85 486.49 168.73 472.33 169.61 456.81C170.17 446.97 170.09 437.13 169.53 427.45C169.53 427.45 169.53 427.45 169.53 427.37C167.53 391.77 159.45 358.65 152.57 336.25C136.73 343.21 121.61 353.13 111.53 367.37C98.8899 385.13 89.13 415.85 82.01 446.25Z" fill="#6A91DA"/>
<path fill-rule="evenodd" clip-rule="evenodd" d="M342.57 328.73C350.41 344.25 359.69 365.61 367.21 392.01C368.57 396.73 369.77 402.09 370.81 407.93C374.89 429.69 377.29 458.17 378.33 485.85C381.61 484.17 384.81 482.33 387.93 480.49C404.49 470.81 419.85 459.29 433.69 446.33C433.29 444.49 432.81 442.65 432.33 440.73C431.85 438.89 431.45 437.05 430.97 435.21C430.73 434.17 430.41 433.13 430.17 432.09C429.69 430.41 429.29 428.65 428.81 426.97C427.93 423.61 426.97 420.33 425.93 417.05C425.29 415.05 424.73 413.13 424.09 411.21C423.21 408.57 422.33 405.93 421.45 403.37C421.21 402.65 420.97 401.93 420.73 401.29C420.65 401.05 420.57 400.89 420.49 400.65C420.17 399.77 419.85 398.89 419.53 398.01C419.45 397.69 419.29 397.45 419.21 397.13C418.97 396.57 418.73 395.93 418.49 395.37C418.25 394.81 418.01 394.25 417.77 393.61C417.69 393.29 417.53 393.05 417.45 392.73C417.29 392.41 417.21 392.09 417.05 391.77C416.73 391.05 416.49 390.33 416.17 389.69C416.09 389.45 416.01 389.29 415.93 389.05C415.69 388.49 415.45 387.93 415.21 387.45C415.13 387.21 414.97 386.97 414.89 386.73C414.65 386.17 414.41 385.61 414.17 385.13C413.85 384.41 413.45 383.61 413.13 382.89C412.81 382.17 412.41 381.45 412.09 380.81C409.93 376.49 407.69 372.57 405.29 369.05C404.89 368.49 404.49 367.93 404.09 367.37C389.69 346.97 365.05 335.37 342.57 328.73Z" fill="#6A91DA"/>
<path fill-rule="evenodd" clip-rule="evenodd" d="M370.73 407.05C370.73 407.37 370.81 407.69 370.81 407.93C374.25 435.53 376.65 461.53 377.69 486.17C377.93 486.01 378.17 485.93 378.41 485.77C381.69 484.09 384.89 482.25 388.01 480.41C384.01 455.77 378.57 431.45 370.73 407.05Z" fill="#274F9E"/>
<path fill-rule="evenodd" clip-rule="evenodd" d="M292.73 318.97L305.85 320.97C305.85 320.97 318.65 365.37 262.01 365.37C205.37 365.37 214.97 318.97 214.97 318.97H292.73Z" fill="white"/>
<path fill-rule="evenodd" clip-rule="evenodd" d="M227.69 146.33L224.65 289.05L223.53 323.21C223.53 323.21 228.25 343.53 262.65 341.53C289.77 339.93 293.61 328.09 292.73 316.73C291.93 306.17 289.37 280.41 289.37 280.41C289.37 280.41 342.17 289.77 340.65 224.25C339.13 158.65 336.25 162.73 336.25 162.73L258.49 127.45L227.69 146.33Z" fill="#F8BEA1"/>
<path d="M306.49 253.77C308.89 253.77 310.49 253.45 310.73 253.45C311.53 253.29 312.09 252.49 311.93 251.69C311.77 250.89 310.97 250.33 310.17 250.49C310.01 250.49 296.57 252.81 286.01 242.25C285.45 241.69 284.49 241.69 283.85 242.25C283.29 242.81 283.29 243.77 283.85 244.41C291.85 252.41 301.21 253.77 306.49 253.77Z" fill="#2B2B51"/>
<path fill-rule="evenodd" clip-rule="evenodd" d="M227.77 174.17C276.97 185.05 313.05 187.37 338.81 174.17C348.25 122.41 306.33 100.97 266.33 102.01C234.25 102.81 177.61 126.89 200.17 195.69C219.05 253.29 225.05 278.89 225.05 278.89L227.77 174.17Z" fill="#2B2B51"/>
<path fill-rule="evenodd" clip-rule="evenodd" d="M303.45 211.29L311.21 228.57C311.53 229.37 311.53 230.33 311.05 231.05C310.65 231.77 309.85 232.25 309.05 232.25L299.77 232.17C298.49 232.17 297.53 231.05 297.53 229.61C297.53 228.25 298.65 227.13 299.93 227.13L305.37 227.21L299.29 213.61C298.73 212.41 299.21 210.89 300.33 210.25C301.53 209.53 302.89 210.01 303.45 211.29Z" fill="#FF767E"/>
<path fill-rule="evenodd" clip-rule="evenodd" d="M289.37 280.41C273.21 279.21 260.17 276.49 249.29 272.73C257.77 287.69 275.37 302.17 291.61 305.85L289.37 280.41Z" fill="#FF767E"/>
<path fill-rule="evenodd" clip-rule="evenodd" d="M229.61 174.25C229.61 174.25 205.53 172.01 205.05 194.17C204.57 216.57 228.65 217.21 228.65 217.21L242.09 197.37L229.61 174.25Z" fill="#F8BEA1"/>
<path fill-rule="evenodd" clip-rule="evenodd" d="M224.25 183.77C219.05 184.73 216.33 189.93 216.17 194.89C216.01 199.77 218.25 204.73 223.77 205.53C225.13 205.69 226.17 207.05 225.93 208.41C225.77 209.77 224.41 210.81 223.05 210.57C214.65 209.37 210.73 202.17 211.05 194.73C211.37 187.45 215.77 180.17 223.29 178.81C224.65 178.57 226.01 179.45 226.25 180.81C226.57 182.17 225.61 183.53 224.25 183.77Z" fill="#FF767E"/>
<path fill-rule="evenodd" clip-rule="evenodd" d="M158.33 495.77C161.21 496.97 164.09 498.09 166.97 499.21C167.45 499.37 167.93 499.53 168.41 499.77C170.33 474.17 170.97 448.89 169.53 427.45C169.53 427.45 169.53 427.45 169.53 427.37C169.13 421.13 168.49 415.21 167.69 409.69C166.57 436.01 163.61 467.45 158.33 495.77Z" fill="#274F9E"/>
</svg>
