<svg width="516" height="516" viewBox="0 0 516 516" fill="none" xmlns="http://www.w3.org/2000/svg">
<path fill-rule="evenodd" clip-rule="evenodd" d="M515.35 258.25C515.35 326.89 488.47 389.29 444.71 435.37C420.71 460.65 391.59 481.13 359.03 495.05C356.63 496.09 354.15 497.05 351.75 498.01C349.83 498.73 347.83 499.53 345.91 500.25C318.47 510.25 288.87 515.69 257.99 515.69C212.79 515.69 170.31 504.01 133.43 483.53C133.11 483.37 132.79 483.21 132.47 482.97C128.07 480.57 123.83 477.93 119.59 475.29C107.19 467.37 95.5097 458.41 84.6297 448.49C32.9497 401.37 0.550049 333.61 0.550049 258.17C0.550049 116.01 115.83 0.72998 257.99 0.72998C400.15 0.80998 515.35 116.09 515.35 258.25Z" fill="#1C77C3"/>
<path fill-rule="evenodd" clip-rule="evenodd" d="M189.19 148.09C194.39 205.45 172.79 265.53 172.79 265.53L258.39 266.09L265.91 122.17L189.19 148.09Z" fill="#2B2B51"/>
<path fill-rule="evenodd" clip-rule="evenodd" d="M444.71 435.45C420.71 460.73 391.59 481.21 359.03 495.13C356.63 496.17 354.15 497.13 351.75 498.09C349.83 498.81 347.83 499.61 345.91 500.33C318.47 510.33 288.87 515.77 257.99 515.77C212.79 515.77 170.31 504.09 133.43 483.61C133.11 483.45 132.79 483.29 132.47 483.05C128.07 480.65 123.83 478.01 119.59 475.37C107.19 467.45 95.5099 458.49 84.6299 448.57C84.9499 447.05 85.19 445.53 85.51 444.01C86.39 439.45 87.4301 434.73 88.4701 430.09C95.7501 397.37 105.99 363.05 119.75 343.77C120.71 342.41 121.75 341.05 122.87 339.77C123.11 339.53 123.27 339.21 123.51 338.97C123.91 338.49 124.39 337.93 124.79 337.45C125.19 336.97 125.59 336.57 125.99 336.17C126.47 335.69 126.87 335.21 127.35 334.73C127.67 334.41 128.07 334.01 128.39 333.69C128.39 333.61 128.47 333.61 128.55 333.53C129.03 333.05 129.51 332.65 129.99 332.17C130.23 331.93 130.47 331.69 130.79 331.45C131.43 330.89 132.07 330.33 132.71 329.77C133.03 329.53 133.35 329.21 133.67 328.97C133.99 328.65 134.31 328.41 134.63 328.17C134.95 327.93 135.27 327.61 135.67 327.37C136.39 326.81 137.19 326.25 137.91 325.69C138.55 325.21 139.11 324.81 139.75 324.33C140.07 324.09 140.47 323.85 140.79 323.61C141.11 323.37 141.51 323.13 141.83 322.89C142.55 322.41 143.27 321.93 143.99 321.53C144.71 321.05 145.43 320.65 146.15 320.17C146.87 319.69 147.59 319.29 148.39 318.89C149.11 318.49 149.91 318.01 150.63 317.61C150.95 317.45 151.19 317.29 151.51 317.13C152.71 316.49 153.99 315.85 155.19 315.21C155.91 314.89 156.71 314.49 157.43 314.17C158.23 313.77 159.03 313.45 159.83 313.05C160.55 312.73 161.19 312.41 161.91 312.17C162.55 311.85 163.27 311.61 163.99 311.29C166.39 310.25 168.87 309.37 171.27 308.49C174.31 307.37 177.27 306.41 180.31 305.53C180.63 305.45 180.95 305.29 181.27 305.21C181.91 305.05 182.55 304.81 183.19 304.65C183.75 304.49 184.31 304.33 184.95 304.17C185.27 304.09 185.67 303.93 185.99 303.85C186.55 303.69 187.19 303.53 187.75 303.37C188.15 303.29 188.47 303.21 188.87 303.05C189.59 302.89 190.39 302.65 191.11 302.49C191.51 302.41 191.91 302.33 192.31 302.17C193.19 301.93 194.07 301.77 194.95 301.53C199.11 300.57 203.03 299.85 206.71 299.21C207.35 299.13 207.99 298.97 208.63 298.89C209.03 298.81 209.43 298.81 209.75 298.73C210.31 298.65 210.87 298.57 211.43 298.49C212.15 298.41 212.87 298.25 213.59 298.17C213.83 298.17 213.99 298.09 214.15 298.09C216.23 297.77 218.15 297.53 219.91 297.37C220.31 297.37 220.63 297.29 221.03 297.29C223.11 297.05 224.95 296.89 226.55 296.73C226.95 296.73 227.27 296.65 227.59 296.65C227.91 296.65 228.15 296.65 228.39 296.57C228.55 296.57 228.79 296.57 228.95 296.49C229.11 296.49 229.27 296.49 229.43 296.49C230.07 296.41 230.55 296.41 230.95 296.41C231.03 296.41 231.19 296.41 231.27 296.41H231.35C231.51 296.41 231.67 296.41 231.75 296.41C231.91 296.41 231.99 296.41 231.99 296.41H300.31C300.31 296.41 300.47 296.41 300.71 296.41C300.79 296.41 300.87 296.41 300.95 296.41C301.27 296.41 301.75 296.41 302.39 296.49C302.63 296.49 302.79 296.49 303.03 296.57C303.11 296.57 303.19 296.57 303.27 296.57H303.35C303.75 296.57 304.23 296.65 304.79 296.65C305.59 296.73 306.47 296.81 307.43 296.89C307.83 296.97 308.23 296.97 308.63 296.97C309.43 297.05 310.31 297.13 311.27 297.29C312.47 297.45 313.75 297.61 315.11 297.77C315.43 297.85 315.83 297.85 316.15 297.93C317.19 298.09 318.31 298.25 319.51 298.41C319.91 298.49 320.31 298.57 320.63 298.57C321.43 298.65 322.23 298.81 323.03 298.97C324.15 299.13 325.27 299.37 326.47 299.53C327.83 299.77 329.27 300.01 330.71 300.33C331.99 300.57 333.27 300.81 334.63 301.13C336.39 301.53 338.23 301.93 340.07 302.33C340.71 302.49 341.27 302.65 341.91 302.81C342.95 303.05 343.99 303.29 345.03 303.61C345.99 303.85 347.03 304.17 347.99 304.41C349.03 304.73 349.99 304.97 351.03 305.29C351.51 305.45 352.07 305.61 352.55 305.77C353.83 306.17 355.11 306.57 356.39 306.97C357.03 307.21 357.75 307.45 358.39 307.61C359.03 307.85 359.59 308.01 360.23 308.25C360.71 308.41 361.19 308.57 361.67 308.81C363.75 309.53 365.83 310.33 367.91 311.21C372.31 312.97 376.63 315.05 380.79 317.29C381.19 317.53 381.67 317.77 382.07 318.01C382.23 318.09 382.31 318.09 382.39 318.17C382.87 318.41 383.27 318.65 383.75 318.89C384.47 319.29 385.27 319.77 385.99 320.17C386.55 320.49 387.11 320.81 387.67 321.21C387.99 321.45 388.31 321.61 388.71 321.85C389.19 322.17 389.67 322.49 390.15 322.73C391.75 323.77 393.27 324.89 394.79 326.01C395.27 326.41 395.75 326.73 396.23 327.13C397.11 327.77 397.91 328.41 398.71 329.13C399.27 329.61 399.75 330.01 400.31 330.49C400.95 331.05 401.51 331.53 402.07 332.09C402.39 332.41 402.79 332.73 403.11 333.05C404.07 333.93 404.95 334.81 405.75 335.69C405.99 335.93 406.15 336.17 406.39 336.33C406.79 336.81 407.27 337.29 407.67 337.77C408.23 338.33 408.71 338.97 409.27 339.61C409.35 339.69 409.35 339.77 409.43 339.85C409.91 340.41 410.31 340.89 410.71 341.45C410.79 341.61 410.95 341.77 411.03 341.93C411.51 342.57 411.99 343.21 412.39 343.77C426.79 364.09 437.43 401.21 444.71 435.45Z" fill="#FD5760"/>
<path fill-rule="evenodd" clip-rule="evenodd" d="M444.71 435.45C420.71 460.73 391.59 481.21 359.03 495.13C356.63 496.17 354.15 497.13 351.75 498.09C349.11 470.17 347.03 435.61 348.71 404.81C348.79 403.45 348.87 402.09 348.95 400.65C352.23 350.09 363.51 320.65 367.75 311.21C372.15 312.97 376.47 315.05 380.63 317.29C381.03 317.53 381.51 317.77 381.91 318.01C382.07 318.09 382.15 318.09 382.23 318.17C382.71 318.41 383.11 318.65 383.59 318.89C384.31 319.29 385.11 319.77 385.83 320.17C386.39 320.49 386.95 320.81 387.51 321.21C387.83 321.45 388.15 321.61 388.55 321.85C389.03 322.17 389.51 322.49 389.99 322.73C391.59 323.77 393.11 324.89 394.63 326.01C395.11 326.41 395.59 326.73 396.07 327.13C396.95 327.77 397.75 328.41 398.55 329.13C399.11 329.61 399.59 330.01 400.15 330.49C400.79 331.05 401.35 331.53 401.91 332.09C402.23 332.41 402.63 332.73 402.95 333.05C403.91 333.93 404.79 334.81 405.59 335.69C405.83 335.93 405.99 336.17 406.23 336.33C406.63 336.81 407.11 337.29 407.51 337.77C408.07 338.33 408.55 338.97 409.11 339.61C409.19 339.69 409.19 339.77 409.27 339.85C409.75 340.41 410.15 340.89 410.55 341.45C410.63 341.61 410.79 341.77 410.87 341.93C411.35 342.57 411.83 343.21 412.23 343.77C426.79 364.09 437.43 401.21 444.71 435.45Z" fill="#FD3F49"/>
<path fill-rule="evenodd" clip-rule="evenodd" d="M351.75 498.09C349.83 498.81 347.83 499.61 345.91 500.33C343.59 463.21 343.83 424.09 348.15 391.21C348.47 394.33 348.71 397.53 349.03 400.65C352.07 434.73 354.95 467.93 359.11 495.13C356.63 496.09 354.23 497.13 351.75 498.09Z" fill="#FC0E1A"/>
<path fill-rule="evenodd" clip-rule="evenodd" d="M171.11 308.57C153.75 343.21 144.31 373.13 139.03 399.85C132.87 431.21 132.63 458.17 132.31 483.13C127.91 480.73 123.67 478.09 119.43 475.45C107.03 467.53 95.35 458.57 84.47 448.65C84.79 447.13 85.03 445.61 85.35 444.09C86.23 439.53 87.2698 434.81 88.3098 430.17C95.5898 397.45 105.83 363.13 119.59 343.85C120.55 342.49 121.59 341.13 122.71 339.85C122.95 339.61 123.11 339.29 123.35 339.05C123.75 338.57 124.23 338.01 124.63 337.53C125.03 337.05 125.43 336.65 125.83 336.25C126.31 335.77 126.71 335.29 127.19 334.81C127.51 334.49 127.91 334.09 128.23 333.77C128.23 333.69 128.31 333.69 128.39 333.61C128.87 333.13 129.35 332.73 129.83 332.25C130.07 332.01 130.31 331.77 130.63 331.53C131.27 330.97 131.91 330.41 132.55 329.85C132.87 329.61 133.19 329.29 133.51 329.05C133.83 328.73 134.15 328.49 134.47 328.25C134.79 328.01 135.11 327.69 135.51 327.45C136.23 326.89 137.03 326.33 137.75 325.77C138.39 325.29 138.95 324.89 139.59 324.41C139.91 324.17 140.31 323.93 140.63 323.69C140.95 323.45 141.35 323.21 141.67 322.97C142.39 322.49 143.11 322.01 143.83 321.61C144.55 321.13 145.27 320.73 145.99 320.25C146.71 319.77 147.43 319.37 148.23 318.97C148.95 318.57 149.75 318.09 150.47 317.69C150.79 317.53 151.03 317.37 151.35 317.21C152.55 316.57 153.83 315.93 155.03 315.29C155.75 314.97 156.55 314.57 157.27 314.25C158.07 313.85 158.87 313.53 159.67 313.13C160.39 312.81 161.03 312.49 161.75 312.25C162.39 311.93 163.11 311.69 163.83 311.37C166.31 310.33 168.71 309.45 171.11 308.57Z" fill="#FD3F49"/>
<path fill-rule="evenodd" clip-rule="evenodd" d="M142.39 391.21C135.51 426.57 133.91 457.85 133.35 483.53C133.03 483.37 132.71 483.21 132.39 482.97C127.99 480.57 123.75 477.93 119.51 475.29C123.35 449.69 129.83 424.81 139.03 399.77C140.15 396.97 141.27 394.09 142.39 391.21Z" fill="#FC0E1A"/>
<path fill-rule="evenodd" clip-rule="evenodd" d="M291.59 122.97L294.63 265.69L295.75 299.85C295.75 299.85 291.03 320.17 256.63 318.17C229.51 316.57 225.67 304.73 226.55 293.37C227.35 282.81 229.91 257.05 229.91 257.05C229.91 257.05 177.11 266.41 178.63 200.89C180.15 135.29 183.03 139.37 183.03 139.37L260.79 104.09L291.59 122.97Z" fill="#F8BEA1"/>
<path fill-rule="evenodd" clip-rule="evenodd" d="M226.31 281.45C224.07 289.45 219.43 294.49 213.43 297.85C209.35 336.57 215.67 390.81 242.95 412.65C280.47 399.21 298.87 345.85 303.11 296.49C297.91 293.61 295.67 287.37 294.31 280.25C270.31 294.65 247.67 294.49 226.31 281.45Z" fill="white"/>
<path d="M256.39 320.57C255.03 320.57 253.59 320.49 252.23 320.41C235.11 319.21 220.55 311.21 212.23 298.41C211.75 297.61 211.99 296.57 212.71 296.09C213.51 295.61 214.55 295.85 215.03 296.57C222.71 308.49 236.39 315.93 252.47 317.05C271.27 318.33 289.91 310.41 302.31 295.93C302.87 295.21 303.99 295.13 304.63 295.77C305.35 296.33 305.43 297.45 304.79 298.09C292.63 312.41 274.79 320.57 256.39 320.57Z" fill="#FD3F49"/>
<path fill-rule="evenodd" clip-rule="evenodd" d="M291.03 150.89C273.83 147.45 205.59 152.49 178.55 151.85C155.43 151.37 140.47 74.1701 248.95 56.4101C284.47 50.5701 342.63 84.49 336.87 142.73C332.39 187.45 354.95 176.57 336.07 218.81C326.63 239.93 355.11 266.17 355.11 266.17C350.87 266.81 313.75 267.05 294.23 266.17L291.03 150.89Z" fill="#2B2B51"/>
<path fill-rule="evenodd" clip-rule="evenodd" d="M215.83 187.93L208.07 205.21C207.75 206.01 207.75 206.97 208.23 207.69C208.71 208.41 209.43 208.89 210.23 208.89L219.51 208.81C220.79 208.81 221.75 207.69 221.75 206.25C221.75 204.89 220.63 203.77 219.35 203.77L213.91 203.85L219.99 190.25C220.55 189.05 220.07 187.53 218.95 186.89C217.83 186.17 216.39 186.73 215.83 187.93Z" fill="#FF767E"/>
<path fill-rule="evenodd" clip-rule="evenodd" d="M229.75 256.97L266.39 250.81C257.91 265.77 243.91 278.01 227.59 281.69L229.75 256.97Z" fill="#FF767E"/>
<path fill-rule="evenodd" clip-rule="evenodd" d="M289.67 150.89C289.67 150.89 313.75 148.65 314.23 170.81C314.71 193.21 290.63 193.85 290.63 193.85L277.19 174.01L289.67 150.89Z" fill="#F8BEA1"/>
<path fill-rule="evenodd" clip-rule="evenodd" d="M295.03 160.41C300.23 161.37 302.95 166.57 303.11 171.53C303.27 176.41 301.03 181.37 295.51 182.17C294.15 182.41 293.11 183.69 293.35 185.05C293.51 186.41 294.87 187.45 296.23 187.21C304.63 186.01 308.55 178.81 308.23 171.37C307.91 164.09 303.51 156.81 295.99 155.45C294.63 155.21 293.27 156.09 293.03 157.45C292.71 158.81 293.67 160.17 295.03 160.41Z" fill="#FF767E"/>
<path d="M215.91 231.05C213.51 231.05 211.91 230.73 211.67 230.73C210.87 230.57 210.31 229.77 210.47 228.97C210.63 228.17 211.43 227.61 212.23 227.77C212.39 227.77 225.83 230.17 236.31 219.53C236.87 218.97 237.83 218.97 238.47 219.53C239.03 220.09 239.03 221.05 238.47 221.69C230.47 229.77 221.19 231.05 215.91 231.05Z" fill="#2B2B51"/>
</svg>
