<svg width="516" height="516" viewBox="0 0 516 516" fill="none" xmlns="http://www.w3.org/2000/svg">
<path fill-rule="evenodd" clip-rule="evenodd" d="M0.240234 258.25C0.240234 332.41 31.6002 399.21 81.7602 446.17C101.44 464.65 124.16 480.01 148.88 491.61C151.6 492.89 154.32 494.09 157.04 495.29L158.48 495.93C188.96 508.65 222.48 515.69 257.6 515.69C300.88 515.69 341.6 505.05 377.36 486.17C377.6 486.01 377.84 485.93 378.08 485.77C381.36 484.09 384.56 482.25 387.68 480.41C404.24 470.73 419.6 459.21 433.44 446.17C483.6 399.21 515.04 332.33 515.04 258.17C515.04 116.01 399.76 0.72998 257.6 0.72998C115.52 0.80998 0.240234 116.09 0.240234 258.25Z" fill="#1C77C3"/>
<path fill-rule="evenodd" clip-rule="evenodd" d="M81.8401 445.61C101.52 464.25 124.24 479.77 148.96 491.45C151.68 492.73 154.4 493.93 157.12 495.13L158.56 495.77C189.04 508.65 222.56 515.69 257.68 515.69C300.96 515.69 341.68 504.89 377.44 485.93C377.68 485.77 377.92 485.69 378.16 485.53C381.44 483.77 384.64 482.01 387.76 480.09C404.32 470.33 419.68 458.73 433.52 445.61C426.4 414.97 416.64 383.93 403.92 365.93C402.96 364.49 401.92 363.21 400.8 361.85C400.24 361.21 399.68 360.57 399.12 359.93C398.8 359.53 398.48 359.21 398.16 358.89C397.12 357.77 396.08 356.65 394.96 355.53C394.56 355.13 394.08 354.65 393.6 354.25C393.04 353.69 392.48 353.21 391.92 352.73C391.36 352.25 390.8 351.77 390.24 351.29C387.92 349.37 385.52 347.45 382.96 345.77C382.48 345.37 381.92 345.05 381.36 344.73C380.72 344.33 380.08 343.93 379.44 343.45C378.88 343.05 378.24 342.73 377.68 342.33C377.6 342.25 377.44 342.17 377.28 342.09C376.56 341.69 375.92 341.29 375.2 340.89L375.12 340.81C374.72 340.57 374.32 340.33 373.92 340.17C373.36 339.85 372.88 339.61 372.32 339.29C371.6 338.89 370.88 338.49 370.16 338.17C368 337.05 365.76 336.01 363.6 334.97C362.96 334.65 362.24 334.33 361.6 334.09C361.52 334.01 361.36 334.01 361.28 333.93C360.72 333.69 360.16 333.45 359.52 333.21C358.16 332.65 356.72 332.09 355.36 331.53C354.72 331.29 354.08 331.05 353.44 330.81C352.64 330.49 351.92 330.25 351.12 330.01C351.04 329.93 350.88 329.93 350.72 329.85C350 329.61 349.28 329.37 348.64 329.13C347.76 328.81 346.8 328.49 345.84 328.25C345.2 328.01 344.64 327.85 344 327.69C343.92 327.69 343.84 327.61 343.76 327.61C342.96 327.37 342.24 327.13 341.52 326.97C340.72 326.73 340 326.49 339.2 326.33C338.4 326.09 337.68 325.93 336.88 325.69C336.08 325.45 335.36 325.29 334.56 325.05C333.84 324.89 333.12 324.65 332.32 324.49C330.16 323.93 328 323.45 325.92 323.05H325.84C324.48 322.73 323.12 322.49 321.84 322.25C320.72 322.01 319.68 321.85 318.64 321.61C317.76 321.45 316.88 321.29 316 321.13C315.92 321.13 315.84 321.13 315.76 321.05C315.2 320.97 314.72 320.89 314.16 320.81C313.76 320.73 313.36 320.65 312.96 320.65C312.64 320.57 312.32 320.57 312.08 320.49C311.52 320.41 310.96 320.33 310.4 320.25C310 320.17 309.6 320.17 309.2 320.09C308 319.93 306.8 319.77 305.76 319.61C305.44 319.53 305.12 319.53 304.88 319.53C304.56 319.45 304.32 319.45 304 319.45H303.92C303.44 319.37 302.96 319.37 302.48 319.29C301.68 319.21 300.96 319.13 300.24 319.05C299.84 318.97 299.44 318.97 299.04 318.89C298.88 318.89 298.64 318.89 298.48 318.81C298.32 318.81 298.08 318.81 297.92 318.73C297.2 318.65 296.56 318.57 295.92 318.57C295.44 318.57 295.04 318.49 294.64 318.49C293.68 318.41 292.96 318.41 292.4 318.33C291.84 318.33 291.6 318.25 291.6 318.25H223.28C223.2 318.25 222.96 318.25 222.56 318.25C222.4 318.25 222.32 318.25 222.16 318.25C221.68 318.25 221.04 318.33 220.24 318.41C219.44 318.49 218.56 318.57 217.52 318.65C217.28 318.65 217.12 318.73 216.88 318.73C216.8 318.73 216.72 318.73 216.64 318.73C216.32 318.73 216.08 318.81 215.76 318.81C215.44 318.81 215.2 318.89 214.88 318.89C214.48 318.97 214.08 318.97 213.68 319.05C213.2 319.13 212.8 319.13 212.32 319.21C212.08 319.21 211.84 319.29 211.6 319.29C211.2 319.37 210.88 319.37 210.48 319.45C208.8 319.69 206.88 319.93 204.96 320.17C204.24 320.25 203.52 320.41 202.72 320.49C200.64 320.81 198.4 321.21 196.08 321.61C195.12 321.77 194.08 322.01 193.04 322.17C192.24 322.33 191.52 322.49 190.72 322.65C190.24 322.73 189.76 322.81 189.28 322.97C187.76 323.29 186.16 323.61 184.56 324.01C184.24 324.09 183.84 324.17 183.44 324.25C181.6 324.73 179.68 325.21 177.76 325.69C177.2 325.85 176.64 326.01 176.08 326.17C174.96 326.49 173.84 326.81 172.64 327.13C172.16 327.29 171.6 327.45 171.04 327.61C170.96 327.61 170.88 327.69 170.72 327.69C170.16 327.85 169.68 328.01 169.12 328.17C168.56 328.33 167.92 328.57 167.36 328.73C166.64 328.97 165.92 329.21 165.2 329.45C164.8 329.61 164.4 329.77 164 329.85C163.44 330.09 162.8 330.25 162.24 330.49C161.12 330.89 159.92 331.37 158.8 331.77C158.24 332.01 157.76 332.17 157.2 332.41C154.8 333.37 152.4 334.41 150 335.53C148.32 336.33 146.64 337.13 145.04 337.93C144.48 338.25 143.92 338.49 143.36 338.81C142.56 339.21 141.76 339.69 141.04 340.09C140.24 340.49 139.52 340.97 138.72 341.45C137.2 342.33 135.68 343.29 134.16 344.25C133.44 344.73 132.64 345.21 131.92 345.77C131.28 346.17 130.72 346.57 130.08 347.05C128.88 347.93 127.68 348.81 126.48 349.77C126 350.17 125.52 350.57 125.04 350.97C124 351.85 122.96 352.73 122 353.61C121.76 353.85 121.44 354.09 121.2 354.33C120.8 354.73 120.4 355.13 120 355.53C119.76 355.77 119.6 355.93 119.36 356.17C118.32 357.21 117.28 358.25 116.32 359.37C116.16 359.61 115.92 359.77 115.76 360.01C115.28 360.57 114.72 361.21 114.24 361.77C113.76 362.33 113.28 362.97 112.8 363.53C112.56 363.77 112.4 364.01 112.24 364.25C111.84 364.81 111.36 365.37 110.96 366.01C109.2 368.49 107.52 371.13 105.92 374.01C105.68 374.41 105.44 374.89 105.2 375.29C104.96 375.69 104.72 376.09 104.56 376.49C104.32 376.89 104.08 377.37 103.84 377.77C102.64 380.17 101.44 382.65 100.24 385.29C100 385.77 99.8399 386.25 99.5999 386.73C98.6399 388.89 97.6799 391.21 96.7999 393.53C96.4799 394.33 96.1598 395.05 95.9198 395.85C95.5198 396.89 95.1198 397.93 94.7198 399.05C94.3198 400.09 93.9999 401.13 93.5999 402.17C92.7999 404.41 92.08 406.65 91.36 408.89C91.12 409.69 90.8 410.57 90.56 411.37C89.68 414.17 88.7999 416.97 87.9999 419.85C87.7599 420.81 87.4399 421.69 87.1999 422.65C86.7999 424.09 86.3999 425.53 85.9999 426.97C85.5999 428.41 85.2799 429.77 84.8799 431.21C84.6399 432.17 84.4 433.13 84.16 434.09C84.16 434.17 84.0799 434.33 84.0799 434.41C83.8399 435.45 83.5199 436.57 83.2799 437.61C83.1199 438.17 82.9599 438.81 82.8799 439.37C82.5599 440.57 82.3199 441.77 81.9999 442.97C82.2399 443.93 82.0001 444.81 81.8401 445.61Z" fill="#FE902E"/>
<path fill-rule="evenodd" clip-rule="evenodd" d="M81.8401 445.85C101.52 464.57 124.24 480.09 148.96 491.85C151.68 493.13 154.4 494.33 157.12 495.53C157.92 483.69 158.72 470.65 159.44 456.57C159.92 446.97 159.92 437.37 159.44 427.93C159.44 427.85 159.44 427.69 159.44 427.61C157.68 393.45 150.32 361.45 143.76 338.73C142.96 339.13 142.16 339.61 141.44 340.01C140.64 340.41 139.92 340.89 139.12 341.37C137.6 342.25 136.08 343.21 134.56 344.17C133.84 344.65 133.04 345.13 132.32 345.69C131.68 346.09 131.12 346.57 130.48 346.97C129.28 347.85 128.08 348.73 126.88 349.69C126.4 350.09 125.92 350.49 125.44 350.89C124.4 351.77 123.36 352.65 122.4 353.53C122.16 353.77 121.84 354.01 121.6 354.25C121.2 354.65 120.8 355.05 120.4 355.45C120.16 355.69 120 355.85 119.76 356.09C118.72 357.13 117.68 358.17 116.72 359.29C116.56 359.53 116.32 359.69 116.16 359.93C115.68 360.49 115.12 361.13 114.64 361.77C114.16 362.33 113.68 362.97 113.2 363.53C112.96 363.77 112.8 364.01 112.64 364.25C112.24 364.81 111.76 365.37 111.36 366.01C109.6 368.49 107.92 371.21 106.32 374.09C106.08 374.49 105.84 374.97 105.6 375.37C105.36 375.77 105.12 376.17 104.96 376.57C104.72 376.97 104.48 377.45 104.24 377.85C103.04 380.25 101.84 382.73 100.64 385.37C100.4 385.85 100.24 386.33 99.9999 386.81C99.0399 389.05 98.0799 391.29 97.1999 393.61C96.8799 394.41 96.5598 395.13 96.3198 395.93C95.9198 396.97 95.5198 398.01 95.1198 399.13C94.7198 400.17 94.3999 401.21 93.9999 402.25C93.1999 404.49 92.48 406.73 91.76 408.97C91.52 409.77 91.2 410.65 90.96 411.45C90.08 414.25 89.1999 417.13 88.3999 420.01C88.1599 420.97 87.8399 421.85 87.5999 422.81C87.1999 424.25 86.7999 425.69 86.3999 427.13C85.9999 428.57 85.6799 429.93 85.2799 431.37C85.0399 432.33 84.8 433.29 84.56 434.25C84.56 434.33 84.4799 434.49 84.4799 434.57C84.2399 435.61 83.9199 436.73 83.6799 437.77C83.5199 438.33 83.3599 438.97 83.2799 439.53C82.9599 440.73 82.7199 441.93 82.3999 443.13C82.2399 444.17 82.0001 444.97 81.8401 445.85Z" fill="#FEB36F"/>
<path fill-rule="evenodd" clip-rule="evenodd" d="M334.88 325.05C346.32 340.81 359.12 363.13 366.96 390.97C368.32 395.77 369.52 401.21 370.64 407.21C374.72 429.13 377.12 457.77 378.16 485.61C381.44 483.85 384.64 482.09 387.76 480.17C404.32 470.41 419.68 458.81 433.52 445.69C426.4 415.05 416.64 384.09 403.92 366.09C402.96 364.65 401.92 363.37 400.8 362.01C400.24 361.37 399.68 360.73 399.12 360.09C398.8 359.69 398.48 359.37 398.16 359.05C397.12 357.93 396.08 356.81 394.96 355.69C394.56 355.29 394.08 354.81 393.6 354.41C393.04 353.85 392.48 353.37 391.92 352.89C391.36 352.41 390.8 351.93 390.24 351.45C387.92 349.53 385.52 347.61 382.96 345.93C382.48 345.53 381.92 345.21 381.36 344.89C380.72 344.49 380.08 344.09 379.44 343.61C378.88 343.21 378.24 342.89 377.68 342.49C377.6 342.41 377.44 342.33 377.28 342.25C376.56 341.85 375.92 341.45 375.2 341.05L375.12 340.97C374.72 340.73 374.32 340.49 373.92 340.33C373.36 340.01 372.88 339.77 372.32 339.45C371.6 339.05 370.88 338.65 370.16 338.33C368 337.21 365.76 336.17 363.6 335.13C362.96 334.81 362.24 334.49 361.6 334.25C361.52 334.17 361.36 334.17 361.28 334.09C360.72 333.85 360.16 333.61 359.52 333.37C358.16 332.81 356.72 332.25 355.36 331.69C354.72 331.45 354.08 331.21 353.44 330.97C352.64 330.65 351.92 330.41 351.12 330.17C351.04 330.09 350.88 330.09 350.72 330.01C350 329.77 349.28 329.53 348.64 329.29C347.76 328.97 346.8 328.65 345.84 328.41C345.2 328.17 344.64 328.01 344 327.85C343.92 327.85 343.84 327.77 343.76 327.77C342.96 327.53 342.24 327.29 341.52 327.13C340.72 326.89 340 326.65 339.2 326.49C338.4 326.25 337.68 326.09 336.88 325.85C336.4 325.45 335.68 325.21 334.88 325.05Z" fill="#FEB36F"/>
<path fill-rule="evenodd" clip-rule="evenodd" d="M370.56 406.09C370.56 406.49 370.64 406.81 370.72 407.13C374.16 434.89 376.48 461.05 377.6 485.85C377.84 485.69 378.08 485.61 378.32 485.45C381.6 483.69 384.8 481.93 387.92 480.01C383.76 455.21 378.4 430.65 370.56 406.09Z" fill="#F37301"/>
<path fill-rule="evenodd" clip-rule="evenodd" d="M271.04 346.25C271.04 346.25 274.08 408.33 275.36 434.65C275.52 437.69 274.4 440.65 272.32 442.81C270.24 444.97 267.36 446.25 264.32 446.25C260.64 446.25 257.6 443.37 257.44 439.69C256.4 417.29 252.96 345.53 252.96 345.53L261.68 340.09L271.04 346.25Z" fill="white"/>
<path opacity="0.25" fill-rule="evenodd" clip-rule="evenodd" d="M288.96 313.69C282.24 328.09 275.28 332.17 261.52 340.01L288.72 369.69C298.4 360.97 301.92 338.65 302.96 320.73L288.96 313.69Z" fill="black"/>
<path opacity="0.25" fill-rule="evenodd" clip-rule="evenodd" d="M224.48 313.69C231.2 328.09 245.04 338.49 261.52 340.01L236.56 369.69C225.6 361.45 215.04 344.25 213.92 326.33L224.48 313.69Z" fill="black"/>
<path fill-rule="evenodd" clip-rule="evenodd" d="M227.52 144.65L224.48 287.37L223.36 321.53C223.36 321.53 228.08 341.85 262.48 339.85C289.6 338.25 293.44 326.41 292.56 315.05C291.76 304.49 289.2 278.73 289.2 278.73C289.2 278.73 342 288.09 340.48 222.57C338.96 156.97 336.08 161.05 336.08 161.05L258.32 125.77L227.52 144.65Z" fill="#F8BEA1"/>
<path fill-rule="evenodd" clip-rule="evenodd" d="M291.76 306.25C286.08 321.93 276.4 333.53 261.52 340.01L288.32 361.93C296.8 350.49 303.2 337.21 304.24 319.29L291.76 306.25Z" fill="white"/>
<path fill-rule="evenodd" clip-rule="evenodd" d="M223.36 306.25C232.72 323.29 245.68 334.09 261.52 340.01L237.12 361.93C222.24 354.09 211.76 340.89 210.72 318.33L223.36 306.25Z" fill="white"/>
<path fill-rule="evenodd" clip-rule="evenodd" d="M226.32 172.57C227.12 175.37 232.8 154.41 314.16 168.97C382.32 181.13 363.92 123.37 340.56 108.89C263.2 60.8102 217.2 133.37 217.2 133.37C217.2 133.37 178.4 136.33 196.72 194.09C215.04 251.85 224.88 277.29 224.88 277.29L226.32 172.57Z" fill="#2B2B51"/>
<path fill-rule="evenodd" clip-rule="evenodd" d="M289.12 278.73C272.96 277.53 259.92 274.81 249.04 271.05C257.52 286.01 275.12 300.49 291.36 304.17L289.12 278.73Z" fill="#FF767E"/>
<path fill-rule="evenodd" clip-rule="evenodd" d="M253.36 232.89C253.36 232.89 345.84 208.73 344.08 238.73C344.08 238.73 345.52 284.65 297.28 287.13C242 289.93 231.84 249.61 228.64 217.29C225.44 184.89 226.56 164.17 226.56 164.17L239.2 163.45C239.52 172.97 239.92 182.97 241.04 192.81C242.8 207.45 246.08 221.61 253.36 232.89Z" fill="#2B2B51"/>
<path d="M306.32 252.09C308.72 252.09 310.32 251.77 310.56 251.77C311.36 251.61 311.92 250.81 311.76 250.01C311.6 249.21 310.8 248.65 310 248.81C309.84 248.81 296.4 251.13 285.84 240.57C285.28 240.01 284.32 240.01 283.68 240.57C283.04 241.13 283.12 242.09 283.68 242.73C291.68 250.81 301.04 252.09 306.32 252.09Z" fill="white"/>
<path fill-rule="evenodd" clip-rule="evenodd" d="M303.2 205.77L310.96 223.05C311.28 223.85 311.28 224.81 310.8 225.53C310.4 226.25 309.6 226.73 308.8 226.73L299.52 226.65C298.24 226.65 297.28 225.53 297.28 224.09C297.28 222.73 298.4 221.61 299.68 221.61L305.12 221.69L299.04 208.09C298.48 206.89 298.96 205.37 300.08 204.73C301.28 204.09 302.72 204.57 303.2 205.77Z" fill="#FF767E"/>
<path fill-rule="evenodd" clip-rule="evenodd" d="M226.48 171.77C226.48 171.77 205.36 170.41 204.88 192.57C204.4 214.97 228.48 215.61 228.48 215.61L226.4 197.13V171.77H226.48Z" fill="#F8BEA1"/>
<path fill-rule="evenodd" clip-rule="evenodd" d="M224.08 182.09C218.88 183.05 216.16 188.25 216 193.21C215.84 198.09 218.08 203.05 223.6 203.85C224.96 204.01 226 205.37 225.76 206.73C225.6 208.09 224.24 209.13 222.88 208.89C214.48 207.69 210.56 200.49 210.88 193.05C211.2 185.77 215.6 178.49 223.12 177.13C224.48 176.89 225.84 177.77 226.08 179.13C226.4 180.49 225.44 181.85 224.08 182.09Z" fill="#FF767E"/>
<path fill-rule="evenodd" clip-rule="evenodd" d="M157.12 495.53C154.32 494.33 151.6 493.13 148.96 491.85C153.76 464.33 156.48 434.25 157.52 408.89C158.4 414.73 159.04 420.97 159.44 427.61C159.44 427.69 159.44 427.85 159.44 427.93C160.72 448.33 160.24 471.93 158.56 496.09L157.12 495.53Z" fill="#F37301"/>
</svg>
