<svg xmlns="http://www.w3.org/2000/svg" xmlns:xlink="http://www.w3.org/1999/xlink" viewBox="0 0 1080 1080"><defs><style>.cls-1{fill:#e0eefb;}.cls-2,.cls-6{fill:#3bbfc3;}.cls-3{isolation:isolate;}.cls-4{clip-path:url(#clip-path);}.cls-5{clip-path:url(#clip-path-2);}.cls-6{mix-blend-mode:multiply;}.cls-7{fill:#fff;}.cls-8{fill:#b0e2e0;}.cls-9{fill:#4cccd3;}.cls-10{fill:#e1fffe;}.cls-11{fill:#ffb3b3;}.cls-12{fill:#837af9;}.cls-13{fill:#fdffff;}.cls-14{fill:none;stroke:#000;stroke-miterlimit:10;}.cls-15{fill:#c11c57;}.cls-16{fill:#211931;}.cls-17{fill:#3555af;}.cls-18{fill:#3986d7;}.cls-19{fill:#32324c;}.cls-20{fill:#e63067;}.cls-21{fill:#ffaf82;}.cls-22{fill:#f88968;}</style><clipPath id="clip-path"><circle id="_Ellipse_" data-name="&lt;Ellipse&gt;" class="cls-1" cx="540" cy="540" r="540"/></clipPath><clipPath id="clip-path-2"><rect class="cls-2" x="135.57" y="121.28" width="339.89" height="342.58" rx="30" ry="30"/></clipPath></defs><title>3</title><g class="cls-3"><g id="Layer_2" data-name="Layer 2"><g id="Circle"><g id="Layer_22" data-name="Layer 22"><circle id="_Ellipse_2" data-name="&lt;Ellipse&gt;" class="cls-1" cx="540" cy="540" r="540"/><g class="cls-4"><rect class="cls-2" x="135.57" y="121.28" width="339.89" height="342.58" rx="30" ry="30"/><g class="cls-5"><path class="cls-6" d="M511.46,450.54V300.88l-.06-.07c-1.22-1.26-2.46-2.51-3.73-3.73s-2.46-2.51-3.73-3.73-2.46-2.5-3.73-3.72-2.46-2.51-3.73-3.73-2.46-2.51-3.73-3.73-2.46-2.51-3.73-3.73-2.46-2.51-3.72-3.73-2.47-2.51-3.73-3.73-2.47-2.51-3.73-3.73-2.46-2.51-3.73-3.72-2.46-2.51-3.73-3.74-2.46-2.5-3.73-3.72-2.46-2.51-3.73-3.73-2.46-2.51-3.72-3.73-2.47-2.51-3.74-3.73-2.46-2.51-3.72-3.73-2.47-2.51-3.73-3.73-2.47-2.51-3.73-3.73-2.46-2.5-3.73-3.72-2.46-2.51-3.73-3.74-2.46-2.5-3.73-3.72-2.46-2.51-3.73-3.73-2.46-2.51-3.72-3.73-2.47-2.51-3.74-3.73-2.46-2.51-3.72-3.73-2.46-2.51-3.73-3.73-2.46-2.51-3.73-3.73-2.46-2.5-3.73-3.72a142.16,142.16,0,1,0-201,201c1.22,1.27,2.46,2.51,3.73,3.74s2.46,2.5,3.73,3.72,2.46,2.51,3.73,3.73,2.46,2.51,3.73,3.73,2.46,2.51,3.72,3.73,2.47,2.51,3.73,3.73,2.47,2.51,3.73,3.73,2.47,2.51,3.73,3.73,2.46,2.5,3.73,3.72,2.46,2.51,3.73,3.73,2.46,2.51,3.73,3.73,2.46,2.51,3.73,3.73,2.46,2.51,3.73,3.73,2.46,2.51,3.72,3.73,2.47,2.51,3.73,3.73,2.47,2.51,3.73,3.73,2.46,2.51,3.73,3.73,2.46,2.5,3.73,3.72,2.46,2.51,3.73,3.73,2.46,2.51,3.73,3.73,2.46,2.51,3.73,3.73,2.46,2.51,3.73,3.73,2.46,2.51,3.72,3.73,2.47,2.51,3.73,3.73,2.46,2.51,3.73,3.72,2.46,2.51,3.73,3.74,2.46,2.5,3.73,3.72,2.46,2.51,3.73,3.73c.56.58,1.13,1.14,1.7,1.7H458.48A53.13,53.13,0,0,0,511.46,450.54Z"/></g><path class="cls-7" d="M306.46,128.53a165,165,0,1,0,165,165A165,165,0,0,0,306.46,128.53Zm10.31,308.82v-20.1H296.14v20.1A144.37,144.37,0,0,1,162.62,303.83h20.1V283.2h-20.1A144.37,144.37,0,0,1,296.14,149.68v20.1h20.63v-20.1A144.37,144.37,0,0,1,450.29,283.2h-20.1v20.63h20.1A144.37,144.37,0,0,1,316.77,437.35Z"/><path class="cls-7" d="M200.86,382c1.24-3.31,19.11-20.73,25.27-26.57a39.3,39.3,0,0,0,9.8-14.6,27.73,27.73,0,0,0,1-3.35,13.14,13.14,0,0,1,.81-3.6h0a13.4,13.4,0,0,1,18.47-7.36l35.25-33,8.26,9-37.1,30.73a13.24,13.24,0,0,1,1.14,4.8A13.44,13.44,0,0,1,251,352a12.89,12.89,0,0,0-1.94.34H249c-10.24,2-19,9.78-19.06,9.85s-6.69,5.65-13.34,11c-14.11,11.42-14.61,11-15.44,10.24A1.27,1.27,0,0,1,200.86,382Zm37-40.45a41.57,41.57,0,0,1-10.31,15.37c-8.5,8.06-18.08,17.7-22.42,22.7,5-3.69,14.72-11.56,23.46-18.93.34-.31,9.19-8.16,20-10.31a14.39,14.39,0,0,1,2.32-.39A11.39,11.39,0,0,0,261.75,338a11.15,11.15,0,0,0-1.27-4.71l-.38-.73.64-.53,36.05-29.86-5.4-5.84L256.58,329l-.66-.36a11.27,11.27,0,0,0-6.08-1.45,11.4,11.4,0,0,0-10.15,7.39h0a11.47,11.47,0,0,0-.69,3.12l0,.15A31.45,31.45,0,0,1,237.85,341.51Z"/><path class="cls-7" d="M291.45,294.92l-35,32.8A12.41,12.41,0,0,0,238,337.6a38.71,38.71,0,0,1-11.15,18.53c-9.59,9.1-26.1,25.6-25,26.57s27.42-21.27,27.42-21.27,8.89-8,19.54-10.09a13.64,13.64,0,0,1,2.15-.37,12.41,12.41,0,0,0,11.84-13,12.27,12.27,0,0,0-1.38-5.13l36.88-30.55Z"/><path class="cls-7" d="M313.11,275.86l-11.68-.16,2-27.91a13.17,13.17,0,0,1-5.71-21.11l0-.07a12.71,12.71,0,0,0,1.06-1.61c5.62-8.89,5.84-14.44,5.84-14.5,2-20.59,2.73-20.59,3.59-20.59s2.48.15,2.48,19.78c0,9,3.72,13.26,5.72,15.54a14.38,14.38,0,0,1,1.06,1.28,13.18,13.18,0,0,1-5.35,21.2Zm-10-1.67,8.44.12-.91-27.71.56-.17a11.64,11.64,0,0,0,5.18-18.93l-.07-.09a13.78,13.78,0,0,0-1-1.17c-2.14-2.43-6.11-6.94-6.11-16.55,0-10.16-.47-14.75-.84-16.79-.62,3.37-1.5,10.87-2.15,17.7,0,.18-.21,5.92-6.06,15.18a14.58,14.58,0,0,1-1.17,1.77l-.1.13a11.64,11.64,0,0,0,5.57,18.82l.6.17Z"/><path class="cls-7" d="M312.32,275.08l-.93-27.92a12.25,12.25,0,0,0,5.71-3.72,12.42,12.42,0,0,0-.18-16.45c-1.32-2-6.94-6-6.94-17.3,0-13.21-.8-19-1.71-19s-2.82,19.84-2.82,19.84-.14,5.67-5.93,14.85a15.13,15.13,0,0,1-1.12,1.7l-.09.11a12.4,12.4,0,0,0,5.94,20l-2,27.72Z"/><path class="cls-7" d="M307.91,306.37a16.94,16.94,0,1,1,6.66-1.37A16.91,16.91,0,0,1,307.91,306.37Zm0-30.8a13.68,13.68,0,0,0-5.45,1.13,13.86,13.86,0,0,0,5.46,26.6,13.67,13.67,0,0,0,5.45-1.12,13.86,13.86,0,0,0-5.46-26.61Z"/><path class="cls-7" d="M303.2,291.45a5.12,5.12,0,1,1,6.72,2.69A5.12,5.12,0,0,1,303.2,291.45Z"/><path class="cls-8" d="M311.36,227.51V580.23c0,17.41,13.68,31.66,30.4,31.66H922.12c16.72,0,30.4-14.25,30.4-31.66V227.51Z"/><path class="cls-9" d="M311.36,213.68v13.83H952.52V213.68a30.49,30.49,0,0,0-30.4-30.4H341.76a30.49,30.49,0,0,0-30.4,30.4"/><path class="cls-10" d="M875.34,324.16h50.09A12.15,12.15,0,0,0,937.58,312V267.65a12.15,12.15,0,0,0-12.15-12.15H875.34a12.15,12.15,0,0,0-12.14,12.15V312a12.15,12.15,0,0,0,12.14,12.14"/><path class="cls-10" d="M786.34,324.16h50.09A12.15,12.15,0,0,0,848.57,312V267.65a12.15,12.15,0,0,0-12.14-12.15H786.34a12.15,12.15,0,0,0-12.15,12.15V312a12.15,12.15,0,0,0,12.15,12.14"/><path class="cls-11" d="M696.67,324.16h50.09A12.15,12.15,0,0,0,758.91,312V267.65a12.15,12.15,0,0,0-12.15-12.15H696.67a12.15,12.15,0,0,0-12.14,12.15V312a12.15,12.15,0,0,0,12.14,12.14"/><path class="cls-10" d="M607.67,324.16h50.09A12.15,12.15,0,0,0,669.9,312V267.65a12.15,12.15,0,0,0-12.14-12.15H607.67a12.15,12.15,0,0,0-12.15,12.15V312a12.15,12.15,0,0,0,12.15,12.14"/><path class="cls-10" d="M521.35,324.16h50.09A12.15,12.15,0,0,0,583.58,312V267.65a12.15,12.15,0,0,0-12.14-12.15H521.35a12.15,12.15,0,0,0-12.15,12.15V312a12.15,12.15,0,0,0,12.15,12.14"/><path class="cls-11" d="M432.35,324.16h50.08A12.15,12.15,0,0,0,494.58,312V267.65a12.15,12.15,0,0,0-12.15-12.15H432.35a12.15,12.15,0,0,0-12.15,12.15V312a12.15,12.15,0,0,0,12.15,12.14"/><path class="cls-10" d="M342.68,324.16h50.09A12.15,12.15,0,0,0,404.92,312V267.65a12.15,12.15,0,0,0-12.15-12.15H342.68a12.15,12.15,0,0,0-12.15,12.15V312a12.15,12.15,0,0,0,12.15,12.14"/><path class="cls-10" d="M876.55,411.78h50.09a12.15,12.15,0,0,0,12.15-12.15V355.26a12.14,12.14,0,0,0-12.15-12.14H876.55a12.13,12.13,0,0,0-12.14,12.14v44.37a12.14,12.14,0,0,0,12.14,12.15"/><path class="cls-10" d="M787.55,411.78h50.09a12.15,12.15,0,0,0,12.14-12.15V355.26a12.14,12.14,0,0,0-12.14-12.14H787.55a12.14,12.14,0,0,0-12.15,12.14v44.37a12.15,12.15,0,0,0,12.15,12.15"/><path class="cls-10" d="M697.88,411.78H748a12.15,12.15,0,0,0,12.15-12.15V355.26A12.14,12.14,0,0,0,748,343.12H697.88a12.14,12.14,0,0,0-12.14,12.14v44.37a12.15,12.15,0,0,0,12.14,12.15"/><path class="cls-10" d="M608.88,411.78H659a12.14,12.14,0,0,0,12.14-12.15V355.26A12.13,12.13,0,0,0,659,343.12H608.88a12.14,12.14,0,0,0-12.15,12.14v44.37a12.15,12.15,0,0,0,12.15,12.15"/><path class="cls-10" d="M522.56,411.78h50.09a12.15,12.15,0,0,0,12.14-12.15V355.26a12.14,12.14,0,0,0-12.14-12.14H522.56a12.14,12.14,0,0,0-12.15,12.14v44.37a12.15,12.15,0,0,0,12.15,12.15"/><path class="cls-10" d="M433.55,411.78h50.09a12.15,12.15,0,0,0,12.15-12.15V355.26a12.14,12.14,0,0,0-12.15-12.14H433.55a12.14,12.14,0,0,0-12.14,12.14v44.37a12.15,12.15,0,0,0,12.14,12.15"/><path class="cls-10" d="M343.89,411.78H394a12.14,12.14,0,0,0,12.14-12.15V355.26A12.13,12.13,0,0,0,394,343.12H343.89a12.14,12.14,0,0,0-12.15,12.14v44.37a12.15,12.15,0,0,0,12.15,12.15"/><path class="cls-11" d="M874,499.39h50.09a12.14,12.14,0,0,0,12.14-12.15V442.88a12.14,12.14,0,0,0-12.14-12.15H874a12.15,12.15,0,0,0-12.15,12.15v44.36A12.15,12.15,0,0,0,874,499.39"/><path class="cls-10" d="M785,499.39h50.08a12.15,12.15,0,0,0,12.15-12.15V442.88a12.15,12.15,0,0,0-12.15-12.15H785a12.15,12.15,0,0,0-12.15,12.15v44.36A12.15,12.15,0,0,0,785,499.39"/><path class="cls-11" d="M695.33,499.39h50.09a12.15,12.15,0,0,0,12.15-12.15V442.88a12.15,12.15,0,0,0-12.15-12.15H695.33a12.14,12.14,0,0,0-12.14,12.15v44.36a12.14,12.14,0,0,0,12.14,12.15"/><path class="cls-10" d="M606.33,499.39h50.08a12.15,12.15,0,0,0,12.15-12.15V442.88a12.15,12.15,0,0,0-12.15-12.15H606.33a12.15,12.15,0,0,0-12.15,12.15v44.36a12.15,12.15,0,0,0,12.15,12.15"/><path class="cls-10" d="M520,499.39h50.08a12.15,12.15,0,0,0,12.15-12.15V442.88a12.15,12.15,0,0,0-12.15-12.15H520a12.15,12.15,0,0,0-12.15,12.15v44.36A12.15,12.15,0,0,0,520,499.39"/><path class="cls-10" d="M431,499.39h50.09a12.15,12.15,0,0,0,12.15-12.15V442.88a12.15,12.15,0,0,0-12.15-12.15H431a12.15,12.15,0,0,0-12.14,12.15v44.36A12.15,12.15,0,0,0,431,499.39"/><path class="cls-10" d="M341.34,499.39h50.09a12.15,12.15,0,0,0,12.14-12.15V442.88a12.15,12.15,0,0,0-12.14-12.15H341.34a12.15,12.15,0,0,0-12.15,12.15v44.36a12.15,12.15,0,0,0,12.15,12.15"/><path class="cls-10" d="M874,587h50.09a12.14,12.14,0,0,0,12.14-12.14V530.49a12.14,12.14,0,0,0-12.14-12.15H874a12.15,12.15,0,0,0-12.15,12.15v44.37A12.15,12.15,0,0,0,874,587"/><path class="cls-10" d="M785,587h50.08a12.15,12.15,0,0,0,12.15-12.14V530.49a12.15,12.15,0,0,0-12.15-12.15H785a12.15,12.15,0,0,0-12.15,12.15v44.37A12.15,12.15,0,0,0,785,587"/><path class="cls-10" d="M695.33,587h50.09a12.15,12.15,0,0,0,12.15-12.14V530.49a12.15,12.15,0,0,0-12.15-12.15H695.33a12.14,12.14,0,0,0-12.14,12.15v44.37A12.14,12.14,0,0,0,695.33,587"/><path class="cls-10" d="M606.33,587h50.08a12.15,12.15,0,0,0,12.15-12.14V530.49a12.15,12.15,0,0,0-12.15-12.15H606.33a12.15,12.15,0,0,0-12.15,12.15v44.37A12.15,12.15,0,0,0,606.33,587"/><path class="cls-10" d="M520,587h50.08a12.15,12.15,0,0,0,12.15-12.14V530.49a12.15,12.15,0,0,0-12.15-12.15H520a12.15,12.15,0,0,0-12.15,12.15v44.37A12.15,12.15,0,0,0,520,587"/><path class="cls-12" d="M351.47,205.33a10.92,10.92,0,1,0,10.92-10.92,10.91,10.91,0,0,0-10.92,10.92"/><path class="cls-11" d="M394,205.4a10.92,10.92,0,1,0,10.92-10.92A10.92,10.92,0,0,0,394,205.4"/><path class="cls-13" d="M438.91,205.4a10.92,10.92,0,1,0,10.92-10.92,10.92,10.92,0,0,0-10.92,10.92"/><path class="cls-12" d="M793.94,317.83a13.42,13.42,0,0,1-13.41-13.41V260.05a13.42,13.42,0,0,1,13.41-13.41H844a13.42,13.42,0,0,1,13.41,13.41v44.37A13.43,13.43,0,0,1,844,317.83H793.94m0-68.66a10.89,10.89,0,0,0-10.88,10.88v44.37a10.9,10.9,0,0,0,10.88,10.88H844a10.9,10.9,0,0,0,10.88-10.88V260.05A10.89,10.89,0,0,0,844,249.17Z"/><path class="cls-12" d="M350.28,317.83a13.42,13.42,0,0,1-13.41-13.41V260.05a13.42,13.42,0,0,1,13.41-13.41h50.09a13.42,13.42,0,0,1,13.41,13.41v44.37a13.43,13.43,0,0,1-13.41,13.41H350.28m0-68.66a10.89,10.89,0,0,0-10.88,10.88v44.37a10.9,10.9,0,0,0,10.88,10.88h50.09a10.9,10.9,0,0,0,10.88-10.88V260.05a10.89,10.89,0,0,0-10.88-10.88Z"/><path class="cls-12" d="M884.29,404.87a13.42,13.42,0,0,1-13.41-13.41V347.09a13.42,13.42,0,0,1,13.41-13.41h50.09a13.43,13.43,0,0,1,13.41,13.41v44.37a13.42,13.42,0,0,1-13.41,13.41H884.29m0-68.66a10.89,10.89,0,0,0-10.88,10.88v44.37a10.89,10.89,0,0,0,10.88,10.88h50.09a10.89,10.89,0,0,0,10.88-10.88V347.09a10.89,10.89,0,0,0-10.88-10.88Z"/><path class="cls-12" d="M615,407.15a13.43,13.43,0,0,1-13.42-13.41V349.37A13.43,13.43,0,0,1,615,336h50.08a13.43,13.43,0,0,1,13.42,13.41v44.37a13.43,13.43,0,0,1-13.42,13.41H615m0-68.66a10.89,10.89,0,0,0-10.88,10.88v44.37A10.89,10.89,0,0,0,615,404.62h50.08A10.89,10.89,0,0,0,676,393.74V349.37a10.89,10.89,0,0,0-10.88-10.88Z"/><path class="cls-12" d="M792.6,580.67a13.43,13.43,0,0,1-13.42-13.41V522.89a13.43,13.43,0,0,1,13.42-13.41h50.08a13.43,13.43,0,0,1,13.42,13.41v44.37a13.43,13.43,0,0,1-13.42,13.41H792.6m0-68.66a10.89,10.89,0,0,0-10.88,10.88v44.37a10.89,10.89,0,0,0,10.88,10.88h50.08a10.89,10.89,0,0,0,10.88-10.88V522.89A10.89,10.89,0,0,0,842.68,512Z"/><polygon class="cls-12" points="458.21 489.88 485.68 461.87 476.64 453 458.99 470.99 433.45 440.24 423.71 448.33 458.21 489.88"/><polygon class="cls-12" points="896.84 401.46 869.36 373.45 878.4 364.58 896.05 382.57 921.59 351.82 931.34 359.91 896.84 401.46"/><polygon class="cls-12" points="815.11 579 787.63 550.99 796.67 542.12 814.33 560.11 839.86 529.36 849.61 537.45 815.11 579"/><path d="M634.16,407c-5.37,5.48-13.17,11.77-19.83,14.86l12.78.93,9.22,8.88c-2.15-7-2.67-17-2.17-24.67"/><path class="cls-13" d="M519.21,134.17v70.55a18.78,18.78,0,0,0,18.73,18.72h96.14l50.25,30.8-9.13-30.8h7a18.78,18.78,0,0,0,18.72-18.72V134.17a18.78,18.78,0,0,0-18.72-18.73H537.94a18.79,18.79,0,0,0-18.73,18.73"/><path class="cls-14" d="M522.33,131.05V201.6a18.78,18.78,0,0,0,18.73,18.72H637.2l50.25,30.8-9.13-30.8h7A18.78,18.78,0,0,0,704,201.6V131.05a18.78,18.78,0,0,0-18.72-18.73H541.06A18.79,18.79,0,0,0,522.33,131.05Z"/><path class="cls-9" d="M547.12,146.06h132a5.4,5.4,0,0,0,0-10.8h-132a5.4,5.4,0,0,0,0,10.8"/><path class="cls-9" d="M547.12,170.94h132a5.4,5.4,0,0,0,0-10.8h-132a5.4,5.4,0,0,0,0,10.8"/><path class="cls-9" d="M596.53,193h82.64a5.42,5.42,0,0,0,5.4-5.4v-.48a5.42,5.42,0,0,0-5.4-5.4H596.53a5.42,5.42,0,0,0-5.4,5.4v.48a5.42,5.42,0,0,0,5.4,5.4"/><path class="cls-12" d="M497.13,140.86A4.91,4.91,0,1,0,502,136a4.91,4.91,0,0,0-4.91,4.91"/><path class="cls-12" d="M476.48,140.86a4.91,4.91,0,1,0,4.91-4.91,4.91,4.91,0,0,0-4.91,4.91"/><path class="cls-12" d="M455.83,140.86a4.91,4.91,0,1,0,4.91-4.91,4.91,4.91,0,0,0-4.91,4.91"/><path class="cls-12" d="M435.18,140.86a4.91,4.91,0,1,0,4.91-4.91,4.91,4.91,0,0,0-4.91,4.91"/><path class="cls-12" d="M414.53,140.86a4.91,4.91,0,1,0,4.91-4.91,4.91,4.91,0,0,0-4.91,4.91"/><path class="cls-12" d="M497.13,161.82A4.91,4.91,0,1,0,502,156.9a4.91,4.91,0,0,0-4.91,4.92"/><path class="cls-12" d="M476.48,161.82a4.91,4.91,0,1,0,4.91-4.92,4.91,4.91,0,0,0-4.91,4.92"/><path class="cls-12" d="M455.83,161.82a4.91,4.91,0,1,0,4.91-4.92,4.91,4.91,0,0,0-4.91,4.92"/><path class="cls-12" d="M435.18,161.82a4.91,4.91,0,1,0,4.91-4.92,4.91,4.91,0,0,0-4.91,4.92"/><path class="cls-12" d="M414.53,161.82a4.91,4.91,0,1,0,4.91-4.92,4.91,4.91,0,0,0-4.91,4.92"/><path class="cls-12" d="M497.13,80.07A4.91,4.91,0,1,0,502,75.16a4.91,4.91,0,0,0-4.91,4.91"/><path class="cls-12" d="M476.48,80.07a4.91,4.91,0,1,0,4.91-4.91,4.91,4.91,0,0,0-4.91,4.91"/><path class="cls-12" d="M455.83,80.07a4.91,4.91,0,1,0,4.91-4.91,4.91,4.91,0,0,0-4.91,4.91"/><path class="cls-12" d="M435.18,80.07a4.91,4.91,0,1,0,4.91-4.91,4.91,4.91,0,0,0-4.91,4.91"/><path class="cls-12" d="M414.53,80.07a4.91,4.91,0,1,0,4.91-4.91,4.91,4.91,0,0,0-4.91,4.91"/><path class="cls-12" d="M497.13,101A4.91,4.91,0,1,0,502,96.11a4.91,4.91,0,0,0-4.91,4.91"/><path class="cls-12" d="M476.48,101a4.91,4.91,0,1,0,4.91-4.91,4.91,4.91,0,0,0-4.91,4.91"/><path class="cls-12" d="M455.83,101a4.91,4.91,0,1,0,4.91-4.91,4.91,4.91,0,0,0-4.91,4.91"/><path class="cls-12" d="M435.18,101a4.91,4.91,0,1,0,4.91-4.91,4.91,4.91,0,0,0-4.91,4.91"/><path class="cls-12" d="M414.53,101a4.91,4.91,0,1,0,4.91-4.91,4.91,4.91,0,0,0-4.91,4.91"/><path class="cls-12" d="M497.13,122a4.91,4.91,0,1,0,4.91-4.92,4.91,4.91,0,0,0-4.91,4.92"/><path class="cls-12" d="M476.48,122a4.91,4.91,0,1,0,4.91-4.92,4.91,4.91,0,0,0-4.91,4.92"/><path class="cls-12" d="M455.83,122a4.91,4.91,0,1,0,4.91-4.92,4.91,4.91,0,0,0-4.91,4.92"/><path class="cls-12" d="M435.18,122a4.91,4.91,0,1,0,4.91-4.92,4.91,4.91,0,0,0-4.91,4.92"/><path class="cls-12" d="M414.53,122a4.91,4.91,0,1,0,4.91-4.92,4.91,4.91,0,0,0-4.91,4.92"/><path class="cls-9" d="M778.93,684.71H915.54a25.61,25.61,0,1,0,0-51.22H778.93a25.61,25.61,0,1,0,0,51.22"/><path class="cls-10" d="M913.75,678h0a19,19,0,1,0-19-19,19.06,19.06,0,0,0,19,19"/><path class="cls-11" d="M778.93,740.88H915.54a25.61,25.61,0,0,0,0-51.22H778.93a25.61,25.61,0,1,0,0,51.22"/><path class="cls-10" d="M913.75,734.14h0a19,19,0,1,0-19-19,19.06,19.06,0,0,0,19,19"/><path class="cls-12" d="M774,799.35H910.63a25.61,25.61,0,0,0,0-51.22H774a25.61,25.61,0,0,0,0,51.22"/><path class="cls-10" d="M908.84,792.61h0a19,19,0,1,0-19-19,19,19,0,0,0,19,19"/><path d="M972.62,619.51a4.92,4.92,0,1,0,4.92-4.92,4.91,4.91,0,0,0-4.92,4.92"/><path d="M952,619.51a4.92,4.92,0,1,0,4.91-4.92,4.91,4.91,0,0,0-4.91,4.92"/><path d="M931.32,619.51a4.92,4.92,0,1,0,4.91-4.92,4.91,4.91,0,0,0-4.91,4.92"/><path d="M910.67,619.51a4.92,4.92,0,1,0,4.91-4.92,4.91,4.91,0,0,0-4.91,4.92"/><path d="M890,619.51a4.92,4.92,0,1,0,4.91-4.92,4.91,4.91,0,0,0-4.91,4.92"/><path d="M972.62,640.46a4.92,4.92,0,1,0,4.92-4.92,4.91,4.91,0,0,0-4.92,4.92"/><path d="M952,640.46a4.92,4.92,0,1,0,4.91-4.92,4.91,4.91,0,0,0-4.91,4.92"/><path d="M931.32,640.46a4.92,4.92,0,1,0,4.91-4.92,4.91,4.91,0,0,0-4.91,4.92"/><path d="M910.67,640.46a4.92,4.92,0,1,0,4.91-4.92,4.91,4.91,0,0,0-4.91,4.92"/><path d="M890,640.46a4.92,4.92,0,1,0,4.91-4.92,4.91,4.91,0,0,0-4.91,4.92"/><path d="M972.62,558.71a4.92,4.92,0,1,0,4.92-4.91,4.92,4.92,0,0,0-4.92,4.91"/><path d="M952,558.71a4.92,4.92,0,1,0,4.91-4.91,4.91,4.91,0,0,0-4.91,4.91"/><path d="M931.32,558.71a4.92,4.92,0,1,0,4.91-4.91,4.91,4.91,0,0,0-4.91,4.91"/><path d="M910.67,558.71a4.92,4.92,0,1,0,4.91-4.91,4.91,4.91,0,0,0-4.91,4.91"/><path d="M890,558.71a4.92,4.92,0,1,0,4.91-4.91,4.91,4.91,0,0,0-4.91,4.91"/><path d="M972.62,579.67a4.92,4.92,0,1,0,4.92-4.92,4.91,4.91,0,0,0-4.92,4.92"/><path d="M952,579.67a4.92,4.92,0,1,0,4.91-4.92,4.91,4.91,0,0,0-4.91,4.92"/><path d="M931.32,579.67a4.92,4.92,0,1,0,4.91-4.92,4.91,4.91,0,0,0-4.91,4.92"/><path d="M910.67,579.67a4.92,4.92,0,1,0,4.91-4.92,4.91,4.91,0,0,0-4.91,4.92"/><path d="M890,579.67a4.92,4.92,0,1,0,4.91-4.92,4.91,4.91,0,0,0-4.91,4.92"/><path d="M972.62,600.62a4.92,4.92,0,1,0,4.92-4.91,4.91,4.91,0,0,0-4.92,4.91"/><path d="M952,600.62a4.92,4.92,0,1,0,4.91-4.91,4.91,4.91,0,0,0-4.91,4.91"/><path d="M931.32,600.62a4.92,4.92,0,1,0,4.91-4.91,4.91,4.91,0,0,0-4.91,4.91"/><path d="M910.67,600.62a4.92,4.92,0,1,0,4.91-4.91,4.91,4.91,0,0,0-4.91,4.91"/><path d="M890,600.62a4.92,4.92,0,1,0,4.91-4.91,4.91,4.91,0,0,0-4.91,4.91"/><path class="cls-15" d="M442.82,501s33.22,39.89,40.72,88.85c4.46,29.14-22,80.09-22,80.09s-3.64,1.06-5.25-13.4c0,0,4.28-29.38,7.6-61.77,0,0-6.6-33.37-23.24-45.38C440.66,549.35,427.35,512.45,442.82,501Z"/><path class="cls-16" d="M471.56,873.54,458.9,1026.45H436.59c-5.16-59.59-16.28-138.47,1.14-159.67C406.89,794.82,416,722,416,722c17-7.79,43.65-16.63,43.65-16.63C468.71,756.82,471.56,873.54,471.56,873.54Z"/><path class="cls-17" d="M510.7,1062.49H437.75a6.75,6.75,0,0,1-6.74-7.27l3-38.32a42.21,42.21,0,0,1,7.28-2.4,7.39,7.39,0,0,0,5.41-4.91c.06-.18.1-.37.15-.56,1.68-7.37,12.31-9.72,14.27-2.51.26.93.48,1.84.66,2.71.05.21.1.43.14.64.31,1.55.54,3,.7,4.22,0,0,0,.06,0,.08a42.27,42.27,0,0,1,.36,5.21c1,1.23,1.9,2.44,2.8,3.62l1.35,1.76c1,1.25,1.89,2.46,2.81,3.63l1.26,1.6c1,1.26,2,2.46,3,3.58.45.51.9,1,1.36,1.49,3.76,4,7.56,6.65,12,7.28,7.91,1.08,20.84,2,27.08,13.56a4.3,4.3,0,0,1,.31.74A4.5,4.5,0,0,1,510.7,1062.49Z"/><path class="cls-18" d="M510.7,1062.49H437.75a6.76,6.76,0,0,1-6.7-5.85H515A4.5,4.5,0,0,1,510.7,1062.49Z"/><path class="cls-7" d="M467.12,1024.76c-.85,1.24-2.57,2.74-6,4.13-.59.24-1.24.47-1.93.7l-.63-1.9c.69-.23,1.31-.46,1.87-.69,4-1.6,5.09-3.19,5.38-4Z"/><path class="cls-7" d="M461.09,1028.64a2.26,2.26,0,1,1-2.26-2.26A2.26,2.26,0,0,1,461.09,1028.64Z"/><path class="cls-7" d="M471.19,1030a14.18,14.18,0,0,1-5,3.14c-.7.3-1.46.58-2.31.87l-.63-1.91c.79-.27,1.5-.53,2.13-.79a11.54,11.54,0,0,0,4.54-2.91Z"/><path class="cls-7" d="M466.2,1033a2.26,2.26,0,1,1-2.26-2.26A2.27,2.27,0,0,1,466.2,1033Z"/><path class="cls-7" d="M475.56,1035.06a14.39,14.39,0,0,1-4.84,3,24.66,24.66,0,0,1-2.34.88l-.63-1.91c.8-.26,1.51-.53,2.15-.8a12.23,12.23,0,0,0,4.3-2.66C474.65,1034.08,475.1,1034.58,475.56,1035.06Z"/><path class="cls-7" d="M470.73,1038a2.27,2.27,0,1,1-2.26-2.27A2.26,2.26,0,0,1,470.73,1038Z"/><path class="cls-7" d="M462.59,1014.09a52.49,52.49,0,0,0-6.5.37l0-3.65a16.35,16.35,0,0,1,5.76-.94C462.2,1011.42,462.43,1012.85,462.59,1014.09Z"/><path class="cls-19" d="M422.57,722s-5.27,81.6-16,151.86c-2.29,15-5.1,111.24-12,152.58H372.24l-4.3-150.18s-12.07-95.86-1-160.7Z"/><path class="cls-17" d="M414.14,1057.39c-.64,12.86-40.83,8.43-47.26,4.57-2.48-1.49-3.52-4.36-3.71-7.84-.32-5.54,1.51-12.64,3.09-18.2,2.57-9.06,2.22-8.89,4-15.08,0,0-.46-10.06,12.71-13.91s18,21.22,20.25,26c2,4.42,10,10.46,10.88,21.33A24.31,24.31,0,0,1,414.14,1057.39Z"/><path class="cls-7" d="M375.82,1029l-1.05-1.62c.49-.32,12.11-7.77,22.22-3.33l-.77,1.76C387.05,1021.77,375.93,1028.9,375.82,1029Z"/><path class="cls-7" d="M377,1040.16l-1.06-1.61c.49-.32,12.11-7.77,22.23-3.34l-.78,1.77C388.19,1033,377.08,1040.09,377,1040.16Z"/><path class="cls-7" d="M376.39,1034.57l-1.05-1.62c.49-.31,12.11-7.77,22.22-3.33l-.77,1.76C387.62,1027.36,376.5,1034.5,376.39,1034.57Z"/><path class="cls-7" d="M377.35,1028.47a2.17,2.17,0,1,1-2.17-2.17A2.17,2.17,0,0,1,377.35,1028.47Z"/><path class="cls-7" d="M377.46,1033.77a2.17,2.17,0,1,1-2.17-2.17A2.17,2.17,0,0,1,377.46,1033.77Z"/><path class="cls-7" d="M378.61,1039.07a2.17,2.17,0,1,1-2.17-2.17A2.17,2.17,0,0,1,378.61,1039.07Z"/><path class="cls-7" d="M399.92,1035.94a2.17,2.17,0,1,1-2.17-2.17A2.17,2.17,0,0,1,399.92,1035.94Z"/><path class="cls-7" d="M399.34,1030.16a2.17,2.17,0,1,1-2.16-2.17A2.17,2.17,0,0,1,399.34,1030.16Z"/><path class="cls-7" d="M398.77,1024.37a2.17,2.17,0,1,1-2.17-2.17A2.17,2.17,0,0,1,398.77,1024.37Z"/><path class="cls-18" d="M414.14,1057.39c-.64,12.86-40.83,8.43-47.26,4.57-2.48-1.49-3.52-4.36-3.71-7.84,4.22,2.41,11.66,5.41,22.78,5.61,13.63.25,23.46-2.51,28.15-5.43A24.31,24.31,0,0,1,414.14,1057.39Z"/><path class="cls-7" d="M388.65,1010.9a21.46,21.46,0,0,0-11.3,2.25l.59,4.07s7.28-2.14,12.1-1.82A9.58,9.58,0,0,0,388.65,1010.9Z"/><path class="cls-19" d="M369,698.61c-2.2,11.65-4.12,31.11,1.76,50.68,0,0,41,10.19,69.88-12.72,18.88-15,19.77-32.54,19.54-38Z"/><path class="cls-20" d="M464,700.75c-49.73,25.33-99.43,4.24-99.43,4.24,6.83-43.27,15.1-100.4,15.1-100.4-13.69-26.19-22.4-97.5-22.4-97.5,8-5,11.79-3.77,21-6.19,2.59-.68,5-1.26,7-1.72,4.16-1,6.86-1.44,6.86-1.44,12.55-1.71,25.6-.8,35.1.43l.19,0c8.34,1.09,13.9,2.42,13.9,2.42s3.82,28.85,12.06,43.45,1.94,23.42,0,29.78a22.2,22.2,0,0,0-.72,4.77c-.55,8-1.23,45.48-1.23,45.48Z"/><path class="cls-21" d="M417.51,525.69c-13.65.42-25.87-14.9-32.32-26.51,4.16-1,6.86-1.44,6.86-1.44,12.55-1.71,25.6-.8,35.1.43l.19,0C429,509.87,431.88,525.24,417.51,525.69Z"/><path class="cls-15" d="M453.3,573.85a22.2,22.2,0,0,0-.72,4.77c-24.11,12.39-49.09,5.32-49.09,5.32C435.94,583.39,453.3,573.85,453.3,573.85Z"/><path class="cls-21" d="M461.65,645.71a10.55,10.55,0,0,0-.62-6.62c-1.24-2.6-4.5-1.91-4.5-1.91l1.53,9.31s-6.75,3.33-10.15,8.66,8.65,2.06,8.65,2.06-6.5,3.4-9,5.17.39,4.33,12.07,2c0,0-9.25,4.11-9.25,6.62s12.64.37,12.64.37-8.15,3.78-8.6,6c-.32,1.64,6.13.77,9.53.2a8.73,8.73,0,0,0,5-2.61c1.25-1.35,2-3.16.18-5,0,0,3.09-7.61-2.33-8.64,0,0,3.12-7.43-2.2-7.73C464.59,653.55,468.18,646.77,461.65,645.71Z"/><path class="cls-15" d="M412.56,592a43.36,43.36,0,0,1,1.51,4.2,44.59,44.59,0,0,1,1.87,12.62c-4,1.08-44.7,11.72-51-.23-1.63-3.11-1.86-9.5,1.4-13.56,2.58-3.21,6.56-4,9.59-4.44C389.16,588.61,403.71,590.44,412.56,592Z"/><path d="M432.9,596.82l9.93,2.84L477,564.59l-10.33-4.73Z"/><path class="cls-21" d="M422.17,602.27a52.79,52.79,0,0,0,41.47-16.63c-.94-1.13-2.35-2.44-4-2.34-1.89.11-2.94,2-4,3-1.93,1.87-6.22,2.85-16.56-1.07,0,0,11.78-4.76,12.43-10.53,0,0-26.58,4.32-39.09,19.57C412.47,594.31,410.4,602.89,422.17,602.27Z"/><path class="cls-20" d="M356.58,507.37s-30.26,22.48-33.6,95.2c0,0,4.93,23.12,91.55,4.64l-3.4-15.63a166.85,166.85,0,0,1-30.32-1.46,238.48,238.48,0,0,0-26.91-2.65S391.89,514.31,356.58,507.37Z"/><path class="cls-19" d="M455.05,438.78c1.38,4.06,2.81,8.26,4.17,12.71,4.32,14.18-9.33,16-9.33,16s4.39,9.66-2.51,17.39a13.53,13.53,0,0,1-15.61,3.58s-3.16,4.21-11.46,4.73c-12.05.76-16.44-4.07-16.44-4.07l-12.59-2.26c-1.65.93-2.94,7.08-16.25,8.64-12.11,1.41-18.33-5.85-18.33-5.85-3.21,6.27-18.27,5.17-20-4.76-1.6-9.33,2.74-13.15,3.27-13.58-7.82,5.54-20.87-9.44-7.05-23.64,5.63-5.78,8.73-8.47,10.84-11.36-6.27,1.49-12.81-5.8-10-12.17,3.61-8.21,10.22-4.94,16.67-16.72,8.58-15.65,15.14-21,15.52-21.3h0c11.08-10.5,27.44-15.31,45.34-14.2,15.23.94,24.11,7.17,29.24,13.57A32.07,32.07,0,0,1,447.37,405c0,1.49.12,2.95.25,4.39,2.13,5.18,6.5,14.36,11.65,17.15C466.28,430.28,462.36,440.34,455.05,438.78Z"/><path class="cls-22" d="M433.53,428.64s7.89-9,14.33-1.18c5.66,6.89,2.14,25.11-11.66,24.61Z"/><path class="cls-7" d="M445.87,450.93a3.32,3.32,0,1,1-3.32-3.31A3.32,3.32,0,0,1,445.87,450.93Z"/><path class="cls-21" d="M419.32,497.49c-.7,8.26-17.78,13.12-27.48-.9l-1-18.11-.75-13.31,31.19,6.05-1.55,21Z"/><path class="cls-22" d="M419.52,494.73c-10.65.15-22.54-7.19-28.48-12.26l-1-17.3,31.19,6.05Z"/><path class="cls-21" d="M407.44,481c-32.91-7.53-38.89-50.67-38.89-50.67a47.72,47.72,0,0,1,.45-7.09,54.43,54.43,0,0,1,1.6-7.87C373,407,378,397.58,388.85,393.45l1-.37c17.95-6.37,44.19-3.39,52.17,20.37a40.33,40.33,0,0,1,1.22,4.6c.19.93.36,1.91.5,2.91C447.34,445.49,437,487.72,407.44,481Z"/><path class="cls-21" d="M374.22,431.16s-11.81-6.48-15.59,4.28c-3.33,9.45,7.42,27.34,21.8,21.48Z"/><path class="cls-22" d="M375,449.11c-1-3.11-3.95-9.51-11.17-12.37,0,0,7.72,7.28,8.3,12.91a1.4,1.4,0,0,0,1.43,1.28h.17A1.39,1.39,0,0,0,375,449.11Z"/><path class="cls-19" d="M391.72,395.38s-1.66,28.88-15.12,40.54c0,0-1.16-7.66-11.65-6.51,0,0-1-1.79-2.52-10.48s4-44.55,43.76-42.24c0,0,12.65-2.57,30.35,12.57s7.22,31.7,7.22,31.7S414.23,416.88,391.72,395.38Z"/><circle class="cls-7" cx="371.86" cy="458.3" r="3.31"/><path d="M453.17,568.35a1.13,1.13,0,0,1-.49-.91,95.75,95.75,0,0,1,.49-11.11,1.1,1.1,0,1,1,2.18.22,96,96,0,0,0-.47,10.86,1.09,1.09,0,0,1-1.09,1.11,1.11,1.11,0,0,1-.62-.17m2.23-21.85a1.11,1.11,0,0,1-.47-1.16c.52-2.31,1.12-4.63,1.81-6.88.38-1.28.81-2.56,1.28-3.83a1.1,1.1,0,0,1,2.06.76c-.45,1.23-.86,2.47-1.24,3.71-.67,2.2-1.26,4.46-1.76,6.71a1.1,1.1,0,0,1-1.31.84,1.2,1.2,0,0,1-.37-.15m7.86-20.44a1.11,1.11,0,0,1-.33-1.52l.25-.38a31.8,31.8,0,0,1,7.36-8,1.1,1.1,0,0,1,1.32,1.76,29.66,29.66,0,0,0-6.85,7.49l-.22.35a1.1,1.1,0,0,1-1.52.33h0m17.32-12.51a1.08,1.08,0,0,1-.48-.72,1.11,1.11,0,0,1,.88-1.29,39.45,39.45,0,0,1,11.27-.28,1.1,1.1,0,1,1-.22,2.19,36.89,36.89,0,0,0-10.64.26,1.12,1.12,0,0,1-.81-.16M502.4,515a1.11,1.11,0,0,1-.48-1.13,1.12,1.12,0,0,1,1.3-.87c3.6.71,7.2,1.47,10.79,2.23a1.1,1.1,0,0,1-.46,2.16c-3.58-.76-7.17-1.52-10.76-2.22a1.13,1.13,0,0,1-.39-.17M524,519.51a1.1,1.1,0,0,1,.82-2c4.1.81,7.53,1.43,10.79,1.93a1.1,1.1,0,0,1-.34,2.18c-3.29-.51-6.74-1.13-10.88-2a1.34,1.34,0,0,1-.39-.16m21.76,3.24a1.06,1.06,0,0,1-.49-1,1.09,1.09,0,0,1,1.18-1c2.57.2,5.09.32,7.5.35,1.12,0,2.25,0,3.37,0a1.11,1.11,0,0,1,1.14,1.07,1.1,1.1,0,0,1-1.07,1.13c-1.16,0-2.32,0-3.47,0-2.45,0-5-.15-7.65-.36a1,1,0,0,1-.51-.18m21.94-.71a1.09,1.09,0,0,1-.48-.74,1.11,1.11,0,0,1,.91-1.27,69.26,69.26,0,0,0,10.51-2.56,1.1,1.1,0,0,1,.69,2.09,73.68,73.68,0,0,1-10.84,2.65,1.12,1.12,0,0,1-.79-.17m20.76-7a1.07,1.07,0,0,1-.35-.38,1.1,1.1,0,0,1,.43-1.5,47.77,47.77,0,0,0,8.75-6.2,1.1,1.1,0,0,1,1.47,1.64,49.9,49.9,0,0,1-9.16,6.49,1.11,1.11,0,0,1-1.14-.05m16.13-14.65a1.09,1.09,0,0,1-.31-1.52l.13-.2a50.75,50.75,0,0,0,4.8-9.36,1.11,1.11,0,0,1,1.44-.62,1.1,1.1,0,0,1,.61,1.43,52.92,52.92,0,0,1-5,9.76l-.14.2a1.1,1.1,0,0,1-1.52.31m8.32-20.25a1.09,1.09,0,0,1-.46-1.18c.74-3,1.44-6.45,2.18-10.71a1.1,1.1,0,1,1,2.17.38c-.76,4.31-1.46,7.76-2.22,10.85a1.1,1.1,0,0,1-1.33.81,1,1,0,0,1-.34-.15m4-21.64a1.09,1.09,0,0,1-.48-1.1c.54-3.22,1.21-7,2.07-10.87a1.1,1.1,0,0,1,1.31-.84,1.12,1.12,0,0,1,.84,1.32c-.86,3.8-1.52,7.57-2.05,10.75a1.11,1.11,0,0,1-1.27.91,1.2,1.2,0,0,1-.42-.17m5-21.4a1.09,1.09,0,0,1-.43-1.28,73.82,73.82,0,0,1,4.44-10.24,1.1,1.1,0,0,1,1.49-.45,1.08,1.08,0,0,1,.46,1.48,72.45,72.45,0,0,0-4.32,9.94,1.1,1.1,0,0,1-1.4.67.9.9,0,0,1-.24-.12"/></g></g></g></g></g></svg>