<svg xmlns="http://www.w3.org/2000/svg" xmlns:xlink="http://www.w3.org/1999/xlink" viewBox="0 0 1080 1080"><defs><style>.cls-1{fill:#e0eefb;}.cls-2{clip-path:url(#clip-path);}.cls-3{fill:#ececec;}.cls-4{fill:#e1e1e1;}.cls-5{fill:#fff;}.cls-6{fill:#385a65;}.cls-7{fill:#274549;}.cls-8{fill:#1a2e35;}.cls-9{fill:#c2323a;}.cls-10{fill:#ff4f5b;}.cls-11{fill:#e63067;}.cls-12{fill:#c11c57;}.cls-13{fill:#32324c;}.cls-14{fill:#ffa378;}.cls-15{fill:#f88968;}.cls-16{fill:#ffaf82;}.cls-17{fill:#211931;}.cls-18{fill:#e5a889;}.cls-19{fill:#3555af;}.cls-20{fill:#3986d7;}</style><clipPath id="clip-path"><circle id="_Ellipse_" data-name="&lt;Ellipse&gt;" class="cls-1" cx="540" cy="540" r="540"/></clipPath></defs><title>4</title><g id="Layer_2" data-name="Layer 2"><g id="Circle"><g id="Layer_20" data-name="Layer 20"><circle id="_Ellipse_2" data-name="&lt;Ellipse&gt;" class="cls-1" cx="540" cy="540" r="540"/><g class="cls-2"><rect class="cls-3" x="235.93" y="300.43" width="8.86" height="490.85"/><rect class="cls-4" x="38.22" y="420.18" width="180.48" height="371.37"/><rect class="cls-3" x="59.46" y="435.22" width="138.01" height="42.47"/><rect class="cls-4" x="109.89" y="451.14" width="38.04" height="11.5"/><rect class="cls-3" x="59.46" y="488.3" width="138.01" height="42.47"/><rect class="cls-4" x="109.89" y="504.23" width="38.04" height="11.5"/><rect class="cls-3" x="59.46" y="541.38" width="138.01" height="42.47"/><rect class="cls-4" x="109.89" y="557.31" width="38.04" height="11.5"/><rect class="cls-3" x="59.46" y="593.35" width="138.01" height="182.82"/><rect class="cls-4" x="109.89" y="610.39" width="38.04" height="11.5"/><polygon class="cls-4" points="135.59 396.89 135.59 408.76 153.5 408.5 163.99 408.25 178.83 409.53 177.81 401.3 177.81 357.84 135.59 357.84 135.59 396.89"/><polygon class="cls-3" points="135.59 389.57 145.82 394.43 153.24 381.89 161.43 390.34 166.8 383.43 177.81 393.15 177.81 357.84 135.59 357.84 135.59 389.57"/><path class="cls-4" d="M133.45,355.54v56h47v-56Zm43.82,52.85H136.64V358.72h40.63Z"/><path class="cls-3" d="M136.1,358.69v49.73h41.71V358.69Zm40.43,48.79H137.38V359.63h39.15Z"/><rect class="cls-4" x="142.21" y="408.91" width="4.38" height="11.16"/><rect class="cls-4" x="167.71" y="408.91" width="4.38" height="11.16"/><path class="cls-4" d="M88.7,397.05s.45-14.4-5.36-17.52c0,0-19.87,6.25-29.92-17.2,0,0,18.75-4.69,31.82,15.07l4,5.81-.45-7.37s-7-20.66,9.71-32.27c0,0,5,18.54-6.36,33.28l-.22,7.25L95.29,378s.55-18.2,24.23-14.4c0,0-12.73,19.65-21.78,16.86a22.71,22.71,0,0,0-4.46,16.63Z"/><path class="cls-4" d="M105.65,399.54l-1.35,5.94-.13.56-2.39,10.44-.22,1A3.26,3.26,0,0,1,98.38,420H84.94a3.24,3.24,0,0,1-3.18-2.54l-.23-1L79.15,406l-.13-.56-1.36-5.94a3.27,3.27,0,0,1,3.18-4h21.63A3.26,3.26,0,0,1,105.65,399.54Z"/><path class="cls-3" d="M101.78,416.48l-.22,1A3.26,3.26,0,0,1,98.38,420H84.94a3.24,3.24,0,0,1-3.18-2.54l-.23-1Z"/><polygon class="cls-3" points="104.3 405.48 104.17 406.04 79.15 406.04 79.02 405.48 104.3 405.48"/><rect class="cls-3" x="75.58" y="392.81" width="32.16" height="4.58" rx="1.64" ry="1.64"/><path class="cls-3" d="M56.26,363.73a20.42,20.42,0,0,0,2.89,2.09,29.49,29.49,0,0,0,3.16,1.63c2.17,1,4.42,1.78,6.63,2.68,1.1.46,2.2.94,3.26,1.48s2.11,1.13,3.12,1.78,2,1.33,2.93,2.06S80.1,377,81,377.79c-.91-.77-1.84-1.51-2.81-2.21s-2-1.36-3-2a44.46,44.46,0,0,0-6.37-3.17l-3.32-1.33c-1.1-.45-2.21-.91-3.28-1.42A29.84,29.84,0,0,1,59.07,366,18.36,18.36,0,0,1,56.26,363.73Z"/><path class="cls-3" d="M97.49,348.19c-1,1.93-1.81,3.91-2.58,5.92l-.55,1.51-.51,1.53-.47,1.54-.44,1.55-.39,1.56-.35,1.57L91.88,365l-.28,1.58c-.33,2.13-.57,4.26-.71,6.41a47.86,47.86,0,0,1,.46-6.44l.24-1.6.29-1.6.35-1.58.39-1.57.44-1.56.49-1.54.54-1.53.58-1.51A48,48,0,0,1,97.49,348.19Z"/><path class="cls-3" d="M114.79,365a35.82,35.82,0,0,0-4.68,1.9l-1.12.57-1.09.62-1.08.66-1,.7-1,.73-1,.78-1,.8-.94.85a35.37,35.37,0,0,0-3.42,3.71c.24-.35.48-.69.73-1l.79-1,.84-.95.88-.92.92-.88,1-.83,1-.79,1-.75,1.07-.7,1.09-.65,1.12-.6,1.14-.56A27.15,27.15,0,0,1,114.79,365Z"/><path class="cls-4" d="M899.74,673c-20.42-16.31-29.6-45.42-22.22-70.5,2.58-8.78,7-16.92,10.16-25.49a102.84,102.84,0,0,0-1.52-75.14c-5.18-12.29-12.76-23.5-17.28-36.05-4.85-13.48-6-28-5.86-42.36.11-10.82,1-21.75,4.38-32,8-23.87,31.39-42.29,56.56-42.53s49.67,19,53.63,43.88c3,18.89-4.67,39.68,4.21,56.61,5.9,11.25,17.72,17.82,27.38,26.06,13.2,11.26,23.07,26.84,25.73,44s-2.45,35.73-14.84,47.87c-11.13,10.91-28.64,18.52-30.14,34-1.79,18.65,21.45,30.32,25.89,48.53a26.65,26.65,0,0,1-10.32,27.41c-9.39,6.58-16.53,2.49-26.54,2.87-8.53.33-15.53,4-23.91,5.64C935.9,689.54,915.11,685.22,899.74,673Z"/><rect class="cls-3" x="948.44" y="455.74" width="3.3" height="269.98"/><path class="cls-3" d="M950.09,574.23a1.65,1.65,0,0,1-1.65-1.65c0-21.46,33.36-42.43,34.78-43.32a1.65,1.65,0,0,1,1.74,2.81c-.33.2-33.22,20.88-33.22,40.51A1.65,1.65,0,0,1,950.09,574.23Z"/><path class="cls-3" d="M949.76,532a1.65,1.65,0,0,1-1.65-1.65c0-19.64-32.88-40.31-33.21-40.52a1.65,1.65,0,0,1,1.74-2.8c1.42.88,34.77,21.85,34.77,43.32A1.65,1.65,0,0,1,949.76,532Z"/><path class="cls-3" d="M950.09,689.09a1.65,1.65,0,0,1-1.65-1.65c0-21.46,33.36-42.44,34.78-43.32a1.65,1.65,0,0,1,1.74,2.81c-.33.2-33.22,20.88-33.22,40.51A1.65,1.65,0,0,1,950.09,689.09Z"/><path class="cls-3" d="M949.76,646.84a1.65,1.65,0,0,1-1.65-1.65c0-19.63-32.88-40.3-33.21-40.51a1.65,1.65,0,0,1,1.74-2.8c1.42.88,34.77,21.85,34.77,43.31A1.64,1.64,0,0,1,949.76,646.84Z"/><path class="cls-4" d="M987.91,726.7v38.91A25.94,25.94,0,0,1,962,791.55H936a25.94,25.94,0,0,1-25.93-25.94V726.7Z"/><rect class="cls-3" x="898.07" y="715.35" width="101.86" height="13.51" rx="4.83" ry="4.83"/><path class="cls-3" d="M987.91,756.33v.83a382.53,382.53,0,0,1-39,2.8c-1.89,0-3.78,0-5.64,0a281.93,281.93,0,0,1-33.21-1.89v-.88C936.08,760.27,961.47,759.48,987.91,756.33Z"/><path class="cls-3" d="M581.15,169s2.66,154.83,72.55,193.76c0,0-36.27,127.41-36.27,189.34h67.24L690.05,169Z"/><path class="cls-3" d="M497.25,169S494.6,323.86,424.7,362.79c0,0,36.28,127.41,36.28,189.34H393.73L388.36,169Z"/><path class="cls-4" d="M693.81,555.23H385v-392H693.81Zm-299.93-8.85H685V172.12H393.88Z"/><rect class="cls-4" x="389.01" y="355.71" width="300.82" height="7.08"/><rect class="cls-4" x="347.87" y="355.71" width="383.1" height="7.08" transform="translate(898.67 -180.17) rotate(90)"/><rect class="cls-4" x="449.32" y="358.37" width="383.1" height="2.65" transform="translate(1000.57 -281.18) rotate(90)"/><rect class="cls-4" x="396.24" y="358.37" width="383.1" height="2.65" transform="translate(947.48 -228.1) rotate(90)"/><rect class="cls-4" x="300.68" y="358.37" width="383.1" height="2.65" transform="translate(851.93 -132.54) rotate(90)"/><rect class="cls-4" x="247.6" y="358.37" width="383.1" height="2.65" transform="translate(798.84 -79.46) rotate(90)"/><rect class="cls-4" x="390.04" y="485.77" width="299.94" height="2.65" transform="translate(1080.02 974.2) rotate(180)"/><rect class="cls-4" x="390.04" y="432.69" width="299.94" height="2.65" transform="translate(1080.02 868.03) rotate(180)"/><rect class="cls-4" x="390.04" y="284.04" width="299.94" height="2.65" transform="translate(1080.02 570.74) rotate(180)"/><rect class="cls-4" x="390.04" y="230.96" width="299.94" height="2.65" transform="translate(1080.02 464.57) rotate(180)"/><rect class="cls-3" x="359.61" y="555.39" width="357.1" height="12.31"/><polygon class="cls-4" points="322.17 331.15 158.55 331.15 199.9 239 280.82 239 322.17 331.15"/><path class="cls-4" d="M783.88,23.13l-3.3,25.32L749.33,288.39l-.84,6.47-.21,1.55,0,.32-.17,1.37-.67,5.11-.3,2.3-.73,5.54L745,321.28l-.18,1.43-.07.48-1.29,9.92-3.77,29-.79,6-1.76-.25.75-5.77,5-38.1.27-2.11.05-.37L744.59,311l.51-3.92.34-2.64.81-6.19.28-2.1,0-.28.35-2.71.88-6.69,31-238L782,23.63Z"/><path class="cls-4" d="M837,367.92l-1.76.17-.54-6-4-44.52-.12-1.32-.47-5.25-.55-6.1-.22-2.46-.39-4.37-.11-1.1,0-.34-.1-1.23-.61-6.58L806.34,48.45,803.7,19.29l1.76-.2,2.66,29.36,21.53,238.31.64,7,.21,2.32,0,.31.16,1.79.51,5.64.2,2.24.46,5,4.61,51.07Z"/><path class="cls-4" d="M805.55,319.88s10.26-4.84,17.58,3.27C823.13,323.15,812.1,326.47,805.55,319.88Z"/><path class="cls-4" d="M808.29,313.29s13.83-7.39,23.32,4.17C831.61,317.46,816.33,319.88,808.29,313.29Z"/><path class="cls-4" d="M805.22,319.72s-12.2-8-8.44-21.07C796.78,298.65,806.92,303,805.22,319.72Z"/><path class="cls-4" d="M809,312a22.77,22.77,0,0,1,3.55-26.58S817.91,295.93,809,312Z"/><path class="cls-4" d="M817.88,303.13s-4.44-14.39,5.94-23.83C823.82,279.3,829.43,287.37,817.88,303.13Z"/><path class="cls-4" d="M816.64,303.46s14.51-2.52,18.4,7.24C835,310.7,823.21,313.47,816.64,303.46Z"/><path class="cls-4" d="M824.72,298.67s-.45-8.31,8.8-15.6C833.52,283.07,837.1,289.74,824.72,298.67Z"/><path class="cls-4" d="M825.24,298.26s13-1.85,21.46,6.38C846.7,304.64,835.07,311,825.24,298.26Z"/><path class="cls-3" d="M839.78,294.13q-.87.09-1.71.24c-.57.1-1.14.21-1.7.33-1.12.24-2.24.52-3.34.84a47.64,47.64,0,0,0-6.46,2.39,42.53,42.53,0,0,0-6,3.32,38.08,38.08,0,0,0-5.38,4.25c-.83.79-1.61,1.62-2.37,2.48s-1.45,1.77-2.11,2.69a42,42,0,0,0-3.5,5.88c-.24.51-.5,1-.72,1.55-.11.26-.23.52-.33.79l-.32.8c-.11.26-.21.53-.3.8s-.2.53-.3.81l-.27.81-.13.41-.13.41a58,58,0,0,0-1.59,6.71H803a41.88,41.88,0,0,1,1.15-6.85l.11-.42.12-.42.24-.83c.08-.28.18-.56.26-.83s.18-.56.28-.83l.3-.82c.1-.27.22-.54.33-.81.21-.54.45-1.07.69-1.6a33.69,33.69,0,0,1,3.57-6,38.88,38.88,0,0,1,4.68-5.17,40.4,40.4,0,0,1,5.53-4.22,43.41,43.41,0,0,1,6.14-3.25,49.25,49.25,0,0,1,6.55-2.27c1.12-.3,2.24-.56,3.38-.77.57-.11,1.14-.21,1.71-.29s1.14-.15,1.72-.2Z"/><path class="cls-4" d="M772.17,319.88s-10.27-4.84-17.58,3.27C754.59,323.15,765.61,326.47,772.17,319.88Z"/><path class="cls-4" d="M769.42,313.29s-13.83-7.39-23.32,4.17C746.1,317.46,761.39,319.88,769.42,313.29Z"/><path class="cls-4" d="M772.5,319.72s12.19-8,8.43-21.07C780.93,298.65,770.79,303,772.5,319.72Z"/><path class="cls-4" d="M768.75,312a22.77,22.77,0,0,0-3.55-26.58S759.81,295.93,768.75,312Z"/><path class="cls-4" d="M759.84,303.13s4.44-14.39-6-23.83C753.89,279.3,748.29,287.37,759.84,303.13Z"/><path class="cls-4" d="M761.07,303.46s-14.5-2.52-18.4,7.24C742.67,310.7,754.5,313.47,761.07,303.46Z"/><path class="cls-4" d="M753,298.67s.44-8.31-8.81-15.6C744.19,283.07,740.62,289.74,753,298.67Z"/><path class="cls-4" d="M752.48,298.26s-13-1.85-21.47,6.38C731,304.64,742.64,311,752.48,298.26Z"/><path class="cls-3" d="M737.94,294.13q.85.09,1.71.24c.57.1,1.13.21,1.69.33,1.13.24,2.25.52,3.35.84a47.64,47.64,0,0,1,6.46,2.39,43.66,43.66,0,0,1,6,3.32,38.57,38.57,0,0,1,5.37,4.25c.83.79,1.62,1.62,2.37,2.48s1.45,1.77,2.12,2.69a41,41,0,0,1,3.49,5.88c.25.51.5,1,.72,1.55.11.26.23.52.34.79l.32.8c.11.26.2.53.3.8s.2.53.29.81l.27.81.14.41.12.41a56,56,0,0,1,1.59,6.71h.08a40.83,40.83,0,0,0-1.15-6.85l-.1-.42-.12-.42-.24-.83-.27-.83c-.09-.28-.18-.56-.28-.83l-.3-.82c-.1-.27-.21-.54-.32-.81-.21-.54-.46-1.07-.69-1.6a34.34,34.34,0,0,0-3.58-6,38.21,38.21,0,0,0-4.68-5.17,39.71,39.71,0,0,0-5.52-4.22,44,44,0,0,0-6.14-3.25,48.89,48.89,0,0,0-6.56-2.27c-1.11-.3-2.24-.56-3.37-.77-.57-.11-1.14-.21-1.71-.29s-1.15-.15-1.72-.2Z"/><path class="cls-3" d="M820.64,352q-.15.21-.33.42c-5.85,7.32-16.25,12.85-34.36,12.68h-.29v-.3c0-3.13,1-29.83,19.38-41.46l.38-.24c5.28-3.23,12-5.23,20.43-5.13h.25s0,.1.07.28C826.75,320.69,830.62,339,820.64,352Z"/><path class="cls-5" d="M826.17,318.21a147.5,147.5,0,0,1-9.52,12.46l-.35.42c-4.11,4.94-8.7,10.18-12.78,14.76-1.94,2.18-3.85,4.29-5.67,6.3l-.38.42c-5.11,5.62-9.44,10.27-11.52,12.49h-.29v-.3c1.1-1.18,2.83-3,5-5.35.15-.16.3-.33.46-.49h0c4.47-4.85,10.6-11.57,16.56-18.38l.36-.41h0c7.39-8.43,14.48-17,17.84-22.19h.25S826.12,318,826.17,318.21Z"/><path class="cls-5" d="M808.09,340.63l-.41.06,0-.15L805,323.3l.38-.24L808,340.12h0Z"/><rect class="cls-5" x="816.24" y="330.22" width="7.43" height="0.42" transform="matrix(0.99, -0.14, 0.14, 0.99, -37.23, 114.23)"/><path class="cls-5" d="M820.64,352q-.15.21-.33.42l-22.84.19h-.12v-.42h.5Z"/><rect class="cls-5" x="786.96" y="355.12" width="8.38" height="0.42" transform="translate(377.26 1117.47) rotate(-85.68)"/><path class="cls-4" d="M805.55,333.41c0,.18,0,.36,0,.53-.22,9.38-5.14,20.07-19.65,30.91l-.23.18a2.87,2.87,0,0,1-.18-.24c-1.86-2.51-17.32-24.31-9.71-44.72.05-.14.1-.28.16-.42,2.24-5.77,6.34-11.41,13.14-16.47l.2-.14.22.18C791.46,304.83,805.62,317,805.55,333.41Z"/><path class="cls-5" d="M789.49,303.22a147.84,147.84,0,0,1,0,15.67l0,.55c-.27,6.42-.74,13.37-1.21,19.49-.23,2.9-.46,5.75-.7,8.44,0,.19,0,.38,0,.57-.66,7.57-1.29,13.89-1.6,16.91l-.23.18a2.87,2.87,0,0,1-.18-.24c.16-1.6.41-4.12.71-7.27l.06-.67h0c.62-6.57,1.42-15.62,2-24.66,0-.18,0-.36,0-.54h0c.76-11.19,1.23-22.26.74-28.47l.2-.14Z"/><path class="cls-5" d="M788.7,332l-.29.3-.12-.11-12.52-12.12c.05-.14.1-.28.16-.42l12.4,12h0Z"/><rect class="cls-5" x="788.24" y="316.49" width="7.43" height="0.42" transform="translate(8.59 654.08) rotate(-45.1)"/><path class="cls-5" d="M805.55,333.41c0,.18,0,.36,0,.53l-18,14-.1.07-.26-.33.4-.31Z"/><rect class="cls-5" x="783.92" y="349.77" width="0.42" height="8.38" transform="translate(-66.32 483.88) rotate(-32.98)"/><path class="cls-3" d="M776.6,329.41c.14.12.27.23.4.36,6.89,6.35,11.67,17.12,10.21,35.17a2.83,2.83,0,0,1,0,.29l-.3,0c-3.11-.27-29.69-3.07-40-22.26l-.21-.41c-2.85-5.49-4.37-12.3-3.67-20.74,0-.08,0-.16,0-.24l.29-.05C745.85,321.1,764.37,318.54,776.6,329.41Z"/><path class="cls-5" d="M743.34,321.51a145.28,145.28,0,0,1,11.74,10.37l.4.38c4.63,4.45,9.54,9.4,13.82,13.8,2,2.08,4,4.14,5.88,6.09l.39.41c5.25,5.5,9.58,10.15,11.64,12.38a2.83,2.83,0,0,1,0,.29l-.3,0c-1.09-1.18-2.82-3-5-5.34l-.46-.49h0c-4.52-4.8-10.79-11.39-17.16-17.83l-.38-.38h0C756,333.2,748,325.53,743,321.8c0-.08,0-.16,0-.24Z"/><path class="cls-5" d="M764.41,341.13l0,.41h-.16L746.91,343l-.21-.41,17.2-1.37h0Z"/><rect class="cls-5" x="754.87" y="324.86" width="0.42" height="7.43" transform="translate(-19.77 49.81) rotate(-3.73)"/><path class="cls-5" d="M776.6,329.41c.14.12.27.23.4.36l-1.43,22.79v.12l-.41,0,0-.51Z"/><rect class="cls-5" x="777.66" y="354.87" width="0.42" height="8.38" transform="translate(309.23 1076.27) rotate(-81.62)"/><path class="cls-4" d="M842.1,390.75a61.63,61.63,0,0,0,7-28.64H725.06a61.75,61.75,0,0,0,7,28.64Z"/><path class="cls-4" d="M734.43,394.89a62,62,0,0,0,105.31,0Z"/><ellipse class="cls-6" cx="555.96" cy="875.22" rx="479.67" ry="49.73"/><ellipse class="cls-7" cx="555.96" cy="875.22" rx="254.48" ry="26.38"/><path class="cls-5" d="M556,918c-106.62,0-206.86-4.3-282.27-12.12-36.7-3.81-65.53-8.24-85.69-13.18-21.81-5.35-32.42-11.06-32.42-17.46s10.61-12.11,32.42-17.46c20.16-4.94,49-9.37,85.69-13.18,75.41-7.82,175.65-12.12,282.27-12.12s206.86,4.3,282.26,12.12c36.71,3.81,65.54,8.24,85.7,13.18,21.81,5.35,32.41,11.06,32.41,17.46s-10.6,12.11-32.41,17.46c-20.16,4.94-49,9.37-85.7,13.18C762.82,913.68,662.58,918,556,918Zm0-82.73c-106.53,0-206.67,4.3-282,12.11-107.27,11.12-115.61,24.13-115.61,27.86S166.71,892,274,903.08c75.31,7.81,175.45,12.11,282,12.11s206.66-4.3,282-12.11c107.27-11.12,115.6-24.14,115.6-27.86s-8.33-16.74-115.6-27.86C762.62,839.55,662.48,835.25,556,835.25Z"/><polygon class="cls-8" points="869.7 809.68 908.74 870.11 916.18 870.11 890.15 802.25 869.7 809.68"/><path class="cls-8" d="M785.2,490.83H326.72c-49.75,0-90.08,42.46-90.08,94.84V694.41H875.27V585.67C875.27,533.29,835,490.83,785.2,490.83Z"/><polygon class="cls-6" points="556.42 687.91 555.49 687.91 236.64 687.91 236.64 737.17 555.49 737.17 556.42 737.17 875.27 737.17 875.27 687.91 556.42 687.91"/><polygon class="cls-8" points="242.22 809.68 203.18 870.11 195.74 870.11 221.77 802.25 242.22 809.68"/><polygon class="cls-8" points="556.42 723.23 555.49 723.23 236.64 723.23 236.64 782.73 555.49 782.73 556.42 782.73 875.27 782.73 875.27 723.23 556.42 723.23"/><rect class="cls-6" x="178.08" y="616.33" width="98.54" height="197.07" rx="35.21" ry="35.21" transform="translate(454.69 1429.73) rotate(180)"/><path class="cls-8" d="M184.5,758.47V671.26a42.85,42.85,0,1,1,85.69,0v87.21a42.85,42.85,0,1,1-85.69,0ZM191,671.26v87.21a36.34,36.34,0,1,0,72.67,0V671.26a36.34,36.34,0,1,0-72.67,0Z"/><rect class="cls-6" x="835.3" y="616.33" width="98.54" height="197.07" rx="35.21" ry="35.21"/><path class="cls-8" d="M884.57,801.32a42.9,42.9,0,0,1-42.85-42.85V671.26a42.85,42.85,0,1,1,85.7,0v87.21A42.9,42.9,0,0,1,884.57,801.32Zm0-166.4a36.38,36.38,0,0,0-36.34,36.34v87.21a36.34,36.34,0,1,0,72.68,0V671.26A36.38,36.38,0,0,0,884.57,634.92Z"/><path class="cls-9" d="M834.32,571.63s.17,2.76.34,7.38c.66,18.61,1.06,67.42-11.61,87.78,0,0,22.43,11.09,5.23,18.69s-18.95-5.61-18.95-5.61-65.06,9.24-95.12,2.41c-1.48-.33-2.89-.71-4.2-1.13,0,0-20.71,14.21-28.09-.92s14-14.37,14-14.37-16.18-69,2.28-97.17c0,0-25.83-20-5-28.75s26.58,10.68,26.58,10.68,46.39-20.57,104.71,10.72c0,0,9-18.87,19.06-9.87S840.44,574.36,834.32,571.63Z"/><path class="cls-10" d="M828.28,685.48c-17.19,7.59-18.95-5.61-18.95-5.61s-65.06,9.24-95.12,2.41c-1.74-8.84-4.58-31.78-4.9-55.18-.47-34.32,27.6-62.38,61.91-61.55,19.57.48,42.17,3.79,63.44,13.46.66,18.61,1.06,67.42-11.61,87.78C823.05,666.79,845.48,677.88,828.28,685.48Z"/><path class="cls-9" d="M632.44,596.87s1.73-.11,4.61-.21c11.63-.41,42.12-.66,54.84,7.25,0,0,6.93-14,11.67-3.27s-3.5,11.84-3.5,11.84,5.78,40.65,1.51,59.43c-.21.93-.45,1.8-.71,2.62,0,0,8.88,12.94-.58,17.55s-9-8.75-9-8.75-43.1,10.1-60.71-1.43c0,0-12.46,16.14-18,3.13s6.68-16.61,6.68-16.61-12.86-29,6.69-65.41c0,0-11.79-5.6-6.17-11.91S634.14,593.05,632.44,596.87Z"/><path class="cls-10" d="M703.56,600.64c4.74,10.75-3.5,11.84-3.5,11.84s5.78,40.65,1.51,59.43A229.08,229.08,0,0,1,667.09,675a37.89,37.89,0,0,1-38.45-38.68c.3-12.22,2.37-26.34,8.41-39.63,11.63-.41,42.12-.66,54.84,7.25C691.89,603.91,698.82,589.9,703.56,600.64Z"/><path class="cls-11" d="M522.55,569.41l12.55,76.94s-25.43,12.94-54.54,12.94c-31.07,0-52-12.94-52-12.94l12.55-76.94L439.5,536c-10.1-7.59-6.64-28.17-6.64-28.17l-4.25-30.94L468.37,460l25.56-.29,41.4,15.41-4.48,32.72s4.27,19-5.47,27.91Z"/><path class="cls-12" d="M517.19,539s-28.08,19.85-68.51,1.21c0,0,37.77,10.17,68.51-1.21"/><path class="cls-13" d="M538.56,405.63c2,4.09,4.09,8.31,6.14,12.79,6.53,14.26-6.94,16.07-6.94,16.07s5.89,9.71.13,17.49-15.18,3.61-15.18,3.61-2.54,4.23-10.82,4.76c-12,.77-17.18-4.1-17.18-4.1l-13-2.27c-1.52.93-5.67,4.12-15.77,5.34a27.17,27.17,0,0,1-16.42-3.58c-2.26,6.31-19.83,6.26-23.07-3.74-3-9.38.75-13.23,1.21-13.66-7,5.57-22.46-9.49-10.71-23.79,4.78-5.81,7.5-8.51,9.17-11.43-6.07,1.5-13.78-5.84-11.94-12.24,2.38-8.26,9.54-5,14.24-16.83,6.24-15.75,12-21.13,12.37-21.43h0c9.55-10.57,25-17.86,43.22-16.74,15.49.94,25.65,9.65,31.81,16.09a38,38,0,0,1,9.85,19.64c.26,1.49.57,3,.92,4.42,2.94,5.2,8.74,14.44,14.36,17.24C548.58,397.08,546.17,407.2,538.56,405.63Z"/><path class="cls-14" d="M449.49,399.27s-7.15-7-12.87-2.44c-6.75,5.4.31,24.83,12.29,22.77Z"/><path class="cls-5" d="M445.79,418.67a3.43,3.43,0,1,1-3.42-3.42A3.42,3.42,0,0,1,445.79,418.67Z"/><path class="cls-15" d="M447.58,413.16c-1-2.92-3.71-8.93-10.49-11.62,0,0,7.25,6.84,7.8,12.13a1.32,1.32,0,0,0,1.34,1.21h.16A1.3,1.3,0,0,0,447.58,413.16Z"/><path class="cls-14" d="M509.91,399.27s7.16-7,12.88-2.44c6.75,5.4-.31,24.83-12.29,22.77Z"/><path class="cls-5" d="M521.7,418.67a3.42,3.42,0,1,1-3.42-3.42A3.42,3.42,0,0,1,521.7,418.67Z"/><path class="cls-15" d="M511.83,413.16c1-2.92,3.7-8.93,10.49-11.62,0,0-7.25,6.84-7.8,12.13a1.32,1.32,0,0,1-1.34,1.21H513A1.3,1.3,0,0,1,511.83,413.16Z"/><path class="cls-16" d="M495.38,440.8l-.5,9.39L494.26,462s-2.34,4.43-12.88,4.43-12.71-3-12.71-3l-.42-5.22-1.42-17.33Z"/><path class="cls-15" d="M495.38,440.8l-.5,9.39c-4.39,3.29-14.8,9.76-26.63,7.94l-1.42-17.33Z"/><path class="cls-16" d="M518.13,391.87c-.09,1.12-.21,2.29-.33,3.45-2.48,24.15-9.93,54.68-36.57,54.68-26,0-36.26-28.8-39.61-52.36-.23-1.72-.44-3.39-.62-5a38.27,38.27,0,0,1,37.5-42.36h2a38.24,38.24,0,0,1,35.71,25.93,37.4,37.4,0,0,1,1.44,5.48A38.05,38.05,0,0,1,518.13,391.87Z"/><path class="cls-13" d="M513.6,381.37c-10-.85-35.73-8.77-59.15-17.25,0,0,2.05,23.94-11.86,36a7.71,7.71,0,0,0-1-2.48c-.23-1.72-.44-3.39-.62-5a38.27,38.27,0,0,1,37.5-42.36h2a38.24,38.24,0,0,1,35.71,25.93,37.4,37.4,0,0,1,1.44,5.48S516.19,381.61,513.6,381.37Z"/><path class="cls-13" d="M518.13,391.87c-.09,1.12-.21,2.29-.33,3.45-3.14-1.8-4-9.26-4.2-13.95-.12-2.3-.08-3.93-.08-3.93s.18-.81,2.71-1.26a37.4,37.4,0,0,1,1.44,5.48A38.05,38.05,0,0,1,518.13,391.87Z"/><path class="cls-17" d="M432.09,680.47s44.62,31.61,115.27,0L538.06,634l-98.53,2.79Z"/><path class="cls-11" d="M536,475.07S567.33,518,571.78,568.5c2.66,30.07-27.7,80.4-27.7,80.4s-3.79.84-4.49-14c0,0,6.29-29.74,11.81-62.61,0,0-4.57-34.52-20.77-47.88C530.63,524.37,519.44,485.8,536,475.07Z"/><path class="cls-11" d="M475.62,592.18a70,70,0,0,1,12.52-4.75c6.1-1.51,13.55-3.14,17.33-4,4.55-1,4,4.16-2.21,5.93s-7.62,2.21-7.62,2.21,25-.69,31.26,1.75c5.71,2.23-8,3.3-19.38,4.81,0,0,24.25,3.53,26,7.34,2.22,5-27.15.63-27.15.63s21.18,6.44,20.06,8.86c-1.25,2.71-23.74-1.24-23.74-1.24s14.16,5.71,12.84,7c-2.6,2.66-34.58-3.14-44.36-14.31C471.12,606.46,472.78,594.42,475.62,592.18Z"/><path class="cls-11" d="M503,595.36s.68,11.73-6.76,19.7C496.24,615.06,506.57,611.14,503,595.36Z"/><path class="cls-11" d="M493.72,602.84s-13.17,3.84-16.24-7.87C477.48,595,476.69,609.26,493.72,602.84Z"/><path class="cls-11" d="M428.1,476.64s-.47,8.56-32.26,78.48c0,0-15,37.2,77.11,53.06l2.79-16.64a176.86,176.86,0,0,1-29.13-13.31A235.16,235.16,0,0,0,419,564.47S451.07,515,428.1,476.64Z"/><polygon class="cls-8" points="561.3 548.47 552.01 660.95 413.5 660.95 404.67 554.04 404.2 548.47 561.3 548.47"/><polygon class="cls-6" points="552.94 554.04 544.11 660.95 413.5 660.95 404.67 554.04 552.94 554.04"/><circle class="cls-8" cx="482.29" cy="604.24" r="10.23" transform="translate(-286 518.01) rotate(-45)"/><polygon class="cls-18" points="465.21 784.76 473.92 800.31 490.65 792.87 480.43 772.42 465.21 784.76"/><path class="cls-13" d="M490.65,772.42,465.12,784.8,460,787.3s-65.07-104.12-56.71-135.73c4.84-18.31,18.43-21,30.26-14.81,8.6,4.5,16.27,13.7,19,25C459.05,688.76,490.65,772.42,490.65,772.42Z"/><path class="cls-13" d="M490.65,772.42,465.12,784.8c-13-21.55-60.71-103.11-53.48-130.44,3.73-14.07,12.6-18.92,21.89-17.6,8.6,4.5,16.27,13.7,19,25C459.05,688.76,490.65,772.42,490.65,772.42Z"/><path class="cls-19" d="M521.08,821.92c3.2,10.48-30.24,18.53-36.49,17.3-2.42-.48-4.08-2.48-5.24-5.2-1.85-4.35-2.44-10.55-2.78-15.46-.55-8-.79-7.75-1.14-13.22,0,0-3.28-7.92,6.15-14.79s20.52,11.78,23.71,15c2.92,2.94,11.07,5.46,14.87,13.92A22.87,22.87,0,0,1,521.08,821.92Z"/><path class="cls-5" d="M482.22,810.25l-1.31-1c.3-.4,7.45-9.71,16.82-9.08l-.11,1.63C489.12,801.24,482.29,810.16,482.22,810.25Z"/><path class="cls-5" d="M486.36,818.87l-1.31-1c.3-.4,7.45-9.71,16.82-9.08l-.11,1.63C493.27,809.86,486.43,818.78,486.36,818.87Z"/><path class="cls-5" d="M484.29,814.56l-1.31-1c.3-.4,7.45-9.71,16.82-9.08l-.11,1.63C491.19,805.55,484.36,814.47,484.29,814.56Z"/><path class="cls-5" d="M483.3,809.4a1.85,1.85,0,1,1-2.37-1.11A1.85,1.85,0,0,1,483.3,809.4Z"/><path class="cls-5" d="M484.92,813.61a1.84,1.84,0,1,1-2.36-1.11A1.85,1.85,0,0,1,484.92,813.61Z"/><path class="cls-5" d="M487.36,817.52a1.84,1.84,0,1,1-2.36-1.11A1.84,1.84,0,0,1,487.36,817.52Z"/><path class="cls-5" d="M503.51,808.86a1.85,1.85,0,1,1-2.36-1.1A1.85,1.85,0,0,1,503.51,808.86Z"/><path class="cls-5" d="M501.38,804.4a1.84,1.84,0,1,1-2.36-1.11A1.84,1.84,0,0,1,501.38,804.4Z"/><path class="cls-5" d="M499.25,799.94a1.84,1.84,0,1,1-2.36-1.11A1.84,1.84,0,0,1,499.25,799.94Z"/><path class="cls-20" d="M521.08,821.92c3.2,10.48-30.24,18.53-36.49,17.3-2.42-.48-4.08-2.48-5.24-5.2,4.08.71,10.9,1,19.85-2.09,11-3.74,18.05-8.78,21-12.47A22.87,22.87,0,0,1,521.08,821.92Z"/><path class="cls-5" d="M487.27,792.08a18.27,18.27,0,0,0-8.4,5.07l1.65,3.08s5.21-3.81,9.16-5A8.16,8.16,0,0,0,487.27,792.08Z"/><polygon class="cls-18" points="566.83 790.71 565.21 808.46 546.9 808.48 547.91 785.63 566.83 790.71"/><path class="cls-13" d="M538.58,789.79l28.36.92,5.71.18s17.05-121.58-3.45-147c-11.88-14.75-25.39-11.7-33.67-1.21-6,7.6-9.29,19.13-7.17,30.61C533.39,700.51,538.58,789.79,538.58,789.79Z"/><path class="cls-13" d="M538.58,789.79l28.36.92c3.13-25,13.48-118.9-4.25-140.91-9.13-11.34-19.22-12.16-27.16-7.17-6,7.6-9.29,19.13-7.17,30.61C533.39,700.51,538.58,789.79,538.58,789.79Z"/><path class="cls-19" d="M519.52,832.74c-3.19,10.47,30.24,18.53,36.5,17.3,2.41-.48,4.07-2.48,5.23-5.21,1.85-4.34,2.44-10.55,2.78-15.45.56-8,.79-7.75,1.15-13.22,0,0,3.27-7.92-6.16-14.8s-20.52,11.79-23.71,15c-2.92,2.93-11.06,5.46-14.86,13.92A20.94,20.94,0,0,0,519.52,832.74Z"/><path class="cls-5" d="M558.39,821.07l1.3-1c-.3-.4-7.44-9.72-16.81-9.09l.11,1.64C551.48,812.06,558.32,821,558.39,821.07Z"/><path class="cls-5" d="M554.24,829.68l1.31-1c-.3-.4-7.45-9.72-16.82-9.09l.11,1.64C547.34,820.68,554.17,829.59,554.24,829.68Z"/><path class="cls-5" d="M556.31,825.37l1.31-1c-.3-.4-7.45-9.72-16.82-9.09l.11,1.64C549.41,816.37,556.25,825.28,556.31,825.37Z"/><path class="cls-5" d="M557.31,820.22a1.84,1.84,0,1,0,2.36-1.11A1.84,1.84,0,0,0,557.31,820.22Z"/><path class="cls-5" d="M555.69,824.43a1.84,1.84,0,1,0,2.36-1.11A1.84,1.84,0,0,0,555.69,824.43Z"/><path class="cls-5" d="M553.24,828.34a1.84,1.84,0,1,0,2.36-1.11A1.85,1.85,0,0,0,553.24,828.34Z"/><path class="cls-5" d="M537.1,819.68a1.84,1.84,0,1,0,2.36-1.11A1.84,1.84,0,0,0,537.1,819.68Z"/><path class="cls-5" d="M539.22,815.22a1.84,1.84,0,1,0,2.36-1.11A1.84,1.84,0,0,0,539.22,815.22Z"/><path class="cls-5" d="M541.35,810.76a1.84,1.84,0,1,0,2.36-1.11A1.84,1.84,0,0,0,541.35,810.76Z"/><path class="cls-20" d="M519.52,832.74c-3.19,10.47,30.24,18.53,36.5,17.3,2.41-.48,4.07-2.48,5.23-5.21-4.07.71-10.89,1-19.84-2.08-11-3.74-18-8.78-21-12.47A20.94,20.94,0,0,0,519.52,832.74Z"/><path class="cls-5" d="M553.33,802.9a18.26,18.26,0,0,1,8.4,5.06l-1.65,3.09s-5.21-3.82-9.16-4.95A8.16,8.16,0,0,1,553.33,802.9Z"/><path class="cls-16" d="M560.75,604.31a11.62,11.62,0,0,0,1.78-7.11c-.34-3.16-4-3.63-4-3.63l-1.81,10.24s-8.23,1-13.71,5.31,8.23,5.29,8.23,5.29-8,1.17-11.26,2.1-1.17,4.64,11.84,6.45c0,0-11.12.89-12,3.51s13,5,13,5-9.87,1-11.15,3.11c-.94,1.59,6.1,3,9.85,3.7a9.64,9.64,0,0,0,6.14-.89c1.79-1,3.28-2.55,2-5.15,0,0,6-6.79.72-9.85,0,0,6-6.58.54-8.83C561,613.55,567.16,607.8,560.75,604.31Z"/></g></g></g></g></svg>