<svg width="1096" height="780" viewBox="0 0 1096 780" fill="none" xmlns="http://www.w3.org/2000/svg">
<path d="M430.9 174.3C540.1 181.5 619.1 245.9 714.1 293.3C778.8 325.6 858.5 376.6 936.2 363.5C1026.1 348.4 1059.6 245.1 990.7 180.4C922.7 116.6 777.7 185 717.1 229.8C612 307.6 550.7 473.2 567.7 601.4C619.2 605.3 674.2 602.5 726 603.1C725.8 468.4 666.8 277.4 820.6 213.2C852.6 199.9 951.5 185.6 963.4 235.4C976.5 290.2 879.3 292.7 846 275.1C699.8 198 583 116 403.6 120.2C285.9 122.9 88.6 177.8 30 292.4C93.1 169.3 318.9 167 430.9 174.3Z" fill="white"/>
<path d="M843 495.8L643.7 687L452.5 487.7L843 495.8Z" fill="white"/>
</svg>
