<svg  viewBox="0 0 390 200" fill="none" xmlns="http://www.w3.org/2000/svg">
<path fill-rule="evenodd" clip-rule="evenodd" d="M314.999 7.00011C292.999 -6.99982 6.99939 7.00011 6.99939 7.00011C6.99939 7.00011 -7.00053 53.0001 6.99939 76.0001C20.9993 99.0002 304.999 89.0002 314.999 76.0001C325 63.0001 337 21 314.999 7.00011ZM16.632 63.096C20.28 67.56 24.768 69.792 30.096 69.792C34.224 69.792 37.92 68.616 41.184 66.264C44.448 63.864 46.872 60.552 48.456 56.328L42.48 52.872C41.712 55.272 40.392 57.192 38.52 58.632C36.648 60.072 34.56 60.792 32.256 60.792C28.704 60.792 25.896 59.184 23.832 55.968C21.768 52.704 20.736 48.552 20.736 43.512C20.736 38.424 21.72 34.512 23.688 31.776C25.704 29.04 28.368 27.672 31.68 27.672C33.312 27.672 35.136 28.104 37.152 28.968C39.168 29.784 40.728 30.672 41.832 31.632L46.728 21.624L45.432 20.832C44.52 20.304 42.984 19.8 40.824 19.32C38.712 18.792 36.408 18.528 33.912 18.528C27.528 18.528 22.128 21.24 17.712 26.664C13.344 32.088 11.16 38.76 11.16 46.68C11.16 53.16 12.984 58.632 16.632 63.096ZM55.6403 38.328C52.3283 42.6 50.6722 47.808 50.6722 53.952C50.6722 58.512 51.9683 62.304 54.5602 65.328C57.2002 68.304 60.5122 69.792 64.4963 69.792C69.3443 69.792 73.3522 67.704 76.5202 63.528C79.7363 59.304 81.3443 54.024 81.3443 47.688C81.3443 42.936 80.0963 39.12 77.6003 36.24C75.1523 33.36 71.6963 31.92 67.2323 31.92C62.8162 31.92 58.9523 34.056 55.6403 38.328ZM66.1523 40.992C70.9043 40.992 73.2803 44.472 73.2803 51.432C73.2803 54.744 72.6803 57.288 71.4802 59.064C70.3282 60.792 68.6003 61.656 66.2962 61.656C64.0403 61.656 62.2163 60.696 60.8242 58.776C59.4323 56.856 58.7363 54.192 58.7363 50.784C58.7363 44.256 61.2083 40.992 66.1523 40.992ZM107.583 44.16C108.159 45.264 108.447 47.472 108.447 50.784L107.583 69.36L117.303 67.56L116.511 50.28L116.943 42.216C116.943 39.288 116.199 36.984 114.711 35.304C113.223 33.576 111.375 32.712 109.167 32.712C107.007 32.712 104.943 33.312 102.975 34.512C101.007 35.664 99.5666 36.72 98.6546 37.68C97.7426 38.592 96.9266 39.528 96.2066 40.488C96.0626 37.848 95.8226 35.136 95.4866 32.352L86.7746 34.224C87.6386 39.312 88.1666 45.072 88.3586 51.504L87.4946 69L97.1426 67.2L96.3506 50.28V45.024C99.0386 43.344 101.439 42.504 103.551 42.504C105.663 42.504 107.007 43.056 107.583 44.16ZM139.87 58.992C139.87 61.2 138.622 62.304 136.126 62.304C134.686 62.304 133.174 61.824 131.59 60.864C130.054 59.904 129.022 59.136 128.494 58.56C127.966 57.984 127.558 57.504 127.27 57.12L121.582 63.744L122.878 65.256C123.742 66.264 125.158 67.272 127.126 68.28C129.142 69.288 131.302 69.792 133.606 69.792C137.206 69.792 140.374 68.52 143.11 65.976C145.894 63.432 147.286 60.48 147.286 57.12C147.286 54.768 146.446 52.752 144.766 51.072C143.134 49.344 141.334 48.12 139.366 47.4C137.398 46.632 135.574 45.816 133.894 44.952C132.262 44.04 131.446 43.152 131.446 42.288C131.446 41.376 131.734 40.68 132.31 40.2C132.934 39.672 133.798 39.408 134.902 39.408C136.054 39.408 137.35 39.768 138.79 40.488C140.278 41.16 141.286 41.712 141.814 42.144C142.342 42.576 142.774 42.936 143.11 43.224L147.934 34.44C146.398 33.576 144.79 32.952 143.11 32.568C141.478 32.136 139.798 31.92 138.07 31.92C134.374 31.92 131.11 33.12 128.278 35.52C125.446 37.92 124.03 40.728 124.03 43.944C124.03 45.864 124.558 47.568 125.614 49.056C126.718 50.544 128.038 51.72 129.574 52.584C131.158 53.4 132.718 54.144 134.254 54.816C135.838 55.488 137.158 56.16 138.214 56.832C139.318 57.504 139.87 58.224 139.87 58.992ZM155.894 66.48C157.526 68.16 159.638 69 162.23 69C165.398 69 169.142 66.576 173.462 61.728C173.798 63.6 174.758 66.096 176.342 69.216L183.83 65.904C182.246 62.784 181.454 59.688 181.454 56.616L181.382 50.712L182.246 32.712L172.526 34.512L173.318 53.448V57.768C170.438 59.4 168.182 60.216 166.55 60.216C164.918 60.216 163.718 59.736 162.95 58.776C162.23 57.816 161.87 56.304 161.87 54.24L162.806 32.352L153.158 34.152L153.95 51.432L153.518 59.712C153.518 62.496 154.31 64.752 155.894 66.48ZM199.221 50.28L200.157 13.272L190.293 15.072L191.157 51.504L190.293 69L200.013 67.2L199.221 50.28ZM211.312 26.304V34.152H207.136L206.344 40.056H211.312L211.384 51.432L210.952 59.496C210.952 62.328 211.72 64.632 213.256 66.408C214.792 68.136 216.76 69 219.16 69C221.56 69 224.344 67.68 227.512 65.04L227.08 59.928C225.16 60.456 223.624 60.72 222.472 60.72C221.32 60.72 220.528 60.36 220.096 59.64C219.664 58.872 219.448 57.36 219.448 55.104L219.808 40.056H228.016L228.808 34.152H220.096L221.032 24.432L211.312 26.304ZM251.039 65.832C254.015 68.472 257.663 69.792 261.983 69.792C267.983 69.792 272.879 68.016 276.671 64.464C280.463 60.912 282.359 56.304 282.359 50.64L283.151 18.96L273.071 20.76L273.935 48.984C273.935 53.448 273.215 56.592 271.775 58.416C270.335 60.24 267.983 61.152 264.719 61.152C261.455 61.152 259.031 60.216 257.447 58.344C255.911 56.472 255.143 53.856 255.143 50.496L256.295 18.96L245.927 20.76L246.647 56.04C246.647 59.928 248.111 63.192 251.039 65.832ZM306.722 58.992C306.722 61.2 305.474 62.304 302.978 62.304C301.538 62.304 300.026 61.824 298.442 60.864C296.906 59.904 295.874 59.136 295.346 58.56C294.818 57.984 294.41 57.504 294.122 57.12L288.434 63.744L289.73 65.256C290.594 66.264 292.01 67.272 293.978 68.28C295.994 69.288 298.154 69.792 300.458 69.792C304.058 69.792 307.226 68.52 309.962 65.976C312.746 63.432 314.138 60.48 314.138 57.12C314.138 54.768 313.298 52.752 311.618 51.072C309.986 49.344 308.186 48.12 306.218 47.4C304.25 46.632 302.426 45.816 300.746 44.952C299.114 44.04 298.298 43.152 298.298 42.288C298.298 41.376 298.586 40.68 299.162 40.2C299.786 39.672 300.65 39.408 301.754 39.408C302.906 39.408 304.202 39.768 305.642 40.488C307.13 41.16 308.138 41.712 308.666 42.144C309.194 42.576 309.626 42.936 309.962 43.224L314.786 34.44C313.25 33.576 311.642 32.952 309.962 32.568C308.33 32.136 306.65 31.92 304.922 31.92C301.226 31.92 297.962 33.12 295.13 35.52C292.298 37.92 290.882 40.728 290.882 43.944C290.882 45.864 291.41 47.568 292.466 49.056C293.57 50.544 294.89 51.72 296.426 52.584C298.01 53.4 299.57 54.144 301.106 54.816C302.69 55.488 304.01 56.16 305.066 56.832C306.17 57.504 306.722 58.224 306.722 58.992Z" fill="white"/>
</svg>
