<svg xmlns="http://www.w3.org/2000/svg" xmlns:xlink="http://www.w3.org/1999/xlink" viewBox="0 0 1080 1080"><defs><style>.cls-1{fill:#3a4558;}.cls-2{fill:#2c3547;}.cls-3{fill:#263040;}.cls-4{fill:#151e2d;}.cls-5{fill:#495c9f;}.cls-6{fill:#3d5199;}.cls-7{fill:#505e9f;}.cls-8{fill:#37498a;}.cls-9{fill:#5064ad;}.cls-10{fill:#3e55a4;}.cls-11{fill:#e68e51;}.cls-12{fill:#f9a559;}.cls-13{fill:#cc7445;}.cls-14{fill:#f3ddcc;}.cls-15{fill:#c6b2a1;}.cls-16{fill:#d7bbac;}.cls-17{fill:#f2796f;}.cls-18{fill:#f48883;}.cls-19{fill:#f05f5c;}.cls-20{fill:#ee3e3b;}.cls-21{fill:#dd9498;}.cls-22{fill:#f5b0b5;}.cls-23{fill:#d2828d;}.cls-24{fill:#73cac9;}.cls-25{fill:#854782;}.cls-26{fill:#9a5497;}.cls-27{fill:#a66ead;}.cls-28{fill:#6d376b;}.cls-29{fill:url(#linear-gradient);}.cls-30{fill:url(#linear-gradient-2);}.cls-31{fill:url(#linear-gradient-3);}.cls-32{fill:url(#linear-gradient-4);}.cls-33{fill:url(#linear-gradient-5);}.cls-34{fill:url(#linear-gradient-6);}.cls-35{fill:url(#linear-gradient-7);}.cls-36{fill:url(#linear-gradient-8);}.cls-37{fill:url(#linear-gradient-9);}.cls-38{fill:url(#linear-gradient-10);}.cls-39{fill:url(#linear-gradient-11);}.cls-40{fill:url(#linear-gradient-12);}.cls-41{fill:url(#linear-gradient-13);}.cls-42{fill:url(#linear-gradient-14);}.cls-43{fill:url(#linear-gradient-15);}.cls-44{fill:url(#linear-gradient-16);}.cls-45{fill:url(#linear-gradient-17);}.cls-46{fill:url(#linear-gradient-18);}.cls-47{fill:url(#linear-gradient-19);}.cls-48{fill:#e38b8b;}.cls-49{fill:#b1b0d8;}.cls-50{fill:#f05a28;}.cls-51{fill:#292660;}.cls-52{fill:#f3adac;}.cls-53{fill:#2e3191;}.cls-54{fill:#9994c8;}.cls-55{fill:#fff;}.cls-56{fill:#2c3a64;}.cls-57{fill:#ed975d;}.cls-58{fill:#ffa412;}.cls-59{fill:#35488b;}.cls-60{fill:#ffb27d;}.cls-61{fill:#2b478b;}.cls-62{fill:#ffb93e;}</style><linearGradient id="linear-gradient" x1="-3169.73" y1="-4593.04" x2="-3167.86" y2="-4593.04" gradientTransform="matrix(10.39, 0, 0, -10.39, 33374.57, -46841.23)" gradientUnits="userSpaceOnUse"><stop offset="0" stop-color="#2a303a"/><stop offset="1" stop-color="#040c1a"/></linearGradient><linearGradient id="linear-gradient-2" x1="-2568.29" y1="-4593.03" x2="-2566.42" y2="-4593.03" gradientTransform="translate(-25914.59 -46836.52) rotate(180) scale(10.39)" xlink:href="#linear-gradient"/><linearGradient id="linear-gradient-3" x1="-2877.12" y1="-4630.63" x2="-2875.25" y2="-4630.63" gradientTransform="matrix(211.33, 0, 0, -211.33, 608437.82, -977879.83)" gradientUnits="userSpaceOnUse"><stop offset="0" stop-color="#3a414d"/><stop offset="1" stop-color="#1a222e"/></linearGradient><linearGradient id="linear-gradient-4" x1="-3150.92" y1="-4554.56" x2="-3148.47" y2="-4554.56" gradientTransform="matrix(10.72, -0.97, -0.97, -10.72, 29902.22, -51268.63)" gradientUnits="userSpaceOnUse"><stop offset="0" stop-color="#73986d"/><stop offset="0.06" stop-color="#73986d"/><stop offset="0.8" stop-color="#44835b"/><stop offset="1" stop-color="#44835b"/></linearGradient><linearGradient id="linear-gradient-5" x1="-3149.71" y1="-4563.77" x2="-3147.26" y2="-4563.77" gradientTransform="matrix(10.87, -0.64, -0.64, -10.87, 31807.82, -51003.36)" gradientUnits="userSpaceOnUse"><stop offset="0" stop-color="#73986d"/><stop offset="0.06" stop-color="#73986d"/><stop offset="0.95" stop-color="#44835b"/><stop offset="1" stop-color="#44835b"/></linearGradient><linearGradient id="linear-gradient-6" x1="-3154.2" y1="-4688.97" x2="-3151.75" y2="-4688.97" gradientTransform="matrix(10.05, 3.86, 3.86, -10.05, 50352.42, -34345.31)" xlink:href="#linear-gradient-4"/><linearGradient id="linear-gradient-7" x1="-3148.84" y1="-4696.74" x2="-3146.39" y2="-4696.74" gradientTransform="matrix(10.04, 4.21, 4.21, -10.04, 51948.89, -33268.97)" xlink:href="#linear-gradient-5"/><linearGradient id="linear-gradient-8" x1="-3289.66" y1="-4418.98" x2="-3287.21" y2="-4418.98" gradientTransform="matrix(6.46, -1.96, -1.96, -6.46, 13098.23, -34353.38)" xlink:href="#linear-gradient-4"/><linearGradient id="linear-gradient-9" x1="-3290.9" y1="-4433.93" x2="-3288.45" y2="-4433.93" gradientTransform="matrix(6.59, -1.78, -1.78, -6.59, 14303.63, -34438.7)" xlink:href="#linear-gradient-5"/><linearGradient id="linear-gradient-10" x1="-3288.5" y1="-4835.06" x2="-3286.05" y2="-4835.06" gradientTransform="matrix(5.51, 3.9, 3.9, -5.51, 37563.62, -13193.82)" xlink:href="#linear-gradient-4"/><linearGradient id="linear-gradient-11" x1="-3277.2" y1="-4845.26" x2="-3274.75" y2="-4845.26" gradientTransform="matrix(5.45, 4.11, 4.11, -5.45, 38361.92, -12290.57)" xlink:href="#linear-gradient-5"/><linearGradient id="linear-gradient-12" x1="-3317.86" y1="-4564.28" x2="-3315.41" y2="-4564.28" gradientTransform="matrix(6.99, 0.15, 0.15, -6.99, 24369.49, -30757.15)" gradientUnits="userSpaceOnUse"><stop offset="0" stop-color="#93b590"/><stop offset="0.06" stop-color="#93b590"/><stop offset="0.8" stop-color="#63a17c"/><stop offset="1" stop-color="#63a17c"/></linearGradient><linearGradient id="linear-gradient-13" x1="-3314.51" y1="-4578.43" x2="-3312.06" y2="-4578.43" gradientTransform="matrix(7.05, 0.37, 0.37, -7.05, 25573.96, -30441.95)" gradientUnits="userSpaceOnUse"><stop offset="0" stop-color="#93b590"/><stop offset="0.06" stop-color="#93b590"/><stop offset="0.95" stop-color="#63a17c"/><stop offset="1" stop-color="#63a17c"/></linearGradient><linearGradient id="linear-gradient-14" x1="-3261.63" y1="-4738.06" x2="-3259.18" y2="-4738.06" gradientTransform="matrix(7.02, 3.23, 3.23, -7.02, 38785.85, -22096.98)" xlink:href="#linear-gradient-12"/><linearGradient id="linear-gradient-15" x1="-3253.55" y1="-4748.55" x2="-3251.1" y2="-4748.55" gradientTransform="matrix(7, 3.48, 3.48, -7, 39880.16, -21252.07)" xlink:href="#linear-gradient-13"/><linearGradient id="linear-gradient-16" x1="-3183.48" y1="-4642.89" x2="-3181.03" y2="-4642.89" gradientTransform="matrix(9.77, 2.06, 2.06, -9.77, 41198.81, -38211.49)" xlink:href="#linear-gradient-12"/><linearGradient id="linear-gradient-17" x1="-3179.35" y1="-4652.05" x2="-3176.9" y2="-4652.05" gradientTransform="matrix(9.81, 2.38, 2.38, -9.81, 42804.09, -37444.38)" xlink:href="#linear-gradient-13"/><linearGradient id="linear-gradient-18" x1="-3016.01" y1="-4608.07" x2="-3013.56" y2="-4608.07" gradientTransform="matrix(20.62, 0, 0, -20.62, 62702.75, -94307.86)" gradientUnits="userSpaceOnUse"><stop offset="0" stop-color="#6acadc"/><stop offset="0.1" stop-color="#6acadc"/><stop offset="1" stop-color="#35c1d5"/></linearGradient><linearGradient id="linear-gradient-19" x1="-3007.64" y1="-4608.79" x2="-3005.19" y2="-4608.79" gradientTransform="matrix(21.78, 0, 0, -21.78, 66025.48, -99691.8)" gradientUnits="userSpaceOnUse"><stop offset="0" stop-color="#f3bd9c"/><stop offset="0.11" stop-color="#f3bd9c"/><stop offset="0.96" stop-color="#e29b77"/><stop offset="1" stop-color="#e29b77"/></linearGradient></defs><title>Counselling</title><g id="Layer_1" data-name="Layer 1"><g id="Table_Chair" data-name="Table Chair"><path class="cls-1" d="M740.87,1005.71C753.4,940.48,773.07,811.61,776,789l-18.56-2.12s-19,146.53-26.58,218.81Z"/><path class="cls-2" d="M764,868.64C766.19,855.37,775.2,794.93,776,789l-18.56-2.12s-7.78,61.82-10.15,79.83A87.21,87.21,0,0,1,764,868.64Z"/><path class="cls-1" d="M907,1005.71c-9.56-65.17-34-195.35-38.75-217.81L850,792s30,142.4,46.84,213.68Z"/><path class="cls-2" d="M883.33,867c-2.36-13.23-13.83-73.25-15.07-79.08L850,792s13.09,60.93,16.8,78.71A86.75,86.75,0,0,1,883.33,867Z"/><path class="cls-3" d="M793.08,1005.71c12.52-65.23,32.19-194.1,35.08-216.69L809.6,786.9s-19,146.53-26.59,218.81Z"/><path class="cls-4" d="M816.24,868.64c2.15-13.27,11.17-73.71,11.92-79.62L809.6,786.9s-7.78,61.82-10.15,79.83A87.11,87.11,0,0,1,816.24,868.64Z"/><path class="cls-3" d="M959.21,1005.71c-9.56-65.17-34-195.35-38.74-217.81L902.25,792s30,142.4,46.83,213.68Z"/><path class="cls-4" d="M935.53,867c-2.36-13.23-13.82-73.25-15.06-79.08L902.25,792s13.08,60.93,16.8,78.71A86.82,86.82,0,0,1,935.53,867Z"/><path class="cls-5" d="M763.2,761.94c4.67-20.7,29.07-36.85,61-46.7a12.7,12.7,0,0,1,2.18-.26c-1.55-7.94-1.45-90.78,28.5-98.52h-.64c-41.51,12.76-25.84,44.88-57.68,82.44-28.42,27.52-31.11,23.54-45.64,43.33-.18.46-.29.93-.48,1.37-15.7,38,20.4,58,25.78,58h1.38C771.44,799,758.3,777.36,763.2,761.94Z"/><path class="cls-6" d="M750.45,743.6c.19-.44.3-.91.48-1.37H701.75c-2.4,6.15-13.85,39.42,26.57,59.4h47.91C770.85,801.63,734.75,781.65,750.45,743.6Z"/><path class="cls-7" d="M750.93,742.23c14.53-19.79,17.22-15.81,45.64-43.33l-41.66-1.31c-22,18.81-43.13,20.93-53.16,44.64Z"/><path class="cls-6" d="M796.57,698.9c31.84-37.56,16.17-69.68,57.68-82.44.52-.17,1-.32,1.58-.48,0,0-23.45-.87-39.19,9.82-29.87,20.27-32,41.7-61.73,71.79Z"/><path class="cls-6" d="M826.39,715c5.48-.39,20-.58,38-.66,7.74-4.55,16.23-9.36,24.86-16.73,29.78-30.09,31.87-51.52,61.74-71.79,6.39-4.35,14.06-6.78,20.91-8.14a95,95,0,0,1,10.29-1.41c.06-.17-72.87-10.79-126.38,0l-.94.22C824.94,624.2,824.84,707,826.39,715Z"/><path class="cls-8" d="M832.85,761.94H763.2c-4.9,15.42,8.24,37,14.41,39.68a2.89,2.89,0,0,0,1.14.27l83.94-.26C839.61,790.23,833.45,774.49,832.85,761.94Z"/><path class="cls-7" d="M864.41,714.32c-18,.08-32.54.27-38,.66a12.7,12.7,0,0,0-2.18.26c-31.94,9.85-56.34,26-61,46.7h69.65a49.48,49.48,0,0,1,3.26-19.71C842.21,727.81,852.41,721.38,864.41,714.32Z"/><path class="cls-5" d="M988.31,616.55c-41.13,12.82-25.61,44.89-57.37,82.35-28.42,27.52-31.12,23.54-45.64,43.33-.18.46-.3.93-.48,1.37-15.7,38,20.4,58,25.79,58C1009.37,801.89,1047.49,624.15,988.31,616.55Z"/><path class="cls-6" d="M884.82,743.6c.18-.44.3-.91.48-1.37H836.11a49.48,49.48,0,0,0-3.26,19.71c.6,12.55,6.76,28.29,29.84,39.69h47.92C905.22,801.63,869.12,781.65,884.82,743.6Z"/><path class="cls-9" d="M889.27,697.59c-8.63,7.37-17.12,12.18-24.86,16.73-12,7.06-22.2,13.49-28.3,27.91H885.3c14.52-19.79,17.22-15.81,45.64-43.33Z"/><path class="cls-10" d="M971.92,617.66c-6.85,1.36-14.52,3.79-20.91,8.14-29.87,20.27-32,41.7-61.74,71.79l41.67,1.31c31.76-37.46,16.24-69.53,57.37-82.35.62-.19-.9-.67-5.19-.37A90,90,0,0,0,971.92,617.66Z"/><path class="cls-1" d="M328.27,1017.75c-12.52-65.23-32.19-194.1-35.08-216.69l18.56-2.12s19,146.53,26.59,218.81Z"/><path class="cls-2" d="M305.11,880.68C303,867.41,294,807,293.19,801.06l18.56-2.12s7.78,61.82,10.15,79.82A87.92,87.92,0,0,0,305.11,880.68Z"/><path class="cls-1" d="M162.13,1017.75c9.57-65.17,34-195.35,38.75-217.82l18.22,4.13s-30,142.41-46.83,213.69Z"/><path class="cls-2" d="M185.82,879c2.36-13.24,13.82-73.26,15.06-79.09l18.22,4.13S206,865,202.31,882.76A87.86,87.86,0,0,0,185.82,879Z"/><path class="cls-3" d="M276.06,1017.75c-12.52-65.23-32.19-194.1-35.07-216.69l18.55-2.12s19,146.53,26.6,218.81Z"/><path class="cls-4" d="M252.9,880.68C250.75,867.41,241.74,807,241,801.06l18.55-2.12s7.79,61.82,10.16,79.82A88,88,0,0,0,252.9,880.68Z"/><path class="cls-3" d="M109.93,1017.75c9.56-65.17,34-195.35,38.75-217.82l18.21,4.13s-30,142.41-46.82,213.69Z"/><path class="cls-4" d="M133.61,879c2.36-13.24,13.83-73.26,15.07-79.09l18.21,4.13S153.81,865,150.1,882.76A87.86,87.86,0,0,0,133.61,879Z"/><path class="cls-5" d="M305.94,774c-4.67-20.7-29.06-36.85-61-46.7a11.87,11.87,0,0,0-2.19-.26c1.56-7.94,1.46-90.78-28.5-98.52h.64c41.51,12.76,25.85,44.88,57.68,82.43,28.42,27.52,31.12,23.55,45.64,43.34.18.45.29.93.48,1.37,15.7,38.05-20.4,58-25.78,58h-1.37C297.7,811,310.85,789.4,305.94,774Z"/><path class="cls-6" d="M318.69,755.64c-.19-.44-.3-.92-.48-1.37h49.18c2.4,6.14,13.85,39.42-26.57,59.4H292.91C298.29,813.67,334.39,793.69,318.69,755.64Z"/><path class="cls-7" d="M318.21,754.27c-14.52-19.79-17.22-15.82-45.64-43.34l41.67-1.3c22,18.8,43.13,20.93,53.15,44.64Z"/><path class="cls-6" d="M272.57,710.93c-31.83-37.55-16.17-69.67-57.68-82.43-.52-.17-1-.32-1.58-.48,0,0,23.45-.88,39.19,9.81,29.87,20.28,32,41.71,61.74,71.8Z"/><path class="cls-6" d="M242.75,727c-5.48-.39-20-.58-38-.66-7.74-4.55-16.23-9.36-24.86-16.73-29.77-30.09-31.87-51.52-61.73-71.8-6.4-4.34-14.07-6.77-20.92-8.13a90,90,0,0,0-10.29-1.41c-.05-.18,72.88-10.79,126.38,0l.94.22C244.21,636.24,244.31,719.08,242.75,727Z"/><path class="cls-8" d="M236.29,774h69.65c4.91,15.42-8.24,37-14.4,39.68a2.94,2.94,0,0,1-1.15.27l-83.93-.26C229.53,802.26,235.69,786.53,236.29,774Z"/><path class="cls-7" d="M204.73,726.36c18,.08,32.54.27,38,.66a11.87,11.87,0,0,1,2.19.26c31.94,9.85,56.33,26,61,46.7H236.29A49.22,49.22,0,0,0,233,754.27C226.93,739.85,216.74,733.41,204.73,726.36Z"/><path class="cls-5" d="M80.84,628.59c41.12,12.82,25.61,44.89,57.37,82.34,28.42,27.52,31.11,23.55,45.64,43.34.18.45.29.93.47,1.37,15.7,38.05-20.4,58-25.78,58C59.77,813.93,21.65,636.19,80.84,628.59Z"/><path class="cls-6" d="M184.32,755.64c-.18-.44-.29-.92-.47-1.37H233A49.22,49.22,0,0,1,236.29,774c-.6,12.55-6.76,28.28-29.83,39.69H158.54C163.92,813.67,200,793.69,184.32,755.64Z"/><path class="cls-9" d="M179.87,709.63c8.63,7.37,17.12,12.18,24.86,16.73,12,7,22.2,13.49,28.3,27.91H183.85c-14.53-19.79-17.22-15.82-45.64-43.34Z"/><path class="cls-10" d="M97.22,629.7c6.85,1.36,14.52,3.79,20.92,8.13,29.86,20.28,32,41.71,61.73,71.8l-41.66,1.3c-31.76-37.45-16.25-69.52-57.37-82.34-.62-.19.89-.67,5.18-.37A87.87,87.87,0,0,1,97.22,629.7Z"/><path class="cls-11" d="M666.85,695h-1.6v3.87h.36s7.77.73,7.77,8-7.77,7.64-7.77,7.64h-.36v3.86h1.6s10.82,0,10.82-11.69S666.85,695,666.85,695Z"/><path class="cls-12" d="M631,695H580.24a1.93,1.93,0,0,0-1.92,1.92v0a1.92,1.92,0,0,0,1.92,1.92h85V695Z"/><path class="cls-13" d="M631,714.53H580.24a1.92,1.92,0,0,0-1.92,1.92v0a1.92,1.92,0,0,0,1.92,1.92h85v-3.86Z"/><path class="cls-14" d="M665.61,698.87H580.24v15.66h85.37s7.77-.24,7.77-7.64S665.61,698.87,665.61,698.87Z"/><path class="cls-15" d="M668.66,699.69v14.17a7,7,0,0,0,4.72-7A7.39,7.39,0,0,0,668.66,699.69Z"/><path class="cls-16" d="M582.69,703.26h74a.81.81,0,0,0,0-1.61h-74a.81.81,0,1,0,0,1.61"/><path class="cls-16" d="M595.52,707.7h71.63a.81.81,0,1,0,0-1.61H595.52a.81.81,0,1,0,0,1.61"/><path class="cls-16" d="M587.3,711.47h74.07a.8.8,0,0,0,0-1.6H587.3a.8.8,0,0,0,0,1.6"/><path class="cls-17" d="M597.37,659.78h1.09v2.63h-.25a4.22,4.22,0,0,0-4.21,4.21v2.25a4.23,4.23,0,0,0,4.21,4.21h.25v2.64h-1.09a6.31,6.31,0,0,1-6.29-6.29v-3.36A6.31,6.31,0,0,1,597.37,659.78Z"/><path class="cls-18" d="M621.81,659.78H663.6a1.31,1.31,0,0,1,1.31,1.3v0a1.31,1.31,0,0,1-1.31,1.31H598.46v-2.63Z"/><path class="cls-19" d="M621.81,673.08H663.6a1.31,1.31,0,0,1,1.31,1.31v0a1.31,1.31,0,0,1-1.31,1.31H598.46v-2.64Z"/><path class="cls-14" d="M598.21,662.41H663.6v10.67H598.21a4.23,4.23,0,0,1-4.21-4.21v-2.25A4.22,4.22,0,0,1,598.21,662.41Z"/><path class="cls-16" d="M662.6,664.05H604.26a.81.81,0,0,0,0,1.61H662.6a.81.81,0,1,0,0-1.61"/><path class="cls-16" d="M659.6,667.08H597.16a.8.8,0,0,0,0,1.6H659.6a.8.8,0,1,0,0-1.6"/><path class="cls-16" d="M662.08,669.65h-61a.81.81,0,1,0,0,1.61h61a.81.81,0,0,0,0-1.61"/><polygon class="cls-20" points="606.6 664.85 606.6 671.44 604.26 668.85 601.92 671.44 601.92 664.85 606.6 664.85"/><path class="cls-21" d="M646.84,640.25h-1.33v3.23h.3a6.59,6.59,0,0,1,5.17,6.7,6.1,6.1,0,0,1-5.17,6.37h-.3v3.23h1.33s7.71,0,7.71-9.76S646.84,640.25,646.84,640.25Z"/><path class="cls-22" d="M616.91,640.25H603a1.61,1.61,0,0,0-1.61,1.6v0a1.61,1.61,0,0,0,1.61,1.6h42.47v-3.23Z"/><path class="cls-23" d="M616.91,656.55H603a1.61,1.61,0,0,0-1.61,1.6v0a1.61,1.61,0,0,0,1.61,1.6h42.47v-3.23Z"/><path class="cls-14" d="M645.81,643.48H603v13.07h42.77s5.17-.46,5.17-6.37A6.4,6.4,0,0,0,645.81,643.48Z"/><path class="cls-16" d="M604.26,647.28H638.4a.81.81,0,0,0,0-1.61H604.26a.81.81,0,0,0,0,1.61"/><path class="cls-16" d="M607.93,651H647.1a.81.81,0,0,0,0-1.61H607.93a.81.81,0,0,0,0,1.61"/><path class="cls-16" d="M604.9,654.13h37.37a.8.8,0,1,0,0-1.6H604.9a.8.8,0,0,0,0,1.6"/><polygon class="cls-24" points="621.13 646.47 621.13 655.91 623.58 654.21 626.04 655.91 626.04 646.47 621.13 646.47"/><path class="cls-25" d="M681,675.48H625.07a1.6,1.6,0,0,0-1.6,1.6v0a1.6,1.6,0,0,0,1.6,1.6v13.07a1.6,1.6,0,0,0-1.6,1.6v0a1.6,1.6,0,0,0,1.6,1.59H681a7.72,7.72,0,0,0,7.71-7.7v-4.11A7.73,7.73,0,0,0,681,675.48Z"/><path class="cls-26" d="M624.81,675.48h-1.34v3.23h.31a5.17,5.17,0,0,1,5.16,5.16v2.75a5.17,5.17,0,0,1-5.16,5.16h-.31V695h1.34a7.72,7.72,0,0,0,7.71-7.7v-4.11A7.73,7.73,0,0,0,624.81,675.48Z"/><path class="cls-27" d="M594.87,675.48h-26a1.61,1.61,0,0,0-1.61,1.6v0a1.61,1.61,0,0,0,1.61,1.6h54.58v-3.23Z"/><path class="cls-28" d="M594.87,691.78h-26a1.61,1.61,0,0,0-1.61,1.6v0a1.6,1.6,0,0,0,1.61,1.59h54.58v-3.22Z"/><path class="cls-14" d="M623.78,678.71H568.89v13.07h54.89a5.17,5.17,0,0,0,5.16-5.16v-2.75A5.17,5.17,0,0,0,623.78,678.71Z"/><path class="cls-16" d="M570.11,682.5h46.26a.8.8,0,1,0,0-1.6H570.11a.8.8,0,1,0,0,1.6"/><path class="cls-16" d="M573.78,686.21h51.28a.81.81,0,1,0,0-1.61H573.78a.81.81,0,0,0,0,1.61"/><path class="cls-16" d="M570.75,689.36h49.48a.81.81,0,1,0,0-1.61H570.75a.81.81,0,1,0,0,1.61"/><polygon class="cls-29" points="448.33 732.14 448.33 1007.74 454.51 1007.74 467.8 732.14 448.33 732.14"/><polygon class="cls-30" points="761.49 732.14 761.49 1007.74 755.31 1007.74 742.02 732.14 761.49 732.14"/><path class="cls-31" d="M802.94,732.14v-9.07c0-2.66-1.66-4.83-3.69-4.83H410.57c-2,0-3.69,2.17-3.69,4.83v9.07Z"/><path class="cls-32" d="M534,661.53a20.85,20.85,0,0,1-3-13.79c.38-3,1.74-5.72,2.11-8.68.66-5.22-1.83-10.34-4.9-14.62s-6.8-8.13-9.23-12.8a27.16,27.16,0,0,1-2.78-16.23c.42-3,1.33-5.85,1.52-8.83.24-3.87-.75-7.71-.76-11.59a23.29,23.29,0,0,1,9-18.3,2.4,2.4,0,0,1,1.23-.59C528.6,556,529,558,529,559.36a99.77,99.77,0,0,0,1,16.92,13.38,13.38,0,0,0,1.63,5.38c2.27,3.56,7,4.36,10.79,6.23a18.93,18.93,0,0,1,9.82,20.37c-1.42,6.58-6.44,12.82-4.65,19.3,1,3.58,3.86,6.26,5.72,9.47,3.86,6.68.91,16.4-2.81,22.59-1.23,2.06-2.73,4-3.35,6.33-1.62,6.06,3.19,12,3.21,18.31-1.5,0-2.34-1.68-2.8-3.11-1.41-4.31-2.88-8.77-6-12-1.47-1.54-3.24-2.75-4.78-4.22A18.32,18.32,0,0,1,534,661.53Z"/><path class="cls-33" d="M529,559.36c0-1.31-.34-3.07-1.52-3.25-3.67,6.48-3.72,15-2.9,22.09A57.21,57.21,0,0,0,527,589.4a83.32,83.32,0,0,0,4.81,10.7,71.77,71.77,0,0,1,5.43,14,45.92,45.92,0,0,1,1.18,7.56,53.12,53.12,0,0,0,.94,8.15,51.05,51.05,0,0,0,2.63,6.88,22,22,0,0,1,1.72,7.2c.15,3.45-.28,6.9-.41,10.34-.12,3.29-.1,6.74,1.1,9.86a10.41,10.41,0,0,0,2.41,3.69,9.63,9.63,0,0,1,.3-1.81c.62-2.31,2.12-4.27,3.35-6.33,3.72-6.19,6.67-15.91,2.81-22.59-1.86-3.21-4.74-5.89-5.72-9.47-1.79-6.48,3.23-12.72,4.65-19.3a18.93,18.93,0,0,0-9.82-20.37c-3.79-1.87-8.52-2.67-10.79-6.23a13.38,13.38,0,0,1-1.63-5.38A99.77,99.77,0,0,1,529,559.36Z"/><path class="cls-34" d="M550.37,657.77a20.79,20.79,0,0,1,3.35-13.72c1.65-2.48,4.08-4.37,5.72-6.86,2.89-4.4,2.92-10.09,2-15.28s-2.53-10.29-2.65-15.56a27.2,27.2,0,0,1,4.66-15.79c1.68-2.47,3.77-4.67,5.25-7.26,1.93-3.37,2.73-7.25,4.43-10.73a23.29,23.29,0,0,1,16.18-12.45,2.37,2.37,0,0,1,1.37,0c1.31.54.84,2.48.18,3.72a100.84,100.84,0,0,0-6.59,15.61,13.45,13.45,0,0,0-.91,5.55c.47,4.2,4.36,7,6.93,10.36a18.92,18.92,0,0,1-.15,22.6c-4.18,5.28-11.44,8.67-12.69,15.28-.69,3.64.71,7.33,1,11,.53,7.7-6.41,15.13-12.48,19-2,1.3-4.22,2.4-5.79,4.21-4.13,4.72-2.45,12.21-5.2,17.85-1.35-.65-1.35-2.55-1.14-4,.64-4.49,1.29-9.15-.07-13.46-.64-2-1.7-3.9-2.43-5.9A18,18,0,0,1,550.37,657.77Z"/><path class="cls-35" d="M590.91,563.85c.61-1.15,1.05-2.91.07-3.58-6.15,4.2-9.93,11.79-12.34,18.55a56.7,56.7,0,0,0-2.76,11.12,84.94,84.94,0,0,0-.41,11.72,70.55,70.55,0,0,1-1.29,14.94,45.14,45.14,0,0,1-2.26,7.31,51.88,51.88,0,0,0-2.75,7.73,48.73,48.73,0,0,0-.67,7.34,22,22,0,0,1-1.63,7.22c-1.39,3.16-3.29,6.07-4.93,9.1s-3.06,6-3.36,9.33a10.46,10.46,0,0,0,.54,4.38,8.88,8.88,0,0,1,1.07-1.49c1.57-1.81,3.78-2.91,5.79-4.21,6.07-3.91,13-11.34,12.48-19-.25-3.69-1.65-7.38-1-11,1.25-6.61,8.51-10,12.69-15.28a18.92,18.92,0,0,0,.15-22.6c-2.57-3.35-6.46-6.16-6.93-10.36a13.45,13.45,0,0,1,.91-5.55A100.84,100.84,0,0,1,590.91,563.85Z"/><path class="cls-36" d="M519.09,673.47a13.06,13.06,0,0,1-3.63-8.08c-.14-1.86.34-3.73.19-5.6-.26-3.29-2.44-6.12-4.87-8.35s-5.21-4.13-7.3-6.68a17,17,0,0,1-3.77-9.62c-.12-1.87.07-3.76-.2-5.61-.34-2.41-1.44-4.64-1.94-7a14.6,14.6,0,0,1,3.21-12.39,1.61,1.61,0,0,1,.69-.53c.85-.23,1.37.91,1.53,1.78a62.59,62.59,0,0,0,2.74,10.26,8.56,8.56,0,0,0,1.68,3.1c1.85,1.9,4.86,1.79,7.42,2.46a11.86,11.86,0,0,1,8.63,11.25c0,4.22-2.32,8.69-.39,12.45,1.06,2.07,3.17,3.35,4.72,5.08,3.22,3.61,2.65,10,1.15,14.23a16.39,16.39,0,0,0-1.25,4.32c-.22,3.93,3.49,7,4.3,10.84-.92.2-1.65-.75-2.11-1.56-1.42-2.46-2.89-5-5.22-6.64-1.1-.75-2.34-1.27-3.48-2A11.14,11.14,0,0,1,519.09,673.47Z"/><path class="cls-37" d="M503,611.37c-.15-.81-.61-1.85-1.35-1.8-1.43,4.45-.38,9.66,1,13.93a35.08,35.08,0,0,0,2.92,6.57,52.13,52.13,0,0,0,4.31,6,45,45,0,0,1,5.12,7.89,28.66,28.66,0,0,1,1.69,4.5,33.58,33.58,0,0,0,1.61,4.88,31.34,31.34,0,0,0,2.5,3.89,13.79,13.79,0,0,1,2,4.2c.53,2.1.71,4.27,1.06,6.4a15.6,15.6,0,0,0,1.94,5.92,6.51,6.51,0,0,0,2,2,5.51,5.51,0,0,1,0-1.15A16.39,16.39,0,0,1,529,670.2c1.5-4.27,2.07-10.62-1.15-14.23-1.55-1.73-3.66-3-4.72-5.08-1.93-3.76.36-8.23.39-12.45a11.86,11.86,0,0,0-8.63-11.25c-2.56-.67-5.57-.56-7.42-2.46a8.56,8.56,0,0,1-1.68-3.1A62.59,62.59,0,0,1,503,611.37Z"/><path class="cls-38" d="M569.72,667.52a13.07,13.07,0,0,1,4.16-7.82c1.38-1.26,3.16-2,4.53-3.29,2.45-2.22,3.34-5.68,3.61-9s.06-6.65.8-9.87a17,17,0,0,1,5.28-8.88c1.4-1.24,3-2.25,4.31-3.6,1.69-1.75,2.78-4,4.35-5.84a14.63,14.63,0,0,1,11.76-5.06,1.56,1.56,0,0,1,.83.22c.71.53.13,1.63-.46,2.29a62,62,0,0,0-6.42,8.47,8.2,8.2,0,0,0-1.42,3.23c-.36,2.62,1.57,4.93,2.62,7.37a11.88,11.88,0,0,1-3.59,13.71c-3.35,2.57-8.29,3.5-10.07,7.33-1,2.1-.7,4.56-1.12,6.85-.88,4.76-6.24,8.2-10.53,9.64a16.36,16.36,0,0,0-4.18,1.66c-3.23,2.24-3.37,7-5.92,10-.72-.61-.42-1.76-.06-2.63,1.08-2.62,2.19-5.35,2-8.19-.07-1.33-.43-2.63-.56-4A11.69,11.69,0,0,1,569.72,667.52Z"/><path class="cls-39" d="M608.89,616.7c.55-.61,1.09-1.6.59-2.17-4.38,1.6-7.86,5.63-10.37,9.37a35.34,35.34,0,0,0-3.39,6.33,52.49,52.49,0,0,0-2.06,7.07,45,45,0,0,1-3.1,8.88,27.62,27.62,0,0,1-2.5,4.09,32.19,32.19,0,0,0-2.87,4.27,30.93,30.93,0,0,0-1.54,4.36,14,14,0,0,1-2.11,4.14c-1.33,1.7-2.94,3.17-4.4,4.76a15.7,15.7,0,0,0-3.49,5.16,6.69,6.69,0,0,0-.35,2.74,6.27,6.27,0,0,1,.88-.74,16.36,16.36,0,0,1,4.18-1.66c4.29-1.44,9.65-4.88,10.53-9.64.42-2.29.13-4.75,1.12-6.85,1.78-3.83,6.72-4.76,10.07-7.33a11.88,11.88,0,0,0,3.59-13.71c-1-2.44-3-4.75-2.62-7.37a8.2,8.2,0,0,1,1.42-3.23A62,62,0,0,1,608.89,616.7Z"/><path class="cls-40" d="M525.44,673.1a13.49,13.49,0,0,1-1-9.12c.46-1.88,1.53-3.56,2-5.44.79-3.32-.44-6.8-2.12-9.79s-3.79-5.72-5-8.91a17.62,17.62,0,0,1-.63-10.67c.49-1.88,1.28-3.68,1.62-5.59.43-2.48.07-5,.34-7.53a15.12,15.12,0,0,1,7.15-11.15,1.45,1.45,0,0,1,.84-.29c.91,0,1,1.32.93,2.23a65,65,0,0,0-.6,11,8.7,8.7,0,0,0,.66,3.58c1.21,2.46,4.21,3.33,6.52,4.8A12.31,12.31,0,0,1,541,640c-1.39,4.14-5.08,7.81-4.39,12.12.38,2.38,2,4.32,3,6.52,2,4.58-.59,10.65-3.44,14.37a16.7,16.7,0,0,0-2.61,3.84c-1.48,3.8,1.19,8,.75,12-1-.1-1.39-1.25-1.58-2.21-.6-2.87-1.23-5.86-3-8.2-.83-1.1-1.89-2-2.77-3.07A11.29,11.29,0,0,1,525.44,673.1Z"/><path class="cls-41" d="M529.56,606.84c.11-.84,0-2-.75-2.2-2.83,3.91-3.47,9.38-3.46,14a36.8,36.8,0,0,0,.76,7.4,54.63,54.63,0,0,0,2.33,7.25,45.73,45.73,0,0,1,2.49,9.4,28.49,28.49,0,0,1,.23,5,20.27,20.27,0,0,0,1.22,9.95,14.24,14.24,0,0,1,.59,4.77c-.15,2.23-.68,4.43-1,6.63a16.24,16.24,0,0,0,0,6.44,7,7,0,0,0,1.29,2.56,6,6,0,0,1,.33-1.15,16.7,16.7,0,0,1,2.61-3.84c2.85-3.72,5.45-9.79,3.44-14.37-1-2.2-2.63-4.14-3-6.52-.69-4.31,3-8,4.39-12.12a12.31,12.31,0,0,0-4.87-13.84c-2.31-1.47-5.31-2.34-6.52-4.8a8.7,8.7,0,0,1-.66-3.58A65,65,0,0,1,529.56,606.84Z"/><path class="cls-42" d="M562.35,664.35a15,15,0,0,1,3-9.67c1.3-1.7,3.13-2.94,4.42-4.65,2.28-3,2.56-7.1,2.18-10.86s-1.32-7.49-1.17-11.26a19.53,19.53,0,0,1,4.07-11.1c1.32-1.7,2.92-3.17,4.11-5,1.53-2.32,2.29-5.07,3.66-7.48a16.78,16.78,0,0,1,12.18-8.17,1.8,1.8,0,0,1,1,.07c.91.45.49,1.82,0,2.68a71.34,71.34,0,0,0-5.45,10.88,9.34,9.34,0,0,0-.91,3.93c.14,3,2.8,5.22,4.48,7.74a13.59,13.59,0,0,1-1.16,16.19c-3.24,3.59-8.6,5.68-9.8,10.36-.67,2.58.17,5.28.18,7.94,0,5.54-5.3,10.54-9.84,13.06a18.53,18.53,0,0,0-4.34,2.74c-3.18,3.19-2.32,8.64-4.56,12.55-.93-.52-.84-1.88-.62-2.94.66-3.18,1.34-6.49.57-9.65-.36-1.48-1-2.87-1.46-4.33A12.32,12.32,0,0,1,562.35,664.35Z"/><path class="cls-43" d="M595.77,599c.49-.8.89-2,.21-2.56-4.6,2.72-7.66,8-9.7,12.71a41.36,41.36,0,0,0-2.5,7.84,60.37,60.37,0,0,0-.83,8.38A51.74,51.74,0,0,1,581.33,636a32.51,32.51,0,0,1-2,5.13,37.49,37.49,0,0,0-2.32,5.41,35.16,35.16,0,0,0-.83,5.23,15.89,15.89,0,0,1-1.5,5.09c-1.14,2.2-2.64,4.19-4,6.29a17.63,17.63,0,0,0-2.84,6.53,7.42,7.42,0,0,0,.17,3.16,7.34,7.34,0,0,1,.84-1,18.53,18.53,0,0,1,4.34-2.74c4.54-2.52,9.86-7.52,9.84-13.06,0-2.66-.85-5.36-.18-7.94,1.2-4.68,6.56-6.77,9.8-10.36a13.59,13.59,0,0,0,1.16-16.19c-1.68-2.52-4.34-4.71-4.48-7.74a9.34,9.34,0,0,1,.91-3.93A71.34,71.34,0,0,1,595.77,599Z"/><path class="cls-44" d="M541.74,655.57a19.4,19.4,0,0,1,1.06-13.06c1.14-2.51,3.09-4.59,4.23-7.11,2-4.46,1.19-9.68-.37-14.31S542.84,612,542,607.24a25.16,25.16,0,0,1,1.95-15.15c1.17-2.51,2.77-4.82,3.74-7.42,1.27-3.36,1.43-7,2.48-10.48a21.59,21.59,0,0,1,13-13.77,2.23,2.23,0,0,1,1.26-.19c1.28.3,1.13,2.15.72,3.38a92.11,92.11,0,0,0-3.74,15.26,12.21,12.21,0,0,0,0,5.21c1.05,3.78,5,5.78,7.88,8.47a17.57,17.57,0,0,1,3.17,20.73c-3.05,5.45-9.2,9.61-9.37,15.85-.1,3.44,1.72,6.61,2.5,10,1.61,7-3.65,14.8-8.63,19.28-1.66,1.48-3.52,2.81-4.7,4.69-3.07,4.94-.44,11.55-2.13,17.11-1.34-.39-1.61-2.13-1.63-3.52-.08-4.2-.17-8.56-2-12.32-.88-1.76-2.13-3.31-3.09-5A17.13,17.13,0,0,1,541.74,655.57Z"/><path class="cls-45" d="M565.08,563.61c.39-1.15.53-2.82-.46-3.29-5,4.74-7.37,12.25-8.58,18.8a53.62,53.62,0,0,0-.9,10.58,78.32,78.32,0,0,0,1.35,10.8,65.85,65.85,0,0,1,1,13.87,42.67,42.67,0,0,1-1,7,47.57,47.57,0,0,0-1.38,7.48,45.79,45.79,0,0,0,.46,6.82,20.22,20.22,0,0,1-.44,6.85c-.8,3.1-2.12,6-3.17,9.05a22.9,22.9,0,0,0-1.71,9,9.9,9.9,0,0,0,1.13,3.93,10.89,10.89,0,0,1,.76-1.53c1.18-1.88,3-3.21,4.7-4.69,5-4.48,10.24-12.3,8.63-19.28-.78-3.34-2.6-6.51-2.5-10,.17-6.24,6.32-10.4,9.37-15.85a17.57,17.57,0,0,0-3.17-20.73c-2.85-2.69-6.83-4.69-7.88-8.47a12.21,12.21,0,0,1,0-5.21A92.11,92.11,0,0,1,565.08,563.61Z"/><path class="cls-46" d="M537.21,719.2h27.52a32.93,32.93,0,0,0,19.07-29.79v-4.27H518.14v4.27A33,33,0,0,0,537.21,719.2Z"/><path class="cls-47" d="M577.49,685.14a4.75,4.75,0,0,0-3.14-3.64c-1.42-.58-3.08-.76-4.57-1.24-2.31-.73-4.11-2.12-6.13-3.22-4.48-2.44-10.67-3.47-15.72-1.74-3,1-5.3,2.86-8.28,3.87-3.37,1.15-13.31,1.53-15.52,6Z"/></g></g><g id="Doctor"><path class="cls-48" d="M528.58,424.78a34.61,34.61,0,0,0-25.32,7.38c-11.82,9.59,4,4.73,36.86-1.09Z"/><path class="cls-48" d="M528.37,427.09A119,119,0,0,0,509.23,436c-11.51,6.42-12,7.29-18.92,12.32-4.79,3.5,1.16,3.77,1.49,4s-.81.16.09,1.63a10.25,10.25,0,0,0,4.25,2.95c.89.28,4,1.17,5.37,1.6,6.49,1.95,18.61,5.78,40.31-7.43C541.82,451,543.79,429.87,528.37,427.09Z"/><path class="cls-49" d="M676.64,237.34s42.61-27.28,51.79-16.21C761.47,261,713.67,399.58,543.79,455c0,0-26.2-20.15-13-33.05,22.18-21.71,50.3-33.2,82.76-83.55C628.48,315.26,652.65,270.05,676.64,237.34Z"/><path class="cls-49" d="M657.25,359.85,644.19,841.47s120.76,18,185,0L691,386.72Z"/><path class="cls-50" d="M791.14,74.36l.17.42c2.06,4.88,21,52-7.81,65.67l7.7-65.94"/><path class="cls-51" d="M740.4,968.33s4.06,2,4.1,3.35,2.12,19.27,1.08,22.41-55.93,9.17-55.93,9.17-27.76-1.34-30.65-4.93-1.67-6.26,0-6.71,65.66-24.87,65.66-24.87Z"/><path class="cls-51" d="M803.78,981.29s4,2,4.09,3.37,2.11,19.26,1.08,22.39-55.93,9.18-55.93,9.18-27.76-1.35-30.66-4.92-1.66-6.27,0-6.71S788,979.72,788,979.72Z"/><path class="cls-52" d="M802.81,955.83s.67,27.61.51,28.11c-1.29,4.17-13.14,4.45-16.67,1.26l-6.91-26.56Z"/><path class="cls-52" d="M741.62,945.45s.46,27.42.25,28.13c-1.23,4.18-12.62,5-16.12,1.77l-5.13-27.59Z"/><path class="cls-51" d="M668.2,452.22s8.8,198.92,18.4,292.09c0,0,50.09-8.13,55.16-29.55s-4.5-251.49-4.5-251.49Z"/><path class="cls-53" d="M746.16,460.51c-.7,10.09-80.59-2.48-78.76,7.71,7.05,39.39,55.4,143,55.3,144.41C746.7,779.29,767,952.24,776,987.36c3.7,14.58,32.42,2.66,32.42,2.66,5.31-189.44,9.14-513.86,9.14-513.86C798.7,463.7,771.67,460.23,746.16,460.51Z"/><path class="cls-54" d="M741.63,210.06S799,208.84,831,236.83c0,0,37.43,167.13-13.49,238.59,0,0-94.65,46.13-150.11-7.2,0,0-20.39-171,11.08-230.08C678.48,238.14,686.39,225.18,741.63,210.06Z"/><path class="cls-48" d="M781.28,155.81S777.39,192,775.89,216c0,0-42.16,42-51.7,43.17-5.72.68,3.25-27,8.73-43.48,0,0,7.65-61.38-5.69-71S781.28,155.81,781.28,155.81Z"/><path class="cls-51" d="M726.59,703.55s13.2-2.24,15.2,4.92,3.33,219.4,3.33,269.87c0,0-23.31,5.06-29.44-4.19-9.45-14.26-29.08-229.84-29.08-229.84Z"/><path class="cls-55" d="M776.07,213.26s-42.78,84.36-44.94,123.47S719.59,796.28,723.75,854c0,0,87.45,7.27,137.52-12.64L828.77,455,826.71,264.6,831,236.83S810.52,215.33,776.07,213.26Z"/><path class="cls-52" d="M776.53,74.31S720.41,57,694.8,81.89c0,0,4.45,31.46,7.18,55.52s8.48,46.84,26.29,48.07c0,0,50.24-1.58,57.12-36C791.57,118.5,788.33,82.26,776.53,74.31Z"/><path class="cls-52" d="M777.13,139.52c-2.89,10.2-.53,19.79,5.25,21.43s12.82-5.31,15.7-15.51.53-19.79-5.25-21.43S780,129.32,777.13,139.52Z"/><path class="cls-52" d="M790,519.4a37.54,37.54,0,0,0-20.74,20.32c-6.79,15.79,6,2.85,34.73-19.72Z"/><path class="cls-52" d="M790.9,521.86s-6.13,6.37-14.12,18.76-8,13.52-12.28,22.18c-2.94,6,2.88,3.29,3.29,3.3.24,0-.7.58.86,1.63a10.1,10.1,0,0,0,5.45.88c1-.17,4.38-.82,5.89-1.08,7.12-1.27,20.51-3.46,35-27.94C815,539.59,807,516.93,790.9,521.86Z"/><path class="cls-55" d="M795.76,264.45s17.65-46.83,34.75-28.11c70.39,77,83.76,253.06-18.08,311.3,0,0-16.47-1.94-24-21.41s29.1-85.1,29.1-85.1C800.15,401.05,787.76,322.47,795.76,264.45Z"/><path class="cls-50" d="M790.44,62.82c-75.51-24.7-111.21-.18-111.21-.18.88,10.48,22.38,28.07,30.55,29.49s48.32-3.19,59.51-6c8.19-2.09,8.48,9.38,8.05,15.72-.05.49-.08,1-.11,1.57-.15,1.47-.3,2.43-.3,2.43a40.6,40.6,0,0,0,.05,12.85c0,12.74.06,27.74-3.13,35.7-2.82,7.06-12.1,11.27-22.69,12.89-5.27-7.17-30.1-38.6-48.38-20.22v0a6,6,0,0,0-.82,1c-3.67,5.69.82,26.18,3.08,32.64,5.77,16.49,55.67,4.67,67.22,0S783.2,165.14,782.38,161c-1.66-8.48-.66-17.8.75-25l0,0c.19-3,6.4-13.5,6.4-13.5l3.2-11.55C799.85,90.89,790.44,62.82,790.44,62.82Z"/><path class="cls-49" d="M733.33,212.42s-77.22,59.23-71,202.32c0,0-5.69-49.7-7.3-67.52s3.25-94.14,24.23-112.32C694.8,221.4,726.34,213.11,733.33,212.42Z"/><rect class="cls-49" x="754.61" y="367.2" width="31.75" height="5.56"/></g><g id="Patient"><path class="cls-56" d="M386.34,1012.4a4.92,4.92,0,0,0,.49.2h96.95c-.91-3.45-4.08-9.74-15.17-11.54-15.05-2.44-41.12-11.18-46.94-30.43-.18-.62-.34-1.25-.49-1.89C416.56,948.17,383,975,383,975s-.1.81-.24,2.21C382,984.79,380,1009.2,386.34,1012.4Z"/><path class="cls-56" d="M514.56,664.19s-63,224-82,310.59c0,0-46.8,9.39-54.08-5.32,0,0,15.08-243.9,42.82-274.88C455.77,656,514.56,664.19,514.56,664.19Z"/><path class="cls-57" d="M519.77,437.19s-1.65-10,.93-18.36,13.38-30.36,10-38-15.78-28.22-23.41-28.16,8,22,5.87,28.88-2.86,7.41-5.51,6.81-6.68-13.74-8-10.67-.56,23.38,2,28.46-2.65,33.68-2.65,33.68Z"/><path class="cls-58" d="M525.87,432.73s-16.88-9.59-29.93-5.55c0,0-25.92,74.63-40.19,129.51-27.39-67.59-44.24-135-44.24-135s-33.21,45.86-45.2,76.36S426,635.54,453.77,643.94c29,8.76,23.74,0,40.11-9.39C499.15,627.72,516,593.71,525.87,432.73Z"/><path class="cls-56" d="M602.25,1015.89a4.92,4.92,0,0,0,.49.2h96.94c-.9-3.45-4.07-9.73-15.17-11.54-15-2.44-41.11-11.18-46.93-30.43-.18-.61-.35-1.25-.5-1.89-4.61-20.56-38.19,6.3-38.19,6.3s-.11.82-.25,2.21C597.86,988.29,595.87,1012.7,602.25,1015.89Z"/><path class="cls-59" d="M533.38,658.76a125.83,125.83,0,0,0-21.1,12.79A59.2,59.2,0,0,0,509,660.42c-83.2-21.67-305.9-19.91-305.9-19.91s-47.88,12-33.82,81.69c12.94,64.14,226.76,34.44,295.83,15.2,1.62-.45,3.18-.92,4.7-1.41-5.5,40.86,33,99.16,66.67,152.81,27.78,44.23,51.41,89,51.41,89,14,8.65,60.77,3.64,60.77,3.64C619.11,897.86,533.38,658.76,533.38,658.76Z"/><path class="cls-60" d="M349.77,399.05s23.88,76.46,59.76,93.57c0,0,3.39-23.2-2.41-40.85,4.73-3.62,8.93-7,12.59-10A234.48,234.48,0,0,0,438,425.14l-5.33-37.28-3.62-25.3a115.36,115.36,0,0,1-17.87,16.65C380.24,402.31,349.77,399.05,349.77,399.05Z"/><path class="cls-57" d="M411.21,379.21s-12,33.1,8.5,62.54A234.48,234.48,0,0,0,438,425.14l-5.33-37.28C419.85,380.67,411.21,379.21,411.21,379.21Z"/><path class="cls-60" d="M447.13,432.39s-52.9-35.1-30.53-67.7,30.59-59.09,65.31-38.06,32.67,37.92,27.86,50.62S461.46,440.68,447.13,432.39Z"/><path class="cls-61" d="M422.75,296.43c-.23-.88-1.22-2-3.9-3.5a12.27,12.27,0,0,1,5.86,1.05c2.48-3.6,7.89-9.49,15.3-7.93a9.32,9.32,0,0,0-7,4.09c11.54-4.23,30.73-2,74.24,23.81,57.35,34,18.66,63.21,8.67,64.05s-23.23-21.37-38.2-27.27-28.06,13.89-34.36,14.4-1.87-3.68-7-9.95-11.19,4.54-12.83,12.71-15.39,13.25-15.39,13.25l-4.25-14.53c-4.26-14.53,7.92-61.28,16.53-68.29C421.21,297.7,422,297.06,422.75,296.43Z"/><path class="cls-62" d="M414.13,526.45c-15.89,37.63-30.41,61.66-32.31,64.8C375,602.56,367.62,613,360.9,622l-.64.87C347,640.7,326.78,645.6,327.41,650.07c1.26,9-21.37,30.45-58.68,40-43.3,11.07-93.47,16.39-106.16,1.76-4.24-4.92-5.65-14-5.18-25.19.93-23.67,30.72-119,30.72-119C239.07,393.41,385,393.41,385,393.41s-2.86,36.95,33,49.77C418,443.26,426.39,497.41,414.13,526.45Z"/><path class="cls-60" d="M499.84,636.19s21.91,7.75,27.92,11.51,19.85,22.7,21.41,29.34,3.38,26.15,2.25,29.41-17.91-9.25-21.64-21-13.31-14.95-12.94-14.32,5.27,15.72,4.23,16.37-5.5,1.78-9.54-6.64S499.47,666.26,501,657.56,499.84,636.19,499.84,636.19Z"/><path class="cls-58" d="M328.13,651.31c1.27,9-22.09,29.21-59.4,38.74-31.13-61.92,28-203.68,28-203.68L360.9,622C347.37,640.29,327.5,646.77,328.13,651.31Z"/><path class="cls-58" d="M381.82,591.25C375,602.56,367.62,613,360.9,622l-.64.87c-8.79-3.4-17.52-10.16-21.92-16.38-10.1-14.26-10.93-100-10.93-100S368.75,557.6,381.82,591.25Z"/><path class="cls-62" d="M508.25,638.11s-100-28-151.32-40.24c4.52-60.55,19.34-243.64-73.91-170.35,0,0-7,196.21,38.14,236,0,0,145,3.08,172.67,1.38,0,0,8.12-4.2,10.14-7C510.41,648.89,508.25,638.11,508.25,638.11Z"/></g></svg>