<svg width="1200" height="1000" viewBox="0 0 1200 1000" fill="none" xmlns="http://www.w3.org/2000/svg">
<circle cx="599.5" cy="166.5" r="32.5" fill="RGB(22, 67, 104)"/>
<path d="M576 201.5C586 224.5 612.5 225 620.5 201.5C603.466 205.975 593.702 205.708 576 201.5Z" fill="RGB(22, 67, 104)" stroke="RGB(22, 67, 104)"/>
<path d="M612 268.473L599.5 310L586 268.473V230.637C596.154 220.082 601.846 220.833 612 230.637V268.473Z" fill="RGB(22, 67, 104)" stroke="RGB(22, 67, 104)"/>
<path d="M599 312L585.5 339.5V413H611V339.5L599 312Z" fill="RGB(22, 67, 104)" stroke="RGB(22, 67, 104)"/>
<path d="M609.5 469H587L589 533H609.5V469Z" fill="RGB(22, 67, 104)" stroke="RGB(22, 67, 104)"/>
<path d="M607.5 580H589.5L591 635.5H607.5V580Z" fill="RGB(22, 67, 104)" stroke="RGB(22, 67, 104)"/>
<path d="M606 672H591L592 727H605L606 672Z" fill="RGB(22, 67, 104)" stroke="RGB(22, 67, 104)"/>
<path d="M604 761.5H592.5V806H604V761.5Z" fill="RGB(22, 67, 104)" stroke="RGB(22, 67, 104)"/>
<path d="M604 833H593.5L599 927.5L604 833Z" fill="RGB(22, 67, 104)" stroke="RGB(22, 67, 104)"/>
<path d="M579 759.5C571.015 757.486 566.631 755.958 559 752.5C550.92 760.903 548.95 767.326 549.5 781.5C553.938 804.701 561.826 811.483 579 820L608 828.5C618.185 835.771 621.28 841.055 622.5 852.5C622.861 869.393 620.073 876.467 612.5 887C624.85 880.587 629.601 873.705 632.5 853C631.64 833.902 626.561 825.985 609 816.5C597.421 813.905 590.892 811.826 579 804C563.787 785.489 562.821 775.673 579 759.5Z" fill="RGB(22, 67, 104)" stroke="RGB(22, 67, 104)"/>
<path d="M588.452 834.72L578.28 828C554.216 856.405 561.522 868.642 593 889C573.573 866.144 567.213 856.728 588.452 834.72Z" fill="RGB(22, 67, 104)" stroke="RGB(22, 67, 104)"/>
<path d="M567.5 674L541 666.5C523.884 704.212 524.818 724.952 562 747C592.957 752.239 601.049 753.997 610.5 756.5C624.309 759.846 630.1 763.921 633.5 779C631.056 796.945 624.505 802.379 610.5 810L625.5 816.5C629.273 812.466 633.347 807.867 637.069 802C647.825 784.62 659.036 761.681 616.5 738.5C609.08 736.185 604.604 735.129 595 734.5C580.705 731.719 574.25 729.41 567.5 723C548.379 706.504 547.944 695.83 567.5 674Z" fill="RGB(22, 67, 104)" stroke="RGB(22, 67, 104)"/>
<path d="M559.5 581.5C547.926 579.638 540.596 577.258 525 569C514.138 582.328 505 591.5 508 618.5C511 645.5 534.571 659.736 564.5 664.5L624 668.5C640.332 677.792 644.412 684.719 646 699C644.39 716.655 637.827 723.549 617 731L643.5 744C665.606 727.258 671.698 715.579 669.5 690C661.012 664.053 655.2 650.366 624 643C607.245 641.727 592.166 640.742 559.5 636C547.435 629.756 539.42 627.524 537 611.5C540.603 595.308 543.567 587.044 559.5 581.5Z" fill="RGB(22, 67, 104)" stroke="RGB(22, 67, 104)"/>
<path d="M550 470L505 455C487.765 469.577 482.252 481.814 483 514C496.917 548.806 512.86 559.202 550 568C603.407 570.82 629.146 572.797 636 580C667.993 598.332 665.793 617.84 636 637C650.59 642.614 657.239 646.633 667 655C685.027 638.864 690.259 627.884 691 605C683.202 567.464 670.004 555.771 636 546C605.064 536.615 607.612 547.383 550 533C492.388 518.617 528.478 464.958 550 470Z" fill="RGB(22, 67, 104)" stroke="RGB(22, 67, 104)"/>
<path fill-rule="evenodd" clip-rule="evenodd" d="M590 318C580.34 306.211 573.812 300.699 559 294C493.822 297.064 464.709 307.083 454 371C455.41 427.455 486.27 442.629 559 460C570.116 460.823 575.385 460.416 580.368 460.031C589.564 459.321 597.786 458.685 640 466C705.086 477.278 677.178 540.776 640 536C667.1 545.47 677.129 550.41 678 558C743.949 498.308 711.362 461.993 678 440C655.04 424.864 626.474 424.063 611.402 423.64C604.573 423.448 600.513 423.334 601 422C575.902 422.419 569.2 420.899 555.12 417.706C548.38 416.178 539.949 414.266 527 412C487 405 481.233 347.218 527 329C561.586 337.43 576.358 336.268 590 318ZM556.5 313C558.433 313 560 311.433 560 309.5C560 307.567 558.433 306 556.5 306C554.567 306 553 307.567 553 309.5C553 311.433 554.567 313 556.5 313Z" fill="RGB(22, 67, 104)"/>
<path d="M559 294L559.206 293.544L559.097 293.495L558.977 293.501L559 294ZM590 318L590.401 318.299L590.635 317.986L590.387 317.683L590 318ZM454 371L453.507 370.917L453.499 370.965L453.5 371.012L454 371ZM559 460L558.884 460.486L558.923 460.496L558.963 460.499L559 460ZM580.368 460.031L580.329 459.533L580.368 460.031ZM640 466L639.915 466.493L640 466ZM640 536L640.064 535.504L639.835 536.472L640 536ZM678 558L677.503 558.057L677.614 559.024L678.336 558.371L678 558ZM678 440L678.275 439.583L678 440ZM611.402 423.64L611.388 424.14L611.402 423.64ZM601 422L601.47 422.171L601.719 421.488L600.992 421.5L601 422ZM555.12 417.706L555.009 418.194L555.12 417.706ZM527 412L526.914 412.493L527 412ZM527 329L527.118 328.514L526.963 328.476L526.815 328.535L527 329ZM558.794 294.456C566.178 297.795 571.474 300.829 576.123 304.484C580.772 308.141 584.793 312.434 589.613 318.317L590.387 317.683C585.547 311.776 581.473 307.419 576.741 303.698C572.008 299.976 566.634 296.904 559.206 293.544L558.794 294.456ZM454.493 371.083C459.837 339.186 469.752 320.867 486.346 310.099C502.983 299.305 526.425 296.032 559.023 294.499L558.977 293.501C526.397 295.032 502.694 298.3 485.802 309.261C468.868 320.248 458.872 338.897 453.507 370.917L454.493 371.083ZM559.116 459.514C522.74 450.825 496.946 442.708 480.059 429.76C463.228 416.854 455.202 399.109 454.5 370.988L453.5 371.012C454.208 399.346 462.317 417.415 479.451 430.553C496.53 443.649 522.53 451.803 558.884 460.486L559.116 459.514ZM580.329 459.533C575.362 459.917 570.12 460.322 559.037 459.501L558.963 460.499C570.112 461.324 575.407 460.916 580.406 460.53L580.329 459.533ZM640.085 465.507C597.854 458.19 589.585 458.818 580.329 459.533L580.406 460.53C589.543 459.824 597.719 459.181 639.915 466.493L640.085 465.507ZM639.936 536.496C658.833 538.924 675.307 524.014 678.838 507.123C680.609 498.651 679.136 489.65 673.077 482.055C667.023 474.467 656.436 468.341 640.085 465.507L639.915 466.493C656.107 469.298 666.439 475.338 672.295 482.679C678.147 490.013 679.577 498.702 677.859 506.918C674.414 523.401 658.345 537.853 640.064 535.504L639.936 536.496ZM678.497 557.943C678.033 553.9 675.122 550.658 669.08 547.269C663.033 543.877 653.71 540.261 640.165 535.528L639.835 536.472C653.39 541.209 662.632 544.798 668.591 548.141C674.557 551.487 677.096 554.51 677.503 558.057L678.497 557.943ZM677.725 440.417C694.392 451.405 710.723 465.886 714.753 484.966C718.771 503.998 710.586 527.831 677.664 557.629L678.336 558.371C711.363 528.477 719.859 504.307 715.731 484.76C711.614 465.261 694.97 450.588 678.275 439.583L677.725 440.417ZM611.388 424.14C626.475 424.563 654.9 425.371 677.725 440.417L678.275 439.583C655.181 424.358 626.474 423.562 611.416 423.14L611.388 424.14ZM600.53 421.829C600.426 422.115 600.432 422.422 600.597 422.701C600.747 422.953 600.992 423.122 601.243 423.243C601.742 423.483 602.489 423.635 603.397 423.745C605.234 423.967 607.985 424.044 611.388 424.14L611.416 423.14C607.989 423.044 605.296 422.968 603.518 422.752C602.618 422.643 602.015 422.504 601.676 422.341C601.508 422.261 601.463 422.201 601.457 422.191C601.457 422.19 601.46 422.197 601.461 422.205C601.461 422.211 601.459 422.202 601.47 422.171L600.53 421.829ZM555.009 418.194C569.124 421.394 575.865 422.919 601.008 422.5L600.992 421.5C575.938 421.918 569.276 420.404 555.231 417.219L555.009 418.194ZM526.914 412.493C539.851 414.756 548.272 416.666 555.009 418.194L555.231 417.219C548.488 415.69 540.048 413.776 527.086 411.507L526.914 412.493ZM526.815 328.535C503.736 337.722 493.608 356.916 494.338 374.727C495.067 392.529 506.653 408.947 526.914 412.493L527.086 411.507C507.347 408.053 496.05 392.08 495.337 374.686C494.625 357.302 504.497 338.496 527.185 329.465L526.815 328.535ZM589.599 317.701C582.837 326.756 575.84 331.522 566.277 333.017C556.663 334.521 544.411 332.729 527.118 328.514L526.882 329.486C544.175 333.701 556.602 335.543 566.431 334.005C576.311 332.461 583.521 327.512 590.401 318.299L589.599 317.701ZM559.5 309.5C559.5 311.157 558.157 312.5 556.5 312.5V313.5C558.709 313.5 560.5 311.709 560.5 309.5H559.5ZM556.5 306.5C558.157 306.5 559.5 307.843 559.5 309.5H560.5C560.5 307.291 558.709 305.5 556.5 305.5V306.5ZM553.5 309.5C553.5 307.843 554.843 306.5 556.5 306.5V305.5C554.291 305.5 552.5 307.291 552.5 309.5H553.5ZM556.5 312.5C554.843 312.5 553.5 311.157 553.5 309.5H552.5C552.5 311.709 554.291 313.5 556.5 313.5V312.5Z" fill="RGB(22, 67, 104)"/>
<path fill-rule="evenodd" clip-rule="evenodd" d="M610 316C624.777 336.66 639.429 337.067 670 330C696.74 331.016 701.982 341.316 705 366C708.829 392.209 693.262 403.068 645 418C672.526 425.179 684.384 429.981 699 440C734.655 420.178 745.205 404.22 745 366C742.638 338.744 734.39 324.466 699 302C676.23 294.276 664.25 291.549 645 291C626.148 297.756 619.206 303.883 610 316ZM643.5 313C645.433 313 647 311.433 647 309.5C647 307.567 645.433 306 643.5 306C641.567 306 640 307.567 640 309.5C640 311.433 641.567 313 643.5 313Z" fill="RGB(22, 67, 104)"/>
<path d="M670 330L670.019 329.5L669.952 329.498L669.887 329.513L670 330ZM610 316L609.602 315.698L609.379 315.991L609.593 316.291L610 316ZM705 366L704.504 366.061L704.505 366.072L705 366ZM645 418L644.852 417.522L643.176 418.041L644.874 418.484L645 418ZM699 440L698.717 440.412L698.973 440.587L699.243 440.437L699 440ZM745 366L745.5 365.997L745.5 365.977L745.498 365.957L745 366ZM699 302L699.268 301.578L699.217 301.546L699.161 301.526L699 302ZM645 291L645.014 290.5L644.92 290.498L644.831 290.529L645 291ZM669.887 329.513C654.599 333.047 643.388 334.685 634.172 332.907C625.002 331.137 617.745 325.969 610.407 315.709L609.593 316.291C617.032 326.691 624.49 332.057 633.983 333.888C643.43 335.712 654.83 334.02 670.113 330.487L669.887 329.513ZM705.496 365.939C703.988 353.605 701.915 344.712 696.773 338.796C691.606 332.851 683.436 330.01 670.019 329.5L669.981 330.5C683.305 331.006 691.125 333.823 696.018 339.452C700.937 345.112 702.994 353.711 704.504 366.061L705.496 365.939ZM645.148 418.478C669.27 411.015 685.321 404.543 694.854 396.613C699.635 392.637 702.791 388.282 704.501 383.243C706.209 378.209 706.46 372.531 705.495 365.928L704.505 366.072C705.455 372.573 705.196 378.081 703.554 382.922C701.913 387.756 698.879 391.964 694.214 395.845C684.855 403.63 668.992 410.054 644.852 417.522L645.148 418.478ZM699.283 439.588C684.598 429.522 672.678 424.702 645.126 417.516L644.874 418.484C672.375 425.656 684.169 430.441 698.717 440.412L699.283 439.588ZM744.5 366.003C744.602 385.072 742.02 398.505 735.024 409.633C728.024 420.769 716.563 429.664 698.757 439.563L699.243 440.437C717.092 430.514 728.734 421.519 735.871 410.165C743.013 398.804 745.602 385.148 745.5 365.997L744.5 366.003ZM698.732 302.422C716.41 313.645 727.251 322.787 733.975 332.488C740.687 342.174 743.325 352.46 744.502 366.043L745.498 365.957C744.313 352.283 741.646 341.803 734.796 331.919C727.958 322.051 716.979 312.821 699.268 301.578L698.732 302.422ZM644.986 291.5C664.169 292.047 676.097 294.759 698.839 302.474L699.161 301.526C676.362 293.793 664.33 291.051 645.014 290.5L644.986 291.5ZM610.398 316.302C614.99 310.259 618.993 305.741 624.181 301.891C629.369 298.04 635.768 294.84 645.169 291.471L644.831 290.529C635.38 293.917 628.881 297.157 623.585 301.088C618.287 305.02 614.217 309.624 609.602 315.698L610.398 316.302ZM646.5 309.5C646.5 311.157 645.157 312.5 643.5 312.5V313.5C645.709 313.5 647.5 311.709 647.5 309.5H646.5ZM643.5 306.5C645.157 306.5 646.5 307.843 646.5 309.5H647.5C647.5 307.291 645.709 305.5 643.5 305.5V306.5ZM640.5 309.5C640.5 307.843 641.843 306.5 643.5 306.5V305.5C641.291 305.5 639.5 307.291 639.5 309.5H640.5ZM643.5 312.5C641.843 312.5 640.5 311.157 640.5 309.5H639.5C639.5 311.709 641.291 313.5 643.5 313.5V312.5Z" fill="RGB(22, 67, 104)"/>
<path d="M710 153H776" stroke="RGB(22, 67, 104)" stroke-width="5"/>
<path d="M779.5 175H737.5L728.5 154.5" stroke="RGB(22, 67, 104)" stroke-width="5"/>
<line x1="635" y1="259.094" x2="1017" y2="259.094" stroke="RGB(22, 67, 104)" stroke-width="5"/>
<ellipse cx="1016.59" cy="258.5" rx="6.5907" ry="6.5" fill="RGB(22, 67, 104)"/>
<path d="M786.992 237.5H859.5" stroke="RGB(22, 67, 104)" stroke-width="5"/>
<circle cx="861.5" cy="237.5" r="6.5" fill="RGB(22, 67, 104)"/>
<circle cx="807.5" cy="215.5" r="6.5" fill="RGB(22, 67, 104)"/>
<path d="M711 215L803 215" stroke="RGB(22, 67, 104)" stroke-width="5"/>
<circle cx="989.5" cy="214.5" r="6.5" fill="RGB(22, 67, 104)"/>
<circle cx="1026.5" cy="281.5" r="6.5" fill="RGB(22, 67, 104)"/>
<circle cx="758.5" cy="238.5" r="6.5" fill="RGB(22, 67, 104)"/>
<circle cx="710.5" cy="238.5" r="6.5" fill="RGB(22, 67, 104)"/>
<circle cx="862.5" cy="194.5" r="6.5" fill="RGB(22, 67, 104)"/>
<circle cx="956.5" cy="174.5" r="6.5" fill="RGB(22, 67, 104)"/>
<circle cx="773.5" cy="152.5" r="6.5" fill="RGB(22, 67, 104)"/>
<circle cx="773.5" cy="174.5" r="6.5" fill="RGB(22, 67, 104)"/>
<path d="M719 194.5H815.5L832 213.5H987.5" stroke="RGB(22, 67, 104)" stroke-width="5"/>
<path d="M939 260L955.291 282H1022.5" stroke="RGB(22, 67, 104)" stroke-width="5"/>
<path d="M802 260L814.323 282H861" stroke="RGB(22, 67, 104)" stroke-width="5"/>
<path d="M690 260L701.07 282H743" stroke="RGB(22, 67, 104)" stroke-width="5"/>
<path d="M638.07 283H680" stroke="RGB(22, 67, 104)" stroke-width="5"/>
<path d="M829 303L835.057 325H858" stroke="RGB(22, 67, 104)" stroke-width="5"/>
<path d="M732 303L747.038 325H804" stroke="RGB(22, 67, 104)" stroke-width="5"/>
<path d="M729 216L734.848 237H757" stroke="RGB(22, 67, 104)" stroke-width="5"/>
<line x1="805.99" y1="194.5" x2="863.019" y2="194.5" stroke="RGB(22, 67, 104)" stroke-width="5"/>
<path d="M713.5 303.875H939.043" stroke="RGB(22, 67, 104)" stroke-width="5"/>
<line x1="619.026" y1="282.5" x2="655.014" y2="282.875" stroke="RGB(22, 67, 104)" stroke-width="5"/>
<path d="M784 195L798.209 175H955.5" stroke="RGB(22, 67, 104)" stroke-width="5"/>
<circle cx="922.5" cy="282.5" r="6.5" fill="RGB(22, 67, 104)"/>
<circle cx="861.5" cy="281.5" r="6.5" fill="RGB(22, 67, 104)"/>
<path d="M894 214L901.323 238H948" stroke="RGB(22, 67, 104)" stroke-width="5"/>
<circle cx="948.5" cy="237.5" r="6.5" fill="RGB(22, 67, 104)"/>
<circle cx="795.5" cy="282.5" r="6.5" fill="RGB(22, 67, 104)"/>
<circle cx="742.5" cy="281.5" r="6.5" fill="RGB(22, 67, 104)"/>
<circle cx="679.5" cy="282.5" r="6.5" fill="RGB(22, 67, 104)"/>
<circle cx="938.5" cy="303.5" r="6.5" fill="RGB(22, 67, 104)"/>
<circle cx="857.5" cy="324.5" r="6.5" fill="RGB(22, 67, 104)"/>
<circle cx="965.5" cy="324.5" r="6.5" fill="RGB(22, 67, 104)"/>
<path d="M974 283L980.057 305H1036" stroke="RGB(22, 67, 104)" stroke-width="5"/>
<circle cx="1037.5" cy="304.5" r="6.5" fill="RGB(22, 67, 104)"/>
<path d="M871.5 174.5L887.057 196H910" stroke="RGB(22, 67, 104)" stroke-width="5"/>
<circle cx="909.5" cy="195.5" r="6.5" fill="RGB(22, 67, 104)"/>
<circle cx="806.5" cy="324.5" r="6.5" fill="RGB(22, 67, 104)"/>
<path d="M880 303L894.209 283H927" stroke="RGB(22, 67, 104)" stroke-width="5"/>
<circle cx="1001.5" cy="237.5" r="6.5" fill="RGB(22, 67, 104)"/>
<path d="M959 258L973.209 238H1006" stroke="RGB(22, 67, 104)" stroke-width="5"/>
<line x1="880.023" y1="422.5" x2="1083.04" y2="424.399" stroke="RGB(22, 67, 104)" stroke-width="5"/>
<path d="M901.023 446.5L962.5 446.5" stroke="RGB(22, 67, 104)" stroke-width="5"/>
<ellipse cx="1082.59" cy="424.5" rx="6.5907" ry="6.5" fill="RGB(22, 67, 104)"/>
<circle cx="1092.5" cy="447.5" r="6.5" fill="RGB(22, 67, 104)"/>
<path d="M1048 467.5L1061 448H1088.5" stroke="RGB(22, 67, 104)" stroke-width="5"/>
<path d="M709 131.094H907" stroke="RGB(22, 67, 104)" stroke-width="5"/>
<ellipse cx="907.591" cy="130.5" rx="6.5907" ry="6.5" fill="RGB(22, 67, 104)"/>
<circle cx="878.5" cy="153.5" r="6.5" fill="RGB(22, 67, 104)"/>
<path d="M791 132L807.292 154H874.5" stroke="RGB(22, 67, 104)" stroke-width="5"/>
<circle cx="883.5" cy="109.5" r="6.5" fill="RGB(22, 67, 104)"/>
<circle cx="841.5" cy="88.5" r="6.5" fill="RGB(22, 67, 104)"/>
<path d="M795 130L809.21 110H883.5" stroke="RGB(22, 67, 104)" stroke-width="5"/>
<path d="M810 109L824.21 89H842" stroke="RGB(22, 67, 104)" stroke-width="5"/>
<circle cx="797.5" cy="78.5" r="6.5" fill="RGB(22, 67, 104)"/>
<circle cx="767.5" cy="78.5" r="6.5" fill="RGB(22, 67, 104)"/>
<path d="M765 112L796.5 79.5" stroke="RGB(22, 67, 104)" stroke-width="5"/>
<circle cx="936.5" cy="153.5" r="6.5" fill="RGB(22, 67, 104)"/>
<path d="M894 174L908.209 154H941" stroke="RGB(22, 67, 104)" stroke-width="5"/>
<circle cx="785.5" cy="110.5" r="6.5" fill="RGB(22, 67, 104)"/>
<path d="M718 131L732.209 111H782.5" stroke="RGB(22, 67, 104)" stroke-width="5"/>
<path d="M733 110L752 79H771" stroke="RGB(22, 67, 104)" stroke-width="5"/>
<circle cx="972.5" cy="194.5" r="6.5" fill="RGB(22, 67, 104)"/>
<path d="M930 215L944.209 195H977" stroke="RGB(22, 67, 104)" stroke-width="5"/>
<path d="M765 303L774.07 283H795" stroke="RGB(22, 67, 104)" stroke-width="5"/>
<path d="M857.012 344L863.069 366H886.012" stroke="RGB(22, 67, 104)" stroke-width="5"/>
<path d="M760.012 344L775.05 366H832.012" stroke="RGB(22, 67, 104)" stroke-width="5"/>
<path d="M747 344.875H1052" stroke="RGB(22, 67, 104)" stroke-width="5"/>
<circle cx="1052.51" cy="344.5" r="6.5" fill="RGB(22, 67, 104)"/>
<circle cx="885.512" cy="365.5" r="6.5" fill="RGB(22, 67, 104)"/>
<circle cx="834.512" cy="365.5" r="6.5" fill="RGB(22, 67, 104)"/>
<path d="M764.012 385L779.05 407H836.012" stroke="RGB(22, 67, 104)" stroke-width="5"/>
<path d="M751 385.875L1067 386.001" stroke="RGB(22, 67, 104)" stroke-width="5"/>
<circle cx="1070.51" cy="385.5" r="6.5" fill="RGB(22, 67, 104)"/>
<path d="M1006.5 345.5L1021.07 366H1061.5" stroke="RGB(22, 67, 104)" stroke-width="5"/>
<circle cx="1060.5" cy="365.5" r="6.5" fill="RGB(22, 67, 104)"/>
<path d="M932 446L946.569 466.5H987" stroke="RGB(22, 67, 104)" stroke-width="5"/>
<circle cx="986" cy="466" r="6.5" fill="RGB(22, 67, 104)"/>
<path d="M977.5 424L994.569 448.5H1035" stroke="RGB(22, 67, 104)" stroke-width="5"/>
<circle cx="1034" cy="448" r="6.5" fill="RGB(22, 67, 104)"/>
<path d="M1020.5 386.5L1035.07 407H1075.5" stroke="RGB(22, 67, 104)" stroke-width="5"/>
<path d="M1074 489L1088.57 509.5H1129" stroke="RGB(22, 67, 104)" stroke-width="5"/>
<circle cx="1074.5" cy="406.5" r="6.5" fill="RGB(22, 67, 104)"/>
<path d="M853 387L935.273 489H1112.5" stroke="RGB(22, 67, 104)" stroke-width="5"/>
<circle cx="1128.5" cy="509.5" r="6.5" fill="RGB(22, 67, 104)"/>
<path d="M1098 510L1112.57 530.5H1153" stroke="RGB(22, 67, 104)" stroke-width="5"/>
<circle cx="1152.5" cy="530.5" r="6.5" fill="RGB(22, 67, 104)"/>
<path d="M995 489L1009.57 509.5H1050" stroke="RGB(22, 67, 104)" stroke-width="5"/>
<circle cx="1049.5" cy="509.5" r="6.5" fill="RGB(22, 67, 104)"/>
<circle cx="1112.5" cy="488.5" r="6.5" fill="RGB(22, 67, 104)"/>
<circle cx="838.512" cy="406.5" r="6.5" fill="RGB(22, 67, 104)"/>
<path d="M839 450L854.038 472H899" stroke="RGB(22, 67, 104)" stroke-width="5"/>
<circle cx="900.5" cy="471.5" r="6.5" fill="RGB(22, 67, 104)"/>
<path d="M813 427L828.038 449H885" stroke="RGB(22, 67, 104)" stroke-width="5"/>
<circle cx="887.5" cy="448.5" r="6.5" fill="RGB(22, 67, 104)"/>
<path d="M792 406L807.038 428H864" stroke="RGB(22, 67, 104)" stroke-width="5"/>
<circle cx="866.5" cy="427.5" r="6.5" fill="RGB(22, 67, 104)"/>
<circle cx="961.5" cy="447.5" r="6.5" fill="RGB(22, 67, 104)"/>
<path d="M881.012 344L895.221 324H964" stroke="RGB(22, 67, 104)" stroke-width="5"/>
<circle cx="991.488" cy="365.5" r="6.5" fill="RGB(22, 67, 104)"/>
<path d="M907 385L921.209 365H989.988" stroke="RGB(22, 67, 104)" stroke-width="5"/>
<circle cx="1099.49" cy="468.5" r="6.5" fill="RGB(22, 67, 104)"/>
<path d="M1015 488L1029.21 468H1097.99" stroke="RGB(22, 67, 104)" stroke-width="5"/>
<circle cx="1044.5" cy="324.5" r="6.5" fill="RGB(22, 67, 104)"/>
<path d="M987.012 344L1001.22 324H1041.5" stroke="RGB(22, 67, 104)" stroke-width="5"/>
<circle cx="988.488" cy="405.5" r="6.5" fill="RGB(22, 67, 104)"/>
<path d="M917 422L931.702 405H987" stroke="RGB(22, 67, 104)" stroke-width="5"/>
<path d="M679 259L683.233 239H707" stroke="RGB(22, 67, 104)" stroke-width="5"/>
<line x1="769.113" y1="259.36" x2="789.113" y2="236.36" stroke="RGB(22, 67, 104)" stroke-width="5"/>
<path d="M490 153H424" stroke="RGB(22, 67, 104)" stroke-width="5"/>
<path d="M420.5 175H462.5L471.5 154.5" stroke="RGB(22, 67, 104)" stroke-width="5"/>
<line y1="-2.5" x2="382.001" y2="-2.5" transform="matrix(-1 0 0 1 565 261.594)" stroke="RGB(22, 67, 104)" stroke-width="5"/>
<ellipse rx="6.5907" ry="6.5" transform="matrix(-1 0 0 1 183.409 258.5)" fill="RGB(22, 67, 104)"/>
<path d="M413.008 237.5H340.5" stroke="RGB(22, 67, 104)" stroke-width="5"/>
<circle r="6.5" transform="matrix(-1 0 0 1 338.5 237.5)" fill="RGB(22, 67, 104)"/>
<circle r="6.5" transform="matrix(-1 0 0 1 392.5 215.5)" fill="RGB(22, 67, 104)"/>
<path d="M489 215L397 215" stroke="RGB(22, 67, 104)" stroke-width="5"/>
<circle r="6.5" transform="matrix(-1 0 0 1 210.5 214.5)" fill="RGB(22, 67, 104)"/>
<circle r="6.5" transform="matrix(-1 0 0 1 173.5 281.5)" fill="RGB(22, 67, 104)"/>
<circle r="6.5" transform="matrix(-1 0 0 1 441.5 238.5)" fill="RGB(22, 67, 104)"/>
<circle r="6.5" transform="matrix(-1 0 0 1 489.5 238.5)" fill="RGB(22, 67, 104)"/>
<circle r="6.5" transform="matrix(-1 0 0 1 337.5 194.5)" fill="RGB(22, 67, 104)"/>
<circle r="6.5" transform="matrix(-1 0 0 1 243.5 174.5)" fill="RGB(22, 67, 104)"/>
<circle r="6.5" transform="matrix(-1 0 0 1 426.5 152.5)" fill="RGB(22, 67, 104)"/>
<circle r="6.5" transform="matrix(-1 0 0 1 426.5 174.5)" fill="RGB(22, 67, 104)"/>
<path d="M481 194.5H384.5L368 213.5H212.5" stroke="RGB(22, 67, 104)" stroke-width="5"/>
<path d="M261 260L244.709 282H177.5" stroke="RGB(22, 67, 104)" stroke-width="5"/>
<path d="M398 260L385.677 282H339" stroke="RGB(22, 67, 104)" stroke-width="5"/>
<path d="M510 260L498.93 282H457" stroke="RGB(22, 67, 104)" stroke-width="5"/>
<path d="M561.93 283H520" stroke="RGB(22, 67, 104)" stroke-width="5"/>
<path d="M371 303L364.943 325H342" stroke="RGB(22, 67, 104)" stroke-width="5"/>
<path d="M468 303L452.962 325H396" stroke="RGB(22, 67, 104)" stroke-width="5"/>
<path d="M471 216L465.152 237H443" stroke="RGB(22, 67, 104)" stroke-width="5"/>
<line y1="-2.5" x2="57.029" y2="-2.5" transform="matrix(-1 0 0 1 394.01 197)" stroke="RGB(22, 67, 104)" stroke-width="5"/>
<path d="M486.5 303.875H260.957" stroke="RGB(22, 67, 104)" stroke-width="5"/>
<line y1="-2.5" x2="35.9899" y2="-2.5" transform="matrix(-0.999946 0.0104196 0.0104196 0.999946 581 285)" stroke="RGB(22, 67, 104)" stroke-width="5"/>
<path d="M416 195L401.791 175H244.5" stroke="RGB(22, 67, 104)" stroke-width="5"/>
<circle r="6.5" transform="matrix(-1 0 0 1 277.5 282.5)" fill="RGB(22, 67, 104)"/>
<circle r="6.5" transform="matrix(-1 0 0 1 338.5 281.5)" fill="RGB(22, 67, 104)"/>
<path d="M306 214L298.677 238H252" stroke="RGB(22, 67, 104)" stroke-width="5"/>
<circle r="6.5" transform="matrix(-1 0 0 1 251.5 237.5)" fill="RGB(22, 67, 104)"/>
<circle r="6.5" transform="matrix(-1 0 0 1 404.5 282.5)" fill="RGB(22, 67, 104)"/>
<circle r="6.5" transform="matrix(-1 0 0 1 457.5 281.5)" fill="RGB(22, 67, 104)"/>
<circle r="6.5" transform="matrix(-1 0 0 1 520.5 282.5)" fill="RGB(22, 67, 104)"/>
<circle r="6.5" transform="matrix(-1 0 0 1 261.5 303.5)" fill="RGB(22, 67, 104)"/>
<circle r="6.5" transform="matrix(-1 0 0 1 342.5 324.5)" fill="RGB(22, 67, 104)"/>
<circle r="6.5" transform="matrix(-1 0 0 1 234.5 324.5)" fill="RGB(22, 67, 104)"/>
<path d="M226 283L219.943 305H164" stroke="RGB(22, 67, 104)" stroke-width="5"/>
<circle r="6.5" transform="matrix(-1 0 0 1 162.5 304.5)" fill="RGB(22, 67, 104)"/>
<path d="M328.5 174.5L312.943 196H290" stroke="RGB(22, 67, 104)" stroke-width="5"/>
<circle r="6.5" transform="matrix(-1 0 0 1 290.5 195.5)" fill="RGB(22, 67, 104)"/>
<circle r="6.5" transform="matrix(-1 0 0 1 393.5 324.5)" fill="RGB(22, 67, 104)"/>
<path d="M320 303L305.791 283H273" stroke="RGB(22, 67, 104)" stroke-width="5"/>
<circle r="6.5" transform="matrix(-1 0 0 1 198.5 237.5)" fill="RGB(22, 67, 104)"/>
<path d="M241 258L226.791 238H194" stroke="RGB(22, 67, 104)" stroke-width="5"/>
<line y1="-2.5" x2="203.024" y2="-2.5" transform="matrix(-0.999956 0.00935081 0.00935081 0.999956 320 425)" stroke="RGB(22, 67, 104)" stroke-width="5"/>
<path d="M298.977 446.5L237.5 446.5" stroke="RGB(22, 67, 104)" stroke-width="5"/>
<ellipse rx="6.5907" ry="6.5" transform="matrix(-1 0 0 1 117.409 424.5)" fill="RGB(22, 67, 104)"/>
<circle r="6.5" transform="matrix(-1 0 0 1 107.5 447.5)" fill="RGB(22, 67, 104)"/>
<path d="M152 467.5L139 448H111.5" stroke="RGB(22, 67, 104)" stroke-width="5"/>
<path d="M491 131.094H293" stroke="RGB(22, 67, 104)" stroke-width="5"/>
<ellipse rx="6.5907" ry="6.5" transform="matrix(-1 0 0 1 292.409 130.5)" fill="RGB(22, 67, 104)"/>
<circle r="6.5" transform="matrix(-1 0 0 1 321.5 153.5)" fill="RGB(22, 67, 104)"/>
<path d="M409 132L392.708 154H325.5" stroke="RGB(22, 67, 104)" stroke-width="5"/>
<circle r="6.5" transform="matrix(-1 0 0 1 316.5 109.5)" fill="RGB(22, 67, 104)"/>
<circle r="6.5" transform="matrix(-1 0 0 1 358.5 88.5)" fill="RGB(22, 67, 104)"/>
<path d="M405 130L390.79 110H316.5" stroke="RGB(22, 67, 104)" stroke-width="5"/>
<path d="M390 109L375.79 89H358" stroke="RGB(22, 67, 104)" stroke-width="5"/>
<circle r="6.5" transform="matrix(-1 0 0 1 402.5 78.5)" fill="RGB(22, 67, 104)"/>
<circle r="6.5" transform="matrix(-1 0 0 1 432.5 78.5)" fill="RGB(22, 67, 104)"/>
<path d="M435 112L403.5 79.5" stroke="RGB(22, 67, 104)" stroke-width="5"/>
<circle r="6.5" transform="matrix(-1 0 0 1 263.5 153.5)" fill="RGB(22, 67, 104)"/>
<path d="M306 174L291.791 154H259" stroke="RGB(22, 67, 104)" stroke-width="5"/>
<circle r="6.5" transform="matrix(-1 0 0 1 414.5 110.5)" fill="RGB(22, 67, 104)"/>
<path d="M482 131L467.791 111H417.5" stroke="RGB(22, 67, 104)" stroke-width="5"/>
<path d="M467 110L448 79H429" stroke="RGB(22, 67, 104)" stroke-width="5"/>
<circle r="6.5" transform="matrix(-1 0 0 1 227.5 194.5)" fill="RGB(22, 67, 104)"/>
<path d="M270 215L255.791 195H223" stroke="RGB(22, 67, 104)" stroke-width="5"/>
<path d="M435 303L425.93 283H405" stroke="RGB(22, 67, 104)" stroke-width="5"/>
<path d="M342.988 344L336.931 366H313.988" stroke="RGB(22, 67, 104)" stroke-width="5"/>
<path d="M439.988 344L424.95 366H367.988" stroke="RGB(22, 67, 104)" stroke-width="5"/>
<path d="M453 344.875H148" stroke="RGB(22, 67, 104)" stroke-width="5"/>
<circle r="6.5" transform="matrix(-1 0 0 1 147.488 344.5)" fill="RGB(22, 67, 104)"/>
<circle r="6.5" transform="matrix(-1 0 0 1 314.488 365.5)" fill="RGB(22, 67, 104)"/>
<circle r="6.5" transform="matrix(-1 0 0 1 365.488 365.5)" fill="RGB(22, 67, 104)"/>
<path d="M435.988 385L420.95 407H363.988" stroke="RGB(22, 67, 104)" stroke-width="5"/>
<path d="M449 385.875L133 386.001" stroke="RGB(22, 67, 104)" stroke-width="5"/>
<circle r="6.5" transform="matrix(-1 0 0 1 129.488 385.5)" fill="RGB(22, 67, 104)"/>
<path d="M193.5 345.5L178.931 366H138.5" stroke="RGB(22, 67, 104)" stroke-width="5"/>
<circle r="6.5" transform="matrix(-1 0 0 1 139.5 365.5)" fill="RGB(22, 67, 104)"/>
<path d="M268 446L253.431 466.5H213" stroke="RGB(22, 67, 104)" stroke-width="5"/>
<circle r="6.5" transform="matrix(-1 0 0 1 214 466)" fill="RGB(22, 67, 104)"/>
<path d="M222.5 424L205.431 448.5H165" stroke="RGB(22, 67, 104)" stroke-width="5"/>
<circle r="6.5" transform="matrix(-1 0 0 1 166 448)" fill="RGB(22, 67, 104)"/>
<path d="M179.5 386.5L164.931 407H124.5" stroke="RGB(22, 67, 104)" stroke-width="5"/>
<path d="M126 489L111.431 509.5H71" stroke="RGB(22, 67, 104)" stroke-width="5"/>
<circle r="6.5" transform="matrix(-1 0 0 1 125.5 406.5)" fill="RGB(22, 67, 104)"/>
<path d="M347 387L264.727 489H87.5" stroke="RGB(22, 67, 104)" stroke-width="5"/>
<circle r="6.5" transform="matrix(-1 0 0 1 71.5 509.5)" fill="RGB(22, 67, 104)"/>
<path d="M102 510L87.4311 530.5H47" stroke="RGB(22, 67, 104)" stroke-width="5"/>
<circle r="6.5" transform="matrix(-1 0 0 1 47.5 530.5)" fill="RGB(22, 67, 104)"/>
<path d="M205 489L190.431 509.5H150" stroke="RGB(22, 67, 104)" stroke-width="5"/>
<circle r="6.5" transform="matrix(-1 0 0 1 150.5 509.5)" fill="RGB(22, 67, 104)"/>
<circle r="6.5" transform="matrix(-1 0 0 1 87.5 488.5)" fill="RGB(22, 67, 104)"/>
<circle r="6.5" transform="matrix(-1 0 0 1 361.488 406.5)" fill="RGB(22, 67, 104)"/>
<path d="M361 450L345.962 472H301" stroke="RGB(22, 67, 104)" stroke-width="5"/>
<circle r="6.5" transform="matrix(-1 0 0 1 299.5 471.5)" fill="RGB(22, 67, 104)"/>
<path d="M387 427L371.962 449H315" stroke="RGB(22, 67, 104)" stroke-width="5"/>
<circle r="6.5" transform="matrix(-1 0 0 1 312.5 448.5)" fill="RGB(22, 67, 104)"/>
<path d="M408 406L392.962 428H336" stroke="RGB(22, 67, 104)" stroke-width="5"/>
<circle r="6.5" transform="matrix(-1 0 0 1 333.5 427.5)" fill="RGB(22, 67, 104)"/>
<circle r="6.5" transform="matrix(-1 0 0 1 238.5 447.5)" fill="RGB(22, 67, 104)"/>
<path d="M318.988 344L304.779 324H236" stroke="RGB(22, 67, 104)" stroke-width="5"/>
<circle r="6.5" transform="matrix(-1 0 0 1 208.512 365.5)" fill="RGB(22, 67, 104)"/>
<path d="M293 385L278.791 365H210.012" stroke="RGB(22, 67, 104)" stroke-width="5"/>
<circle r="6.5" transform="matrix(-1 0 0 1 100.512 468.5)" fill="RGB(22, 67, 104)"/>
<path d="M185 488L170.791 468H102.012" stroke="RGB(22, 67, 104)" stroke-width="5"/>
<circle r="6.5" transform="matrix(-1 0 0 1 155.5 324.5)" fill="RGB(22, 67, 104)"/>
<path d="M212.988 344L198.779 324H158.5" stroke="RGB(22, 67, 104)" stroke-width="5"/>
<circle r="6.5" transform="matrix(-1 0 0 1 211.512 405.5)" fill="RGB(22, 67, 104)"/>
<path d="M283 422L268.298 405H213" stroke="RGB(22, 67, 104)" stroke-width="5"/>
<path d="M521 259L516.767 239H493" stroke="RGB(22, 67, 104)" stroke-width="5"/>
<line y1="-2.5" x2="30.4795" y2="-2.5" transform="matrix(-0.656179 -0.754606 -0.754606 0.656179 429 261)" stroke="RGB(22, 67, 104)" stroke-width="5"/>
</svg>
