<svg xmlns="http://www.w3.org/2000/svg" viewBox="0 0 1080 1080"><defs><style>.cls-1{fill:#848080;}.cls-2{fill:#3f3d56;}.cls-3{fill:#fff;}.cls-4{fill:#f2f2f2;}.cls-5{fill:#e6e6e6;}.cls-6{fill:#6c63ff;}.cls-7{font-size:60px;font-family:Acme-Regular, Acme;}.cls-8{fill:#82b378;}.cls-9{fill:#a8d29f;}.cls-10{fill:#ed7d2b;}.cls-11{fill:#f99746;}.cls-12{fill:#ffb176;}.cls-13{fill:#db6a1f;}.cls-14{fill:#f47676;}.cls-15{fill:#ce4d4d;}.cls-16{fill:#5b3e2b;}.cls-17{fill:#e29e79;}.cls-18{fill:#4b4266;}.cls-19{fill:#775137;}.cls-20{fill:#7d5639;}.cls-21{fill:#75d8d0;}.cls-22{fill:#85e8de;}.cls-23{fill:#ae5b3b;}.cls-24{fill:#fbc19b;}.cls-25{fill:#a05037;}</style></defs><title>management</title><g id="Progress"><polygon class="cls-1" points="543.03 518.28 506.35 886.31 529.69 886.31 569.71 509.07 543.03 518.28"/><polygon class="cls-1" points="647.06 538.98 669.9 884.01 691.22 874.81 663.81 511.38 647.06 538.98"/><polygon class="cls-1" points="588.31 552.83 593.54 851.86 614.49 851.86 611.87 520.63 588.31 552.83"/><path class="cls-2" d="M1015.23,553.3H194.65V85.94a18.68,18.68,0,0,1,18.82-18.5H996.41a18.68,18.68,0,0,1,18.82,18.5Z"/><path class="cls-3" d="M985.31,533.47h-764a15.36,15.36,0,0,1-15.34-15.34V99.2a15.36,15.36,0,0,1,15.34-15.34H985.31a15.36,15.36,0,0,1,15.34,15.34V518.13A15.37,15.37,0,0,1,985.31,533.47Z"/><rect class="cls-4" x="792.67" y="151.58" width="184.48" height="140.94"/><rect class="cls-3" x="801.84" y="158.59" width="166.14" height="126.93"/><path class="cls-2" d="M887.83,252.74h.07a44.3,44.3,0,0,0,1-88.41,1,1,0,0,0-.77.26,1.06,1.06,0,0,0-.33.73l-1,86.39a1,1,0,0,0,1,1Z"/><path class="cls-5" d="M853.09,178.61a1.35,1.35,0,0,1,.91.39l29.75,30.42a1.31,1.31,0,0,1,.37.92l-.47,41.34a1.25,1.25,0,0,1-.42.94,1.3,1.3,0,0,1-1,.34,44.59,44.59,0,0,1-30.15-73.91,1.31,1.31,0,0,1,.94-.44Z"/><path class="cls-6" d="M883.33,164a1.35,1.35,0,0,1,.89.37,1.25,1.25,0,0,1,.4.95l-.42,37.3a1.3,1.3,0,0,1-1.31,1.28,1.25,1.25,0,0,1-.91-.39l-26-26.54a1.31,1.31,0,0,1,0-1.84s0,0,.05,0A44.77,44.77,0,0,1,883.25,164Z"/><path class="cls-6" d="M870,270.65a8,8,0,1,1-7.87-8h0A8,8,0,0,1,870,270.65Z"/><path class="cls-2" d="M892.69,270.91a8,8,0,1,1-7.86-8.05h0A8,8,0,0,1,892.69,270.91Z"/><path class="cls-5" d="M915.42,271.16a8,8,0,1,1-7.86-8h0A8,8,0,0,1,915.42,271.16Z"/><rect class="cls-4" x="790.73" y="314.7" width="184.48" height="140.94"/><rect class="cls-3" x="799.9" y="321.7" width="166.14" height="126.93"/><circle class="cls-2" cx="828.09" cy="356.52" r="6.9"/><path class="cls-2" d="M938.93,351.15a4.68,4.68,0,0,1,0,9.36H866.37a4.68,4.68,0,1,1,0-9.36h72.56m0-1.14H866.37a5.83,5.83,0,1,0,0,11.65h72.57a5.83,5.83,0,1,0,0-11.65Z"/><path class="cls-6" d="M910.3,361.66H855.68a5.83,5.83,0,0,1,0-11.65H910.3a5.83,5.83,0,0,1,0,11.65Z"/><circle class="cls-2" cx="828.09" cy="385.17" r="6.9"/><path class="cls-2" d="M938.93,379.8a4.68,4.68,0,0,1,0,9.36H866.37a4.68,4.68,0,1,1,0-9.36h72.56m0-1.15H866.37a5.83,5.83,0,0,0,0,11.65h72.56a5.83,5.83,0,0,0,0-11.65Z"/><path class="cls-6" d="M930.92,390.3H855.68a5.83,5.83,0,0,1,0-11.65h75.26a5.83,5.83,0,0,1,0,11.65Z"/><circle class="cls-2" cx="828.09" cy="413.81" r="6.9"/><path class="cls-2" d="M938.93,408.44a4.68,4.68,0,0,1,0,9.36H866.37a4.68,4.68,0,1,1,0-9.36h72.56m0-1.14H866.37a5.83,5.83,0,0,0,0,11.65h72.56a5.83,5.83,0,0,0,0-11.65Z"/><path class="cls-6" d="M886.24,419H855.68a5.83,5.83,0,0,1,0-11.65h30.58a5.83,5.83,0,0,1,0,11.65Z"/><rect class="cls-4" x="234.56" y="176.52" width="515.39" height="264.14"/><rect class="cls-3" x="251.74" y="189.64" width="481.03" height="237.89"/><path class="cls-2" d="M673.11,391.24H322.45a1.1,1.1,0,0,1-1.1-1.1V222.07a1.1,1.1,0,0,1,2.2,0h0v167H673.11a1.1,1.1,0,1,1,0,2.19Z"/><path class="cls-6" d="M397.37,379.17H365.48a3.26,3.26,0,0,1-3.26-3.26V332a3.26,3.26,0,0,1,3.26-3.26h31.89a3.26,3.26,0,0,1,3.26,3.26v44A3.26,3.26,0,0,1,397.37,379.17Z"/><path class="cls-6" d="M455.53,379.17H423.64a3.26,3.26,0,0,1-3.26-3.26V290.24a3.26,3.26,0,0,1,3.26-3.25h31.89a3.26,3.26,0,0,1,3.26,3.25v85.67A3.26,3.26,0,0,1,455.53,379.17Z"/><path class="cls-6" d="M513.7,379.17H481.8a3.26,3.26,0,0,1-3.25-3.26V332a3.26,3.26,0,0,1,3.25-3.26h31.9A3.27,3.27,0,0,1,517,332v44A3.27,3.27,0,0,1,513.7,379.17Z"/><path class="cls-6" d="M571.86,379.17H540a3.18,3.18,0,0,1-3.26-3.11V273.63a3.2,3.2,0,0,1,3.26-3.11h31.89a3.2,3.2,0,0,1,3.26,3.11V376.06A3.18,3.18,0,0,1,571.86,379.17Z"/><path class="cls-6" d="M630,379.17H598.13a3.26,3.26,0,0,1-3.26-3.26V244.15a3.27,3.27,0,0,1,3.26-3.26H630a3.27,3.27,0,0,1,3.26,3.26V375.91A3.26,3.26,0,0,1,630,379.17Z"/><circle class="cls-2" cx="381.42" cy="308.93" r="6.58"/><circle class="cls-2" cx="439.59" cy="266.13" r="6.58"/><circle class="cls-2" cx="497.75" cy="308.93" r="6.58"/><circle class="cls-2" cx="555.91" cy="245.28" r="6.58"/><circle class="cls-2" cx="614.08" cy="221.14" r="6.58"/><polygon class="cls-2" points="497.89 310.41 439.59 266.74 382.08 309.81 380.77 308.06 439.59 264 497.61 307.46 555.27 244.36 555.5 244.27 613.67 220.83 614.49 222.87 556.55 246.21 497.89 310.41"/><text class="cls-7" transform="translate(408.16 153.84)">Progress Chart</text></g><g id="Layer_5" data-name="Layer 5"><path class="cls-8" d="M716.48,821.8l-2.94-.27c1.12-21.41,17.33-33.4,17.33-33.4,11.35-10.06,15-21.1,15-21.1s-19.15-22.35-1.18-36.54c0,0,13.12-7.94,23.83-7.3,0,0-15.17,25.43-10.26,28s14.85-29.55,14.85-29.55,29.87-2.9,39.48,1.72c0,0-25.53,20.9-20.15,22.14s33-19.27,33-19.27,27.8,4.73,26.31,21.69-11.06,22.2-15.27,21.75-28.84-9.85-29.37-6.4S821.4,778,831.78,778.48c0,0-19.6,21.61-32.63,15.38S785,777.73,776.89,774s-15-3.7-11.7.08,18,7.46,22.69,15.68,8.81,13.75-4.66,11.72-35.39-11.89-36.35-23.18c0-.5-.08-1-.12-1.41a5.49,5.49,0,0,0,.12,1.41c-2.81.5-8.65,5.67-12.87,9.73-.65.71-1.61,1.66-3,2.94l-1.27,1.29C721.19,801.65,716.48,821.8,716.48,821.8Z"/><path class="cls-9" d="M679,738.93s30.46-17.06,16.25-40.22c0,0-11.38-14.21-23.56-17.87,0,0,6.5,34.53,0,35.34s-4.47-39-4.47-39S635.08,661.75,622.49,663c0,0,19.9,33.71,13.4,32.9s-28.84-34.93-28.84-34.93-32.9-6.09-38.18,13.4,3.25,29.25,8.12,30.47,36.15.81,35.34,4.87-21.93,10.56-33.71,6.91c0,0,13,32.09,30.06,30.46s22.34-12.18,32.9-13,18.28,2,13,4.88-23.16.93-31.69,8.18-15.43,11.72.41,15,44.27,1.22,50-11Z"/><path class="cls-8" d="M583.9,680.44s85.3,27.62,95.05,58.49c0,0-.41,13.81,8.12,29.65,0,0,13.16,20,5.66,44.29l-3.39-.9s3-24.13-2.62-38.1c-.23-.52-.56-1.26-1-2.17-1-2-1.69-3.43-2.12-4.49-3-6.24-7.43-14.39-10.36-16.1C673.26,751.11,692.35,724.31,583.9,680.44Z"/><path class="cls-9" d="M727.42,715.4s-40.16-22.49-21.42-53c0,0,15-18.74,31-23.56,0,0-8.56,45.51,0,46.59S742.94,634,742.94,634s42.3-20.34,58.9-18.74c0,0-26.23,44.44-17.67,43.37s38-46,38-46,43.37-8,50.33,17.67-4.28,38.56-10.71,40.16-47.65,1.07-46.58,6.43,28.91,13.92,44.44,9.1c0,0-17.13,42.3-39.62,40.16S790.6,710.05,776.68,709s-24.1,2.68-17.14,6.43,30.52,1.23,41.77,10.79,20.34,15.45-.54,19.73-58.36,1.61-65.86-14.46Z"/><path class="cls-8" d="M716.71,754.49c11.24-20.88,10.71-39.09,10.71-39.09,12.85-40.69,125.29-77.1,125.29-77.1-143,57.82-117.8,93.16-117.8,93.16-3.85,2.25-9.63,13-13.64,21.19-.57,1.4-1.47,3.33-2.82,6-.54,1.19-1,2.16-1.28,2.84-7.36,18.42-3.46,50.23-3.46,50.23l-4.46,1.19C699.37,780.82,716.71,754.49,716.71,754.49Z"/><path class="cls-10" d="M804.72,803.72a78.66,78.66,0,1,1-157.32,0Z"/><path class="cls-11" d="M753,803.72c0,29.48-7.06,59.49-31.05,73-4,2.24-17.35-.18-21.73,1.34a78.7,78.7,0,0,1-52.77-74.3Z"/><path class="cls-12" d="M726.06,882.38c-3.2.4,12.9,0,9.59,0A78.67,78.67,0,0,1,657,803.72h19.54C676.53,843.86,687.23,877.57,726.06,882.38Z"/><path class="cls-10" d="M805.81,886.39H646.31a9.71,9.71,0,0,1,9.71-9.71H796.11A9.7,9.7,0,0,1,805.81,886.39Z"/><path class="cls-11" d="M731.08,886.39H646.31a9.71,9.71,0,0,1,9.71-9.71h65.36A9.71,9.71,0,0,1,731.08,886.39Z"/><rect class="cls-13" x="644.81" y="803.72" width="161.7" height="2.41"/></g><g id="Layer_3" data-name="Layer 3"><polygon class="cls-1" points="102.66 772.35 71.29 1000.5 91.25 1000.5 125.48 766.64 102.66 772.35"/><polygon class="cls-1" points="255.24 800.87 276.63 1014.76 296.59 1009.06 270.93 783.76 255.24 800.87"/><polygon class="cls-1" points="356.48 760.94 393.56 934.91 377.87 934.91 343.65 766.64 356.48 760.94"/><polygon class="cls-1" points="185.37 749.53 191.07 934.91 213.89 934.91 211.03 729.57 185.37 749.53"/><polygon class="cls-14" points="302.3 820.83 125.48 766.64 89.13 507.05 57.03 509.97 96.96 795.16 273.78 849.35 379.3 763.79 373.99 762.7 302.3 820.83"/><polygon class="cls-15" points="302.3 820.83 382.15 760.94 282.33 743.83 276.63 490.01 89.13 507.05 125.48 766.64 302.3 820.83"/><path class="cls-16" d="M410.64,744.27s-4.39,35.08-12.62,42.28-54.77,8.26-54.77,8.26L321.88,767l30.87-36Z"/><path class="cls-17" d="M366.83,730.79s45.49,11.79,37.07,62.33-35.38,82.56-35.38,82.56l-10.95-10.95s32.85-80-16-103.62Z"/><path class="cls-18" d="M357.57,864.73s20.9,1.56,30.16,6.19,3.6,17.49,3.6,17.49L354.8,876.07Z"/><path class="cls-19" d="M412.19,744.52s-43.81-6.73-52.23,52.23c0,0-112.88,20.22-121.3-96l72.44-15.16S388.6,720.94,412.19,744.52Z"/><path class="cls-16" d="M361.65,778.22S357.26,813.3,349,820.5s-54.77,8.26-54.77,8.26L272.89,801l30.87-36Z"/><path class="cls-17" d="M317.84,764.74s45.49,11.8,37.07,62.34-35.38,82.55-35.38,82.55l-10.95-11s32.85-80-16-103.61Z"/><path class="cls-20" d="M361.65,778.22s-59-8.42-67.39,50.54c0,0-104.46,8.43-112.88-107.82l72.44-15.16S338.06,754.63,361.65,778.22Z"/><path class="cls-17" d="M320.08,602l63.32-8.52s8.53-2.44,9.75-13.4-19.49-42.62-19.49-42.62,3.76-2.18,5.38-4.89,4.34-6.5,3.8-8.67-3.8-6-6.5-2.16-10.84,8.66-10.84,8.66l-4.33-2.17s-.54,7.59,3.79,9.75,12.46,33,12.46,33l-37.37-4.33Z"/><path class="cls-21" d="M344.57,545.35l4,64.6s-89.89,11.62-87.06-19.84S320.27,551.1,344.57,545.35Z"/><path class="cls-22" d="M345.18,555.16l-.61-9.81c-24.3,5.75-80.2,13.3-83,44.76a1.93,1.93,0,0,0,0,.24C276.48,570.41,318.26,561.23,345.18,555.16Z"/><path class="cls-21" d="M348.61,610l-3.43-54.79c-26.92,6.07-68.7,15.25-83.64,35.19C259.2,621.5,348.61,610,348.61,610Z"/><path class="cls-22" d="M221.28,560.18s-23.14,17.05-39,163.18c0,0,120.56,25.58,154.66-28,0,0-9.74-74.29-34.1-136.39Z"/><polygon class="cls-17" points="280.41 561.91 253.66 560.56 256.52 503.4 291.8 505.17 280.41 561.91"/><path class="cls-23" d="M275.77,398.45c-1.62-.39-1.87-1.64-3-2.65-1.84-1.63-3.23-1.41-5.33-2s-3.7-1.26-5.66-1.76c-1.71-.43-2.51-1.26-4.08-1.71h-3a2.05,2.05,0,0,1-1.61-1.27,24.94,24.94,0,0,0-5.36-.59c-3.8-.16-7.6-.36-11.39-.57-6.83-.37-13,.73-18.82,4.41-17.1,10.75-17.09,34.77-9.68,51.27,4.84,10.79,10.69,21.92,13.82,33.32-3-1.19-10.22-8.9-13.52-7.35,3,9.22,10.24,17.45,14.63,25.78a26.69,26.69,0,0,0,9.47,10.47,60,60,0,0,1,5.4,4.64c3.06,2.58,4.9,2.21,7.21-.72,6.31-8,11.77-17.61,14.27-27.52,3.11-12.38,5.35-24.75,8.29-37,2-8.45,2.53-16.86,3-25.58a16.72,16.72,0,0,0-1.36-8.29C267.94,408.4,275.6,401.81,275.77,398.45Z"/><path class="cls-24" d="M349,446.39C321.9,475,374.81,508.2,320.47,532c-17.52,7.69-85,15.72-101-36.47,0,0-2.42-8.69-1.71-22.93,0,0-9.61-7.63-7.75-16.1s7.47-6.76,20-.42c0,0-22.07-43.94,9.76-52.34s52.42-20.21,64.88-12.45,50.55,16.82,51.4,28.28S349,446.39,349,446.39Z"/><path class="cls-25" d="M222.25,388.76a6.86,6.86,0,0,0,2.1,3.23c5.34,5.47,11.72,10.35,19.19,11.94s16.2-.82,20.27-7.29c3.72,13.19,15.15,23.14,27.85,28.29s26.65,6.16,40.34,6.65c1.25,18.86,21.36,30.87,40,33.95,2.47.41,5.07.72,7.45-.08,8.37-2.81,7.1-15.24,2.7-22.9a70.39,70.39,0,0,0-23.06-24.17,83.3,83.3,0,0,0,21.54-7.32c3.36-1.68,6.88-3.94,7.86-7.56.86-3.17-.49-6.48-2-9.41a86.11,86.11,0,0,0-131.16-27.72q.74-5.44,1.46-10.91c-15.55-1.07-26.21,14.85-33.39,28.69C222.69,385.59,221.92,387.17,222.25,388.76Z"/><path class="cls-21" d="M237.15,560l-15.87.23s-23.14,17.05-39,163.18a330.62,330.62,0,0,0,43.9,5.53C222.58,616.34,231.83,574.43,237.15,560Z"/><path class="cls-17" d="M257.19,618.3l56.87,29.13s8.39,2.86,15.64-5.44S338,595.87,338,595.87s4.33.34,7.21-1,7.26-2.87,8.06-5,.28-7.05-4.11-5.49-13.84.94-13.84.94L333,581.16s-4.77,5.92-2.45,10.17S322,625.57,322,625.57l-28.23-24.88Z"/><path class="cls-22" d="M297.37,605.65l7.29-6.59c-19.63-15.43-60.37-54.44-86.74-37l-.19.14C242.64,561.42,275.84,588.38,297.37,605.65Z"/><path class="cls-21" d="M256.65,642.47l40.72-36.82c-21.53-17.27-54.73-44.23-79.64-43.5C191.91,579.74,256.65,642.47,256.65,642.47Z"/><path class="cls-18" d="M308.58,898.68s20.9,1.57,30.16,6.2,3.6,17.49,3.6,17.49L305.81,910Z"/></g></svg>