

<svg version="1.1" id="Layer_1" xmlns="http://www.w3.org/2000/svg" xmlns:xlink="http://www.w3.org/1999/xlink" x="0px" y="0px"
	 viewBox="0 0 512 512" style="enable-background:new 0 0 512 512;" xml:space="preserve"><title>fi12Artboard 1</title><path d="M370,200.46V185C370,83,287,0,185,0S0,83,0,185v24A182.52,182.52,0,0,0,70,352.51V477a15,15,0,0,0,15,15H265a15,15,0,0,0,15-15V430h45a45.05,45.05,0,0,0,45-45V286.71l28.64-7.16a15,15,0,0,0,8.84-22.87Zm-15.18,62.39a15.41,15.41,0,0,0-11.67,15V390.86a15.44,15.44,0,0,1-15.42,15.42H266.06a15.41,15.41,0,0,0-15.41,15.41V470H96.48V349.75A15.41,15.41,0,0,0,90,337.2,156.7,156.7,0,0,1,24.54,210V185.31C24.54,97.46,96,26,183.84,26S343.15,97.46,343.15,185.31v20.55a15.4,15.4,0,0,0,2.59,8.55l29,43.47ZM94.35,223.53a4.85,4.85,0,1,0,9.52-1.88c-2.59-13.17,6.44-26.07,20.11-28.76,11.77-2.31,23.22,3.68,27.83,13.79a21.5,21.5,0,0,0-8.33,4,20.77,20.77,0,0,0-7.3,21.32,21,21,0,0,0,16.6,15,4.85,4.85,0,0,0,1.63-9.57,11.1,11.1,0,0,1-8.84-7.86,10.93,10.93,0,0,1,3.91-11.21,12,12,0,0,1,8.33-2.43,4.85,4.85,0,0,0,5.21-5.77V210c-3.62-18.42-22-30.38-40.9-26.66S90.73,205.1,94.35,223.53Zm-23.39,4a56.43,56.43,0,0,0,35.56,42.37c7.56,2.93,12.51,10,12.34,17.54a33.37,33.37,0,0,0,14.91,28.52,35.26,35.26,0,0,0,24.4,5.67c.73-.1,1.45-.22,2.17-.36a35.49,35.49,0,0,0,22.42-14.64c5.68-8.25,6.59-18.94,2.66-30.94-7.29-22.22-8-39.43-2.41-59.38,2.64-9.46,1.9-18.49-2.13-26.11a57.47,57.47,0,0,0-26.33-24.92A60.14,60.14,0,0,0,80.22,185,55.94,55.94,0,0,0,71,227.51Zm9.54-1.77a46.31,46.31,0,0,1,7.68-35.16,50.42,50.42,0,0,1,62.25-16.53,47.73,47.73,0,0,1,21.87,20.66c3.6,6.81,2.72,14.07,1.36,19-7.61,27.25-3,48.16,2.54,65,3,9.14,2.51,16.68-1.43,22.42A25.87,25.87,0,0,1,156.88,312a25.61,25.61,0,0,1-17.69-4.1,23.89,23.89,0,0,1-10-14.45,23.64,23.64,0,0,1-.6-5.79,27,27,0,0,0-5-16.32A29.43,29.43,0,0,0,110,260.83,46.77,46.77,0,0,1,80.5,225.74Zm111.18,23.84a47.19,47.19,0,0,0,20.86,30.68,4.85,4.85,0,1,0,5.29-8.14,37.6,37.6,0,0,1-10.48-53.3,4.85,4.85,0,1,0-8-5.54A47.23,47.23,0,0,0,191.68,249.58ZM232,231.23a13.73,13.73,0,0,0,3.72,18.94,4.85,4.85,0,0,0,5.44-8,4,4,0,0,1-1.08-5.51,4.86,4.86,0,0,0-8.08-5.39Zm-20.69,14.48A28.21,28.21,0,0,0,223.81,264a4.8,4.8,0,0,0,3.58.69,4.85,4.85,0,0,0,1.71-8.83,18.54,18.54,0,0,1-5.18-26.33,4.85,4.85,0,0,0-8-5.54A28.21,28.21,0,0,0,211.34,245.71Z"/></svg>
