<?xml version="1.0" encoding="iso-8859-1"?>
<!-- Generator: Adobe Illustrator 19.0.0, SVG Export Plug-In . SVG Version: 6.00 Build 0)  -->
<svg version="1.1" id="Layer_1" xmlns="http://www.w3.org/2000/svg" xmlns:xlink="http://www.w3.org/1999/xlink" x="0px" y="0px"
	 viewBox="0 0 512 512" style="enable-background:new 0 0 512 512;" xml:space="preserve">
<g>
	<g>
		<path d="M256,166.957c-36.824,0-66.783,29.959-66.783,66.783s29.959,66.783,66.783,66.783s66.783-29.959,66.783-66.783
			S292.824,166.957,256,166.957z M256,267.13c-18.412,0-33.391-14.979-33.391-33.391s14.979-33.391,33.391-33.391
			s33.391,14.979,33.391,33.391S274.412,267.13,256,267.13z"/>
	</g>
</g>
<g>
	<g>
		<path d="M256,0c-36.824,0-66.783,29.959-66.783,66.783c0,36.824,29.959,66.783,66.783,66.783s66.783-29.959,66.783-66.783
			C322.783,29.959,292.824,0,256,0z M256,100.174c-18.412,0-33.391-14.979-33.391-33.391c0-18.412,14.979-33.391,33.391-33.391
			c18.412,0,33.391,14.979,33.391,33.391C289.391,85.195,274.412,100.174,256,100.174z"/>
	</g>
</g>
<g>
	<g>
		<path d="M456.348,300.522H372.87v-116.87c0-27.618-22.469-50.087-50.087-50.087H256h-66.783
			c-27.618,0-50.087,22.469-50.087,50.087v116.87H55.652c-27.618,0-50.087,22.469-50.087,50.087s22.469,50.087,50.087,50.087h16.696
			c0,36.824,29.959,66.783,66.783,66.783c12.16,0,23.56-3.282,33.391-8.984v36.811c0,9.22,7.475,16.696,16.696,16.696h133.565
			c9.22,0,16.696-7.475,16.696-16.696v-36.811c9.831,5.702,21.231,8.984,33.391,8.984c36.824,0,66.783-29.959,66.783-66.783h16.696
			c27.618,0,50.087-22.469,50.087-50.087S483.966,300.522,456.348,300.522z M172.522,183.652c0-9.206,7.49-16.696,16.696-16.696H256
			h66.783c9.206,0,16.696,7.49,16.696,16.696v116.87H256h-83.478V183.652z M139.13,434.087c-18.412,0-33.391-15.091-33.391-33.503
			h66.783C172.522,418.996,157.542,434.087,139.13,434.087z M372.87,434.087c-18.412,0-33.391-15.091-33.391-33.503h66.783
			C406.261,418.996,391.281,434.087,372.87,434.087z M456.348,367.304c-15.114,0-119.759,0-133.565,0
			c-9.22,0-16.696,7.475-16.696,16.696v94.609H205.913V384c0-9.22-7.475-16.696-16.696-16.696c-14.901,0-118.146,0-133.565,0
			c-9.206,0-16.696-7.49-16.696-16.696s7.49-16.696,16.696-16.696c2.956,0,389.158,0,400.696,0c9.206,0,16.696,7.49,16.696,16.696
			S465.554,367.304,456.348,367.304z"/>
	</g>
</g>
<g>
</g>
<g>
</g>
<g>
</g>
<g>
</g>
<g>
</g>
<g>
</g>
<g>
</g>
<g>
</g>
<g>
</g>
<g>
</g>
<g>
</g>
<g>
</g>
<g>
</g>
<g>
</g>
<g>
</g>
</svg>
