<svg version="1.1" id="Layer_1" xmlns="http://www.w3.org/2000/svg" xmlns:xlink="http://www.w3.org/1999/xlink" x="0px" y="0px"
	 viewBox="0 0 512 512" style="enable-background:new 0 0 512 512;" xml:space="preserve">
<path d="M376 210.458V195C376 92.99 293.01 10 191 10C88.99 10 6 92.99 6 195V218.977C6 275.056 32.024 328.134 76 362.511V487C76 495.284 82.716 502 91 502H271C279.284 502 286 495.284 286 487V440H331C355.813 440 376 419.813 376 395V375C376 369.828 376 367 376 362.511V350.001V337.281C376 331 376 330.172 376 325V296.712L404.638 289.552C409.37 288.369 413.232 284.959 414.992 280.409C416.751 275.859 416.187 270.738 413.481 266.68L376 210.458ZM357.362 270.448C350.685 272.117 346 278.117 346 285V316.687V331C346 337.281 346 344.829 346 350.001C346 355.173 346 358 346 362.511V383.313V395C346 403.271 339.271 410 331 410H271C262.716 410 256 416.716 256 425V472H106V355C106 350.156 103.66 345.609 99.719 342.794C59.82 314.295 36 268.008 36 218.977V195C36 109.532 105.532 40 191 40C276.468 40 346 109.532 346 195V215C346 217.961 346.877 220.856 348.52 223.32L376.712 265.61L357.362 270.448Z" fill="black"/>
<path d="M221.059 246.911L224.929 227.629C228.66 226.405 232.291 224.897 235.791 223.118L252.168 234.074C257.285 237.422 264.052 236.719 268.37 232.392L279.077 221.7C283.494 217.368 284.208 210.512 280.78 205.364L269.867 189.079C271.647 185.582 273.157 181.954 274.382 178.226L293.654 174.36C299.676 173.144 304.005 167.854 304 161.716V146.507C304.004 140.379 299.689 135.095 293.68 133.869L274.382 130.002C273.157 126.275 271.647 122.647 269.867 119.15L280.832 102.788C284.183 97.675 283.48 90.9141 279.148 86.5991L268.441 75.9013C264.097 71.5087 257.251 70.7987 252.097 74.2065L235.798 85.1104C232.298 83.3315 228.667 81.8233 224.936 80.5993L221.066 61.3433C219.852 55.3239 214.557 50.9957 208.411 51H193.189C187.056 50.9957 181.767 55.3068 180.541 61.3111L176.671 80.5929C172.94 81.8169 169.309 83.325 165.809 85.104L149.432 74.1484C144.315 70.8003 137.549 71.5028 133.23 75.8304L122.529 86.5218C118.113 90.8541 117.398 97.7099 120.827 102.858L131.74 119.144C129.959 122.64 128.45 126.268 127.225 129.996L107.952 133.863C104.124 134.636 100.856 137.107 99.0707 140.578L89.3505 134.069C87.475 132.888 85.3042 132.261 83.0876 132.258C79.9955 132.257 77.0309 133.489 74.8509 135.68L66.2725 144.251C62.3713 148.169 61.7447 154.279 64.7696 158.906L73.0901 171.344C71.8832 173.767 70.8403 176.269 69.9683 178.832L55.3719 181.738C49.9108 182.81 45.9792 187.604 46.0001 193.164V205.28C45.9805 210.82 49.8845 215.6 55.3203 216.693L69.9812 219.612C70.8463 222.176 71.885 224.678 73.0901 227.101L64.6406 239.687C61.7127 244.296 62.3832 250.32 66.2531 254.174L74.8316 262.745C78.7515 266.645 84.8688 267.271 89.4989 264.247L101.947 255.933C104.373 257.139 106.877 258.181 109.442 259.052L112.358 273.636C113.43 279.09 118.224 283.018 123.787 283H135.913C141.458 283.019 146.242 279.119 147.336 273.688L150.258 259.039C152.824 258.169 155.328 257.125 157.753 255.914L170.35 264.356C174.964 267.276 180.989 266.607 184.849 262.745L190.654 256.945C191.488 257.119 192.337 257.212 193.189 257.222H208.411C214.544 257.226 219.833 252.915 221.059 246.911ZM122.452 221.649L125.464 224.658C114.284 223.163 105.392 214.55 103.549 203.431C101.707 192.313 107.346 181.296 117.447 176.28L127.238 178.213C128.463 181.941 129.972 185.569 131.753 189.066L120.788 205.428C117.425 210.539 118.12 217.308 122.452 221.63V221.649ZM176.438 252.943L161.694 243.044C159.626 241.659 156.945 241.586 154.805 242.857C151.113 245.029 147.142 246.687 143.002 247.787C140.636 248.426 138.836 250.349 138.358 252.75L134.894 270.111H124.806L121.343 252.711C120.864 250.31 119.064 248.387 116.699 247.749C112.558 246.649 108.587 244.99 104.895 242.819C102.748 241.559 100.067 241.647 98.0064 243.044L83.2617 252.93L76.1022 245.777L85.9901 231.038C87.3766 228.972 87.4494 226.294 86.1771 224.156C84.0041 220.467 82.3441 216.499 81.2429 212.362C80.604 209.999 78.6797 208.201 76.2764 207.722L58.8614 204.262V194.183L76.2441 190.722C78.6474 190.244 80.5717 188.446 81.2106 186.082C82.3119 181.945 83.9719 177.978 86.1449 174.289C87.4172 172.151 87.3444 169.472 85.9578 167.406L76.0635 152.674L83.223 145.521L97.6001 155.129V161.716C97.5994 165.489 99.2486 169.074 102.115 171.53C90.7596 182.46 87.1968 199.191 93.1153 213.793C99.0338 228.395 113.244 237.934 129.012 237.889C132.911 237.864 136.783 237.229 140.486 236.007C143.638 236.466 146.848 235.76 149.516 234.022L165.802 223.118C169.302 224.897 172.933 226.405 176.664 227.629L180.534 246.885C180.648 247.402 180.797 247.91 180.979 248.406L176.438 252.943ZM213.055 221.282L208.411 244.333H193.189L188.552 221.262C188.069 218.868 186.274 216.951 183.914 216.313C178.585 214.877 173.466 212.754 168.686 209.997C166.555 208.763 163.908 208.848 161.861 210.216L142.344 223.26L131.534 212.517L144.627 192.997C145.997 190.952 146.082 188.307 144.846 186.179C142.087 181.403 139.962 176.288 138.525 170.963C137.886 168.606 135.968 166.812 133.572 166.33L110.5 161.722V146.507L133.591 141.873C135.988 141.391 137.906 139.597 138.545 137.24C139.981 131.915 142.106 126.8 144.866 122.024C146.101 119.896 146.016 117.251 144.646 115.206L131.592 95.7051L142.344 84.9042L161.881 97.9864C163.927 99.355 166.575 99.44 168.705 98.2055C173.485 95.4485 178.604 93.3254 183.933 91.89C186.293 91.2516 188.089 89.3352 188.571 86.9407L193.189 63.8889H208.411L213.049 86.96C213.531 89.3546 215.326 91.271 217.686 91.9093C223.015 93.3447 228.135 95.4678 232.915 98.2249C235.045 99.4593 237.692 99.3743 239.739 98.0058L259.256 84.9622L270.067 95.7051L256.973 115.225C255.603 117.27 255.518 119.915 256.754 122.044C259.513 126.819 261.638 131.934 263.075 137.259C263.714 139.617 265.632 141.411 268.028 141.892L291.1 146.507V161.716L268.009 166.349C265.612 166.831 263.694 168.625 263.055 170.983C261.619 176.307 259.494 181.422 256.734 186.198C255.499 188.326 255.584 190.972 256.954 193.016L270.009 212.517L259.256 223.318L239.719 210.236C237.673 208.867 235.025 208.782 232.895 210.017C228.115 212.774 222.996 214.897 217.667 216.332C215.317 216.979 213.533 218.894 213.055 221.282Z" fill="black"/>
<path d="M201 109C176.147 109 156 129.147 156 154C156 178.853 176.147 199 201 199C225.853 199 246 178.853 246 154C245.972 129.159 225.841 109.028 201 109ZM201 186.143C183.248 186.143 168.857 171.752 168.857 154C168.857 136.248 183.248 121.857 201 121.857C218.752 121.857 233.143 136.248 233.143 154C233.122 171.743 218.743 186.122 201 186.143Z" fill="black"/>
<path d="M201 148C197.686 148 195 150.91 195 154.5C195 158.09 197.686 161 201 161C204.314 161 207 158.09 207 154.5C207 150.91 204.314 148 201 148Z" fill="black"/>
</svg>
