<svg version="1.1" id="Layer_1" xmlns="http://www.w3.org/2000/svg" xmlns:xlink="http://www.w3.org/1999/xlink" x="0px" y="0px"
	 viewBox="0 0 512 512" style="enable-background:new 0 0 512 512;" xml:space="preserve">
<g clip-path="url(#clip0)">
<path fill-rule="evenodd" clip-rule="evenodd" d="M94.9 366.7H407.8C408.8 366.7 409.7 366.6 410.6 366.4H410.8C417.5 366.4 422.9 361 422.9 354.3V12.1C422.9 5.4 417.5 0 410.8 0H407.8H114.3H94.9C62.7 0 36.5 26.2 36.5 58.4C36.5 58.5889 36.5223 58.7777 36.5458 58.9771C36.5721 59.2 36.6 59.4361 36.6 59.7C36.6 65.9602 36.5823 82.9706 36.5582 106.271C36.4672 193.887 36.284 370.442 36.6 398.8C36.6 399.15 36.575 399.5 36.55 399.85C36.525 400.2 36.5 400.55 36.5 400.9C36.5 431.9 60.8 457.2 91.3 459.1C91.9 459.2 92.5 459.3 93.1 459.3H410.8C417.5 459.3 422.9 453.9 422.9 447.2V401.6C422.9 394.9 417.5 389.5 410.8 389.5C404.1 389.5 398.7 394.9 398.7 401.6V435.1H94.9C76.5 435.1 61.5 420.5 60.8 402.3C60.8 402.161 60.8215 402.022 60.8446 401.872C60.8713 401.7 60.9 401.514 60.9 401.3V398.8C61.9 380.9 76.7 366.7 94.9 366.7ZM103.2 58.4C103.2 51.7 108.6 46.3 115.3 46.3C122 46.3 127.4 51.7 127.4 58.4V304.3C127.4 311 122 316.4 115.3 316.4C108.6 316.4 103.2 311 103.2 304.3V58.4ZM275 266.3H265C261.7 266.3 259 263.6 259 260.3V193.4H188.3C184.8 193.4 182 190.6 182 187.1V177.6C182 174.1 184.8 171.3 188.3 171.3H259V97.3C259 94 261.7 91.3 265 91.3H275C278.3 91.3 281 94 281 97.3V171.3H350.8C354.2 171.3 357 174.1 357.1 177.6V187.1C357.1 190.6 354.3 193.4 350.8 193.4H281V260.3C281 263.6 278.3 266.3 275 266.3Z" fill="black"/>
</g>
<defs>
<clipPath id="clip0">
<rect width="459.3" height="459.3" fill="white"/>
</clipPath>
</defs>
</svg>
