<svg version="1.1" id="Layer_1" xmlns="http://www.w3.org/2000/svg" xmlns:xlink="http://www.w3.org/1999/xlink" x="0px" y="0px"
	 viewBox="0 0 512 512" style="enable-background:new 0 0 512 512;" xml:space="preserve">
<path d="M481.251 270.748C475.392 264.891 465.894 264.894 460.038 270.754C454.182 276.613 454.184 286.111 460.044 291.967C474.202 306.117 482 324.948 482 344.99C482 365.034 474.193 383.871 460.018 398.03C454.157 403.884 454.152 413.382 460.006 419.243C462.936 422.176 466.777 423.642 470.618 423.642C474.454 423.642 478.291 422.179 481.219 419.254C501.068 399.429 512 373.054 512 344.99C512 316.932 501.08 290.565 481.251 270.748V270.748Z" fill="black"/>
<path d="M417.606 313.171C411.748 319.028 411.748 328.526 417.606 334.384C420.439 337.217 422 340.984 422 344.99C422 348.996 420.439 352.763 417.606 355.596C411.748 361.453 411.748 370.951 417.606 376.809C420.535 379.738 424.374 381.203 428.212 381.203C432.05 381.203 435.89 379.738 438.818 376.809C456.364 359.264 456.364 330.715 438.818 313.17C432.962 307.313 423.464 307.313 417.606 313.171Z" fill="black"/>
<path d="M370 200.458V185C370 82.99 287.01 0 185 0C82.99 0 0 82.99 0 185V208.977C0 265.056 26.024 318.134 70 352.511V477C70 485.284 76.716 492 85 492H265C273.284 492 280 485.284 280 477V430H325C349.813 430 370 409.813 370 385V365C370 359.828 367.336 355.021 362.95 352.28L343.302 340L362.95 327.72C367.336 324.979 370 320.172 370 315V286.712L398.638 279.552C403.37 278.369 407.232 274.959 408.992 270.409C410.751 265.859 410.187 260.738 407.481 256.68L370 200.458ZM351.362 260.448C344.685 262.117 340 268.117 340 275V306.687L307.05 327.281C302.664 330.022 300 334.829 300 340.001C300 345.173 302.664 349.98 307.05 352.721L340 373.313V385C340 393.271 333.271 400 325 400H265C256.716 400 250 406.716 250 415V462H100V345C100 340.156 97.66 335.609 93.719 332.794C53.82 304.295 30 258.008 30 208.977V185C30 99.532 99.532 30 185 30C270.468 30 340 99.532 340 185V205C340 207.961 340.877 210.856 342.52 213.32L370.712 255.61L351.362 260.448Z" fill="black"/>
</svg>
