<svg width="2656" height="1044" viewBox="0 0 2656 1044" fill="none" xmlns="http://www.w3.org/2000/svg">
<g clip-path="url(#clip0)" filter="url(#filter0_d)">
<rect width="2624" height="1012" transform="translate(8 8)" fill="white"/>
<circle cx="607.5" cy="174.5" r="32.5" fill="#63ACE9"/>
<path d="M584 209.5C594 232.5 620.5 233 628.5 209.5C611.466 213.975 601.702 213.708 584 209.5Z" fill="#63ACE9" stroke="white"/>
<path d="M620 276.473L607.5 318L594 276.473V238.637C604.154 228.082 609.846 228.833 620 238.637V276.473Z" fill="#63ACE9" stroke="white"/>
<path d="M607 320L593.5 347.5V421H619V347.5L607 320Z" fill="#63ACE9" stroke="white"/>
<path d="M617.5 477H595L597 541H617.5V477Z" fill="#63ACE9" stroke="white"/>
<path d="M615.5 588H597.5L599 643.5H615.5V588Z" fill="#63ACE9" stroke="white"/>
<path d="M614 680H599L600 735H613L614 680Z" fill="#63ACE9" stroke="white"/>
<path d="M612 769.5H600.5V814H612V769.5Z" fill="#63ACE9" stroke="white"/>
<path d="M612 841H601.5L607 935.5L612 841Z" fill="#63ACE9" stroke="white"/>
<path d="M718 161H784" stroke="#63ACE9" stroke-width="5"/>
<path d="M787.5 183H745.5L736.5 162.5" stroke="#63ACE9" stroke-width="5"/>
<line x1="643" y1="267.094" x2="1025" y2="267.094" stroke="#63ACE9" stroke-width="5"/>
<path d="M1030.68 266.5C1030.68 269.807 1027.96 272.5 1024.59 272.5C1021.22 272.5 1018.5 269.807 1018.5 266.5C1018.5 263.193 1021.22 260.5 1024.59 260.5C1027.96 260.5 1030.68 263.193 1030.68 266.5Z" fill="#63ACE9" stroke="#63ACE9"/>
<path d="M794.992 245.5H867.5" stroke="#63ACE9" stroke-width="5"/>
<circle cx="869.5" cy="245.5" r="6" fill="#63ACE9" stroke="#63ACE9"/>
<circle cx="815.5" cy="223.5" r="6" fill="#63ACE9" stroke="#63ACE9"/>
<path d="M719 223L811 223" stroke="#63ACE9" stroke-width="5"/>
<circle cx="997.5" cy="222.5" r="6" fill="#63ACE9" stroke="#63ACE9"/>
<circle cx="1034.5" cy="289.5" r="6" fill="#63ACE9" stroke="#63ACE9"/>
<circle cx="766.5" cy="246.5" r="6" fill="#63ACE9" stroke="#63ACE9"/>
<circle cx="718.5" cy="246.5" r="6" fill="#63ACE9" stroke="#63ACE9"/>
<circle cx="870.5" cy="202.5" r="6" fill="#63ACE9" stroke="#63ACE9"/>
<circle cx="964.5" cy="182.5" r="6" fill="#63ACE9" stroke="#63ACE9"/>
<circle cx="781.5" cy="160.5" r="6" fill="#63ACE9" stroke="#63ACE9"/>
<circle cx="781.5" cy="182.5" r="6" fill="#63ACE9" stroke="#63ACE9"/>
<path d="M727 202.5H823.5L840 221.5H995.5" stroke="#63ACE9" stroke-width="5"/>
<path d="M947 268L963.291 290H1030.5" stroke="#63ACE9" stroke-width="5"/>
<path d="M810 268L822.323 290H869" stroke="#63ACE9" stroke-width="5"/>
<path d="M698 268L709.07 290H751" stroke="#63ACE9" stroke-width="5"/>
<path d="M646.069 291H688" stroke="#63ACE9" stroke-width="5"/>
<path d="M837 311L843.057 333H866" stroke="#63ACE9" stroke-width="5"/>
<path d="M740 311L755.038 333H812" stroke="#63ACE9" stroke-width="5"/>
<path d="M737 224L742.848 245H765" stroke="#63ACE9" stroke-width="5"/>
<line x1="813.99" y1="202.5" x2="871.019" y2="202.5" stroke="#63ACE9" stroke-width="5"/>
<path d="M721.5 311.875H947.043" stroke="#63ACE9" stroke-width="5"/>
<line x1="627.026" y1="290.5" x2="663.014" y2="290.875" stroke="#63ACE9" stroke-width="5"/>
<path d="M792 203L806.209 183H963.5" stroke="#63ACE9" stroke-width="5"/>
<circle cx="930.5" cy="290.5" r="6" fill="#63ACE9" stroke="#63ACE9"/>
<circle cx="869.5" cy="289.5" r="6" fill="#63ACE9" stroke="#63ACE9"/>
<path d="M902 222L909.323 246H956" stroke="#63ACE9" stroke-width="5"/>
<circle cx="956.5" cy="245.5" r="6" fill="#63ACE9" stroke="#63ACE9"/>
<circle cx="803.5" cy="290.5" r="6" fill="#63ACE9" stroke="#63ACE9"/>
<circle cx="750.5" cy="289.5" r="6" fill="#63ACE9" stroke="#63ACE9"/>
<circle cx="687.5" cy="290.5" r="6" fill="#63ACE9" stroke="#63ACE9"/>
<circle cx="946.5" cy="311.5" r="6" fill="#63ACE9" stroke="#63ACE9"/>
<circle cx="865.5" cy="332.5" r="6" fill="#63ACE9" stroke="#63ACE9"/>
<circle cx="973.5" cy="332.5" r="6" fill="#63ACE9" stroke="#63ACE9"/>
<path d="M982 291L988.057 313H1044" stroke="#63ACE9" stroke-width="5"/>
<circle cx="1045.5" cy="312.5" r="6" fill="#63ACE9" stroke="#63ACE9"/>
<path d="M879.5 182.5L895.057 204H918" stroke="#63ACE9" stroke-width="5"/>
<circle cx="917.5" cy="203.5" r="6" fill="#63ACE9" stroke="#63ACE9"/>
<circle cx="814.5" cy="332.5" r="6" fill="#63ACE9" stroke="#63ACE9"/>
<path d="M888 311L902.209 291H935" stroke="#63ACE9" stroke-width="5"/>
<circle cx="1009.5" cy="245.5" r="6" fill="#63ACE9" stroke="#63ACE9"/>
<path d="M967 266L981.209 246H1014" stroke="#63ACE9" stroke-width="5"/>
<line x1="888.023" y1="430.5" x2="1091.04" y2="432.399" stroke="#63ACE9" stroke-width="5"/>
<path d="M909.024 454.5L970.501 454.5" stroke="#63ACE9" stroke-width="5"/>
<path d="M1096.68 432.5C1096.68 435.807 1093.96 438.5 1090.59 438.5C1087.22 438.5 1084.5 435.807 1084.5 432.5C1084.5 429.193 1087.22 426.5 1090.59 426.5C1093.96 426.5 1096.68 429.193 1096.68 432.5Z" fill="#63ACE9" stroke="#63ACE9"/>
<circle cx="1100.5" cy="455.5" r="6" fill="#63ACE9" stroke="#63ACE9"/>
<path d="M1056 475.5L1069 456H1096.5" stroke="#63ACE9" stroke-width="5"/>
<path d="M717 139.094H915" stroke="#63ACE9" stroke-width="5"/>
<path d="M921.681 138.5C921.681 141.807 918.961 144.5 915.591 144.5C912.22 144.5 909.5 141.807 909.5 138.5C909.5 135.193 912.22 132.5 915.591 132.5C918.961 132.5 921.681 135.193 921.681 138.5Z" fill="#63ACE9" stroke="#63ACE9"/>
<circle cx="886.5" cy="161.5" r="6" fill="#63ACE9" stroke="#63ACE9"/>
<path d="M799 140L815.291 162H882.5" stroke="#63ACE9" stroke-width="5"/>
<circle cx="891.5" cy="117.5" r="6" fill="#63ACE9" stroke="#63ACE9"/>
<circle cx="849.5" cy="96.5" r="6" fill="#63ACE9" stroke="#63ACE9"/>
<path d="M803 138L817.209 118H891.5" stroke="#63ACE9" stroke-width="5"/>
<path d="M818 117L832.209 97H850" stroke="#63ACE9" stroke-width="5"/>
<circle cx="805.5" cy="86.5" r="6" fill="#63ACE9" stroke="#63ACE9"/>
<circle cx="775.5" cy="86.5" r="6" fill="#63ACE9" stroke="#63ACE9"/>
<path d="M773 120L804.5 87.5" stroke="#63ACE9" stroke-width="5"/>
<circle cx="944.5" cy="161.5" r="6" fill="#63ACE9" stroke="#63ACE9"/>
<path d="M902 182L916.209 162H949" stroke="#63ACE9" stroke-width="5"/>
<circle cx="793.5" cy="118.5" r="6" fill="#63ACE9" stroke="#63ACE9"/>
<path d="M726 139L740.209 119H790.5" stroke="#63ACE9" stroke-width="5"/>
<path d="M741 118L760 87H779" stroke="#63ACE9" stroke-width="5"/>
<circle cx="980.5" cy="202.5" r="6" fill="#63ACE9" stroke="#63ACE9"/>
<path d="M938 223L952.209 203H985" stroke="#63ACE9" stroke-width="5"/>
<path d="M773 311L782.07 291H803" stroke="#63ACE9" stroke-width="5"/>
<path d="M865.012 352L871.069 374H894.012" stroke="#63ACE9" stroke-width="5"/>
<path d="M768.012 352L783.05 374H840.012" stroke="#63ACE9" stroke-width="5"/>
<path d="M755 352.875H1060" stroke="#63ACE9" stroke-width="5"/>
<circle cx="1060.51" cy="352.5" r="6" fill="#63ACE9" stroke="#63ACE9"/>
<circle cx="893.512" cy="373.5" r="6" fill="#63ACE9" stroke="#63ACE9"/>
<circle cx="842.512" cy="373.5" r="6" fill="#63ACE9" stroke="#63ACE9"/>
<path d="M772.012 393L787.05 415H844.012" stroke="#63ACE9" stroke-width="5"/>
<path d="M759 393.875L1075 394.001" stroke="#63ACE9" stroke-width="5"/>
<circle cx="1078.51" cy="393.5" r="6" fill="#63ACE9" stroke="#63ACE9"/>
<path d="M1014.5 353.5L1029.07 374H1069.5" stroke="#63ACE9" stroke-width="5"/>
<circle cx="1068.5" cy="373.5" r="6" fill="#63ACE9" stroke="#63ACE9"/>
<path d="M940 454L954.569 474.5H995" stroke="#63ACE9" stroke-width="5"/>
<circle cx="994" cy="474" r="6" fill="#63ACE9" stroke="#63ACE9"/>
<path d="M985.5 432L1002.57 456.5H1043" stroke="#63ACE9" stroke-width="5"/>
<circle cx="1042" cy="456" r="6" fill="#63ACE9" stroke="#63ACE9"/>
<path d="M1028.5 394.5L1043.07 415H1083.5" stroke="#63ACE9" stroke-width="5"/>
<path d="M1082 497L1096.57 517.5H1137" stroke="#63ACE9" stroke-width="5"/>
<circle cx="1082.5" cy="414.5" r="6" fill="#63ACE9" stroke="#63ACE9"/>
<path d="M861 395L943.273 497H1120.5" stroke="#63ACE9" stroke-width="5"/>
<circle cx="1136.5" cy="517.5" r="6" fill="#63ACE9" stroke="#63ACE9"/>
<path d="M1106 518L1120.57 538.5H1161" stroke="#63ACE9" stroke-width="5"/>
<circle cx="1160.5" cy="538.5" r="6" fill="#63ACE9" stroke="#63ACE9"/>
<path d="M1003 497L1017.57 517.5H1058" stroke="#63ACE9" stroke-width="5"/>
<circle cx="1057.5" cy="517.5" r="6" fill="#63ACE9" stroke="#63ACE9"/>
<circle cx="1120.5" cy="496.5" r="6" fill="#63ACE9" stroke="#63ACE9"/>
<circle cx="846.512" cy="414.5" r="6" fill="#63ACE9" stroke="#63ACE9"/>
<path d="M847 458L862.038 480H907" stroke="#63ACE9" stroke-width="5"/>
<circle cx="908.5" cy="479.5" r="6" fill="#63ACE9" stroke="#63ACE9"/>
<path d="M821 435L836.038 457H893" stroke="#63ACE9" stroke-width="5"/>
<circle cx="895.5" cy="456.5" r="6" fill="#63ACE9" stroke="#63ACE9"/>
<path d="M800 414L815.038 436H872" stroke="#63ACE9" stroke-width="5"/>
<circle cx="874.5" cy="435.5" r="6" fill="#63ACE9" stroke="#63ACE9"/>
<circle cx="969.5" cy="455.5" r="6" fill="#63ACE9" stroke="#63ACE9"/>
<path d="M889.012 352L903.221 332H972" stroke="#63ACE9" stroke-width="5"/>
<circle cx="999.488" cy="373.5" r="6" fill="#63ACE9" stroke="#63ACE9"/>
<path d="M915 393L929.209 373H997.988" stroke="#63ACE9" stroke-width="5"/>
<circle cx="1107.49" cy="476.5" r="6" fill="#63ACE9" stroke="#63ACE9"/>
<path d="M1023 496L1037.21 476H1105.99" stroke="#63ACE9" stroke-width="5"/>
<circle cx="1052.5" cy="332.5" r="6" fill="#63ACE9" stroke="#63ACE9"/>
<path d="M995.012 352L1009.22 332H1049.5" stroke="#63ACE9" stroke-width="5"/>
<circle cx="996.488" cy="413.5" r="6" fill="#63ACE9" stroke="#63ACE9"/>
<path d="M925 430L939.702 413H995" stroke="#63ACE9" stroke-width="5"/>
<path d="M687 267L691.233 247H715" stroke="#63ACE9" stroke-width="5"/>
<line x1="777.113" y1="267.36" x2="797.113" y2="244.36" stroke="#63ACE9" stroke-width="5"/>
<path d="M498 161H432" stroke="#63ACE9" stroke-width="5"/>
<path d="M428.5 183H470.5L479.5 162.5" stroke="#63ACE9" stroke-width="5"/>
<line y1="-2.5" x2="382.001" y2="-2.5" transform="matrix(-1 0 0 1 573 269.594)" stroke="#63ACE9" stroke-width="5"/>
<ellipse rx="6.5907" ry="6.5" transform="matrix(-1 0 0 1 191.409 266.5)" fill="#63ACE9"/>
<path d="M421.008 245.5H348.5" stroke="#63ACE9" stroke-width="5"/>
<circle r="6.5" transform="matrix(-1 0 0 1 346.5 245.5)" fill="#63ACE9"/>
<circle r="6.5" transform="matrix(-1 0 0 1 400.5 223.5)" fill="#63ACE9"/>
<path d="M497 223L405 223" stroke="#63ACE9" stroke-width="5"/>
<circle r="6.5" transform="matrix(-1 0 0 1 218.5 222.5)" fill="#63ACE9"/>
<circle r="6.5" transform="matrix(-1 0 0 1 181.5 289.5)" fill="#63ACE9"/>
<circle r="6.5" transform="matrix(-1 0 0 1 449.5 246.5)" fill="#63ACE9"/>
<circle r="6.5" transform="matrix(-1 0 0 1 497.5 246.5)" fill="#63ACE9"/>
<circle r="6.5" transform="matrix(-1 0 0 1 345.5 202.5)" fill="#63ACE9"/>
<circle r="6.5" transform="matrix(-1 0 0 1 251.5 182.5)" fill="#63ACE9"/>
<circle r="6.5" transform="matrix(-1 0 0 1 434.5 160.5)" fill="#63ACE9"/>
<circle r="6.5" transform="matrix(-1 0 0 1 434.5 182.5)" fill="#63ACE9"/>
<path d="M489 202.5H392.5L376 221.5H220.5" stroke="#63ACE9" stroke-width="5"/>
<path d="M269 268L252.709 290H185.5" stroke="#63ACE9" stroke-width="5"/>
<path d="M406 268L393.677 290H347" stroke="#63ACE9" stroke-width="5"/>
<path d="M518 268L506.93 290H465" stroke="#63ACE9" stroke-width="5"/>
<path d="M569.931 291H528" stroke="#63ACE9" stroke-width="5"/>
<path d="M379 311L372.943 333H350" stroke="#63ACE9" stroke-width="5"/>
<path d="M476 311L460.962 333H404" stroke="#63ACE9" stroke-width="5"/>
<path d="M479 224L473.152 245H451" stroke="#63ACE9" stroke-width="5"/>
<line y1="-2.5" x2="57.029" y2="-2.5" transform="matrix(-1 0 0 1 402.01 205)" stroke="#63ACE9" stroke-width="5"/>
<path d="M494.5 311.875H268.957" stroke="#63ACE9" stroke-width="5"/>
<line y1="-2.5" x2="35.9899" y2="-2.5" transform="matrix(-0.999946 0.0104196 0.0104196 0.999946 589 293)" stroke="#63ACE9" stroke-width="5"/>
<path d="M424 203L409.791 183H252.5" stroke="#63ACE9" stroke-width="5"/>
<circle r="6.5" transform="matrix(-1 0 0 1 285.5 290.5)" fill="#63ACE9"/>
<circle r="6.5" transform="matrix(-1 0 0 1 346.5 289.5)" fill="#63ACE9"/>
<path d="M314 222L306.677 246H260" stroke="#63ACE9" stroke-width="5"/>
<circle r="6.5" transform="matrix(-1 0 0 1 259.5 245.5)" fill="#63ACE9"/>
<circle r="6.5" transform="matrix(-1 0 0 1 412.5 290.5)" fill="#63ACE9"/>
<circle r="6.5" transform="matrix(-1 0 0 1 465.5 289.5)" fill="#63ACE9"/>
<circle r="6.5" transform="matrix(-1 0 0 1 528.5 290.5)" fill="#63ACE9"/>
<circle r="6.5" transform="matrix(-1 0 0 1 269.5 311.5)" fill="#63ACE9"/>
<circle r="6.5" transform="matrix(-1 0 0 1 350.5 332.5)" fill="#63ACE9"/>
<circle r="6.5" transform="matrix(-1 0 0 1 242.5 332.5)" fill="#63ACE9"/>
<path d="M234 291L227.943 313H172" stroke="#63ACE9" stroke-width="5"/>
<circle r="6.5" transform="matrix(-1 0 0 1 170.5 312.5)" fill="#63ACE9"/>
<path d="M336.5 182.5L320.943 204H298" stroke="#63ACE9" stroke-width="5"/>
<circle r="6.5" transform="matrix(-1 0 0 1 298.5 203.5)" fill="#63ACE9"/>
<circle r="6.5" transform="matrix(-1 0 0 1 401.5 332.5)" fill="#63ACE9"/>
<path d="M328 311L313.791 291H281" stroke="#63ACE9" stroke-width="5"/>
<circle r="6.5" transform="matrix(-1 0 0 1 206.5 245.5)" fill="#63ACE9"/>
<path d="M249 266L234.791 246H202" stroke="#63ACE9" stroke-width="5"/>
<line y1="-2.5" x2="203.024" y2="-2.5" transform="matrix(-0.999956 0.00935081 0.00935081 0.999956 328 433)" stroke="#63ACE9" stroke-width="5"/>
<path d="M306.976 454.5L245.499 454.5" stroke="#63ACE9" stroke-width="5"/>
<ellipse rx="6.5907" ry="6.5" transform="matrix(-1 0 0 1 125.409 432.5)" fill="#63ACE9"/>
<circle r="6.5" transform="matrix(-1 0 0 1 115.5 455.5)" fill="#63ACE9"/>
<path d="M160 475.5L147 456H119.5" stroke="#63ACE9" stroke-width="5"/>
<path d="M499 139.094H301" stroke="#63ACE9" stroke-width="5"/>
<ellipse rx="6.5907" ry="6.5" transform="matrix(-1 0 0 1 300.409 138.5)" fill="#63ACE9"/>
<circle r="6.5" transform="matrix(-1 0 0 1 329.5 161.5)" fill="#63ACE9"/>
<path d="M417 140L400.709 162H333.5" stroke="#63ACE9" stroke-width="5"/>
<circle r="6.5" transform="matrix(-1 0 0 1 324.5 117.5)" fill="#63ACE9"/>
<circle r="6.5" transform="matrix(-1 0 0 1 366.5 96.5)" fill="#63ACE9"/>
<path d="M413 138L398.791 118H324.5" stroke="#63ACE9" stroke-width="5"/>
<path d="M398 117L383.791 97H366" stroke="#63ACE9" stroke-width="5"/>
<circle r="6.5" transform="matrix(-1 0 0 1 410.5 86.5)" fill="#63ACE9"/>
<circle r="6.5" transform="matrix(-1 0 0 1 440.5 86.5)" fill="#63ACE9"/>
<path d="M443 120L411.5 87.5" stroke="#63ACE9" stroke-width="5"/>
<circle r="6.5" transform="matrix(-1 0 0 1 271.5 161.5)" fill="#63ACE9"/>
<path d="M314 182L299.791 162H267" stroke="#63ACE9" stroke-width="5"/>
<circle r="6.5" transform="matrix(-1 0 0 1 422.5 118.5)" fill="#63ACE9"/>
<path d="M490 139L475.791 119H425.5" stroke="#63ACE9" stroke-width="5"/>
<path d="M475 118L456 87H437" stroke="#63ACE9" stroke-width="5"/>
<circle r="6.5" transform="matrix(-1 0 0 1 235.5 202.5)" fill="#63ACE9"/>
<path d="M278 223L263.791 203H231" stroke="#63ACE9" stroke-width="5"/>
<path d="M443 311L433.93 291H413" stroke="#63ACE9" stroke-width="5"/>
<path d="M350.988 352L344.931 374H321.988" stroke="#63ACE9" stroke-width="5"/>
<path d="M447.988 352L432.95 374H375.988" stroke="#63ACE9" stroke-width="5"/>
<path d="M461 352.875H156" stroke="#63ACE9" stroke-width="5"/>
<circle r="6.5" transform="matrix(-1 0 0 1 155.488 352.5)" fill="#63ACE9"/>
<circle r="6.5" transform="matrix(-1 0 0 1 322.488 373.5)" fill="#63ACE9"/>
<circle r="6.5" transform="matrix(-1 0 0 1 373.488 373.5)" fill="#63ACE9"/>
<path d="M443.988 393L428.95 415H371.988" stroke="#63ACE9" stroke-width="5"/>
<path d="M457 393.875L141 394.001" stroke="#63ACE9" stroke-width="5"/>
<circle r="6.5" transform="matrix(-1 0 0 1 137.488 393.5)" fill="#63ACE9"/>
<path d="M201.5 353.5L186.931 374H146.5" stroke="#63ACE9" stroke-width="5"/>
<circle r="6.5" transform="matrix(-1 0 0 1 147.5 373.5)" fill="#63ACE9"/>
<path d="M276 454L261.431 474.5H221" stroke="#63ACE9" stroke-width="5"/>
<circle r="6.5" transform="matrix(-1 0 0 1 222 474)" fill="#63ACE9"/>
<path d="M230.5 432L213.431 456.5H173" stroke="#63ACE9" stroke-width="5"/>
<circle r="6.5" transform="matrix(-1 0 0 1 174 456)" fill="#63ACE9"/>
<path d="M187.5 394.5L172.931 415H132.5" stroke="#63ACE9" stroke-width="5"/>
<path d="M134 497L119.431 517.5H79" stroke="#63ACE9" stroke-width="5"/>
<circle r="6.5" transform="matrix(-1 0 0 1 133.5 414.5)" fill="#63ACE9"/>
<path d="M355 395L272.727 497H95.5" stroke="#63ACE9" stroke-width="5"/>
<circle r="6.5" transform="matrix(-1 0 0 1 79.5 517.5)" fill="#63ACE9"/>
<path d="M110 518L95.4311 538.5H55" stroke="#63ACE9" stroke-width="5"/>
<circle r="6.5" transform="matrix(-1 0 0 1 55.5 538.5)" fill="#63ACE9"/>
<path d="M213 497L198.431 517.5H158" stroke="#63ACE9" stroke-width="5"/>
<circle r="6.5" transform="matrix(-1 0 0 1 158.5 517.5)" fill="#63ACE9"/>
<circle r="6.5" transform="matrix(-1 0 0 1 95.5 496.5)" fill="#63ACE9"/>
<circle r="6.5" transform="matrix(-1 0 0 1 369.488 414.5)" fill="#63ACE9"/>
<path d="M369 458L353.962 480H309" stroke="#63ACE9" stroke-width="5"/>
<circle r="6.5" transform="matrix(-1 0 0 1 307.5 479.5)" fill="#63ACE9"/>
<path d="M395 435L379.962 457H323" stroke="#63ACE9" stroke-width="5"/>
<circle r="6.5" transform="matrix(-1 0 0 1 320.5 456.5)" fill="#63ACE9"/>
<path d="M416 414L400.962 436H344" stroke="#63ACE9" stroke-width="5"/>
<circle r="6.5" transform="matrix(-1 0 0 1 341.5 435.5)" fill="#63ACE9"/>
<circle r="6.5" transform="matrix(-1 0 0 1 246.5 455.5)" fill="#63ACE9"/>
<path d="M326.988 352L312.779 332H244" stroke="#63ACE9" stroke-width="5"/>
<circle r="6.5" transform="matrix(-1 0 0 1 216.512 373.5)" fill="#63ACE9"/>
<path d="M301 393L286.791 373H218.012" stroke="#63ACE9" stroke-width="5"/>
<circle r="6.5" transform="matrix(-1 0 0 1 108.512 476.5)" fill="#63ACE9"/>
<path d="M193 496L178.791 476H110.012" stroke="#63ACE9" stroke-width="5"/>
<circle r="6.5" transform="matrix(-1 0 0 1 163.5 332.5)" fill="#63ACE9"/>
<path d="M220.988 352L206.779 332H166.5" stroke="#63ACE9" stroke-width="5"/>
<circle r="6.5" transform="matrix(-1 0 0 1 219.512 413.5)" fill="#63ACE9"/>
<path d="M291 430L276.298 413H221" stroke="#63ACE9" stroke-width="5"/>
<path d="M529 267L524.767 247H501" stroke="#63ACE9" stroke-width="5"/>
<line y1="-2.5" x2="30.4795" y2="-2.5" transform="matrix(-0.656179 -0.754606 -0.754606 0.656179 437 269)" stroke="#63ACE9" stroke-width="5"/>
<path d="M587 767.5C579.015 765.486 574.631 763.958 567 760.5C558.92 768.903 556.95 775.326 557.5 789.5C561.938 812.701 569.826 819.483 587 828L616 836.5C626.185 843.771 629.28 849.055 630.5 860.5C630.861 877.393 628.073 884.467 620.5 895C632.85 888.587 637.601 881.705 640.5 861C639.64 841.902 634.561 833.985 617 824.5C605.421 821.905 598.892 819.826 587 812C571.787 793.489 570.821 783.673 587 767.5Z" fill="#63ACE9" stroke="white"/>
<path d="M596.452 842.72L586.28 836C562.216 864.405 569.522 876.642 601 897C581.573 874.144 575.213 864.728 596.452 842.72Z" fill="#63ACE9" stroke="white"/>
<path d="M575.5 682L549 674.5C531.884 712.212 532.818 732.952 570 755C600.958 760.239 609.05 761.997 618.5 764.5C632.31 767.846 638.1 771.921 641.5 787C639.056 804.945 632.505 810.379 618.5 818L633.5 824.5C637.273 820.466 641.348 815.867 645.069 810C655.826 792.62 667.036 769.681 624.5 746.5C617.08 744.185 612.605 743.129 603 742.5C588.706 739.719 582.25 737.41 575.5 731C556.379 714.504 555.944 703.83 575.5 682Z" fill="#63ACE9" stroke="white"/>
<path d="M567.5 589.5C555.926 587.638 548.596 585.258 533 577C522.139 590.328 513 599.5 516 626.5C519 653.5 542.572 667.736 572.5 672.5L632 676.5C648.332 685.792 652.412 692.719 654 707C652.39 724.655 645.827 731.549 625 739L651.5 752C673.607 735.258 679.698 723.579 677.5 698C669.012 672.053 663.2 658.366 632 651C615.246 649.727 600.166 648.742 567.5 644C555.436 637.756 547.42 635.524 545 619.5C548.604 603.308 551.568 595.044 567.5 589.5Z" fill="#63ACE9" stroke="white"/>
<path d="M558 478L513 463C495.766 477.577 490.253 489.814 491 522C504.917 556.806 520.86 567.202 558 576C611.408 578.82 637.146 580.797 644 588C675.994 606.332 673.793 625.84 644 645C658.591 650.614 665.24 654.633 675 663C693.027 646.864 698.26 635.884 699 613C691.202 575.464 678.005 563.771 644 554C613.064 544.615 615.613 555.383 558 541C500.388 526.617 536.479 472.958 558 478Z" fill="#63ACE9" stroke="white"/>
<path fill-rule="evenodd" clip-rule="evenodd" d="M598 326C588.34 314.211 581.812 308.699 567 302C501.822 305.064 472.709 315.083 462 379C463.41 435.455 494.27 450.629 567 468C578.116 468.823 583.385 468.416 588.368 468.031C597.564 467.321 605.786 466.685 648 474C713.086 485.278 685.178 548.776 648 544C675.1 553.47 685.129 558.41 686 566C751.949 506.308 719.362 469.993 686 448C663.04 432.864 634.474 432.063 619.402 431.64C612.573 431.448 608.513 431.334 609 430C583.902 430.419 577.2 428.899 563.12 425.706C556.38 424.178 547.949 422.266 535 420C495 413 489.233 355.218 535 337C569.586 345.43 584.358 344.268 598 326ZM564.5 321C566.433 321 568 319.433 568 317.5C568 315.567 566.433 314 564.5 314C562.567 314 561 315.567 561 317.5C561 319.433 562.567 321 564.5 321Z" fill="#63ACE9"/>
<path d="M567 302L567.206 301.544L567.097 301.495L566.977 301.501L567 302ZM598 326L598.401 326.299L598.635 325.986L598.387 325.683L598 326ZM462 379L461.507 378.917L461.499 378.965L461.5 379.012L462 379ZM567 468L566.884 468.486L566.923 468.496L566.963 468.499L567 468ZM588.368 468.031L588.329 467.533L588.329 467.533L588.368 468.031ZM648 474L647.915 474.493L647.915 474.493L648 474ZM648 544L648.064 543.504L647.835 544.472L648 544ZM686 566L685.503 566.057L685.614 567.024L686.336 566.371L686 566ZM686 448L686.275 447.583L686.275 447.583L686 448ZM619.402 431.64L619.388 432.14L619.388 432.14L619.402 431.64ZM609 430L609.47 430.171L609.719 429.488L608.992 429.5L609 430ZM563.12 425.706L563.01 426.194L563.01 426.194L563.12 425.706ZM535 420L534.914 420.493L534.914 420.493L535 420ZM535 337L535.118 336.514L534.963 336.476L534.815 336.535L535 337ZM566.794 302.456C574.178 305.795 579.474 308.829 584.123 312.484C588.772 316.141 592.793 320.434 597.613 326.317L598.387 325.683C593.547 319.776 589.473 315.419 584.741 311.698C580.008 307.976 574.634 304.904 567.206 301.544L566.794 302.456ZM462.493 379.083C467.837 347.186 477.752 328.867 494.346 318.099C510.983 307.305 534.425 304.032 567.023 302.499L566.977 301.501C534.397 303.032 510.694 306.3 493.802 317.261C476.868 328.248 466.872 346.897 461.507 378.917L462.493 379.083ZM567.116 467.514C530.74 458.825 504.946 450.708 488.059 437.76C471.228 424.854 463.202 407.109 462.5 378.988L461.5 379.012C462.208 407.346 470.317 425.415 487.451 438.553C504.53 451.649 530.53 459.803 566.884 468.486L567.116 467.514ZM588.329 467.533C583.362 467.917 578.12 468.322 567.037 467.501L566.963 468.499C578.112 469.324 583.407 468.916 588.406 468.53L588.329 467.533ZM648.085 473.507C605.854 466.19 597.585 466.818 588.329 467.533L588.406 468.53C597.543 467.824 605.719 467.181 647.915 474.493L648.085 473.507ZM647.936 544.496C666.833 546.924 683.307 532.014 686.838 515.123C688.609 506.651 687.136 497.65 681.077 490.055C675.023 482.467 664.436 476.341 648.085 473.507L647.915 474.493C664.107 477.298 674.439 483.338 680.295 490.679C686.147 498.013 687.577 506.702 685.859 514.918C682.414 531.401 666.345 545.853 648.064 543.504L647.936 544.496ZM686.497 565.943C686.033 561.9 683.122 558.658 677.08 555.269C671.033 551.877 661.71 548.261 648.165 543.528L647.835 544.472C661.39 549.209 670.632 552.798 676.591 556.141C682.557 559.487 685.096 562.51 685.503 566.057L686.497 565.943ZM685.725 448.417C702.392 459.405 718.723 473.886 722.753 492.966C726.771 511.998 718.586 535.831 685.664 565.629L686.336 566.371C719.363 536.477 727.859 512.307 723.731 492.76C719.614 473.261 702.97 458.588 686.275 447.583L685.725 448.417ZM619.388 432.14C634.475 432.563 662.9 433.371 685.725 448.417L686.275 447.583C663.181 432.358 634.474 431.562 619.416 431.14L619.388 432.14ZM608.53 429.829C608.426 430.115 608.432 430.422 608.597 430.701C608.747 430.953 608.992 431.122 609.243 431.243C609.742 431.483 610.489 431.635 611.397 431.745C613.234 431.967 615.985 432.044 619.388 432.14L619.416 431.14C615.989 431.044 613.296 430.968 611.518 430.752C610.618 430.643 610.015 430.504 609.676 430.341C609.508 430.261 609.463 430.201 609.457 430.191C609.457 430.19 609.46 430.197 609.461 430.205C609.461 430.211 609.459 430.202 609.47 430.171L608.53 429.829ZM563.01 426.194C577.124 429.394 583.865 430.919 609.008 430.5L608.992 429.5C583.938 429.918 577.276 428.404 563.231 425.219L563.01 426.194ZM534.914 420.493C547.851 422.756 556.272 424.666 563.01 426.194L563.231 425.219C556.488 423.69 548.048 421.776 535.086 419.507L534.914 420.493ZM534.815 336.535C511.736 345.722 501.608 364.916 502.338 382.727C503.067 400.529 514.653 416.947 534.914 420.493L535.086 419.507C515.347 416.053 504.05 400.08 503.337 382.686C502.625 365.302 512.497 346.496 535.185 337.465L534.815 336.535ZM597.599 325.701C590.837 334.756 583.84 339.522 574.277 341.017C564.663 342.521 552.411 340.729 535.118 336.514L534.882 337.486C552.175 341.701 564.602 343.543 574.431 342.005C584.311 340.461 591.521 335.512 598.401 326.299L597.599 325.701ZM567.5 317.5C567.5 319.157 566.157 320.5 564.5 320.5V321.5C566.709 321.5 568.5 319.709 568.5 317.5H567.5ZM564.5 314.5C566.157 314.5 567.5 315.843 567.5 317.5H568.5C568.5 315.291 566.709 313.5 564.5 313.5V314.5ZM561.5 317.5C561.5 315.843 562.843 314.5 564.5 314.5V313.5C562.291 313.5 560.5 315.291 560.5 317.5H561.5ZM564.5 320.5C562.843 320.5 561.5 319.157 561.5 317.5H560.5C560.5 319.709 562.291 321.5 564.5 321.5V320.5Z" fill="white"/>
<path fill-rule="evenodd" clip-rule="evenodd" d="M618 324C632.777 344.66 647.429 345.067 678 338C704.74 339.016 709.982 349.316 713 374C716.829 400.209 701.262 411.068 653 426C680.526 433.179 692.384 437.981 707 448C742.655 428.178 753.205 412.22 753 374C750.638 346.744 742.39 332.466 707 310C684.23 302.276 672.25 299.549 653 299C634.148 305.756 627.206 311.883 618 324ZM651.5 321C653.433 321 655 319.433 655 317.5C655 315.567 653.433 314 651.5 314C649.567 314 648 315.567 648 317.5C648 319.433 649.567 321 651.5 321Z" fill="#63ACE9"/>
<path d="M678 338L678.019 337.5L677.952 337.498L677.887 337.513L678 338ZM618 324L617.602 323.698L617.379 323.991L617.593 324.291L618 324ZM713 374L712.504 374.061L712.505 374.072L713 374ZM653 426L652.852 425.522L651.176 426.041L652.874 426.484L653 426ZM707 448L706.717 448.412L706.973 448.587L707.243 448.437L707 448ZM753 374L753.5 373.997L753.5 373.977L753.498 373.957L753 374ZM707 310L707.268 309.578L707.217 309.546L707.161 309.526L707 310ZM653 299L653.014 298.5L652.92 298.498L652.831 298.529L653 299ZM677.887 337.513C662.599 341.047 651.388 342.685 642.172 340.907C633.002 339.137 625.745 333.969 618.407 323.709L617.593 324.291C625.032 334.691 632.49 340.057 641.983 341.888C651.43 343.712 662.83 342.02 678.113 338.487L677.887 337.513ZM713.496 373.939C711.988 361.605 709.915 352.712 704.773 346.796C699.606 340.851 691.436 338.01 678.019 337.5L677.981 338.5C691.305 339.006 699.125 341.823 704.018 347.452C708.937 353.112 710.994 361.711 712.504 374.061L713.496 373.939ZM653.148 426.478C677.27 419.015 693.321 412.543 702.854 404.613C707.635 400.637 710.791 396.282 712.501 391.243C714.209 386.209 714.46 380.531 713.495 373.928L712.505 374.072C713.455 380.573 713.196 386.082 711.554 390.922C709.913 395.756 706.879 399.964 702.214 403.845C692.855 411.63 676.992 418.054 652.852 425.522L653.148 426.478ZM707.283 447.588C692.598 437.522 680.678 432.702 653.126 425.516L652.874 426.484C680.375 433.656 692.169 438.441 706.717 448.412L707.283 447.588ZM752.5 374.003C752.602 393.072 750.02 406.505 743.024 417.633C736.024 428.769 724.563 437.664 706.757 447.563L707.243 448.437C725.092 438.514 736.734 429.519 743.871 418.165C751.013 406.804 753.602 393.148 753.5 373.997L752.5 374.003ZM706.732 310.422C724.41 321.645 735.251 330.787 741.975 340.488C748.687 350.174 751.325 360.46 752.502 374.043L753.498 373.957C752.313 360.283 749.646 349.803 742.796 339.919C735.958 330.051 724.979 320.821 707.268 309.578L706.732 310.422ZM652.986 299.5C672.169 300.047 684.097 302.759 706.839 310.474L707.161 309.526C684.362 301.793 672.33 299.051 653.014 298.5L652.986 299.5ZM618.398 324.302C622.99 318.259 626.993 313.741 632.181 309.891C637.369 306.04 643.768 302.84 653.169 299.471L652.831 298.529C643.38 301.917 636.881 305.157 631.585 309.088C626.287 313.02 622.217 317.624 617.602 323.698L618.398 324.302ZM654.5 317.5C654.5 319.157 653.157 320.5 651.5 320.5V321.5C653.709 321.5 655.5 319.709 655.5 317.5H654.5ZM651.5 314.5C653.157 314.5 654.5 315.843 654.5 317.5H655.5C655.5 315.291 653.709 313.5 651.5 313.5V314.5ZM648.5 317.5C648.5 315.843 649.843 314.5 651.5 314.5V313.5C649.291 313.5 647.5 315.291 647.5 317.5H648.5ZM651.5 320.5C649.843 320.5 648.5 319.157 648.5 317.5H647.5C647.5 319.709 649.291 321.5 651.5 321.5V320.5Z" fill="white"/>
<g filter="url(#filter1_d)">
<path d="M837.54 896.95C816.24 896.95 785.49 895.3 745.29 892L750.69 782.65L745.29 581.5H865.44C905.94 581.5 937.59 593.65 960.39 617.95C983.19 642.25 994.59 676 994.59 719.2C994.59 773.8 980.49 817.15 952.29 849.25C924.09 881.05 885.84 896.95 837.54 896.95ZM849.24 630.1C829.44 630.1 815.49 630.25 807.39 630.55L802.89 775L806.04 847.9C831.24 849.7 848.19 850.6 856.89 850.6C880.59 850.6 899.19 841 912.69 821.8C926.49 802.6 933.39 774.7 933.39 738.1C933.39 701.5 926.64 674.35 913.14 656.65C899.94 638.95 878.64 630.1 849.24 630.1ZM1094.52 662.95L1089.12 775L1094.07 880.75L1033.77 892L1039.17 782.65L1034.22 674.2L1094.52 662.95ZM1031.07 597.25C1031.07 587.05 1034.97 578.05 1042.77 570.25C1050.57 562.15 1059.57 558.1 1069.77 558.1C1079.97 558.1 1087.77 560.95 1093.17 566.65C1098.57 572.05 1101.27 580.3 1101.27 591.4C1101.27 602.5 1097.37 612.1 1089.57 620.2C1082.07 628 1073.22 631.9 1063.02 631.9C1053.12 631.9 1045.32 628.6 1039.62 622C1033.92 615.4 1031.07 607.15 1031.07 597.25ZM1128.33 936.55C1128.33 910.15 1152.93 889.45 1202.13 874.45C1190.43 868.45 1184.58 860.65 1184.58 851.05C1184.58 847.15 1186.08 843.25 1189.08 839.35C1192.08 835.45 1196.43 831.4 1202.13 827.2V823.6C1180.53 823.6 1163.28 817.6 1150.38 805.6C1137.78 793.6 1131.48 777.55 1131.48 757.45C1131.48 731.35 1142.13 708.7 1163.43 689.5C1184.73 670 1209.93 660.25 1239.03 660.25C1246.53 660.25 1257.48 661.75 1271.88 664.75C1286.28 667.75 1300.38 669.25 1314.18 669.25H1348.83L1344.33 708.4L1310.58 704.35C1313.58 713.05 1315.08 722.95 1315.08 734.05C1315.08 745.15 1312.38 756.25 1306.98 767.35C1301.88 778.15 1295.58 786.85 1288.08 793.45C1280.88 800.05 1273.53 805.9 1266.03 811C1258.83 815.8 1252.53 820.15 1247.13 824.05C1242.03 827.65 1239.48 830.95 1239.48 833.95C1239.48 839.65 1245.48 844.6 1257.48 848.8C1289.28 861.7 1310.73 872.65 1321.83 881.65C1333.23 890.65 1338.93 901.75 1338.93 914.95C1338.93 937.15 1327.68 955.3 1305.18 969.4C1282.98 983.8 1256.43 991 1225.53 991C1194.63 991 1170.63 986.05 1153.53 976.15C1136.73 966.25 1128.33 953.05 1128.33 936.55ZM1264.23 747.55C1264.23 732.85 1260.93 722.05 1254.33 715.15C1247.73 708.25 1237.38 704.8 1223.28 704.8C1195.98 704.8 1182.33 718.3 1182.33 745.3C1182.33 772 1196.88 785.35 1225.98 785.35C1251.48 785.35 1264.23 772.75 1264.23 747.55ZM1280.43 921.7C1280.43 916.3 1277.58 911.2 1271.88 906.4C1266.18 901.9 1255.98 896.5 1241.28 890.2C1219.38 896.2 1204.23 901.75 1195.83 906.85C1187.73 911.95 1183.68 918.25 1183.68 925.75C1183.68 933.25 1187.73 939.25 1195.83 943.75C1204.23 948.55 1215.78 950.95 1230.48 950.95C1245.18 950.95 1257.18 948.25 1266.48 942.85C1275.78 937.45 1280.43 930.4 1280.43 921.7ZM1432.9 662.95L1427.5 775L1432.45 880.75L1372.15 892L1377.55 782.65L1372.6 674.2L1432.9 662.95ZM1369.45 597.25C1369.45 587.05 1373.35 578.05 1381.15 570.25C1388.95 562.15 1397.95 558.1 1408.15 558.1C1418.35 558.1 1426.15 560.95 1431.55 566.65C1436.95 572.05 1439.65 580.3 1439.65 591.4C1439.65 602.5 1435.75 612.1 1427.95 620.2C1420.45 628 1411.6 631.9 1401.4 631.9C1391.5 631.9 1383.7 628.6 1378 622C1372.3 615.4 1369.45 607.15 1369.45 597.25ZM1572.91 772.3H1547.26V775L1552.66 892H1492.36L1497.76 782.65L1492.36 581.5H1590.01C1618.81 581.5 1641.76 589.3 1658.86 604.9C1675.96 620.5 1684.51 641.2 1684.51 667C1684.51 686.5 1679.41 704.35 1669.21 720.55C1659.31 736.45 1645.81 749.05 1628.71 758.35L1707.01 869.05L1652.56 896.95L1582.36 771.85C1580.26 772.15 1577.11 772.3 1572.91 772.3ZM1573.81 626.95H1551.76L1548.61 728.65H1579.21C1594.21 728.65 1605.76 723.7 1613.86 713.8C1622.26 703.9 1626.46 689.8 1626.46 671.5C1626.46 641.8 1608.91 626.95 1573.81 626.95ZM1824.06 846.1C1832.76 846.1 1841.91 843.85 1851.51 839.35C1861.11 834.85 1868.61 830.35 1874.01 825.85L1882.11 819.1L1902.81 844.3C1899.81 849.4 1895.16 855.25 1888.86 861.85C1882.56 868.45 1876.11 874.15 1869.51 878.95C1863.21 883.45 1854.66 887.65 1843.86 891.55C1833.36 895.15 1822.41 896.95 1811.01 896.95C1786.71 896.95 1766.91 887.8 1751.61 869.5C1736.31 850.9 1728.66 827.05 1728.66 797.95C1728.66 761.35 1739.31 729.25 1760.61 701.65C1781.91 674.05 1806.81 660.25 1835.31 660.25C1857.21 660.25 1874.16 666.4 1886.16 678.7C1898.46 691 1904.61 708.25 1904.61 730.45C1904.61 743.65 1902.36 758.65 1897.86 775.45L1888.86 784.9L1776.36 795.25C1781.46 829.15 1797.36 846.1 1824.06 846.1ZM1824.06 706.6C1810.86 706.6 1799.76 712 1790.76 722.8C1781.76 733.3 1776.51 746.8 1775.01 763.3L1851.51 753.85C1852.41 746.95 1852.86 741.25 1852.86 736.75C1852.86 716.65 1843.26 706.6 1824.06 706.6ZM2075.29 778.15C2075.29 757.45 2073.49 743.65 2069.89 736.75C2066.29 729.85 2057.89 726.4 2044.69 726.4C2031.49 726.4 2016.49 731.65 1999.69 742.15V775L2004.64 880.75L1943.89 892L1949.29 782.65L1943.89 554.95L2005.54 543.7L1999.69 660.25V712.9C2004.19 706.9 2009.29 701.05 2014.99 695.35C2020.69 689.65 2029.54 683.2 2041.54 676C2053.54 668.8 2066.29 665.2 2079.79 665.2C2093.59 665.2 2105.14 670.6 2114.44 681.4C2123.74 691.9 2128.39 706.3 2128.39 724.6L2125.69 775L2130.64 883L2069.89 894.25L2075.29 778.15ZM2225.31 892C2207.61 892 2193.06 886.45 2181.66 875.35C2170.56 863.95 2165.01 848.8 2165.01 829.9C2165.01 810.7 2173.71 794.2 2191.11 780.4C2208.51 766.3 2229.66 759.25 2254.56 759.25H2285.16V751.6C2285.16 736.9 2282.16 726.85 2276.16 721.45C2270.16 716.05 2258.91 713.35 2242.41 713.35C2235.51 713.35 2227.26 714.85 2217.66 717.85C2208.36 720.55 2197.86 724.9 2186.16 730.9L2173.11 695.35C2186.01 686.35 2201.61 678.25 2219.91 671.05C2238.51 663.85 2253.81 660.25 2265.81 660.25C2312.91 660.25 2336.46 683.05 2336.46 728.65V816.85C2336.46 833.65 2341.71 852.4 2352.21 873.1L2304.51 893.35C2297.01 878.95 2291.46 866.05 2287.86 854.65C2271.36 879.55 2250.51 892 2225.31 892ZM2244.21 846.1C2256.21 846.1 2269.86 839.95 2285.16 827.65V797.5C2269.26 793.9 2256.36 792.1 2246.46 792.1C2227.56 792.1 2218.11 800.5 2218.11 817.3C2218.11 826 2220.51 833.05 2225.31 838.45C2230.11 843.55 2236.41 846.1 2244.21 846.1ZM2510.5 664.75C2530.6 664.75 2546.95 673.45 2559.55 690.85C2572.15 708.25 2578.45 730.6 2578.45 757.9C2578.45 797.2 2568.1 829.45 2547.4 854.65C2527 879.55 2500.45 892 2467.75 892C2452.75 892 2427.55 889.6 2392.15 884.8L2396.65 782.65L2391.25 554.95L2452.9 543.7L2447.05 659.8V708.4C2450.35 703.6 2454.4 698.5 2459.2 693.1C2464 687.7 2471.5 681.7 2481.7 675.1C2491.9 668.2 2501.5 664.75 2510.5 664.75ZM2492.95 723.25C2479.15 723.25 2463.85 727.45 2447.05 735.85V775L2449.75 841.15C2462.35 842.65 2474.2 843.4 2485.3 843.4C2514.1 843.4 2528.5 823.45 2528.5 783.55C2528.5 743.35 2516.65 723.25 2492.95 723.25Z" fill="#63ACE9"/>
</g>
</g>
<defs>
<filter id="filter0_d" x="0" y="0" width="2656" height="1044" filterUnits="userSpaceOnUse" color-interpolation-filters="sRGB">
<feFlood flood-opacity="0" result="BackgroundImageFix"/>
<feColorMatrix in="SourceAlpha" type="matrix" values="0 0 0 0 0 0 0 0 0 0 0 0 0 0 0 0 0 0 127 0"/>
<feOffset dx="8" dy="8"/>
<feGaussianBlur stdDeviation="8"/>
<feColorMatrix type="matrix" values="0 0 0 0 0 0 0 0 0 0 0 0 0 0 0 0 0 0 0.25 0"/>
<feBlend mode="normal" in2="BackgroundImageFix" result="effect1_dropShadow"/>
<feBlend mode="normal" in="SourceGraphic" in2="effect1_dropShadow" result="shape"/>
</filter>
<filter id="filter1_d" x="745.291" y="543.7" width="1849.16" height="463.3" filterUnits="userSpaceOnUse" color-interpolation-filters="sRGB">
<feFlood flood-opacity="0" result="BackgroundImageFix"/>
<feColorMatrix in="SourceAlpha" type="matrix" values="0 0 0 0 0 0 0 0 0 0 0 0 0 0 0 0 0 0 127 0"/>
<feOffset dx="8" dy="8"/>
<feGaussianBlur stdDeviation="4"/>
<feColorMatrix type="matrix" values="0 0 0 0 0.878431 0 0 0 0 0.933333 0 0 0 0 0.984314 0 0 0 0.25 0"/>
<feBlend mode="normal" in2="BackgroundImageFix" result="effect1_dropShadow"/>
<feBlend mode="normal" in="SourceGraphic" in2="effect1_dropShadow" result="shape"/>
</filter>
<clipPath id="clip0">
<rect width="2624" height="1012" fill="white" transform="translate(8 8)"/>
</clipPath>
</defs>
</svg>
