<svg xmlns="http://www.w3.org/2000/svg" viewBox="0 0 1080 1080"><defs><style>.cls-1{isolation:isolate;}.cls-14,.cls-2{fill:#fff;}.cls-2{opacity:0.5;}.cls-3{fill:#f3a554;}.cls-4{fill:#f7c480;}.cls-5{fill:#b1b0d8;}.cls-6{fill:#e38b8b;}.cls-7{fill:#1b0c17;}.cls-8{fill:#f3adac;}.cls-9{fill:#003c49;}.cls-10{fill:#035363;}.cls-11{fill:#f05a35;}.cls-12{fill:#f99;}.cls-13{fill:#ffde80;}.cls-15{fill:#f6f3f1;}.cls-15,.cls-25,.cls-26,.cls-31,.cls-33{mix-blend-mode:multiply;}.cls-16{fill:#f1f1f2;opacity:0.2;mix-blend-mode:screen;}.cls-17,.cls-18,.cls-22,.cls-29{fill:none;stroke-linecap:round;stroke-linejoin:round;}.cls-17{stroke:#f4979f;}.cls-17,.cls-18{stroke-width:13.72px;}.cls-18{stroke:#ffd56f;}.cls-19{fill:#85d2e5;}.cls-20{fill:#b7e3ef;}.cls-21{fill:#f6a7ad;}.cls-22{stroke:#a28fc4;stroke-width:11.41px;}.cls-23{fill:#eca49e;}.cls-24{fill:#fac7b3;}.cls-25,.cls-32{fill:#f7e7e0;}.cls-26{fill:#f3f0f0;}.cls-27{fill:#f59c9e;}.cls-28{fill:#835846;}.cls-29{stroke:#7e5142;stroke-width:4.86px;}.cls-30{fill:#f06562;}.cls-33{fill:#f4e4e6;}.cls-34{fill:#f7aeb0;}</style></defs><title>Occupational Therapy</title><g class="cls-1"><g id="Layer_1" data-name="Layer 1"><path class="cls-2" d="M937.5,627.11C927.39,746,997.11,774.65,973.57,882c-3.26,14.88-23.92,109.09-94.85,137.63-42.39,17.06-69.33-2.8-145.61-6.38-80.7-3.78-122.43,15.08-181.68,25.49-29.3,5.15-234.82,41.28-367.36-61.17C65.17,885.64,23.74,696.73,89.22,576.77,144.74,475,231.66,506.25,355.06,379.9c135.29-138.54,93.29-240,199.05-291.81,116.28-56.93,304.62-1.58,391.41,117.23,67.57,92.51,57.13,201,54.77,225.55C990.76,530,945.49,533.25,937.5,627.11Z"/></g><g id="Layer_3" data-name="Layer 3"><path class="cls-3" d="M802.65,20.47c67.6,20-17.29,112.91-17.29,112.91s-28.25,1.56-53-15.53c-2.08-3.6-4.29-8.29-4.39-12,.8-3.4,1.34-5.59.29-2.33a7.88,7.88,0,0,0-.29,2.33c-.53,2.33-1.18,5.23-1.5,7.31C703.22,90.34,736.23.85,802.65,20.47Z"/><path class="cls-4" d="M778.32,136s29.57,12.63,60.86-.54c9.78-4.11,18.39-17.79,22.88-34.64,9.89-37.07-.24-89.55-62-89.53C729.45,11.3,778.32,136,778.32,136Z"/><path class="cls-5" d="M714.56,199.31s31.31-34.36,54.6-19.9c20.37,12.66,16.54,133.4-55.21,218.47-33,39.16-150.8-44.35-172.05-84,0,0-20.42-39.78,26.64-27.86,53.27,13.49,99.89,44.81,97.12,43.73C657.73,326.64,681.14,234.22,714.56,199.31Z"/><path class="cls-5" d="M705.66,325.81s-36.53,351-5.13,534.17c0,0,70.61,5.87,178.54,5.87L746.72,387Z"/><path class="cls-6" d="M586.87,337.27a50.86,50.86,0,0,0-41.21,4.65c-20.79,12.38-2,9.73,51.83,4.79Z"/><path class="cls-6" d="M586.87,337.27s-12.7,2.71-32.38,10.65-20.63,9.09-32.68,15.55c-8.35,4.46,1.11,5.45,1.62,5.74.31.18-1.32.14-.17,2.33.74,1.36,4.07,3.84,6.25,4.6,1.38.48,5.92,3.84,8,4.57,10,3.42,23.15,10.75,60.47-5.77C598,374.94,611,342.76,586.87,337.27Z"/><path class="cls-7" d="M799,1016.3s4.54,2.25,4.59,3.78,2.37,21.61,1.21,25.13-62.76,10.3-62.76,10.3-31.16-1.51-34.4-5.53-1.86-7,0-7.54,73.68-27.9,73.68-27.9Z"/><path class="cls-7" d="M872.05,1031.67s-6.89-3.19-10.16-2.93-10.38,4.26-10.38,4.26,12.19-7.07-8.65-.3c0,0-57.92,37.31-57.18,39.51s13.81,8.75,49.52,1.9c0,0,31.73-11.42,37.38-16.78C873.43,1056.51,876.83,1034.46,872.05,1031.67Z"/><path class="cls-8" d="M869,1002.28s.75,31,.58,31.55c-1.45,4.67-14.76,5-18.71,1.41l-7.75-29.79Z"/><path class="cls-8" d="M800.36,990.66s.5,30.75.29,31.53c-1.41,4.71-14.18,5.61-18.11,2l-5.74-31Z"/><path class="cls-9" d="M718,442.58s9.87,223.21,20.63,327.77c0,0,56.2-9.14,61.9-33.17s-5-282.19-5-282.19Z"/><path class="cls-10" d="M805.44,446.48c-.76,11.33-82.83-5.12-83.58,6.45-2.8,43.39,66.53,164.66,66.42,166.22,26.94,187,41,376.5,51,415.88,4.16,16.36,35.28,0,35.28,0,6-212.57,11-571,11-571C864.4,450.07,834.07,446.19,805.44,446.48Z"/><path class="cls-11" d="M800.29,167.88s50.07-4.63,86,26.79c0,0,23.11,164.87-.77,268.54,0,0-104.4,53.46-166.63-6.39,0,0-15.8-184.14,19.51-250.48C738.39,206.34,733.89,169.38,800.29,167.88Z"/><path class="cls-6" d="M776.8,175.85l-24.16,27.72s-1.83,29.76,71.19,13,7.1-43.19,7.1-43.19L826.79,169l-16.56-1.4-33.43,7.24"/><path class="cls-6" d="M761.75,104.58s12.07,46.83,13.75,73.71c0,0,21.23,19,39.58,1.41,0,0,7.1-70.36,22.07-81.15S761.75,104.58,761.75,104.58Z"/><path class="cls-9" d="M783.49,724.62s14.81-2.53,17.06,5.51,3.47,243.34,3.47,300c0,0-28.21,12.09-35.11,1.71-10.58-16-30.3-261.46-30.3-261.46Z"/><path class="cls-12" d="M761.86,334.51c0,52.66-32.11,95.7-91.38,108-49.1,10.19-100.64-16.86-123.38-60.91-25.36-49.13-7-110.2,38.5-140.52a112.69,112.69,0,0,1,72.91-18.35C723.38,228.82,761.91,269.61,761.86,334.51Z"/><path class="cls-13" d="M619.82,278.81c0-.47-.08-.95-.14-1.43a3.19,3.19,0,0,0-.06-.52h0c.06.38.06.42,0,.11,0,0,0-.07,0-.11s-.2-.2-.3-.32c-5.76-7.42-7.22-16.89-7.47-26.06A194.25,194.25,0,0,1,613,227.85a111.53,111.53,0,0,0-27.36,13.24,112.9,112.9,0,0,0-44.21,58,118.09,118.09,0,0,1,23-10.78c15.94-5.39,32.85-7,49.59-7a2.79,2.79,0,0,1,1.76.62l.44-.21a3,3,0,0,1,2.63.07,3,3,0,0,1,1-1.17C619.87,280,619.87,279.41,619.82,278.81Z"/><path class="cls-13" d="M626.25,284.52a282.79,282.79,0,0,1,29.65,10.77c24.24,10.28,47.67,23.39,67.87,40.38,12.41,10.43,24.19,23.06,31.57,37.74a116,116,0,0,0,6.52-38.9c0-24.22-5.34-45.08-15.44-62C706.41,263.74,664.51,271.39,626.25,284.52Z"/><path class="cls-13" d="M619.7,288.82l-1.55-.44a3.08,3.08,0,0,1-1-.49,67.34,67.34,0,0,0-24.8,21.74c-13.61,19.2-20.24,42.93-23.47,66a219.48,219.48,0,0,0-2.23,33c26,26.89,64.63,41.26,102.06,34.19a202,202,0,0,1-16.25-25C631,378.6,620.89,333.31,619.7,288.82Z"/><path class="cls-14" d="M639.75,280.79c0,12.06-6.09,21.89-19.66,24.71-11.24,2.33-23-3.86-28.24-13.94-5.81-11.26-1.6-25.24,8.81-32.18a25.79,25.79,0,0,1,16.69-4.2C632.21,256.57,639.77,265.93,639.75,280.79Z"/><path class="cls-15" d="M749.8,278.69a135.58,135.58,0,0,1-6.94,55.52,116.39,116.39,0,0,1-38.1,53,137.42,137.42,0,0,1-53.54,25.61c-33.52,7.79-69.36,2.1-96.48-18.52,25.36,36.43,71.53,57.45,115.74,48.27,59.27-12.31,91.34-55.35,91.38-108C761.87,313.16,757.69,294.44,749.8,278.69Z"/><path class="cls-16" d="M542.87,371.47a156,156,0,0,1-1.08-28.66c.81-18.7,3.1-37.45,11.6-54.39,8.89-17.71,24.15-31.94,40.93-42.16,29.4-17.9,65.31-23.22,98.8-16.15a144.15,144.15,0,0,0-34.61-7.37,112.69,112.69,0,0,0-72.91,18.35c-42.8,28.53-61.58,84.28-42.53,131.7C543,372.35,542.93,371.9,542.87,371.47Z"/><path class="cls-17" d="M695.62,242.73a30.8,30.8,0,0,1,4.35,4"/><path class="cls-17" d="M709.85,245.41a20.23,20.23,0,0,1,5.48,4.7"/><path class="cls-17" d="M708,254.72l4.32,4.93"/><path class="cls-18" d="M574,384.3a16.09,16.09,0,0,0,0,5.87"/><path class="cls-18" d="M581.31,391.59a33.85,33.85,0,0,0,.24,6.12"/><path class="cls-18" d="M580.39,374.71a21.14,21.14,0,0,0-.2,4.9"/><path class="cls-14" d="M816.54,167.64s-40.85,128.71-54.79,188.21-9.09,469.32,0,518.08c0,0,114.43,19.13,181.87-8.08l-47.3-496.7,9.45-128.81-27.09-53.17S855.77,170.44,816.54,167.64Z"/><path class="cls-8" d="M826,23.43S766.5-2.29,736.09,25.66c0,0-.67,40.31,1.69,68.2s8.24,54.37,28.77,56.4c0,0,58.09-.16,67.17-39.7C841.9,75,839.35,33,826,23.43Z"/><path class="cls-14" d="M832.57,220.79s-3.43-35.28,23.83-38.28c41.55-4.59,104.34,76.11,92.26,186.73-5.58,50.94-140.65,31.61-180.42,10.53,0,0-39.13-21.6,6.58-38,51.72-18.53,99.86-14.42,98.09-16.79C868,318.4,841.56,272.23,832.57,220.79Z"/><path class="cls-8" d="M759.48,346.75s-19-3-34.36,10.52.16,8.31,45.3-4.51Z"/><path class="cls-8" d="M759.48,346.75s-10.33,4.28-25.65,14-15.9,10.82-25,18.08c-6.29,5,2,4.29,2.51,4.46.3.08-1.13.32.31,1.92.88,1,4.23,2.51,6.23,2.77,1.28.18,5.83,2.19,7.75,2.43,9.25,1.2,21.9,5.08,50.65-14.55C776.32,375.87,781.25,347.32,759.48,346.75Z"/><path class="cls-8" d="M822.39,96.49c-3.66,11.67-1.26,22.84,5.37,24.92s15-5.71,18.64-17.4,1.26-22.85-5.36-24.93S826.05,84.79,822.39,96.49Z"/><path class="cls-4" d="M743,29.38s21,44.93,19.7,74c0,0,13.7-10.88,11.62-35.3,0,0,8,21-2.93,36.61,0,0,43.87,7.56,58.79-3.18,0,0,17.66,4.87,17.61-23.56s-9-53-21.94-58.92C825.83,19,799.77-11.87,743,29.38Z"/><path class="cls-4" d="M722.34,33.12S727.69,18,737.55,16.59c0,0,22.41-17.29,59.29-1.32L742.05,30.48h0s-12.58,62.25-13.8,73.06c-.58,5-3.84-8.5-4.79-25.95C720.74,65.34,717,43.21,722.34,33.12Z"/></g><g id="Layer_4" data-name="Layer 4"><polygon class="cls-14" points="506.31 988.25 313.46 1072.9 316.56 864.13 509.41 779.47 506.31 988.25"/><path class="cls-19" d="M487.79,812.05l-2.42,162.31-150.29,66L337.49,878l150.3-66m21.62-32.58L316.56,864.14l-3.1,208.76,192.85-84.66,3.1-208.77Z"/><polygon class="cls-14" points="123.2 982.56 313.46 1072.9 316.56 864.13 126.31 773.79 123.2 982.56"/><path class="cls-20" d="M147,807l148.27,70.42-2.41,162.29L144.54,969.29,147,807m-20.64-33.2L123.2,982.56l190.26,90.34,3.1-208.76L126.31,773.79Z"/><polygon class="cls-14" points="509.41 779.47 316.56 864.13 126.31 773.79 318.87 708.74 509.41 779.47"/><path class="cls-21" d="M318.54,731.15l134.55,50L316.91,840.9,182.55,777.09l136-45.94m.33-22.41-192.56,65,190.25,90.35,192.85-84.67L318.87,708.74Z"/><path class="cls-22" d="M321,757.16c-10.39-10.4-17.52-3.18-23.26,2.14a29.72,29.72,0,0,0-9,20.11c-.69,15.67,11.47,31,26.16,34.52,11.21,2.67,20.8,2.27,30.41-4.46,8.63-6.06,17-16.09,11.37-26.85"/><path class="cls-23" d="M257.74,728.07a8.62,8.62,0,0,0-12,5.24c-1.47,4.31-1.62,11.25-1.44,15.73s1.42,9.38,5.5,10.55c8.84,2.52,10.8-12.68,10.69-17.08C260.42,741.44,261.37,729.76,257.74,728.07Z"/><path class="cls-24" d="M329.77,686c-1.44,3.25-2.87,6.62-4.22,10.18l-4.31,11a135.25,135.25,0,0,1-11.3,23.11l-.44.71-.69,1.09a22,22,0,0,1-1.71,2.21,23.64,23.64,0,0,1-3.9,3.53,28.81,28.81,0,0,1-8,4,42.48,42.48,0,0,1-7.38,1.69,59,59,0,0,1-6.86.59,107.09,107.09,0,0,1-12.79-.41c-4.11-.39-8.12-.85-11.92-1.33h-.09a6.93,6.93,0,0,1,.09-13.77c4.14-.46,8-.69,11.85-1.13s7.5-.84,10.94-1.52a35,35,0,0,0,8.9-2.79,8.32,8.32,0,0,0,2.37-1.7,1.52,1.52,0,0,0,.35-.61.74.74,0,0,0,0-.18v-.07l.06-.13.27-.6a145.82,145.82,0,0,0,7.21-20.59c1.08-3.69,2.12-7.53,3.32-11.47s2.55-8,4.19-12v0a13,13,0,0,1,24.16,9.84C329.88,685.77,329.82,685.93,329.77,686Z"/><path class="cls-25" d="M298.15,733.4a8.43,8.43,0,0,0,2.61,1.94c.72.35,1.63.82,1.54,1.61s-.9,1-1.59,1a4.45,4.45,0,0,1-4.36-3.86,1,1,0,0,1,.07-.58.84.84,0,0,1,1.09-.29,2.42,2.42,0,0,1,.88.86"/><path class="cls-23" d="M316.66,770.85a8.62,8.62,0,0,0-2.76,12.83c2.62,3.72,8.17,7.89,11.91,10.37s8.43,4.33,11.77,1.7c7.22-5.7-4-16.17-7.61-18.65C329.08,776.49,320.17,768.9,316.66,770.85Z"/><path class="cls-24" d="M365.64,683.79c0,2.24,0,4.47,0,6.71l-.41,6.67c-.23,2.21-.51,4.41-.78,6.61l-1.11,6.54-1.38,6.46-1.73,6.36c-.66,2.09-1.3,4.18-2,6.25l-2.27,6.12a146,146,0,0,1-11.65,23.13A137.37,137.37,0,0,1,328.82,779,6.93,6.93,0,0,1,317.68,771l0-.06a195.43,195.43,0,0,0,10.17-20.78,162,162,0,0,0,7.3-21.5l1.31-5.46,1.11-5.48.88-5.5.69-5.48a139.09,139.09,0,0,0,.41-21.86l0-.23A13,13,0,0,1,365.62,683C365.64,683.27,365.64,683.55,365.64,683.79Z"/><path class="cls-26" d="M322.76,668.67a13,13,0,0,0-17,7.16v0c-1.64,4-2.95,8.11-4.19,12s-2.24,7.78-3.32,11.47A145.82,145.82,0,0,1,291,720l-.27.6-.06.13v.07a.74.74,0,0,1,0,.18,1.52,1.52,0,0,1-.35.61,4.76,4.76,0,0,1-.39.39,110.52,110.52,0,0,1,11.65.53c2.34.23,4.68.51,7,.89a29.57,29.57,0,0,0,5.1.55,152.4,152.4,0,0,0,7.56-16.65l4.31-11c1.35-3.56,2.79-6.93,4.22-10.18.05-.1.11-.26.15-.36A13,13,0,0,0,322.76,668.67Z"/><path class="cls-26" d="M360.25,722.93l1.67-6.15,1.38-6.46,1.11-6.54c.27-2.2.55-4.4.78-6.61l.41-6.67c0-2.24,0-4.47,0-6.71,0-.24,0-.52,0-.77a13,13,0,0,0-26.05,1.58l0,.23a139.09,139.09,0,0,1-.41,21.86l-.69,5.48-.88,5.5-1.11,5.48-1.07,4.49A74.93,74.93,0,0,0,360.25,722.93Z"/><path class="cls-25" d="M344.8,739.11a8.38,8.38,0,0,0,3.12.95c.79.09,1.81.22,2,1s-.49,1.27-1.14,1.52a4.47,4.47,0,0,1-5.41-2.17,1.12,1.12,0,0,1-.13-.56.83.83,0,0,1,.93-.64,2.37,2.37,0,0,1,1.12.5"/><path class="cls-27" d="M264.65,688.84c-3.16.8-3.44,4.09-1.62,5.44.53.39,1.17.6,1.67,1,2,1.7.91,5.88,3.36,6.85,1.1.43,2.38-.11,3.5.26,2.56.86,1.95,5.28,4.36,6.5,1.8.91,3.95-.64,5.95-.34,3,.45,4.21,4.74,7.21,5.38,2.28.48,4.56-1.41,6.85-1s3.72,3.22,6,3.88c2.5.72,5-1.21,7.61-1.22,2.31,0,4.35.32,5.69,2.21s4.83,2.6,7.22.9c.57-.41,1-1,1.61-1.39,3.47-2.25,7.21,3.89,10.89,2,.73-.39,3.11-1.41,3.8-1.87,4.24-2.82,6.89,2.67,11.69,1,1.49-.53,3-2.47,3.6-2.92,1.69-1.36,4.12-1,6.27-.78s4.78,0,5.84-1.87a8.74,8.74,0,0,1,1.11-2.2c1.58-1.56,5,.38,6.17-1.52.51-.85.14-2,.46-2.93.48-1.46,2.3-1.88,3.8-2.27s3.24-1.49,2.92-3c-.07-.33-.25-.68-.14-1s.65-.55,1.05-.73c1.76-.79,2.12-4.59-.89-6-2-.95-3.12,1.91-4.91,3.24-4,3-8.85,4.7-13.68,6-16.8,4.67-34.52,5.38-51.88,3.79-14.43-1.32-29.06-4.49-41.07-12.59Z"/><path class="cls-28" d="M456,524.68c2-15,8.76-28.67,9.85-43.93,1.89-26.57-8.27-39.08-28.62-36.46a44,44,0,0,0-14,4.45l-1.09,14.8c22.95,4.58,5.21,40.14,15.51,62.43,1.74,3.77,6.47,9.32,10.63,10.73-.52-1.34-1.72-4.81-1.34-6.19a23.48,23.48,0,0,0,5.11,6c2.13,1.6,5,2.44,7.48,1.48C455.33,535.47,455.32,529.52,456,524.68Z"/><path class="cls-29" d="M437.55,449.24a20.37,20.37,0,0,1,14.92,2.24c13.48,8,8.34,26.88,6.57,41.74"/><path class="cls-29" d="M438.49,449.44a21.33,21.33,0,0,1,8.81,2.15,16.08,16.08,0,0,1,6.95,8.41A31.15,31.15,0,0,1,456,470.93"/><path class="cls-25" d="M439.37,522.48c-2.65-12.45.73-25.05-.39-37.6a50.15,50.15,0,0,0-2-10.45,42.86,42.86,0,0,0-4.59-9.67c-3.58-5.84.65-12.91-2.47-18.8a49.65,49.65,0,0,0-6.71,2.78l-1.09,14.8c22.95,4.58,5.21,40.14,15.51,62.43a26.18,26.18,0,0,0,7.75,9.19A27.92,27.92,0,0,1,439.37,522.48Z"/><path class="cls-30" d="M423.46,445.34a3.75,3.75,0,0,1,5,.39,4.59,4.59,0,0,1,.88,1.9,15.55,15.55,0,0,1,.31,4,54.11,54.11,0,0,1-.8,10.4c-.29,1.43-.64,3.71-1.66,4.87s-2.91.8-4.32.32a1.48,1.48,0,0,1-.8-.48,1.07,1.07,0,0,1-.15-.61c-.12-2,.55-4.05.83-6.08a31.87,31.87,0,0,0,.13-5.17c-.08-2.89-.06-5.78-.14-8.66Z"/><path class="cls-28" d="M247.92,463.54l-1.08-14.8a44,44,0,0,0-14-4.45c-6.21-.81-13.6-.32-18.94,3.26A30.76,30.76,0,0,0,202,463.07a10.61,10.61,0,0,0-.71,4.84,10.77,10.77,0,0,1,3.81-4.9,63.1,63.1,0,0,0-.91,17.74C205.28,496,212,509.63,214,524.68c.67,4.84.65,10.79-3.51,13.36,2.49,1,5.36.12,7.48-1.48a23.72,23.72,0,0,0,5.12-6c.37,1.38-.83,4.85-1.34,6.19,4.16-1.41,8.88-7,10.62-10.73C242.72,503.68,225,468.12,247.92,463.54Z"/><path class="cls-29" d="M232.47,449.24a20.37,20.37,0,0,0-14.92,2.24c-13.47,8-8.34,26.88-6.57,41.74"/><path class="cls-25" d="M230.65,522.48c2.66-12.45-.73-25.05.4-37.6a49.5,49.5,0,0,1,2-10.45,43.29,43.29,0,0,1,4.59-9.67c3.58-5.84-.65-12.91,2.48-18.8a50.74,50.74,0,0,1,6.71,2.78l1.08,14.8c-22.94,4.58-5.2,40.14-15.51,62.43a26.18,26.18,0,0,1-7.75,9.19A27.72,27.72,0,0,0,230.65,522.48Z"/><path class="cls-30" d="M248.62,445.69a5,5,0,0,0-5.9-.13,4.27,4.27,0,0,0-1.2,1.79,13.05,13.05,0,0,0-.72,3.91,47.42,47.42,0,0,0,0,10.45c.22,1.46.43,3.76,1.51,5s3.35,1.1,5,.77a1.83,1.83,0,0,0,1-.38,1.11,1.11,0,0,0,.23-.6c.31-2-.29-4.08-.42-6.14a26.32,26.32,0,0,1,.31-5.17c.35-2.86.59-5.74.94-8.6Z"/><path class="cls-28" d="M282,519.4c10.85,9.39,24.59,15.07,38.61,17.67a74.63,74.63,0,0,0,38.59-2.63,65.68,65.68,0,0,0,17.3-9.3c5.8-4.33,10.32-9.84,15.44-14.89s6-5.75,11.07-10.7c5.74-5.63,9.67-9.08,14.2-15.91a50.68,50.68,0,0,0,8.22-30.25c-1.2-19.37-4.63-25.65-10.41-35.8a46.36,46.36,0,0,0-32-22.87c-5.51-1-9.59,1-10.57.63-.8-.28-1.23-4.26-5.59-7.06-18.9-12.17-58.54-5.85-75.36,4.43-24.67,15.1-45.09,40.95-45,71.58,0,6.43.32,16.39,4.29,24.44C255.24,497.82,276.37,514.57,282,519.4Z"/><g class="cls-31"><path class="cls-32" d="M266.5,503.57A179,179,0,0,0,282,519.4c10.85,9.39,24.59,15.07,38.61,17.67a74.63,74.63,0,0,0,38.59-2.63,65.68,65.68,0,0,0,17.3-9.3c5.8-4.33,10.32-9.84,15.44-14.89,8.34-8.23,17.86-14.9,27.77-21a31.62,31.62,0,0,1-.76-3.25,14.63,14.63,0,0,1-.2-2.89c-.52.18-1,.35-1.54.54-13.46,4.89-25.36,14.6-36.3,23.44-12.32,10-27.09,24.24-43.3,27-15.65,2.66-34.75-2.72-47-12.92-6.09-5.06-10.9-11.39-16.83-16.6a33.93,33.93,0,0,0-13.2-7.35v.21A73.85,73.85,0,0,1,266.5,503.57Z"/></g><path class="cls-24" d="M307.32,597.06H359.7a204.83,204.83,0,0,1,.93-22,64.8,64.8,0,0,0-6.8-2.18c-3.8-1-8.2-4-11-7.14-3-3.35-2.16-8.62-.86-12.54-.39.09-.79.17-1.19.24a66.21,66.21,0,0,1-16.13.4c.67,2.78,1,6.48-.14,9.2-3,7.34-11.92,9.67-19.45,12.39,1.21,4,1,8.24,1.43,12.48C306.82,590.94,307.07,594,307.32,597.06Z"/><path class="cls-25" d="M344.77,567.33a9.66,9.66,0,0,1-1.91-1.61c-3-3.35-2.16-8.62-.86-12.54-.39.09-.79.17-1.19.24a67.73,67.73,0,0,1-16.13.4C324.45,553.8,333.46,566.32,344.77,567.33Z"/><path class="cls-24" d="M403.83,478.38c-.23-.7-5.14-.71-5.89-.88a56.62,56.62,0,0,1-24.17-12.25,31.85,31.85,0,0,1-6-6.7,38.82,38.82,0,0,1-3.92-7.74c-.51-1.34-1.39-3.74-2.13-6.24.69,2.34-6.59,11.88-8.83,14.38-3.46,3.88-6.28,6.32-10,9.88-7.62,7.19-17.3,10.37-28.21,12.33,3-1.77,7.19-5,8.86-8.05-5.68,3.64-16.41,5.61-23,6.22-7.71.72-15.43,1.17-23.1,2.17-5.5.73-17.49,5.23-17.49,9.87,0,22,13.62,38.54,32.3,50.55,22.13,14.23,48.39,17.07,72,5.12,12.67-6.42,25.06-14.37,33.11-26.38,5.79-8.63,8.37-18.94,8.37-29.29A49.36,49.36,0,0,0,403.83,478.38Z"/><path class="cls-25" d="M297.49,481.1c2.86,0,5.89-.22,8.68.57,1.5.43,2.93,1.11,4.46,1.52a23.6,23.6,0,0,0,4.34.75,32.14,32.14,0,0,0,17.71-4.17,84.84,84.84,0,0,0,15.71-11.48,49.14,49.14,0,0,0,6.47-6.43c1.75-2.24,3.27-4.64,5.21-6.73a1.44,1.44,0,0,1,2.25.29,38.92,38.92,0,0,0,5.86,8.95c8.23,9.47,21.66,17,34.49,13.59h.09c-1.54-.29-4.27-.33-4.82-.45a56.62,56.62,0,0,1-24.17-12.25,31.85,31.85,0,0,1-6-6.7,38.82,38.82,0,0,1-3.92-7.74c-.51-1.34-1.39-3.74-2.13-6.24.69,2.34-6.59,11.88-8.83,14.38-3.46,3.88-6.28,6.32-10,9.88-7.62,7.19-17.3,10.37-28.21,12.33,3-1.77,7.19-5,8.86-8.05-5.68,3.64-16.41,5.61-23,6.22-5.6.52-11.2.9-16.79,1.46C288.29,481.12,292.91,481.11,297.49,481.1Z"/><path class="cls-25" d="M404.31,502.41c-1.73,3-4.05,8.23-5.22,10.28a50.64,50.64,0,0,1-3.87,5.67,105.84,105.84,0,0,1-9.76,11.19c-11.86,11.7-21.65,15.38-38.64,20.55-8.29,2.52-17.47,1.86-26.09,1.56-3.32-.12-9-1.28-12.29-1.64,18.12,6.64,37.73,6.16,55.78-3,12.67-6.42,25.06-14.37,33.11-26.38a49.37,49.37,0,0,0,7.46-19C404.66,501.9,404.47,502.14,404.31,502.41Z"/><path class="cls-29" d="M415.74,470.46a45,45,0,0,0,2.18-23.91"/><path class="cls-29" d="M359.54,439.26a91.09,91.09,0,0,1-15.48,22.14"/><path class="cls-29" d="M373.39,401.92c3.14-1.32,6.82-.37,9.73,1.41s5.28,4.28,7.92,6.42,5.79,4,9.19,4"/><path class="cls-24" d="M421.32,488.38c0,7.55-7.28,13.16-13.48,14.22-8.63,1.46-11.92-6.67-11.92-14.22s5.68-13.68,12.7-13.68S421.32,480.83,421.32,488.38Z"/><path class="cls-33" d="M411.35,480.85A6.54,6.54,0,0,1,414,482.7c1,1,1,2.08,1.4,3.34a15.47,15.47,0,0,1,.23,3.91c-1.18.25-2.83-4-3.61-4.83a6.92,6.92,0,0,0-3.81-1.78c-.93-.16-2.89-.11-3.33-1.19s1.05-1.87,1.92-2A9.35,9.35,0,0,1,411.35,480.85Z"/><path class="cls-24" d="M243.84,488.38c0,7.55,7.28,13.16,13.48,14.22,8.63,1.46,11.93-6.67,11.93-14.22s-5.69-13.68-12.7-13.68S243.84,480.83,243.84,488.38Z"/><path class="cls-33" d="M253.8,480.85a6.58,6.58,0,0,0-2.65,1.85c-1,1-1,2.08-1.39,3.34a15,15,0,0,0-.24,3.91c1.18.25,2.83-4,3.61-4.83a6.92,6.92,0,0,1,3.81-1.78c.93-.16,2.89-.11,3.33-1.19s-1-1.87-1.92-2A9.41,9.41,0,0,0,253.8,480.85Z"/><path class="cls-34" d="M309.08,639.13c-.54,11.45-8.46,21.64-16.55,29.74s-18,14.08-27.88,20c.26,3.54,5.07,10.2,10.22,13.2,15.68,9.14,27.9,11,45.93,12.23,13.92,1,26.62,1.07,38-2.95a45.49,45.49,0,0,0,20.61-14.92,6.6,6.6,0,0,0,1.68-3.54,7.26,7.26,0,0,0-1-3.37q-12.48-25.9-22.33-53a2.3,2.3,0,0,0-.93-1.36,2.27,2.27,0,0,0-1.16-.15c-14.31.71-31,0-45.32,0Z"/><path class="cls-27" d="M317.25,644.92c3.59.17,7.19.06,10.78.05,4,0,8,.12,11.94-.19a72.48,72.48,0,0,0,19.32-4.11c-.52-1.38-1-2.75-1.53-4.13a2.3,2.3,0,0,0-.93-1.36,2.27,2.27,0,0,0-1.16-.15c-14.31.71-31,0-45.32,0l-1.27,4.11a28.68,28.68,0,0,1-.59,4.45A34.3,34.3,0,0,0,317.25,644.92Z"/><path class="cls-26" d="M380.09,689.49q-12.48-25.9-22.33-53a2.3,2.3,0,0,0-.93-1.36,2.27,2.27,0,0,0-1.16-.15c-14.31.71-31,0-45.32,0l-1.27,4.11a28.38,28.38,0,0,1-.83,5.44c5.14,2.25,11.3,1.95,16.79,2.17a77.06,77.06,0,0,0,22.66-2.11c2.47-.65,5.48-1.19,7.7.44a12.78,12.78,0,0,1,3.33,4.08c2,3.5,3.28,7.35,4.77,11.08.92,2.3,2,4.52,2.74,6.88a54.32,54.32,0,0,1,2.15,8.8c1.52,9.67,1.18,20.1-5.29,28-3.68,4.49-8.7,7.58-14,9.9a57.64,57.64,0,0,0,9.72-2.45,45.49,45.49,0,0,0,20.61-14.92,6.6,6.6,0,0,0,1.68-3.54A7.26,7.26,0,0,0,380.09,689.49Z"/><path class="cls-24" d="M421.25,514.72c1-3.29.58-8.35,1.1-12.17.13-1,.51-2.19,1.49-2.28a1.53,1.53,0,0,1,1,.3c1.42,1,1.43,3,1.28,4.72.45.2.86-.34,1.05-.79l2-4.55c.52-1.19,1.34-2.59,2.63-2.51s2.19,1.76,2.1,3.14a24.59,24.59,0,0,1-.73,6c1-1,2.22-2.41,3.22-3.42.67-.68,1.51-1.72,2.57-1.68,1.39,0,2.17,1.58,2.2,2.8a6.27,6.27,0,0,1-.89,3,14.53,14.53,0,0,1-3.3,4.13c1.65.05,3.33-1.45,4.77-.65a2.32,2.32,0,0,1,.78,2.85,6,6,0,0,1-2.09,2.41,64.47,64.47,0,0,1-5.68,3.49,22.54,22.54,0,0,0-2.47,1.8C431.66,521.82,421.25,514.72,421.25,514.72Z"/><path class="cls-24" d="M356.54,570.24a105.68,105.68,0,0,0,19.4-9.55,142.26,142.26,0,0,0,18-13.16,132.94,132.94,0,0,0,15.7-15.87,95.13,95.13,0,0,0,12.16-18.37l0,0a6.41,6.41,0,0,1,11.68,5.27,109.36,109.36,0,0,1-12.28,22,148.77,148.77,0,0,1-16.16,19,160.48,160.48,0,0,1-19,16.21,124.48,124.48,0,0,1-22.09,13,9.93,9.93,0,0,1-8.12-18.12l.68-.28Z"/><path class="cls-24" d="M247.43,514.72c-1-3.29-.58-8.35-1.1-12.17-.13-1-.52-2.19-1.5-2.28a1.55,1.55,0,0,0-1,.3c-1.42,1-1.43,3-1.28,4.72-.45.2-.85-.34-1.05-.79q-1-2.28-2-4.55c-.52-1.19-1.35-2.59-2.64-2.51s-2.18,1.76-2.1,3.14a25.08,25.08,0,0,0,.73,6c-1-1-2.22-2.41-3.21-3.42-.68-.68-1.51-1.72-2.58-1.68-1.38,0-2.17,1.58-2.19,2.8a6.15,6.15,0,0,0,.88,3,14.53,14.53,0,0,0,3.3,4.13c-1.64.05-3.33-1.45-4.77-.65a2.32,2.32,0,0,0-.78,2.85,6.07,6.07,0,0,0,2.09,2.41,66,66,0,0,0,5.68,3.49,23.54,23.54,0,0,1,2.48,1.8C237,521.82,247.43,514.72,247.43,514.72Z"/><path class="cls-24" d="M304.75,588.66a124.21,124.21,0,0,1-22.1-13,160.38,160.38,0,0,1-19-16.21,149.66,149.66,0,0,1-16.17-19,109.36,109.36,0,0,1-12.28-22,6.41,6.41,0,0,1,11.67-5.29l0,.06a96.06,96.06,0,0,0,12.16,18.37,133,133,0,0,0,15.71,15.87,141.54,141.54,0,0,0,18,13.16,105.28,105.28,0,0,0,19.39,9.55l0,0a9.93,9.93,0,1,1-6.72,18.68C305.21,588.86,305,588.76,304.75,588.66Z"/><path class="cls-27" d="M364.23,565.67a3.31,3.31,0,0,1,2.89-1.68,2.22,2.22,0,0,1,1.73,2.07c0,2-2.58,3.69-1.73,5.49.46,1,1.77,1.38,2,2.41.44,1.73-2.39,2.73-2.52,4.51-.09,1.15,1,2,1.9,2.72s1.91,1.7,1.64,2.82c-.42,1.74-3.42,1.94-3.56,3.72-.06.87.67,1.62.73,2.48a2.31,2.31,0,0,1-2.28,2.16c-1.15.07-1.81-1.21-2.84-1.73a101.39,101.39,0,0,0,1-17.06Z"/><path class="cls-27" d="M302.58,565.78a3.3,3.3,0,0,0-2.81-1.81,2.2,2.2,0,0,0-1.82,2c-.14,2,2.39,3.82,1.46,5.57-.5.94-1.83,1.3-2.14,2.31-.53,1.72,2.25,2.84,2.3,4.63,0,1.16-1.07,2-2,2.63s-2,1.6-1.78,2.74c.34,1.75,3.32,2.1,3.37,3.88,0,.88-.74,1.58-.84,2.45a2.3,2.3,0,0,0,2.17,2.25c1.15.13,2.9-1.58,4-2-.57-6.14-1.62-10.46-1.23-16.62Z"/><path class="cls-34" d="M306,605.74c.6,12.71-1.05,33.17,3.2,34.81,12.39,2.8,35.53,2.09,47.82-1.64,6.76-2.69,3.57-30.41,3.78-35.21.2-4.39,1.66-10.57,2-13.59.55-4.37,1.78-19.71,1.78-25-8,2.4-19.45,1.66-20.06,1.5s-1.73,11.68-11.74,12.39c-8.16.58-11.11-12.65-12.12-12.47-4.25.77-18.59-2.16-18.59-1.42,0,3.56.49,16.91.78,19.89C303.35,589.37,305.84,601.5,306,605.74Z"/><path class="cls-27" d="M322.64,576.34a12.42,12.42,0,0,0,5.93,5.89,12.05,12.05,0,0,0,9.6-.77c5.54-2.8,7.56-8.88,8.71-14.64a21.86,21.86,0,0,1-2.29-.18c-.74-.2-1.73,11.68-11.74,12.39-8.16.58-11.11-12.65-12.12-12.47a9.91,9.91,0,0,1-1.47.12A37.71,37.71,0,0,0,322.64,576.34Z"/><path class="cls-29" d="M366,399c-3.26-4.08-6.2-6-10.5-6.92a58.69,58.69,0,0,0-25.94.44"/><path class="cls-29" d="M359.34,439.27C345.65,453,327,460.9,308,465.15"/></g></g></svg>