<svg xmlns="http://www.w3.org/2000/svg" xmlns:xlink="http://www.w3.org/1999/xlink" viewBox="0 0 1080 1080"><defs><style>.cls-1{opacity:0.5;}.cls-2{fill:#fff;}.cls-3{fill:url(#linear-gradient);}.cls-4{fill:url(#linear-gradient-2);}.cls-5{fill:url(#linear-gradient-3);}.cls-6{fill:url(#linear-gradient-4);}.cls-7{fill:url(#linear-gradient-5);}.cls-8{fill:url(#linear-gradient-6);}.cls-9{fill:url(#linear-gradient-7);}.cls-10{fill:url(#linear-gradient-8);}.cls-11{fill:url(#linear-gradient-9);}.cls-12{fill:url(#linear-gradient-10);}.cls-13{fill:url(#linear-gradient-11);}.cls-14{fill:url(#linear-gradient-12);}.cls-15{fill:url(#linear-gradient-13);}.cls-16{fill:url(#linear-gradient-14);}.cls-17{fill:url(#linear-gradient-15);}.cls-18{fill:url(#linear-gradient-16);}.cls-19{fill:#131011;}.cls-20{fill:url(#linear-gradient-17);}.cls-21{fill:url(#linear-gradient-18);}.cls-22{fill:url(#linear-gradient-19);}.cls-23{fill:url(#linear-gradient-20);}.cls-24{fill:url(#linear-gradient-21);}.cls-25{fill:url(#linear-gradient-22);}.cls-26{fill:url(#linear-gradient-23);}.cls-27{fill:url(#linear-gradient-24);}.cls-28{fill:url(#linear-gradient-25);}.cls-29{fill:url(#linear-gradient-26);}.cls-30{fill:#e38b8b;}.cls-31{fill:#b1b0d8;}.cls-32{fill:#f05a28;}.cls-33{fill:#292660;}.cls-34{fill:#f3adac;}.cls-35{fill:#2e3191;}.cls-36{fill:#9994c8;}.cls-37{fill:#d7e6d1;}.cls-37,.cls-38,.cls-39,.cls-40,.cls-41,.cls-42,.cls-43,.cls-44,.cls-45{fill-rule:evenodd;}.cls-38{fill:#dfab7c;}.cls-39{fill:#93a18d;}.cls-40{fill:#1a4055;}.cls-41{fill:#e8bf53;}.cls-42{fill:#934924;}.cls-43{fill:#cf9c70;}.cls-44{fill:#426261;}.cls-45{fill:#c4a24b;}.cls-46{fill:url(#linear-gradient-27);}.cls-47{fill:url(#linear-gradient-28);}.cls-48{fill:url(#linear-gradient-29);}.cls-49{fill:url(#linear-gradient-30);}.cls-50{fill:url(#linear-gradient-31);}.cls-51{fill:url(#linear-gradient-32);}.cls-52{fill:url(#linear-gradient-33);}.cls-53{fill:url(#linear-gradient-34);}.cls-54{fill:url(#linear-gradient-35);}.cls-55{fill:url(#linear-gradient-36);}.cls-56{fill:url(#linear-gradient-37);}</style><linearGradient id="linear-gradient" x1="188.55" y1="818.7" x2="247.56" y2="818.7" gradientUnits="userSpaceOnUse"><stop offset="0" stop-color="#dc9b69"/><stop offset="1" stop-color="#925523"/></linearGradient><linearGradient id="linear-gradient-2" x1="242.82" y1="688.55" x2="242.82" y2="658.74" gradientUnits="userSpaceOnUse"><stop offset="0" stop-color="#ebbe47"/><stop offset="1" stop-color="#d1a93d"/></linearGradient><linearGradient id="linear-gradient-3" x1="309.93" y1="686.8" x2="309.93" y2="658.48" xlink:href="#linear-gradient-2"/><linearGradient id="linear-gradient-4" x1="305.84" y1="813.57" x2="380.49" y2="813.57" xlink:href="#linear-gradient"/><linearGradient id="linear-gradient-5" x1="208.05" y1="843.8" x2="355.16" y2="843.8" gradientUnits="userSpaceOnUse"><stop offset="0" stop-color="#d1a93d"/><stop offset="1" stop-color="#ebbe47"/></linearGradient><linearGradient id="linear-gradient-6" x1="208.05" y1="837.43" x2="355.16" y2="837.43" gradientUnits="userSpaceOnUse"><stop offset="0" stop-color="#edbe45"/><stop offset="1" stop-color="#ffd16b"/></linearGradient><linearGradient id="linear-gradient-7" x1="275.47" y1="696.23" x2="275.47" y2="661.05" xlink:href="#linear-gradient-2"/><linearGradient id="linear-gradient-8" x1="268.25" y1="824.2" x2="291.83" y2="824.2" xlink:href="#linear-gradient"/><linearGradient id="linear-gradient-9" x1="193.13" y1="644.03" x2="357.79" y2="644.03" xlink:href="#linear-gradient-5"/><linearGradient id="linear-gradient-10" x1="205.17" y1="636.98" x2="348.38" y2="636.98" xlink:href="#linear-gradient-6"/><linearGradient id="linear-gradient-11" x1="808.99" y1="678.21" x2="1048.61" y2="678.21" xlink:href="#linear-gradient-6"/><linearGradient id="linear-gradient-12" x1="932.08" y1="797.05" x2="928.52" y2="714.14" xlink:href="#linear-gradient-5"/><linearGradient id="linear-gradient-13" x1="819.28" y1="840.42" x2="857.18" y2="840.42" gradientUnits="userSpaceOnUse"><stop offset="0" stop-color="#986d48"/><stop offset="1" stop-color="#784518"/></linearGradient><linearGradient id="linear-gradient-14" x1="995.81" y1="840.42" x2="1033.72" y2="840.42" xlink:href="#linear-gradient-13"/><linearGradient id="linear-gradient-15" x1="808.66" y1="854" x2="852.89" y2="854" xlink:href="#linear-gradient"/><linearGradient id="linear-gradient-16" x1="1000.1" y1="854" x2="1044.33" y2="854" xlink:href="#linear-gradient"/><linearGradient id="linear-gradient-17" x1="813.27" y1="720.8" x2="1044.33" y2="720.8" xlink:href="#linear-gradient"/><linearGradient id="linear-gradient-18" x1="872.9" y1="617.28" x2="919.54" y2="617.28" gradientUnits="userSpaceOnUse"><stop offset="0.02" stop-color="#bbbdbf"/><stop offset="0.49" stop-color="#e6e7e8"/><stop offset="0.72" stop-color="#f1f1f2"/><stop offset="1" stop-color="#e6e7e8"/></linearGradient><linearGradient id="linear-gradient-19" x1="872.9" y1="663.9" x2="919.54" y2="663.9" gradientUnits="userSpaceOnUse"><stop offset="0.49" stop-color="#edbe45"/><stop offset="0.72" stop-color="#ffdd93"/><stop offset="1" stop-color="#f3c656"/></linearGradient><linearGradient id="linear-gradient-20" x1="872.9" y1="573.93" x2="919.54" y2="573.93" xlink:href="#linear-gradient-18"/><linearGradient id="linear-gradient-21" x1="940.69" y1="608.84" x2="987.33" y2="608.84" xlink:href="#linear-gradient-18"/><linearGradient id="linear-gradient-22" x1="940.69" y1="663.08" x2="987.33" y2="663.08" xlink:href="#linear-gradient-19"/><linearGradient id="linear-gradient-23" x1="940.69" y1="557.87" x2="987.33" y2="557.87" xlink:href="#linear-gradient-18"/><linearGradient id="linear-gradient-24" x1="908.29" y1="632.95" x2="958.02" y2="632.95" xlink:href="#linear-gradient-18"/><linearGradient id="linear-gradient-25" x1="908.29" y1="668.28" x2="958.02" y2="668.28" xlink:href="#linear-gradient-19"/><linearGradient id="linear-gradient-26" x1="908.29" y1="600.88" x2="958.02" y2="600.88" xlink:href="#linear-gradient-18"/><linearGradient id="linear-gradient-27" x1="777.57" y1="234.68" x2="1026.04" y2="234.68" gradientUnits="userSpaceOnUse"><stop offset="0.49" stop-color="#929497"/><stop offset="0.72" stop-color="#e6e7e8"/><stop offset="1" stop-color="#929497"/></linearGradient><linearGradient id="linear-gradient-28" x1="974.23" y1="948.31" x2="1070.55" y2="948.31" gradientUnits="userSpaceOnUse"><stop offset="0" stop-color="#58595b"/><stop offset="1" stop-color="#929497"/></linearGradient><linearGradient id="linear-gradient-29" x1="974.23" y1="941.31" x2="1070.55" y2="941.31" xlink:href="#linear-gradient-27"/><linearGradient id="linear-gradient-30" x1="987.51" y1="935.21" x2="1060.94" y2="935.21" xlink:href="#linear-gradient-28"/><linearGradient id="linear-gradient-31" x1="695.85" y1="327.58" x2="855.83" y2="327.58" xlink:href="#linear-gradient-6"/><linearGradient id="linear-gradient-32" x1="764.09" y1="274.95" x2="791.05" y2="274.95" xlink:href="#linear-gradient-19"/><linearGradient id="linear-gradient-33" x1="769.04" y1="265.86" x2="786.11" y2="265.86" xlink:href="#linear-gradient-19"/><linearGradient id="linear-gradient-34" x1="987.51" y1="929.65" x2="1060.94" y2="929.65" xlink:href="#linear-gradient-27"/><linearGradient id="linear-gradient-35" x1="1020.29" y1="917.47" x2="1028.16" y2="917.47" xlink:href="#linear-gradient"/><linearGradient id="linear-gradient-36" x1="1020.29" y1="606.13" x2="1028.16" y2="606.13" xlink:href="#linear-gradient-19"/><linearGradient id="linear-gradient-37" x1="735.5" y1="294.92" x2="820" y2="294.92" gradientUnits="userSpaceOnUse"><stop offset="0" stop-color="#a5862f"/><stop offset="1" stop-color="#967c2b"/></linearGradient></defs><title>Physiotherapy</title><g id="Layer_1" data-name="Layer 1"><g id="Layer_6" data-name="Layer 6" class="cls-1"><path class="cls-2" d="M969,512c33.13,109.09,90.9,112.58,100,216,1.85,21,6.41,112-54,191-70.7,92.45-182.38,105.45-234.92,111.57-87.2,10.15-120.35-11.63-211.49-22.5-236.61-28.23-304.66,83.78-411,34.5C3.75,971.25-55.75,643,61,514c60.5-66.88,119.52-26.29,258-113,105-65.74,93.22-102.94,234.07-212.4C660.31,105.26,742.36,43.3,826.58,66.11,895.05,84.66,932.05,150.33,942,168,1008.26,285.61,922.53,359,969,512Z"/><circle class="cls-2" cx="206.49" cy="253.99" r="69.5"/></g></g><g id="Layer_4" data-name="Layer 4"><g id="_Group_" data-name="&lt;Group&gt;"><path id="_Path_" data-name="&lt;Path&gt;" class="cls-3" d="M247.56,688,208.31,907.81l-8.47,42.82s-7.71,3.88-11.29-1l10.85-67.18L232.88,685.3Z"/><path id="_Path_2" data-name="&lt;Path&gt;" class="cls-4" d="M232.3,658.74s2.09,14.22.58,26.56A17,17,0,0,0,247.56,688s4.14-21.25,5.77-27.29Z"/><path id="_Path_3" data-name="&lt;Path&gt;" class="cls-5" d="M320.62,658.48a63.08,63.08,0,0,0,.65,23.8,16.29,16.29,0,0,1-15.43,4s-3.39-19.85-7.24-25.66Z"/><path id="_Path_4" data-name="&lt;Path&gt;" class="cls-6" d="M305.84,686.27,346,854.84l23.7,88.68s7,4.12,10.79-2.12l-22.7-102.49L321.27,682.28Z"/><path id="_Compound_Path_" data-name="&lt;Compound Path&gt;" class="cls-7" d="M353.71,839.1c-7.11-11.32-39.77-17.22-72.1-17.22-32.48,0-65.29,6-72.2,17.37l-1.36-1.82v6.37c0,14.4,37,21.93,73.56,21.93s73.55-7.53,73.55-21.93v-6.37Zm-72.1,20.25c-41.23,0-67.54-9.21-67.54-15.55s26.31-15.54,67.54-15.54,67.53,9.2,67.53,15.54S322.83,859.35,281.61,859.35Z"/><g id="_Group_2" data-name="&lt;Group&gt;"><path id="_Compound_Path_2" data-name="&lt;Compound Path&gt;" class="cls-8" d="M281.61,859.35c-36.55,0-73.56-7.53-73.56-21.92s37-21.92,73.56-21.92,73.55,7.53,73.55,21.92S318.16,859.35,281.61,859.35Zm0-37.47c-41.23,0-67.54,9.21-67.54,15.55S240.38,853,281.61,853s67.53-9.21,67.53-15.55S322.83,821.88,281.61,821.88Z"/></g><path id="_Path_5" data-name="&lt;Path&gt;" class="cls-9" d="M261.33,661.05s5.42,10.05,6.92,34.48c0,0,11.29,1.59,15.55,0,0,0,.44-28.07,5.8-34.48Z"/><path id="_Path_6" data-name="&lt;Path&gt;" class="cls-10" d="M268.25,695.53H283.8L290,869.17l1.88,81.89s-4.39,3.45-11.79.82l-4.89-80.74Z"/><ellipse id="_Path_7" data-name="&lt;Path&gt;" class="cls-11" cx="275.46" cy="644.03" rx="82.33" ry="17.27"/><ellipse id="_Path_8" data-name="&lt;Path&gt;" class="cls-12" cx="276.78" cy="636.98" rx="71.61" ry="10.22"/></g><g id="_Group_3" data-name="&lt;Group&gt;"><path id="_Path_9" data-name="&lt;Path&gt;" class="cls-13" d="M1037.09,672.16a3.38,3.38,0,0,0-2.54-1.16H823.05a3.39,3.39,0,0,0-2.54,1.16L809,685.42l119.81-2.84,119.81,2.84Z"/><rect id="_Rectangle_" data-name="&lt;Rectangle&gt;" class="cls-14" x="808.36" y="682.58" width="240.88" height="76.43" rx="6" ry="6"/><path id="_Path_10" data-name="&lt;Path&gt;" class="cls-15" d="M836.67,759l-13.44,108.7-3.94,49.39a4.36,4.36,0,0,0,4,4.69,9.26,9.26,0,0,0,2.69-.16,4.38,4.38,0,0,0,3.35-3.33l11.82-53.39,16-105.9Z"/><path id="_Path_11" data-name="&lt;Path&gt;" class="cls-16" d="M1016.33,759l13.44,108.7,3.93,49.39a4.35,4.35,0,0,1-4,4.69,9.35,9.35,0,0,1-2.7-.16,4.35,4.35,0,0,1-3.34-3.33l-11.82-53.39L995.81,759Z"/><path id="_Path_12" data-name="&lt;Path&gt;" class="cls-17" d="M829,759,813.27,885.84l-4.59,57.63a5.09,5.09,0,0,0,4.64,5.48,11,11,0,0,0,3.14-.19,5.11,5.11,0,0,0,3.91-3.88l13.79-62.31L852.89,759Z"/><path id="_Path_13" data-name="&lt;Path&gt;" class="cls-18" d="M1024,759l15.68,126.83,4.6,57.63a5.1,5.1,0,0,1-4.64,5.48,11.07,11.07,0,0,1-3.15-.19,5.1,5.1,0,0,1-3.9-3.88l-13.79-62.31L1000.1,759Z"/><rect id="_Rectangle_2" data-name="&lt;Rectangle&gt;" class="cls-19" x="899.28" y="686.9" width="57.47" height="18.73"/><path id="_Path_14" data-name="&lt;Path&gt;" class="cls-20" d="M1039,686.9H955.49V691a8,8,0,0,1-8,8H907.24a8,8,0,0,1-8-8V686.9H818.62a5.35,5.35,0,0,0-5.35,5.35v57.1a5.36,5.36,0,0,0,5.35,5.35H1039a5.35,5.35,0,0,0,5.35-5.35v-57.1A5.34,5.34,0,0,0,1039,686.9Z"/></g><g id="_Group_4" data-name="&lt;Group&gt;"><path id="_Path_15" data-name="&lt;Path&gt;" class="cls-21" d="M919.54,651.6v-71a340.16,340.16,0,0,1-46.64,0v71.09A114.58,114.58,0,0,0,919.54,651.6Z"/><path id="_Path_16" data-name="&lt;Path&gt;" class="cls-22" d="M872.9,651.65v18.61a2.92,2.92,0,0,0,2.07,2.85c21.23,5.89,37.27,1.86,42.63.1a2.9,2.9,0,0,0,1.94-2.8V651.6A114.58,114.58,0,0,1,872.9,651.65Z"/><path id="_Path_17" data-name="&lt;Path&gt;" class="cls-23" d="M872.9,580.56l7.19-7.94v-6.13H912v5.59l7.57,8.48S893.54,582.37,872.9,580.56Z"/></g><g id="_Group_5" data-name="&lt;Group&gt;"><path id="_Path_18" data-name="&lt;Path&gt;" class="cls-24" d="M987.33,650.78V564.5a340.11,340.11,0,0,1-46.64,0v86.33A114.57,114.57,0,0,0,987.33,650.78Z"/><path id="_Path_19" data-name="&lt;Path&gt;" class="cls-25" d="M940.69,650.83v18.61a2.92,2.92,0,0,0,2.06,2.85c21.24,5.89,37.27,1.86,42.64.1a2.92,2.92,0,0,0,1.94-2.8V650.78A114.57,114.57,0,0,1,940.69,650.83Z"/><path id="_Path_20" data-name="&lt;Path&gt;" class="cls-26" d="M940.69,564.5l7.19-7.94v-6.13h31.87V556l7.58,8.49S961.33,566.31,940.69,564.5Z"/></g><g id="_Group_6" data-name="&lt;Group&gt;"><path id="_Path_21" data-name="&lt;Path&gt;" class="cls-27" d="M958,656V607.51a386.62,386.62,0,0,1-49.73,0V656A130.22,130.22,0,0,0,958,656Z"/><path id="_Path_22" data-name="&lt;Path&gt;" class="cls-28" d="M908.29,656v18.62a3,3,0,0,0,2.2,2.85c22.64,5.89,39.74,1.86,45.46.1a2.94,2.94,0,0,0,2.07-2.81V656A130.22,130.22,0,0,1,908.29,656Z"/><path id="_Path_23" data-name="&lt;Path&gt;" class="cls-29" d="M908.29,607.51l7.67-7.94v-6.12h34V599l8.08,8.48S930.3,609.32,908.29,607.51Z"/></g></g><g id="Layer_3" data-name="Layer 3"><path class="cls-30" d="M267.47,491.83a30.46,30.46,0,0,0-19.31,12.91c-7.37,11.18,4.59,2.92,30.66-10.7Z"/><path class="cls-30" d="M267.89,493.83a104.77,104.77,0,0,0-13.71,12.53c-8,8.45-8.13,9.31-12.61,15.37-3.08,4.2,2,2.86,2.32,2.92.19,0-.65.35.5,1.35a9,9,0,0,0,4.34,1.35c.83,0,3.69-.08,4.94-.09,6-.08,17.15-.08,31.87-16.93C285.54,510.33,281.57,492.07,267.89,493.83Z"/><path class="cls-31" d="M342,295.21s28.53-34.2,39.17-27.35c38.3,24.68,35,153.71-92.93,245.29,0,0-27.34-10-19.69-24.29,12.86-24.11,33.41-41.21,47.3-92.09C322.26,373.39,330.56,329,342,295.21Z"/><path class="cls-31" d="M364.53,382.92,325.46,805.25S430.51,828,488,815.86l-95.37-407.4Z"/><path class="cls-32" d="M415,121.55a3.43,3.43,0,0,0,.26.3c3,3.58,31.19,38.3,10.53,57.26l-10.71-57.45"/><path class="cls-33" d="M444.07,917.73s3.56,1.77,3.6,2.95,1.86,17,.95,19.72-49.24,8.08-49.24,8.08-24.43-1.18-27-4.34-1.46-5.52,0-5.91,57.81-21.89,57.81-21.89Z"/><path class="cls-33" d="M499.86,929.14s3.55,1.77,3.59,3,1.88,17,.95,19.71-49.23,8.08-49.23,8.08-24.43-1.18-27-4.33-1.46-5.51,0-5.91S486,927.76,486,927.76Z"/><path class="cls-34" d="M499,906.72s.6,24.31.46,24.75c-1.14,3.67-11.58,3.91-14.69,1.11l-6.08-23.39Z"/><path class="cls-34" d="M445.14,897.59s.4,24.13.22,24.76c-1.09,3.68-11.11,4.39-14.2,1.56l-4.51-24.29Z"/><path class="cls-33" d="M380.29,466.38s33.17,172.12,53.48,252c0,0,42.58-13.5,44.25-32.81s-36.16-218.45-36.16-218.45Z"/><path class="cls-35" d="M449.13,470.68c-.6,8.88-70.94-2.18-69.33,6.78,6.21,34.68,48.77,125.91,48.68,127.13,21.13,146.72,39,299,46.88,329.89,3.26,12.84,28.54,2.34,28.54,2.34,4.68-166.77,8-452.36,8-452.36C495.39,473.49,471.59,470.43,449.13,470.68Z"/><path class="cls-36" d="M408.55,246.74s46.51-7.94,76.12,12.61c0,0,51.88,141.08,19.63,209.42,0,0-71.08,51.51-123,11.7,0,0-38.5-146.44-20.49-201.71C360.78,278.76,365.55,266.52,408.55,246.74Z"/><path class="cls-30" d="M427.9,192.61s6.16,31.47,11.15,52c0,0-24.51,46.33-32.24,49.77-4.63,2.06-4.29-23.56-4-38.84,0,0-9.56-53.6-23.27-58.21S427.9,192.61,427.9,192.61Z"/><path class="cls-33" d="M431.91,684.63s11.62-2,13.38,4.33,2.93,193.14,2.93,237.58c0,0-20.53,4.46-25.92-3.69C414,910.3,396.7,720.52,396.7,720.52Z"/><path class="cls-2" d="M443.6,244.43s-26.44,78.95-23.31,113.29,48.88,401.73,59.9,451.42c0,0,77.1-4.89,118.15-28.64L520.48,448.2l-26.2-165.55.18-24.74S473.86,241.82,443.6,244.43Z"/><path class="cls-34" d="M402.67,125.32s-51.7,0-66.75,27.66c0,0,11.94,25.29,20.51,44.81s19.33,37.18,34.62,33.58c0,0,41.84-14.42,38.65-45.15C426.84,158.55,414.67,128.92,402.67,125.32Z"/><path class="cls-34" d="M420.16,180c.23,9.33,4.72,16.78,10,16.65s9.39-7.8,9.16-17.13-4.71-16.79-10-16.65S419.93,170.66,420.16,180Z"/><path class="cls-34" d="M398.14,493.61a33,33,0,0,0-22.66,11.85c-9.74,11.58,4.36,3.93,34.3-7.79Z"/><path class="cls-34" d="M398.24,495.91a117.84,117.84,0,0,0-16.67,12.22c-9.87,8.42-10.22,9.35-16,15.56-4,4.31,1.59,3.51,1.94,3.62.19.07-.75.31.3,1.6a8.85,8.85,0,0,0,4.37,2.12c.87.11,3.9.43,5.24.59,6.33.74,18.16,2.3,36.64-14.64C414.07,517,413,495.84,398.24,495.91Z"/><path class="cls-2" d="M467.8,280.2s26.78-35,36.43-14.86c39.74,82.83,6.25,234.58-94.4,257.76,0,0-13.38-5.82-14.8-24.15s46.17-64.32,46.17-64.32C436.75,396.44,446.3,327.06,467.8,280.2Z"/><path class="cls-32" d="M411.38,112c-69.92-1.11-93.56,28.82-93.56,28.82,3.47,8.57,26.13,17.77,33.37,16.83s39.8-15.27,48.47-20.57c6.34-3.89,9.58,5.68,10.87,11.12.08.42.19.89.31,1.36.26,1.26.38,2.11.38,2.11a35.66,35.66,0,0,0,3.39,10.79c3.36,10.71,7.28,23.31,6.67,30.84C420.75,200,414,206,405.56,210.08c-6.31-4.66-35.37-24.62-46-4.4v0a4.8,4.8,0,0,0-.41,1.07c-1.61,5.74,7.49,21.8,11.08,26.64,9.16,12.37,48-10.57,56.53-17.51s5.14-16,3.36-19.27c-3.61-6.69-5.19-14.79-5.88-21.2l0,0c-.64-2.59,1.86-13,1.86-13l-.32-10.54C426.61,133.18,411.38,112,411.38,112Z"/><path class="cls-31" d="M401.18,250.9s-57.63,63.39-29.88,186.38c0,0-12.7-42.16-16.89-57.35s-11.91-82.06,3.42-101.09C369.21,264.71,395.23,252.58,401.18,250.9Z"/><rect class="cls-31" x="456.57" y="388.53" width="27.95" height="4.89"/></g><g id="Layer_2" data-name="Layer 2"><polygon class="cls-37" points="83.83 798.39 83.83 741.07 49.23 741.07 49.23 954.48 83.83 954.48 83.83 862.94 219.4 736.55 187.24 701.99 83.83 798.39"/><polygon class="cls-37" points="829.97 798.39 726.57 701.99 694.4 736.55 829.97 862.94 829.97 954.48 864.57 954.48 864.57 741.07 829.97 741.07 829.97 798.39"/><path class="cls-38" d="M321.39,516.64c-11.42-5.09-44.61-23.83-55.46-11.46-27.6,20.57-95.05,107.71-108.3,137.06-21.47,47.57-21,46.61-8,58.31l141.76-151.5L436.93,697.16l45.13-53C446.14,601.73,370.31,538.43,321.39,516.64Z"/><path class="cls-39" d="M892.54,700.55H21.26A10.3,10.3,0,0,0,11,710.82v20a10.29,10.29,0,0,0,10.26,10.26H892.54a10.3,10.3,0,0,0,10.27-10.26v-20A10.3,10.3,0,0,0,892.54,700.55Z"/><path class="cls-40" d="M419.57,577.46l-41.95,42c-5.34,5.34-8.35,11.27-6.3,13.29l69.07,67.83L508,619.15l-74.89-47.49C430.67,570.12,424.91,572.12,419.57,577.46Z"/><path class="cls-41" d="M625.93,595.54a798,798,0,0,0-157-2.79v107.8H702.23c8.29,0,15.08-4.56,15.08-10.14V657C717.31,623.2,675.43,601.38,625.93,595.54Z"/><path class="cls-38" d="M777.77,601.57c-29.79-1.68-50.27-7.34-44.63,22.25l14.61,76.82,117.35-6.11-4.24-87Z"/><path class="cls-38" d="M715.16,667.44h50.38V629.07H708C674.62,629.07,707.42,659.72,715.16,667.44Z"/><path class="cls-42" d="M880.25,602.39c-.81-5.26-1.53-11.14-5.83-14.75-4.09-3.43-11.66-4.84-16.77-3.09-4.44,1.52-6.06,2.22-9.29,5.65-5.65,6-3.41,18.53-.82,25.61,5.88,16.11,1.56,20.6.49,28.91-14.6,1.07-38,17.32-38.12,17.39-9.44,6.74-41,30.17-43.23,33.94,0,0-.91,3.6.34,3.58l85.57-1.35c2.11,0,3.36-.35,4.37-1.22,2.69,2.28,5.93,3.29,9,2,16.45-6.9,16.28-18.46,13.11-34.61C871.24,624.43,883.74,625,880.25,602.39Z"/><path class="cls-38" d="M805.37,652.7c-3.81,3.66-5.34,6.28-4.86,11.27,1.82,19.13,34.6,15.33,36.14,4.44C838.58,654.87,815.49,643,805.37,652.7Z"/><path class="cls-43" d="M274.25,652.72c-50.81,2.62-106.08,8.75-140,17.53-50.52,13.08-49.46,12.88-50.46,30.3H468.9V628.74C416.5,625.38,326,634.72,274.25,652.72Z"/><path class="cls-44" d="M382.73,642.45V686.8c0,7.56,2.32,13.75,5.2,13.75h81V621.48l-81,7.21C385.08,628.94,382.73,634.89,382.73,642.45Z"/><path class="cls-43" d="M99.68,591c-50.17-37.27-34.2,78.86-35.05,109.59H101s8.43-52.81,12-69.22S115.21,602.49,99.68,591Z"/><path class="cls-38" d="M501.93,667.78c-32.58-1-85.28,3.85-112.56,12.54s-26.84,8.6-27.38,20.23H613.55V651.76C583.55,649.5,531.86,655.73,501.93,667.78Z"/><path class="cls-45" d="M587.79,645.93c0,13.06-8.84,54.62,6.43,54.62h105c13.9,0,17.89-2.6,17-9.41C710.57,648.29,632,645.93,587.79,645.93Z"/></g><g id="Layer_5" data-name="Layer 5"><g id="_Group_7" data-name="&lt;Group&gt;"><g id="_Group_8" data-name="&lt;Group&gt;"><path id="_Path_24" data-name="&lt;Path&gt;" class="cls-46" d="M1025.9,307.93h-2.62a162.57,162.57,0,0,0-9.17-59.56c-10.22-28.52-33.9-65.56-88.64-80.08-28.94-7.68-55.19-5.77-78,5.68-49.74,24.94-67.16,87.37-67.33,88l-2.56-.25a175.55,175.55,0,0,1,15.08-35.29c9.77-17.47,27-41.09,53.52-54.39,23.47-11.77,50.39-13.75,80-5.89,24.66,6.54,45.25,18.07,61.2,34.27,12.74,12.94,22.56,28.88,29.17,47.35A164.71,164.71,0,0,1,1025.9,307.93Z"/></g><path id="_Path_25" data-name="&lt;Path&gt;" class="cls-47" d="M974.23,941.31V951c0,2.37,21.56,4.29,48.16,4.29s48.16-1.92,48.16-4.29v-9.71Z"/><ellipse id="_Path_26" data-name="&lt;Path&gt;" class="cls-48" cx="1022.39" cy="941.31" rx="48.16" ry="4.29"/><path id="_Path_27" data-name="&lt;Path&gt;" class="cls-49" d="M987.51,929.65v7.72c0,1.88,16.44,3.41,36.71,3.41s36.72-1.53,36.72-3.41v-7.72Z"/><path id="_Path_28" data-name="&lt;Path&gt;" class="cls-50" d="M696.28,375.26s-8.87-67.71,54-95.36h51.57s54,14.05,54,95.36Z"/><rect id="_Rectangle_3" data-name="&lt;Rectangle&gt;" class="cls-51" x="764.09" y="270" width="26.96" height="9.9"/><rect id="_Rectangle_4" data-name="&lt;Rectangle&gt;" class="cls-52" x="769.04" y="261.72" width="17.07" height="8.28"/><ellipse id="_Path_29" data-name="&lt;Path&gt;" class="cls-53" cx="1024.22" cy="929.65" rx="36.71" ry="3.41"/><rect id="_Rectangle_5" data-name="&lt;Rectangle&gt;" class="cls-54" x="1020.29" y="905.28" width="7.87" height="24.37"/><path id="_Rectangle_6" data-name="&lt;Rectangle&gt;" class="cls-55" d="M1023.28,307h1.88a3,3,0,0,1,3,3V905.28a0,0,0,0,1,0,0h-7.87a0,0,0,0,1,0,0V310A3,3,0,0,1,1023.28,307Z"/><ellipse id="_Path_30" data-name="&lt;Path&gt;" class="cls-56" cx="777.75" cy="294.92" rx="42.25" ry="4.34"/></g></g></svg>