<svg xmlns="http://www.w3.org/2000/svg" xmlns:xlink="http://www.w3.org/1999/xlink" viewBox="0 0 1080 1080"><defs><style>.cls-1{opacity:0.75;}.cls-2{fill:#f2f2f2;}.cls-3{fill:#ececec;}.cls-4{fill:#e1e1e1;}.cls-5,.cls-58{fill:#fff;}.cls-6{fill:url(#linear-gradient);}.cls-7{fill:url(#linear-gradient-2);}.cls-8{fill:url(#linear-gradient-3);}.cls-9{fill:url(#linear-gradient-4);}.cls-10{fill:url(#linear-gradient-5);}.cls-11{fill:url(#linear-gradient-6);}.cls-12{fill:#131011;}.cls-13{fill:url(#linear-gradient-7);}.cls-14{fill:url(#linear-gradient-8);}.cls-15{fill:url(#linear-gradient-9);}.cls-16{fill:url(#linear-gradient-10);}.cls-17{fill:url(#linear-gradient-11);}.cls-18{fill:url(#linear-gradient-12);}.cls-19{fill:url(#linear-gradient-13);}.cls-20{fill:url(#linear-gradient-14);}.cls-21{fill:url(#linear-gradient-15);}.cls-22{fill:url(#linear-gradient-16);}.cls-23{fill:url(#linear-gradient-17);}.cls-24{fill:url(#linear-gradient-18);}.cls-25{fill:url(#linear-gradient-19);}.cls-26{fill:url(#linear-gradient-20);}.cls-27{fill:url(#linear-gradient-21);}.cls-28{fill:url(#linear-gradient-22);}.cls-29{fill:url(#linear-gradient-23);}.cls-30{fill:#82b378;}.cls-31{fill:#a8d29f;}.cls-32{fill:#ed7d2b;}.cls-33{fill:#f99746;}.cls-34{fill:#ffb176;}.cls-35{fill:#db6a1f;}.cls-36{fill:#1b75bb;}.cls-37{fill:#1866a3;}.cls-38{fill:#023e6b;}.cls-39{fill:#e6e7e8;}.cls-40{fill:#dbdcdd;}.cls-41{fill:#d0d2d3;}.cls-42{fill:#d4d6d7;}.cls-43{fill:#c5c7c9;}.cls-44{fill:#0083c7;}.cls-45{fill:#b1b0d8;}.cls-46{fill:#e38b8b;}.cls-47{fill:#5d3228;}.cls-48{fill:#002c41;}.cls-49{fill:#00374d;}.cls-50{fill:#d57045;}.cls-51{fill:#b9613b;}.cls-52{fill:#f7b68d;}.cls-53{fill:#f5a37a;}.cls-54{fill:#2e55a5;}.cls-55{fill:#26468c;}.cls-56{fill:#f3adac;}.cls-57{fill:#2d2932;}.cls-58{opacity:0.3;}.cls-59{fill:#00a8ba;}.cls-60{fill:#f6c1af;}.cls-61{fill:#e2b2a2;}.cls-62{fill:#7876a0;}.cls-63{fill:#c5aa9f;}.cls-64{fill:#7c6254;}.cls-65{fill:#e9cdc0;}.cls-66{fill:#ecb1a0;}.cls-67{fill:#7b6153;}.cls-68{fill:#8d7061;}.cls-69{fill:#8a87ba;}.cls-70{fill:#918fc5;}.cls-71{fill:#a66c73;}.cls-72{fill:#926065;}.cls-73{fill:#d9a08b;}</style><linearGradient id="linear-gradient" x1="434.58" y1="638.95" x2="651.59" y2="638.95" gradientUnits="userSpaceOnUse"><stop offset="0" stop-color="#edbe45"/><stop offset="1" stop-color="#ffd16b"/></linearGradient><linearGradient id="linear-gradient-2" x1="546.06" y1="746.53" x2="542.83" y2="671.49" gradientUnits="userSpaceOnUse"><stop offset="0" stop-color="#d1a93d"/><stop offset="1" stop-color="#ebbe47"/></linearGradient><linearGradient id="linear-gradient-3" x1="443.9" y1="785.85" x2="478.23" y2="785.85" gradientUnits="userSpaceOnUse"><stop offset="0" stop-color="#986d48"/><stop offset="1" stop-color="#784518"/></linearGradient><linearGradient id="linear-gradient-4" x1="603.77" y1="785.85" x2="638.1" y2="785.85" xlink:href="#linear-gradient-3"/><linearGradient id="linear-gradient-5" x1="434.28" y1="798.15" x2="474.34" y2="798.15" gradientUnits="userSpaceOnUse"><stop offset="0" stop-color="#dc9b69"/><stop offset="1" stop-color="#925523"/></linearGradient><linearGradient id="linear-gradient-6" x1="607.66" y1="798.15" x2="647.72" y2="798.15" xlink:href="#linear-gradient-5"/><linearGradient id="linear-gradient-7" x1="438.46" y1="677.52" x2="647.72" y2="677.52" xlink:href="#linear-gradient-5"/><linearGradient id="linear-gradient-8" x1="-1.72" y1="844.69" x2="397.38" y2="844.69" gradientTransform="translate(-28.95 14.65) rotate(-2.5)" xlink:href="#linear-gradient-5"/><linearGradient id="linear-gradient-9" x1="15.01" y1="549.85" x2="167.19" y2="549.85" gradientTransform="translate(-28.95 14.65) rotate(-2.5)" gradientUnits="userSpaceOnUse"><stop offset="0" stop-color="#a5862f"/><stop offset="1" stop-color="#967c2b"/></linearGradient><linearGradient id="linear-gradient-10" x1="289.85" y1="661.35" x2="92.52" y2="505.1" gradientTransform="translate(-28.95 14.65) rotate(-2.5)" gradientUnits="userSpaceOnUse"><stop offset="0" stop-color="#ebbe47"/><stop offset="1" stop-color="#d1a93d"/></linearGradient><linearGradient id="linear-gradient-11" x1="63.92" y1="673.13" x2="382.48" y2="673.13" gradientTransform="translate(-28.95 14.65) rotate(-2.5)" xlink:href="#linear-gradient"/><linearGradient id="linear-gradient-12" x1="137.22" y1="878.32" x2="199.53" y2="878.32" gradientTransform="translate(-28.95 14.65) rotate(-2.5)" xlink:href="#linear-gradient-3"/><linearGradient id="linear-gradient-13" x1="125.6" y1="877.56" x2="199.53" y2="877.56" gradientTransform="translate(-28.95 14.65) rotate(-2.5)" xlink:href="#linear-gradient-5"/><linearGradient id="linear-gradient-14" x1="212.53" y1="818.68" x2="233.6" y2="818.68" gradientTransform="translate(-28.95 14.65) rotate(-2.5)" xlink:href="#linear-gradient-5"/><linearGradient id="linear-gradient-15" x1="225.53" y1="819.18" x2="239.51" y2="819.18" gradientTransform="translate(-28.95 14.65) rotate(-2.5)" xlink:href="#linear-gradient-3"/><linearGradient id="linear-gradient-16" x1="2.32" y1="844.28" x2="401.42" y2="844.28" gradientTransform="matrix(-1, 0, 0, 1, 1079.4, 0)" xlink:href="#linear-gradient-5"/><linearGradient id="linear-gradient-17" x1="19.05" y1="549.43" x2="171.23" y2="549.43" gradientTransform="matrix(-1, 0, 0, 1, 1079.4, 0)" xlink:href="#linear-gradient-9"/><linearGradient id="linear-gradient-18" x1="293.89" y1="660.94" x2="96.56" y2="504.68" gradientTransform="matrix(-1, 0, 0, 1, 1079.4, 0)" xlink:href="#linear-gradient-10"/><linearGradient id="linear-gradient-19" x1="67.96" y1="672.71" x2="386.52" y2="672.71" gradientTransform="matrix(-1, 0, 0, 1, 1079.4, 0)" xlink:href="#linear-gradient"/><linearGradient id="linear-gradient-20" x1="141.26" y1="877.9" x2="203.57" y2="877.9" gradientTransform="matrix(-1, 0, 0, 1, 1079.4, 0)" xlink:href="#linear-gradient-3"/><linearGradient id="linear-gradient-21" x1="129.65" y1="877.14" x2="203.57" y2="877.14" gradientTransform="matrix(-1, 0, 0, 1, 1079.4, 0)" xlink:href="#linear-gradient-5"/><linearGradient id="linear-gradient-22" x1="216.57" y1="818.27" x2="237.64" y2="818.27" gradientTransform="matrix(-1, 0, 0, 1, 1079.4, 0)" xlink:href="#linear-gradient-5"/><linearGradient id="linear-gradient-23" x1="229.57" y1="818.77" x2="243.55" y2="818.77" gradientTransform="matrix(-1, 0, 0, 1, 1079.4, 0)" xlink:href="#linear-gradient-3"/></defs><title>Pyschology</title><g id="Layer_7" data-name="Layer 7"><g id="Layer_6" data-name="Layer 6"><g class="cls-1"><path class="cls-2" d="M1070.28,868.59c-18.57,107.95-92.76,184.73-178.42,184.79l-645.73.47c-53.12,7-108.2-17-147.22-64S37.59,873.51,39.33,804.63C41.48,719.45,78,633.37,56.58,552.73,50,527.94,38.37,506,29,482.78-21.72,357.35,1.7,189.38,83.1,94.62S296.34-12.87,387.76,65.16c47.55,40.59,84.82,102.47,138.12,128.57,42.86,21,93.09,15.05,132.29-15.62,32.78-25.65,57.37-66.79,91.39-89.6a112.18,112.18,0,0,1,24.5-12.43l1.67-.58A108.78,108.78,0,0,1,793.57,71l1.58-.24C841,64,890,85.85,926.43,124.24c48.92,51.64,78.4,127.87,99,205C1066.22,482.51,1098.31,705.67,1070.28,868.59Z"/><rect class="cls-3" x="282.57" y="397.67" width="7.97" height="570.29"/><rect class="cls-4" x="104.64" y="536.8" width="162.43" height="431.46"/><rect class="cls-3" x="123.75" y="554.27" width="124.21" height="49.34"/><rect class="cls-4" x="169.13" y="572.77" width="34.24" height="13.36"/><rect class="cls-3" x="123.75" y="615.95" width="124.21" height="49.34"/><rect class="cls-4" x="169.13" y="634.45" width="34.24" height="13.36"/><rect class="cls-3" x="123.75" y="677.62" width="124.21" height="49.34"/><rect class="cls-4" x="169.13" y="696.12" width="34.24" height="13.36"/><rect class="cls-3" x="123.75" y="738" width="124.21" height="212.41"/><rect class="cls-4" x="169.13" y="757.79" width="34.24" height="13.36"/><polygon class="cls-4" points="192.26 509.74 192.26 523.53 208.38 523.24 217.82 522.94 231.18 524.43 230.26 514.87 230.26 464.37 192.26 464.37 192.26 509.74"/><polygon class="cls-3" points="192.26 501.24 201.47 506.89 208.15 492.32 215.52 502.13 220.36 494.1 230.26 505.4 230.26 464.37 192.26 464.37 192.26 501.24"/><path class="cls-4" d="M190.34,461.7v65.1h42.31V461.7Zm39.44,61.4H193.21V465.4h36.57Z"/><path class="cls-3" d="M192.72,465.37v57.77h37.54V465.37Zm36.39,56.68H193.87v-55.6h35.24Z"/><rect class="cls-4" x="198.22" y="523.71" width="3.94" height="12.96"/><rect class="cls-4" x="221.17" y="523.71" width="3.94" height="12.96"/><path class="cls-4" d="M150.06,509.93s.41-16.73-4.82-20.36c0,0-17.89,7.26-26.93-20,0,0,16.88-5.45,28.64,17.51l3.62,6.75-.41-8.56s-6.33-24,8.75-37.49c0,0,4.52,21.53-5.73,38.65l-.2,8.44,3-7.14s.5-21.14,21.81-16.73c0,0-11.46,22.83-19.6,19.58,0,0-5.12,7.66-4,19.33Z"/><path class="cls-4" d="M165.32,512.82l-1.22,6.91-.11.65-2.15,12.12-.2,1.14c-.31,1.73-1.49,3-2.86,3h-12.1a3.22,3.22,0,0,1-2.87-3l-.2-1.14-2.14-12.12-.12-.65-1.22-6.91c-.42-2.38,1-4.64,2.86-4.64h19.47C164.34,508.18,165.74,510.44,165.32,512.82Z"/><path class="cls-3" d="M161.84,532.5l-.2,1.14c-.31,1.73-1.49,3-2.86,3h-12.1a3.22,3.22,0,0,1-2.87-3l-.2-1.14Z"/><polygon class="cls-3" points="164.1 519.73 163.99 520.38 141.47 520.38 141.35 519.73 164.1 519.73"/><rect class="cls-3" x="138.26" y="505" width="28.94" height="5.32" rx="1.46" ry="1.46"/><path class="cls-3" d="M120.87,471.22a18.43,18.43,0,0,0,2.6,2.42,24.77,24.77,0,0,0,2.85,1.9c2,1.13,4,2.07,6,3.12,1,.53,2,1.09,2.94,1.72a30.49,30.49,0,0,1,2.8,2.06c.91.75,1.79,1.54,2.64,2.39s1.66,1.76,2.44,2.72c-.82-.89-1.66-1.76-2.53-2.56s-1.75-1.58-2.67-2.3a36.64,36.64,0,0,0-5.74-3.67c-1-.53-2-1-3-1.55s-2-1.06-3-1.66a24.34,24.34,0,0,1-2.83-2A18.13,18.13,0,0,1,120.87,471.22Z"/><path class="cls-3" d="M158,453.16c-.85,2.25-1.63,4.54-2.31,6.88l-.5,1.75-.46,1.78-.43,1.79-.38,1.8-.36,1.81-.32,1.83-.28,1.83-.25,1.84q-.47,3.7-.64,7.45a69.34,69.34,0,0,1,.41-7.49l.22-1.86.26-1.85.31-1.84.35-1.82.4-1.81.44-1.8.48-1.77.53-1.76A65.71,65.71,0,0,1,158,453.16Z"/><path class="cls-3" d="M173.55,472.7a28.68,28.68,0,0,0-4.21,2.21l-1,.67-1,.72-1,.76-.94.81-.92.85-.89.9-.87.94-.85,1a40.27,40.27,0,0,0-3.08,4.31l.66-1.2.71-1.15.76-1.11.79-1.07.83-1,.86-1,.9-.92.93-.87,1-.81,1-.76,1-.7,1-.65A20.19,20.19,0,0,1,173.55,472.7Z"/><path class="cls-4" d="M880,830.47c-18.38-19-26.64-52.77-20-81.9,2.33-10.2,6.26-19.66,9.15-29.62a152,152,0,0,0-1.37-87.3c-4.66-14.27-11.48-27.3-15.55-41.88-4.37-15.66-5.4-32.57-5.27-49.22.1-12.56.86-25.27,3.94-37.19,7.17-27.73,28.25-49.13,50.9-49.41s44.71,22.11,48.27,51c2.71,21.93-4.21,46.1,3.79,65.76,5.31,13.07,15.94,20.71,24.64,30.28a93.63,93.63,0,0,1,23.16,51.1c2.39,19.92-2.21,41.5-13.36,55.61-10,12.68-25.78,21.53-27.12,39.55-1.62,21.67,19.3,35.23,23.29,56.39,2.21,11.7-1.64,24.92-9.28,31.84-8.46,7.64-14.88,2.89-23.89,3.34-7.67.38-14,4.63-21.52,6.55C912.54,849.75,893.84,844.73,880,830.47Z"/><rect class="cls-3" x="923.84" y="578.12" width="2.97" height="313.67"/><path class="cls-3" d="M925.32,715.78a1.74,1.74,0,0,1-1.48-1.91c0-24.94,30-49.31,31.29-50.33a1.31,1.31,0,0,1,2,.61,2.26,2.26,0,0,1-.48,2.64c-.3.24-29.89,24.27-29.89,47.08A1.74,1.74,0,0,1,925.32,715.78Z"/><path class="cls-3" d="M925,666.7a1.74,1.74,0,0,1-1.49-1.92c0-22.81-29.6-46.83-29.89-47.07a2.26,2.26,0,0,1-.48-2.64,1.3,1.3,0,0,1,2-.62c1.28,1,31.3,25.4,31.3,50.33A1.74,1.74,0,0,1,925,666.7Z"/><path class="cls-3" d="M925.32,849.23a1.74,1.74,0,0,1-1.48-1.92c0-24.94,30-49.3,31.29-50.33a1.31,1.31,0,0,1,2,.62,2.26,2.26,0,0,1-.48,2.64c-.3.24-29.89,24.26-29.89,47.07A1.75,1.75,0,0,1,925.32,849.23Z"/><path class="cls-3" d="M925,800.14a1.73,1.73,0,0,1-1.49-1.91c0-22.81-29.6-46.83-29.89-47.07a2.27,2.27,0,0,1-.48-2.64,1.3,1.3,0,0,1,2-.62c1.28,1,31.3,25.39,31.3,50.33A1.73,1.73,0,0,1,925,800.14Z"/><path class="cls-4" d="M959.36,892.93v45.2c0,16.64-10.45,30.13-23.35,30.13H912.67c-12.89,0-23.35-13.49-23.35-30.13v-45.2Z"/><rect class="cls-3" x="878.5" y="879.74" width="91.67" height="15.7" rx="4.32" ry="4.32"/><path class="cls-3" d="M959.36,927.35v1a266,266,0,0,1-35.07,3.25c-1.7,0-3.4.06-5.08.06a197.19,197.19,0,0,1-29.89-2.21v-1C912.71,931.92,935.56,931,959.36,927.35Z"/><path class="cls-3" d="M593.27,245s2.39,179.89,65.3,225.12c0,0-32.65,148-32.65,220h60.52l4.84-445.17Z"/><path class="cls-3" d="M517.76,245s-2.39,179.89-65.29,225.12c0,0,32.64,148,32.64,220H424.6l-4.84-445.17Z"/><path class="cls-4" d="M694.67,693.7H416.76V238.32H694.67ZM424.73,683.42h262V248.6h-262Z"/><rect class="cls-4" x="420.35" y="461.9" width="270.74" height="8.22"/><rect class="cls-4" x="333.17" y="462.83" width="445.1" height="6.37" transform="translate(1021.73 -89.71) rotate(90)"/><rect class="cls-4" x="424.48" y="465.33" width="445.1" height="2.39" transform="translate(1113.55 -180.5) rotate(90)"/><rect class="cls-4" x="376.7" y="465.33" width="445.1" height="2.39" transform="translate(1065.77 -132.72) rotate(90)"/><rect class="cls-4" x="290.7" y="465.33" width="445.1" height="2.39" transform="translate(979.77 -46.72) rotate(90)"/><rect class="cls-4" x="242.92" y="465.33" width="445.1" height="2.39" transform="translate(931.99 1.06) rotate(90)"/><rect class="cls-4" x="421.28" y="613.01" width="269.94" height="3.08" transform="translate(1112.49 1229.1) rotate(180)"/><rect class="cls-4" x="421.28" y="551.33" width="269.94" height="3.08" transform="translate(1112.49 1105.74) rotate(180)"/><rect class="cls-4" x="421.28" y="378.64" width="269.94" height="3.08" transform="translate(1112.49 760.36) rotate(180)"/><rect class="cls-4" x="421.28" y="316.96" width="269.94" height="3.08" transform="translate(1112.49 637) rotate(180)"/><rect class="cls-3" x="393.89" y="693.89" width="321.39" height="14.31"/><polygon class="cls-4" points="360.19 433.36 212.93 433.36 250.14 326.3 322.98 326.3 360.19 433.36"/><path class="cls-4" d="M775.73,75.5l-3,29.42L744.63,383.69l-.76,7.51-.18,1.8,0,.38L743.5,395l-.6,5.94-.28,2.68L742,410l-1.2,11.88-.16,1.66-.06.56-1.16,11.53L736,469.33l-.71,7L733.7,476l.67-6.71,4.47-44.27.24-2.44,0-.43,1.24-12.27.46-4.55.31-3.08.73-7.19.24-2.43,0-.33.32-3.15.79-7.77,27.9-276.5,2.91-28.84Z"/><path class="cls-4" d="M823.53,476.09l-1.58.19-.49-6.95-3.62-51.72-.11-1.54L817.3,410l-.5-7.09-.19-2.86-.36-5.08-.09-1.27,0-.4-.09-1.43-.55-7.64L795.94,104.92,793.57,71l1.58-.24,2.39,34.12,19.39,276.87.57,8.1.18,2.69,0,.36.14,2.09.46,6.54.18,2.61.41,5.82,4.15,59.33Z"/><path class="cls-4" d="M795.23,420.27s9.24-5.62,15.82,3.8C811.05,424.07,801.13,427.92,795.23,420.27Z"/><path class="cls-4" d="M797.7,412.61s12.45-8.58,21,4.85C818.69,417.46,804.93,420.27,797.7,412.61Z"/><path class="cls-4" d="M794.93,420.09a25.87,25.87,0,0,1-7.59-24.49S796.47,400.63,794.93,420.09Z"/><path class="cls-4" d="M798.3,411.16s-7.35-15.7,3.2-30.89C801.5,380.27,806.35,392.45,798.3,411.16Z"/><path class="cls-4" d="M806.33,400.8s-4-16.71,5.35-27.68C811.68,373.12,816.72,382.5,806.33,400.8Z"/><path class="cls-4" d="M805.22,401.2s13-2.93,16.56,8.4C821.78,409.6,811.13,412.82,805.22,401.2Z"/><path class="cls-4" d="M812.48,395.62a26.47,26.47,0,0,1,7.93-18.12S823.63,385.25,812.48,395.62Z"/><path class="cls-4" d="M813,395.15s11.69-2.14,19.32,7.41C832.27,402.56,821.8,410,813,395.15Z"/><path class="cls-3" d="M826,390.35c-.51.07-1,.17-1.53.28s-1,.24-1.53.38c-1,.28-2,.61-3,1a38,38,0,0,0-16.08,11.58c-.74.91-1.45,1.88-2.13,2.88s-1.31,2.05-1.9,3.12a53.11,53.11,0,0,0-3.15,6.83c-.22.6-.45,1.19-.64,1.8-.11.31-.21.61-.31.92l-.28.92c-.1.31-.19.62-.28.94s-.18.62-.26.93l-.24.95-.13.47-.11.48c-.6,2.55-1.06,5.16-1.43,7.79H793a62.41,62.41,0,0,1,1-7.95l.1-.49.1-.48.22-1,.24-1c.08-.32.16-.64.25-1l.27-.95c.09-.32.2-.63.29-.94.19-.63.42-1.25.63-1.87a42.44,42.44,0,0,1,3.21-7,43.8,43.8,0,0,1,4.21-6,38.43,38.43,0,0,1,5-4.91,37,37,0,0,1,5.53-3.76,35.89,35.89,0,0,1,5.89-2.64c1-.35,2-.65,3-.9.51-.13,1-.24,1.54-.34s1-.18,1.55-.23Z"/><path class="cls-4" d="M765.19,420.27s-9.24-5.62-15.82,3.8C749.37,424.07,759.29,427.92,765.19,420.27Z"/><path class="cls-4" d="M762.72,412.61s-12.45-8.58-21,4.85C741.73,417.46,755.49,420.27,762.72,412.61Z"/><path class="cls-4" d="M765.49,420.09a25.87,25.87,0,0,0,7.59-24.49S764,400.63,765.49,420.09Z"/><path class="cls-4" d="M762.11,411.16s7.36-15.7-3.19-30.89C758.92,380.27,754.07,392.45,762.11,411.16Z"/><path class="cls-4" d="M754.09,400.8s4-16.71-5.35-27.68C748.74,373.12,743.69,382.5,754.09,400.8Z"/><path class="cls-4" d="M755.2,401.2s-13.05-2.93-16.56,8.4C738.64,409.6,749.29,412.82,755.2,401.2Z"/><path class="cls-4" d="M747.93,395.62A26.49,26.49,0,0,0,740,377.5S736.79,385.25,747.93,395.62Z"/><path class="cls-4" d="M747.47,395.15s-11.69-2.14-19.32,7.41C728.15,402.56,738.62,410,747.47,395.15Z"/><path class="cls-3" d="M734.38,390.35c.52.07,1,.17,1.54.28s1,.24,1.53.38c1,.28,2,.61,3,1a38.14,38.14,0,0,1,5.81,2.78,38.89,38.89,0,0,1,5.43,3.85,38.48,38.48,0,0,1,4.84,4.95c.74.91,1.45,1.88,2.13,2.88s1.3,2.05,1.9,3.12a53.11,53.11,0,0,1,3.15,6.83c.21.6.44,1.19.64,1.8.1.31.21.61.31.92l.28.92c.1.31.19.62.28.94s.17.62.26.93l.24.95.12.47.12.48c.6,2.55,1.06,5.16,1.43,7.79h.07a60.68,60.68,0,0,0-1-7.95l-.09-.49-.11-.48-.21-1c-.08-.32-.17-.64-.24-1s-.16-.64-.26-1l-.27-.95c-.09-.32-.19-.63-.29-.94-.19-.63-.41-1.25-.62-1.87a43.32,43.32,0,0,0-3.22-7,42.12,42.12,0,0,0-4.21-6,38.36,38.36,0,0,0-5-4.91,37.47,37.47,0,0,0-5.53-3.76,36,36,0,0,0-5.9-2.64c-1-.35-2-.65-3-.9-.51-.13-1-.24-1.53-.34s-1-.18-1.55-.23Z"/><path class="cls-3" d="M808.82,457.54l-.3.49c-5.27,8.51-14.63,14.93-30.93,14.73h-.26v-.35c0-3.63.86-34.66,17.44-48.17l.35-.27a28,28,0,0,1,18.39-6h.22l.06.33C814.31,421.21,817.8,442.46,808.82,457.54Z"/><path class="cls-5" d="M813.79,418.34c-1.89,3.76-5,8.92-8.57,14.46-.1.17-.21.33-.32.5-3.69,5.73-7.82,11.83-11.5,17.15-1.74,2.52-3.46,5-5.09,7.31l-.35.49c-4.6,6.53-8.5,11.94-10.37,14.51h-.26v-.35c1-1.37,2.55-3.52,4.48-6.21l.41-.58h0c4-5.63,9.53-13.44,14.91-21.35l.32-.48h0c6.65-9.8,13-19.71,16.06-25.78h.22Z"/><path class="cls-5" d="M797.52,444.38l-.37.07,0-.18-2.36-20,.35-.27,2.33,19.82h0Z"/><polygon class="cls-5" points="804.91 433.35 804.86 432.87 811.48 431.7 811.53 432.18 804.91 433.35"/><path class="cls-5" d="M808.82,457.54l-.3.49-20.56.22h-.11v-.49h.46Z"/><polygon class="cls-5" points="782.17 466.32 781.8 466.29 782.37 456.58 782.74 456.61 782.17 466.32"/><path class="cls-4" d="M795.23,436c0,.21,0,.41,0,.62-.19,10.89-4.62,23.32-17.68,35.91l-.21.21-.16-.28c-1.68-2.92-15.59-28.24-8.74-52,0-.16.09-.33.14-.49a43.62,43.62,0,0,1,11.83-19.13l.18-.17.2.21C782.55,402.79,795.29,417,795.23,436Z"/><path class="cls-5" d="M780.78,400.91c.27,4.47.21,11,0,18.21,0,.22,0,.43,0,.64-.25,7.45-.67,15.53-1.1,22.64-.2,3.38-.41,6.68-.62,9.81,0,.22,0,.44,0,.66-.59,8.79-1.15,16.14-1.43,19.65l-.21.21-.16-.28c.14-1.86.37-4.79.64-8.44l.06-.78h0c.55-7.63,1.27-18.16,1.83-28.65l0-.64h0c.69-13,1.11-25.86.67-33.07l.18-.17Z"/><path class="cls-5" d="M780.06,434.36l-.26.34-.1-.12-11.27-14.09c0-.16.09-.33.14-.49l11.16,13.94h0Z"/><polygon class="cls-5" points="780.77 419.8 780.5 419.46 785.22 413.35 785.49 413.69 780.77 419.8"/><path class="cls-5" d="M795.23,436c0,.21,0,.41,0,.62L779,452.87l-.08.08-.23-.38.36-.36Z"/><polygon class="cls-5" points="778.16 463.82 777.85 464.08 773.74 455.91 774.06 455.65 778.16 463.82"/><path class="cls-3" d="M769.18,431.34l.36.42c6.2,7.38,10.5,19.89,9.19,40.86,0,.12,0,.23,0,.34l-.27,0c-2.8-.3-26.72-3.56-36-25.86-.07-.16-.13-.31-.19-.47-2.57-6.38-3.94-14.29-3.31-24.1a2.64,2.64,0,0,0,0-.28l.26-.06C741.5,421.69,758.17,418.71,769.18,431.34Z"/><path class="cls-5" d="M739.24,422.16a150.51,150.51,0,0,1,10.57,12.06l.36.44c4.17,5.16,8.59,10.91,12.44,16,1.82,2.43,3.61,4.81,5.29,7.08l.35.48c4.72,6.39,8.62,11.8,10.48,14.38,0,.12,0,.23,0,.34l-.27,0c-1-1.37-2.54-3.52-4.48-6.2q-.21-.27-.42-.57h0c-4.07-5.58-9.71-13.23-15.44-20.71l-.35-.45h0c-7.1-9.25-14.3-18.17-18.79-22.5a2.64,2.64,0,0,0,0-.28Z"/><path class="cls-5" d="M758.21,445l0,.49h-.14l-15.64,1.62c-.07-.16-.13-.31-.19-.47l15.48-1.6h0Z"/><polygon class="cls-5" points="750.21 434.66 749.84 434.69 749.4 426.08 749.78 426.04 750.21 434.66"/><path class="cls-5" d="M769.18,431.34l.36.42-1.29,26.48v.14l-.37,0,0-.59Z"/><polygon class="cls-5" points="774.08 466.27 774.02 466.75 766.56 465.33 766.62 464.85 774.08 466.27"/><path class="cls-4" d="M828.13,502.61a88.8,88.8,0,0,0,6.3-33.28H722.79a88.8,88.8,0,0,0,6.31,33.28Z"/><path class="cls-4" d="M731.23,507.42c9.85,20.39,27.39,34,47.38,34s37.53-13.58,47.39-34Z"/><rect class="cls-4" x="104.84" y="154.1" width="98.35" height="210.68"/><rect class="cls-3" x="117.59" y="167.14" width="72.83" height="184.61"/><rect class="cls-4" x="223.92" y="114.93" width="139.28" height="153.72"/><rect class="cls-3" x="236.68" y="131.07" width="113.77" height="121.45"/><ellipse class="cls-4" cx="879.42" cy="210.14" rx="44.82" ry="57.86"/><ellipse class="cls-3" cx="879.42" cy="210.14" rx="39.55" ry="51.05"/><polygon class="cls-4" points="879.46 212.62 858.76 196.95 859.65 195 879.39 209.94 904.85 187.63 905.84 189.51 879.46 212.62"/><path class="cls-4" d="M882.5,210.14c0,2.2-1.38,4-3.08,4s-3.07-1.78-3.07-4,1.37-4,3.07-4S882.5,208,882.5,210.14Z"/></g></g></g><g id="Layer_2" data-name="Layer 2"><g id="_Group_" data-name="&lt;Group&gt;"><path id="_Path_" data-name="&lt;Path&gt;" class="cls-6" d="M641.16,633.47a3.08,3.08,0,0,0-2.3-1.05H447.32a3.08,3.08,0,0,0-2.3,1.05l-10.44,12,108.51-2.57,108.5,2.57Z"/><rect id="_Rectangle_" data-name="&lt;Rectangle&gt;" class="cls-7" x="434.02" y="642.91" width="218.14" height="69.21" rx="6" ry="6"/><path id="_Path_2" data-name="&lt;Path&gt;" class="cls-8" d="M459.65,712.12l-12.17,98.44-3.57,44.73a4,4,0,0,0,3.6,4.25,8.22,8.22,0,0,0,2.44-.15,3.94,3.94,0,0,0,3-3L463.69,808l14.54-95.9Z"/><path id="_Path_3" data-name="&lt;Path&gt;" class="cls-9" d="M622.35,712.12l12.17,98.44,3.57,44.73a4,4,0,0,1-3.6,4.25,8.22,8.22,0,0,1-2.44-.15,3.93,3.93,0,0,1-3-3L618.31,808l-14.54-95.9Z"/><path id="_Path_4" data-name="&lt;Path&gt;" class="cls-10" d="M452.66,712.12,438.46,827l-4.16,52.19a4.61,4.61,0,0,0,4.2,5,9.35,9.35,0,0,0,2.85-.17,4.62,4.62,0,0,0,3.54-3.51L457.37,824l17-111.9Z"/><path id="_Path_5" data-name="&lt;Path&gt;" class="cls-11" d="M629.34,712.12,643.54,827l4.16,52.19a4.61,4.61,0,0,1-4.2,5,9.35,9.35,0,0,1-2.85-.17,4.62,4.62,0,0,1-3.54-3.51L624.62,824l-17-111.9Z"/><rect id="_Rectangle_2" data-name="&lt;Rectangle&gt;" class="cls-12" x="516.35" y="646.81" width="52.04" height="16.97"/><path id="_Path_6" data-name="&lt;Path&gt;" class="cls-13" d="M642.87,646.81H567.25v3.71a7.2,7.2,0,0,1-7.2,7.2H523.56a7.2,7.2,0,0,1-7.21-7.2v-3.71h-73a4.85,4.85,0,0,0-4.85,4.85v51.71a4.85,4.85,0,0,0,4.85,4.85H642.87a4.85,4.85,0,0,0,4.85-4.85V651.66A4.86,4.86,0,0,0,642.87,646.81Z"/></g><g id="_Group_2" data-name="&lt;Group&gt;"><path id="_Path_7" data-name="&lt;Path&gt;" class="cls-14" d="M86.91,716.24,10.36,952.74s11.86,3.92,19.31-.84l79.66-206.25L286,750.55,385.09,976.8s14.48,8.57,25.75-1.13l-100-255.74Z"/><path id="_Path_8" data-name="&lt;Path&gt;" class="cls-15" d="M25.38,614.15C28.69,573.81,20.24,423,18.82,409c-.78-7.72-2.41-12.71-3.73-15.65C6.45,397.28,3.41,403.42,3.48,411.4,3.6,426.45,15.07,602.77,18.14,636s30.1,73.93,63.67,79.45c13.26,2.18,47.11,7.62,87.71,10.7-40.83-18.86-95.6-15.24-120-36.16C36.4,678.7,22.06,654.49,25.38,614.15Z"/><path id="_Path_9" data-name="&lt;Path&gt;" class="cls-16" d="M387.31,648.81a25,25,0,0,0-17.37-10.53c-12.94-1.85-41-7.36-55.43-21.73-19.11-19-46.8-74.54-46.8-74.54S215.94,427.37,189.2,393.6s-47.26-23.73-55.65-19.06S91.71,388.73,53,388.27c-18.19-.21-30.24,1.56-37.9,5.06,1.32,2.94,2.95,7.93,3.73,15.65,1.42,14,9.87,164.83,6.56,205.17s11,64.55,24.14,75.8c24.4,20.92,79.17,17.3,120,36.16,62.11,4.71,140,3.89,184.27-22.59C396,678.24,394.43,659.39,387.31,648.81Z"/><path id="_Path_10" data-name="&lt;Path&gt;" class="cls-17" d="M177,642.45s74.55-5.1,128.22-5.61,81.33,16.34,76.59,30.79-71.68,44.78-150,47.14S56.17,682.13,64.51,676.39,117.17,651.52,177,642.45Z"/><path id="_Path_11" data-name="&lt;Path&gt;" class="cls-18" d="M202.85,748.25,202,727.92l-23.78,15.93-24.86,297.77s8-1.56,10.19-6.49L186.3,775.87Z"/><path id="_Path_12" data-name="&lt;Path&gt;" class="cls-19" d="M153.32,1041.62s-11.21-1.12-12-7.94l25.42-293L185,727.14l17,.78-23.78,15.93Z"/><path id="_Path_13" data-name="&lt;Path&gt;" class="cls-20" d="M228.91,749l14.56,148s-8.37-.71-11.74-4L215.88,748.61Z"/><path id="_Path_14" data-name="&lt;Path&gt;" class="cls-21" d="M237,749.19l12.23,144.33s-2.4,4-5.76,3.47L228.91,749Z"/></g><g id="_Group_3" data-name="&lt;Group&gt;"><path id="_Path_15" data-name="&lt;Path&gt;" class="cls-22" d="M990.27,705.57l86.81,232.93s-11.68,4.43-19.33,0l-88.6-202.57L792.89,748.55,703.75,978.9s-14.09,9.2-25.77,0L766.74,719Z"/><path id="_Path_16" data-name="&lt;Path&gt;" class="cls-23" d="M1047.27,600.88c-5.07-40.15-3.22-191.15-2.41-205.25a51,51,0,0,1,3-15.8c8.81,3.57,12.11,9.57,12.4,17.55.53,15-3.23,191.69-4.84,225s-26.85,75.18-60.14,82.16c-13.16,2.76-46.73,9.67-87.16,14.52,40-20.62,94.84-19.4,118.31-41.37C1039.09,665.86,1052.35,641,1047.27,600.88Z"/><path id="_Path_17" data-name="&lt;Path&gt;" class="cls-24" d="M687.2,651.33a25.07,25.07,0,0,1,16.9-11.28c12.84-2.41,40.66-9.15,54.42-24.13C776.78,596.05,802,539.4,802,539.4s46.71-116.79,72-151.69,46.18-25.77,54.77-21.48,42.42,12.35,81.08,10.2c18.16-1,30.28.24,38.08,3.4a51,51,0,0,0-3,15.8c-.81,14.1-2.66,165.1,2.41,205.25s-8.18,65-20.8,76.79c-23.47,22-78.34,20.75-118.31,41.37-61.84,7.42-139.71,10-185.08-14.52C679.79,681.11,680.55,662.21,687.2,651.33Z"/><path id="_Path_18" data-name="&lt;Path&gt;" class="cls-25" d="M897.06,635.79s-74.7-1.84-128.33,0-80.55,19.87-75.18,34.1,73.57,41.61,152,40.53,174-40.27,165.39-45.64S957.2,642.23,897.06,635.79Z"/><path id="_Path_19" data-name="&lt;Path&gt;" class="cls-26" d="M875.83,742.61V722.26l24.45,14.88,37.86,296.4s-8.06-1.21-10.47-6l-34.1-258Z"/><path id="_Path_20" data-name="&lt;Path&gt;" class="cls-27" d="M938.14,1033.54s11.14-1.61,11.61-8.46L911.56,733.51l-18.81-12.77-16.92,1.52,24.45,14.88Z"/><path id="_Path_21" data-name="&lt;Path&gt;" class="cls-28" d="M849.82,744.47,841.75,893s8.33-1.07,11.55-4.56l9.53-144.89Z"/><path id="_Path_22" data-name="&lt;Path&gt;" class="cls-29" d="M841.75,745.05l-5.9,144.72s2.57,3.87,5.9,3.22l8.07-148.52Z"/></g></g><g id="Layer_5" data-name="Layer 5"><path class="cls-30" d="M545.72,578l2.71-.25c-1-19.73-16-30.78-16-30.78-10.45-9.26-13.85-19.44-13.85-19.44s17.65-20.59,1.09-33.67c0,0-12.1-7.32-22-6.73,0,0,14,23.44,9.45,25.77s-13.69-27.24-13.69-27.24S466,483,457.11,487.28c0,0,23.53,19.26,18.58,20.4s-30.37-17.75-30.37-17.75-25.62,4.36-24.26,20,10.2,20.45,14.08,20,26.57-9.08,27.07-5.9S449,537.62,439.47,538.11c0,0,18.06,19.92,30.07,14.17s13-14.86,20.51-18.28,13.87-3.41,10.78.08S484.2,541,479.92,548.52s-8.12,12.67,4.3,10.8,32.61-11,33.49-21.36c0-.45.08-.88.11-1.3a4.92,4.92,0,0,1-.11,1.3c2.59.46,8,5.23,11.86,9,.6.65,1.48,1.53,2.75,2.71l1.16,1.18C541.37,559.46,545.72,578,545.72,578Z"/><path class="cls-31" d="M580.3,501.67s-28.07-15.72-15-37.06c0,0,10.48-13.1,21.71-16.47,0,0-6,31.82,0,32.57s4.11-35.94,4.11-35.94,29.57-14.22,41.18-13.1c0,0-18.35,31.07-12.36,30.32s26.58-32.19,26.58-32.19,30.32-5.61,35.18,12.35-3,27-7.48,28.08-33.32.74-32.57,4.49,20.21,9.73,31.07,6.36c0,0-12,29.57-27.7,28.07s-20.58-11.23-30.32-12-16.84,1.88-12,4.5,21.33.85,29.19,7.54,14.22,10.8-.37,13.79-40.8,1.12-46-10.11Z"/><path class="cls-30" d="M667.88,447.77s-78.6,25.45-87.58,53.9c0,0,.37,12.72-7.49,27.32,0,0-12.12,18.41-5.21,40.81l3.12-.83s-2.73-22.23,2.42-35.11c.21-.47.52-1.16.9-2,.93-1.83,1.55-3.17,2-4.14,2.81-5.75,6.85-13.26,9.55-14.84C585.54,512.89,568,488.19,667.88,447.77Z"/><path class="cls-31" d="M535.64,480s37-20.73,19.73-48.85c0,0-13.81-17.27-28.61-21.71,0,0,7.89,41.94,0,42.93S521.33,405,521.33,405s-39-18.75-54.27-17.27c0,0,24.17,40.95,16.28,40s-35-42.44-35-42.44-40-7.4-46.38,16.29,3.95,35.52,9.87,37,43.91,1,42.92,5.92-26.64,12.83-41,8.39c0,0,15.79,39,36.51,37s27.14-14.8,40-15.79,22.2,2.47,15.78,5.93-28.12,1.13-38.48,9.94-18.75,14.23.49,18.18,53.78,1.48,60.69-13.32Z"/><path class="cls-30" d="M545.51,516c-10.37-19.24-9.87-36-9.87-36-11.84-37.5-115.45-71.05-115.45-71.05,131.73,53.28,108.54,85.85,108.54,85.85,3.55,2.07,8.87,11.94,12.57,19.52.52,1.29,1.36,3.07,2.59,5.49.51,1.1.91,2,1.18,2.62,6.79,17,3.19,46.28,3.19,46.28l4.12,1.1C561.48,540.27,545.51,516,545.51,516Z"/><path class="cls-32" d="M464.4,561.37a72.49,72.49,0,1,0,145,0Z"/><path class="cls-33" d="M512.11,561.37c0,27.16,6.51,54.82,28.61,67.23,3.68,2.06,16-.17,20,1.24a72.53,72.53,0,0,0,48.63-68.47Z"/><path class="cls-34" d="M536.89,633.85c2.94.37-11.89,0-8.84,0a72.48,72.48,0,0,0,72.49-72.48h-18C582.53,598.35,572.67,629.42,536.89,633.85Z"/><path class="cls-32" d="M463.4,637.55h147a8.95,8.95,0,0,0-8.94-8.95H472.34A8.94,8.94,0,0,0,463.4,637.55Z"/><path class="cls-33" d="M532.26,637.55h78.11a8.95,8.95,0,0,0-8.94-8.95H541.2A9,9,0,0,0,532.26,637.55Z"/><rect class="cls-35" x="462.75" y="561.37" width="149" height="2.22" transform="translate(1074.5 1124.96) rotate(180)"/><path class="cls-36" d="M620.88,572.13v59.69c0,6.72-16.34,12.17-36.51,12.17-11.75,0-22.19-1.85-28.87-4.72-4.79-2.06-7.64-4.65-7.64-7.45V572.13Z"/><ellipse class="cls-37" cx="584.37" cy="572.13" rx="36.51" ry="12.17"/><ellipse class="cls-38" cx="584.37" cy="572.13" rx="18.04" ry="4.06"/><path class="cls-39" d="M636.07,558.3s-24.7.2-34.75,13.83c0,0-2.69,1.51-9,2.31h0l-1.18.13-1,.1-.55,0h0a4.21,4.21,0,0,1-.51,0l-.68,0-.43,0h-.09l-1.08,0-.51,0h-.62l-1.28,0s-11.74.12-17-2.81c0,0-15.29-43.25,6.35-74.33a8.68,8.68,0,0,1,6.1-3.74c2.55-.3,5.15.64,4.51,6,0,0-.52,19.14,10.47,26.58a2.76,2.76,0,0,1,1,3.25,4.6,4.6,0,0,0-.31,1.66,4.34,4.34,0,0,0,1.72,3.51c1.35,1,3.36,1.54,6.18.15h0a8.11,8.11,0,0,1,4.16-.84l2.56.22a5.68,5.68,0,0,1,4.06,2.21l3.13,4.07c1.63,2.11,3.8,3.34,5.8,5.1C625.33,547.86,635.94,548.28,636.07,558.3Z"/><path class="cls-39" d="M584.37,500.05s-24.18,17.68-17,72.08c0,0-15.29-43.25,6.35-74.33a8.68,8.68,0,0,1,6.1-3.74C582.41,493.76,585,494.7,584.37,500.05Z"/><path class="cls-40" d="M595.88,529.85a4.53,4.53,0,0,0-.32,1.69s-9.76,12.15-9.44,37.89c0,1.18,0,2.39.11,3.62a2.89,2.89,0,0,1-.57,1.86h0l-1.28,0s-11.74.12-17-2.81c-7.22-54.4,17-72.08,17-72.08s-.52,19.14,10.47,26.58A2.75,2.75,0,0,1,595.88,529.85Z"/><path class="cls-41" d="M603.46,535.2c-12.7,12.62-15.19,34.87-15.55,39v0c0,.42,0,.65,0,.65l-1.08,0-.51,0h-.61a2.89,2.89,0,0,0,.57-1.86c-1.34-28.22,9.33-41.51,9.33-41.51a4.34,4.34,0,0,0,1.72,3.51C598.63,536,600.64,536.59,603.46,535.2Z"/><path class="cls-40" d="M623.18,546c-16.74,2.35-24.79,11.22-28.63,18.47a0,0,0,0,1,0,0,31.68,31.68,0,0,0-3.36,9.86,2.48,2.48,0,0,0,0,.27l-1,.1-.55,0h0a4.21,4.21,0,0,1-.51,0l-.68,0-.43,0h-.09s1.57-25.7,15.6-39.64h0a8.11,8.11,0,0,1,4.16-.84l2.56.22a5.68,5.68,0,0,1,4.06,2.21l3.13,4.07C619,543,621.18,544.2,623.18,546Z"/><path class="cls-42" d="M586.23,573.05a2.89,2.89,0,0,1-.57,1.86h0l-1.28,0s-11.74.12-17-2.81c0,0,5.15.63,4.83-2.28a38.59,38.59,0,0,1-3-21.64s.52,15.11,6.76,20.9a64.91,64.91,0,0,1-1.63-34.64s-2.22,24.63,5.26,35.19a74.12,74.12,0,0,1-1.45-17.7s2,11.23,3.54,14.56c0,0-.73-14.67,1.15-22.37,0,0,.33,20,3.26,25.28C586.13,570.61,586.17,571.82,586.23,573.05Z"/><path class="cls-43" d="M587.91,574.17v0c0,.42,0,.65,0,.65l-1.08,0-.51,0h-.61a2.89,2.89,0,0,0,.57-1.86c-1.34-28.22,9.33-41.51,9.33-41.51a4.34,4.34,0,0,0,1.72,3.51S586.35,550.17,587.91,574.17Z"/><path class="cls-42" d="M604.64,549.23c-.48.41-8.18,7.17-10.09,15.2a0,0,0,0,1,0,0,29.09,29.09,0,0,0-3.36,9.86,2.48,2.48,0,0,0,0,.27l-1,.1-.55,0h0a4.21,4.21,0,0,1-.51,0l-.68,0-.43,0h-.09s2.49-16.42,10.06-23.92c-.25.41-4.36,7-5,10.91C592.9,561.83,597.79,552.64,604.64,549.23Z"/><path class="cls-40" d="M616.19,558.69c-1.27.45-11.43,4.3-14.87,13.44,0,0-2.69,1.51-9,2.31,0,0,3-16.66,20.38-21.65,0,0-11.44,6.13-14.91,14.93,0,0,5.2-6.86,10-8.8,0,0-5.22,4.79-6.46,7.91A41.5,41.5,0,0,1,616.19,558.69Z"/><path class="cls-44" d="M620.88,572.13h0c0,6.72-16.35,12.17-36.51,12.17s-36.51-5.45-36.51-12.17h0v59.69c0,2.8,2.85,5.39,7.64,7.45v-37c0-13,11.23-13.17,11.23-13.17,49.56,1.09,53.87-12.61,54.15-16.14A4.35,4.35,0,0,0,620.88,572.13Z"/></g><g id="Layer_3" data-name="Layer 3"><path class="cls-45" d="M293.88,259.51s-25.43-27.92-44.36-16.16C233,253.63,236.08,351.72,294.37,420.84c26.84,31.82,122.53-36,139.79-68.25,0,0,16.59-32.32-21.65-22.63-43.28,11-81.15,36.4-78.9,35.52C340.05,363,321,287.88,293.88,259.51Z"/><path class="cls-46" d="M421,320.42a43.56,43.56,0,0,1,31-17.3c20.63-1.74,6.23,5.78-33.68,29.16Z"/><path class="cls-46" d="M421,320.42s10.19-4.44,27.84-8.72,18.89-3.95,30.49-5.47c8-1.05,1.94,4.35,1.73,4.81-.13.28,1-.56,1.28,1.53.17,1.32-.92,4.71-2.05,6.32-.73,1-2.21,5.62-3.3,7.16-5.28,7.39-10.75,19-45,26.13C432,352.18,406.9,336.28,421,320.42Z"/><path class="cls-47" d="M345.07,1051.71l61.24,20.21s42.76,9.15,50.22-8.53c0,0,1.05-3.8-1.81-5.84l-78.29-48.62-29.12.64S342.94,1026.71,345.07,1051.71Z"/><path class="cls-47" d="M423.41,1045.74l61.23,20.2s42.75,9.16,50.23-8.52c0,0,1-3.8-1.81-5.84L454.77,1003l-29.12.65S421.28,1020.74,423.41,1045.74Z"/><path class="cls-48" d="M423.62,1006.87,392.74,695.54,237,697.11S130.55,714.34,154.47,584c2.49-13.57,11.45-40.38,11.45-40.38l88.06-.9,15.79,25.9L462.66,649l3.62,357.48S447.52,1015.57,423.62,1006.87Z"/><path class="cls-49" d="M346.41,1007.65l-23.57-311.4-117,1.18S80.73,706,110.4,584.41l12.34-39.9,93.48-1,14.22,39.64L397,656.37,385.3,1007.26S358.69,1016.47,346.41,1007.65Z"/><path class="cls-50" d="M212.26,54.14c-42,8.32-36.89,92.69-36.89,92.69-2.81,87.46,8,251.2,8,251.2-62,0-66.25-41.07-66.25-41.07-1.44-176.6,4.42-288.29,4.42-288.29S124.37,42.52,212.26,54.14Z"/><path class="cls-51" d="M212.26,54.14c-27.84-3.68-47.12-3.57-60.51-1.7v341c8.38,2.8,18.73,4.59,31.61,4.59,0,0-10.8-163.74-8-251.2C175.37,146.83,170.3,62.46,212.26,54.14Z"/><path class="cls-50" d="M266.16,50.05S285.79,187.57,271.79,357c0,0-7.57,23.67-66.25,41.07,0,0,4.73-152,1.92-239.47,0,0,6.08-70-35.88-78.28Z"/><path class="cls-51" d="M248.13,380.05V55.81L171.58,80.28c42,8.31,35.88,78.28,35.88,78.28C210.27,246,205.54,398,205.54,398,224.68,392.35,238.36,386,248.13,380.05Z"/><path class="cls-52" d="M284.7,260.21c-11.31-17.51-24.51-22.27-24.51-22.27l-42.63-15.79h-40.7l-42.61,15.79a55.2,55.2,0,0,0-29.1,22.27Z"/><path class="cls-50" d="M262.68,41.68c5.21,10.15,8.51,24.77,4.3,35.54-9.32,23.85-55,31.8-68.56,8.9-10.11-17.08-5.41-42.41,7.22-57C223.2,8.94,251.53,19.91,262.68,41.68Z"/><path class="cls-52" d="M181.44,250.85s1.65,88.73-60.13,69.1c0,0-40.38-46.89,7.58-80Z"/><rect class="cls-52" x="175.37" y="182.18" width="47.76" height="54.48"/><path class="cls-53" d="M223.13,207.19v-25H175.37v29.87C192.24,212.21,208.48,212.1,223.13,207.19Z"/><path class="cls-54" d="M277.9,304.26s4.5,23.22-1.07,89.57L287.16,556s-80.89,26.31-188.11,3l16.62-143.61L121.31,320l0-42.94c-7.88-33.17,3-37,3-37l41.42-13.72s7.21,25.56,47,20.74c0,0,30-3.16,18.05-19.92l30.78,10.86S283.35,242.8,277.9,304.26Z"/><path class="cls-55" d="M230.86,227.08c12,16.76-18.05,19.92-18.05,19.92-39.82,4.82-47-20.74-47-20.74L158,228.85s12.41,32.82,54.27,27.33c0,0,39-4.27,28.6-25.58Z"/><path class="cls-52" d="M159.94,167.11a33.74,33.74,0,0,0,7.91,10.63c15.48,13.78,35.81,23.06,56.73,22.25C278.31,174,256.53,69.5,256.53,69.5c-10.15-50-53.21-48.25-53.21-48.25C170.73,21.09,141.64,37.6,138,72.07c-1.4,13.21,1.67,27.2,2.84,40.3.86,9.64,2.4,19.21,5.84,28.29C150.15,149.93,155.67,158.2,159.94,167.11Z"/><path class="cls-50" d="M266.16,54.14s-90.79,5-89.17,56.5c0,0-26.24-4.85-20.43,27.93,0,0-2-25.39-22.3-19.44,0,0-14.72-16.7-12.73-50.46,0,0,1.46-42.3,50-54.41C171.5,14.26,247.27-5.26,266.16,54.14Z"/><path class="cls-52" d="M153.37,127.32s-6.79-16.15-19.8-9c0,0-7.73,4.56-1.54,17.15,0,0,8.32,16.66,21.34,9.67Z"/><path class="cls-5" d="M200.29,710.78l-9.63-360.87s-15.3-127.76-15.31-127.76c-22.22,5.1-45.81,9.61-65.57,21.6a32.67,32.67,0,0,0-10.73,10.32l16.62,68.72-4,99s-14.17,69-17.6,111.61c0,0-2.51,94.64,8.49,160.82C102.58,694.19,142.28,717.54,200.29,710.78Z"/><path class="cls-5" d="M259.7,235.82s31.1,6.51,27.46,28.21l-2.47,53.06,4.6,216.28,76.19,75.1c-52.12-11.55-95.71-39.88-95.71-39.88L229.1,362.87l1.76-135.79S262.12,236.36,259.7,235.82Z"/><path class="cls-5" d="M144.36,280s3.58-36.92-24.93-40.05C76,235.15,10.28,319.57,22.92,435.29c5.83,53.29,147.13,33.08,188.74,11,0,0,40.93-22.6-6.89-39.73C150.67,387.19,100.31,391.5,102.15,389,107.31,382.11,135,333.8,144.36,280Z"/><path class="cls-56" d="M220.82,411.76s19.85-3.16,35.95,11-.17,8.7-47.39-4.71Z"/><path class="cls-56" d="M220.82,411.76s10.81,4.48,26.83,14.67,16.64,11.31,26.12,18.91c6.57,5.25-2.11,4.49-2.63,4.66-.31.09,1.18.34-.32,2-.92,1.06-4.42,2.63-6.53,2.9-1.33.18-6.09,2.29-8.09,2.55-9.69,1.25-22.92,5.3-53-15.23C203.2,442.23,198,412.36,220.82,411.76Z"/><path class="cls-57" d="M214.56,125.2c1.21-4.46,8.25-4.65,10.11-1,.81,1.58.35-2.49.65-5.16s1.69-6.41-.28-5c-3.93,2.76-8.45,2.41-9.9.78-.76-.86-.89,2.44-.71,5.37C214.59,122.86,214.16,126.69,214.56,125.2Z"/><path class="cls-57" d="M224.46,114.78c1.67-2.45,8.15-8.86,21.68-8.86,12.63,0,23.41,3.21,25.71,4.59.8.48,1.35,2.95,2,5.4s-3.93,5.91-3.93,5.91l-.05,0c0-.54.05-1.07.05-1.55,0-9.24-10-10.87-22.4-10.87s-22.4,2.78-22.4,11.46a38.43,38.43,0,0,0,.91,7.65h0S222.78,117.24,224.46,114.78Z"/><path class="cls-58" d="M247.54,110.13c11.29,0,21.74,1.22,21.74,10.12,0,4.92-1.84,13.92-4.82,17.41-4,4.65-10.3,5-17,5-6.91,0-12.95-.37-16.9-4.93-3.11-3.6-4.77-12.14-4.77-16.92C225.81,112,237.63,110.13,247.54,110.13Z"/><path class="cls-57" d="M229.62,138.81c-3.51-4.07-5.15-13.13-5.15-18,0-8.11,7.76-12.22,23.07-12.22,12,0,23.08,1.41,23.08,11.63,0,5.06-1.85,14.54-5.19,18.46-4.34,5.07-11,5.49-18,5.49C240.26,144.2,233.93,143.79,229.62,138.81Zm-3.81-18c0,4.78,1.66,13.32,4.77,16.92,3.95,4.56,10,4.93,16.9,4.93,6.68,0,13-.38,17-5,3-3.49,4.82-12.49,4.82-17.41,0-8.9-10.45-10.12-21.74-10.12C237.63,110.13,225.81,112,225.81,120.84Z"/><path class="cls-59" d="M270.56,114.66a.85.85,0,1,0,1.68,0,.85.85,0,1,0-1.68,0Z"/><path class="cls-57" d="M165.53,115.54c.67-2.46,1.22-4.93,2-5.41,2.29-1.37,13.07-4.59,25.7-4.59,13.53,0,20,6.41,21.69,8.86s-1.6,13.72-1.6,13.72h0a37.8,37.8,0,0,0,.91-7.66c0-8.67-10-11.46-22.4-11.46s-22.41,1.63-22.41,10.88c0,.47,0,1,.06,1.55l-.06,0S164.86,118,165.53,115.54Z"/><path class="cls-57" d="M174,138.33c-3.34-3.91-5.18-13.4-5.18-18.45,0-10.23,11.08-11.63,23.07-11.63,15.31,0,23.07,4.11,23.07,12.21,0,4.84-1.64,13.91-5.15,18-4.31,5-10.64,5.39-17.86,5.39C184.94,143.82,178.31,143.41,174,138.33Zm-3.84-18.45c0,4.91,1.83,13.91,4.81,17.4,4,4.65,10.3,5,17,5,6.91,0,13-.38,16.9-4.94,3.11-3.6,4.77-12.14,4.77-16.92,0-8.85-11.82-10.71-21.73-10.71C180.57,109.75,170.13,111,170.13,119.88Z"/><path class="cls-59" d="M168.84,114.28a.85.85,0,1,1-1.68,0,.85.85,0,1,1,1.68,0Z"/><path class="cls-58" d="M191.86,109.75c9.91,0,21.73,1.86,21.73,10.71,0,4.78-1.66,13.32-4.77,16.92-3.95,4.56-10,4.94-16.9,4.94-6.68,0-13-.39-17-5-3-3.49-4.81-12.49-4.81-17.4C170.13,111,180.57,109.75,191.86,109.75Z"/></g><g id="Layer_4" data-name="Layer 4"><path class="cls-60" d="M746.27,294c-1.26-2.68-2.24-5.25-2.88-6.59-1.07-2.23.15-6.11,4-5.08l-.31-.71c-1.89-4.44,4.41-7,7.59-4.29,0-.19-.1-.36-.15-.53-1.45-5.27,8.62-7.77,10.36-2.08h0c.27-4.94-.73-23.8,4.44-23.38,5.42.43,4.81,25,5.5,28.77,2.58-.87,6.2-1.25,8.44,1.92,3.41,4.85,1,15.29,1,15.36a135.39,135.39,0,0,0,1.06,17c3.29,24.18,34.2,90,45.77,139.79,7.28,31.33,6.65,39.05-9,42.73-55.59,13-61.28-144.91-68.24-176.5A230.37,230.37,0,0,0,746.27,294Z"/><path class="cls-61" d="M766.73,299.21a3.44,3.44,0,0,1-2.64-1.14.43.43,0,0,1-.13-.46.48.48,0,0,1,.36-.33,15.12,15.12,0,0,0,4.49-2.09.49.49,0,0,1,.51,0,.43.43,0,0,1,.19.45,4.5,4.5,0,0,1-1.79,3.19h0A2.2,2.2,0,0,1,766.73,299.21Zm.74-.75h0Zm-2.06-.53c1,.66,1.59.29,1.79.16h0a3,3,0,0,0,1.13-1.55A17.53,17.53,0,0,1,765.41,297.93Z"/><path class="cls-61" d="M762.34,295.62a.4.4,0,0,1-.4-.18l.39-.25-.4.23a1,1,0,0,1-.11-.23c-.72-5.06-6.22-15.61-7.54-17.57a.44.44,0,0,1,.13-.63.46.46,0,0,1,.64.13c1.09,1.62,6.88,12.38,7.7,17.9a.47.47,0,0,1-.19.52A.58.58,0,0,1,762.34,295.62Z"/><path class="cls-61" d="M760.45,300.87c-1.55.17-3.6-.83-5-2.61a.45.45,0,0,1,.07-.64.49.49,0,0,1,.66.07c1.63,2,3.94,2.73,4.91,2s1.12-2.15.77-4.53a.47.47,0,0,1,.41-.51.45.45,0,0,1,.52.38c.39,2.78,0,4.54-1.15,5.38A2.4,2.4,0,0,1,760.45,300.87Z"/><path class="cls-61" d="M754.48,302a2.83,2.83,0,0,1-2.58-1.38c-3.25-4.83-6.77-10.29-6.8-10.34a.45.45,0,0,1,.15-.63.45.45,0,0,1,.63.14c0,.05,3.56,5.51,6.8,10.33a1.75,1.75,0,0,0,2,.89c.59-.26,1.07-1.16.6-2.88-2.77-10.19-8.2-15.35-8.26-15.4a.45.45,0,0,1,0-.64.47.47,0,0,1,.66,0c.24.21,5.68,5.37,8.52,15.82.62,2.27-.17,3.53-1.12,3.95A2,2,0,0,1,754.48,302Z"/><path class="cls-61" d="M764.21,298.22a1.55,1.55,0,0,1-1.63-.58,4.73,4.73,0,0,1-.71-2.44c-.09-3.52,3.27-7.44,5.72-10.3a24.6,24.6,0,0,1,7-5.16.47.47,0,0,1,.62.21.46.46,0,0,1-.21.61,23.69,23.69,0,0,0-6.72,4.93c-2.35,2.74-5.58,6.5-5.5,9.68a3.83,3.83,0,0,0,.58,2c.13.22.58.19.94.12a15.12,15.12,0,0,0,4.49-2.09,92,92,0,0,0,7.55-5.33.47.47,0,0,1,.65.06.45.45,0,0,1-.07.64,90.08,90.08,0,0,1-7.64,5.4,15.87,15.87,0,0,1-4.81,2.22Z"/><path class="cls-61" d="M768,285.65a.46.46,0,0,1-.5-.33l-3.08-10.43a.46.46,0,0,1,.32-.57.47.47,0,0,1,.58.31l3.07,10.44a.45.45,0,0,1-.31.56Z"/><path class="cls-60" d="M916.27,359.45c4.34-27.75-2.95-57.94-24.14-64.07-13.39-3.87-35.2,5.29-53.53,31.84-15.8,22.89-25.87,107-28.45,143.13-1.06,14.85,49.61,48.9,58.55,31.62S911.92,387.25,916.27,359.45Z"/><path class="cls-62" d="M901.08,428.06c10.2-2.16,40.81-121.87-7.24-137.16s-74.44,71.3-80.4,107.88C813.44,413.1,872.63,443.72,901.08,428.06Z"/><path class="cls-63" d="M820.73,1049.26H792v6.66a4.29,4.29,0,0,0,4.28,4.27h24.63l64.76-24.54c3.84-6.82-2.23-11.53-2.23-11.53l-62.72,25.14Z"/><path class="cls-64" d="M866,994.38l-33.71,7.75-11.41,13.24-.1,33.89,62.72-25.14C881.29,1003.47,869.07,995.21,866,994.38Z"/><path class="cls-65" d="M820.83,1015.37s-31.51,12.53-28.82,33.89h28.72Z"/><path class="cls-63" d="M668.77,1049.26H630.6v6.66a4.29,4.29,0,0,0,4.28,4.27H728c5.23-6.49,0-10.93,0-10.93H668.77Z"/><path class="cls-64" d="M722.94,1008.68l-44,.44-19.57,6.25v33.89H728C735.65,1033.77,725.15,1011.05,722.94,1008.68Z"/><path class="cls-65" d="M659.42,1015.37s-31.7,9.42-28.82,33.89h28.82Z"/><path class="cls-66" d="M863.54,535.57S658.35,595,658.16,672.38,675.25,992.09,679,1009.12c.56,2.56,19.06,13.74,44-.44,7.63-38.22,57.63-336.3,57.63-336.3S960.79,642.74,960.79,506C960.09,490.93,863.54,535.57,863.54,535.57Z"/><path class="cls-60" d="M900.07,562.47s-167.92,35.25-161,112.34,67.95,264,93.15,327.32c1,2.44,19.85,4.36,33.71-7.75C859.87,922,822,670.89,822,670.89s136.31-9.69,140.55-22.44c24.69-74.25,32.57-114.29,17.06-149.93C944.24,492,900.07,562.47,900.07,562.47Z"/><path class="cls-67" d="M849.69,513.61S652,593.49,651.76,670.89s-2.83,275.33.92,292.37c.56,2.56,70.72,23.38,95.61,9.2,7.62-38.23,32.28-300.08,32.28-300.08S960.79,642.74,960.79,506C960.09,490.93,849.69,513.61,849.69,513.61Z"/><path class="cls-68" d="M870.54,522.52s-161,68.83-154,145.92,54.39,235.19,79.6,298.5c1,2.43,66.12-5.36,80-17.47C870,877.06,832,681.92,832,681.92s132.78-7.77,143.5-15.87c53.33-40.28,26.18-127.13,10.66-162.77C950.73,496.77,870.54,522.52,870.54,522.52Z"/><path class="cls-69" d="M899.09,272.28c-100.29,32.59-76.07,248-70.42,252.47,28.31,22.31,176.28,15,177.78-5.19,1.68-22.48,26.71-164.52-25.83-225-12.23-14.07-26.56-20-45-22.86C923.45,269.77,910.8,268.47,899.09,272.28Z"/><path class="cls-60" d="M1006.31,365c-1.5-28.05-11.81-63.82-33.8-65.44-13.91-1-33.23,10.76-43.49,44.27-8.14,26.6-5.46,108.05-.52,143.87,2,14.75,58.66,37.58,63.83,18.82S1007.8,393.11,1006.31,365Z"/><path class="cls-70" d="M1011.82,423.87c7.93-3.56,2.23-120.22-38.57-129S915.18,380,916.91,417C917.34,434.3,959.7,442.37,1011.82,423.87Z"/><path class="cls-60" d="M813.72,592.82c-15.56,14.22-27.43,44.31-25,50.88s9.75-9.21,14-13.8c-7.76,11.92-8.76,33.19-4.35,33.46s6.93-17,10.79-26.34c-2.45,11.64-1.75,34.64,3.45,33.85s4.4-22.37,5.94-30.43c-.71,7.69,2,24.35,5.68,23.23s3.44-19.67,4.92-28.29c.93,4.73,3.2,17.46,7.41,16.3s3.55-11.27,4.95-17.78c2-9.45,1.69-16,8.16-22.82,8-8.43,80.82-28.47,117.75-63.68,23.24-22.14,33.1-54.31,23.5-66.69C956.42,436.31,833.07,567,813.72,592.82Z"/><path class="cls-71" d="M994.6,245.54c6.39-11.59,6.57-75.91,3-106.58-.68-5.76-148.39,4.45-150.72,0-3.62,41.28-4.13,109.78,7.12,114.78C878.6,264.68,982.11,268.18,994.6,245.54Z"/><path class="cls-72" d="M851.79,197.7a39,39,0,0,0,4.51,21.24c3.26,6.07,7.72,11.36,12.17,16.57,4.68,5.48,23.1,14.23,26.29,25.72,3.1,11.11,52.45,8.82,54.88-2.6,1.9-8.89,10.09-38.93,12.91-58.91.86-6.08-35,3.47-41.1,1.13-3.09-1.18-66-56-65.13-52.25s-.56,8.72-.2,12.61a51.67,51.67,0,0,1-.6,12.29C854.35,181.57,852.27,189.53,851.79,197.7Z"/><path class="cls-60" d="M913.06,296.18c-20.91,0-24.11-8.74-21.11-17.52,6-17.69,1.94-67,1.94-67,0-17,55.75-30.44,55.75-13.46v75C949.64,290.15,923.51,296.18,913.06,296.18Z"/><path class="cls-73" d="M895.11,250.42c29.12-5.49,49.74-22.61,54.53-32.36V198.23c0-17-55.75-3.51-55.75,13.46A288.38,288.38,0,0,1,895.11,250.42Z"/><path class="cls-60" d="M857.43,154.77c2.39,8.69,3.57,23.83.08,34.77-2,6.4,3.84,51.87,35.13,51,23.14-.66,43.27-13.08,57-29.55,1.77,3.75,13.25.42,13.15-14.6-.07-10.19-10.45-10.05-12.71-4,9.29-29.73,6.56-75.23-48.66-78.29-33.18-1.85-43.76,10.67-45.23,16.8C854.88,136.19,855,146.08,857.43,154.77Z"/><path class="cls-71" d="M998.92,158.41c-6.56-107-81-75.09-89.87-77.81-57.08-17.43-64.52,53.49-61.69,61.63,1.36,3.93,11.19,17.62,11.19,17.62l16.12-24.33c24.49,21.89,47,20.73,59,30,15.37,10.74,11,33.32,16.51,26.41,4.25-5.31,6.36-5.39,9.2-5.74C965.63,183.37,999,160.41,998.92,158.41Z"/></g></svg>