<svg xmlns="http://www.w3.org/2000/svg" xmlns:xlink="http://www.w3.org/1999/xlink" viewBox="0 0 1080 1080"><defs><style>.cls-1,.cls-22{fill:#fff;}.cls-2{opacity:0.8;}.cls-3{opacity:0.9;}.cls-4{clip-path:url(#clip-path);}.cls-5{fill:#65bece;}.cls-6{fill:#457f97;}.cls-7{fill:#ffeec2;}.cls-8{fill:#fcddb1;}.cls-9{fill:#fcb390;}.cls-10{fill:#ffdebe;}.cls-11{fill:#80736b;}.cls-12{fill:#add9fe;}.cls-13{fill:#f8593b;}.cls-14{fill:url(#linear-gradient);}.cls-15{fill:url(#linear-gradient-2);}.cls-16{fill:url(#linear-gradient-3);}.cls-17{fill:url(#linear-gradient-4);}.cls-18{fill:#012e38;}.cls-19{fill:#4fa0b3;}.cls-20{fill:#7e5a4a;}.cls-21{fill:url(#linear-gradient-5);}.cls-22{font-size:200px;font-family:InkFree, Ink Free;}.cls-23{font-size:72px;}.cls-24{fill:#240008;}.cls-25{fill:#1b0c17;}.cls-26{fill:#b1b0d8;}.cls-27{fill:#7e4023;}.cls-28{fill:#a05a3f;}.cls-29{fill:#35212b;}.cls-30{fill:#fdc570;}.cls-31{fill:#b6df5f;}.cls-32{fill:#fcbd88;}.cls-33{fill:#ff9d44;}.cls-34{fill:#d36c18;}.cls-35{fill:#bc5006;}.cls-36{fill:#d19378;}.cls-37{fill:#f7ba9b;}.cls-38{fill:#f373ae;}.cls-39{fill:#f7b0b0;}.cls-40{fill:#ff700a;}.cls-41{fill:#ff9852;}.cls-42{fill:#594666;}.cls-43{fill:#1b1d23;opacity:0.5;}.cls-44{fill:#468aa5;}.cls-45{fill:url(#linear-gradient-6);}.cls-46{fill:#aeedf4;}.cls-47{fill:#f8991b;}.cls-48{fill:url(#linear-gradient-7);}.cls-49{fill:#f9cd14;}.cls-50{fill:#ed1c24;}.cls-51{fill:url(#linear-gradient-8);}.cls-52{fill:#f4717a;}.cls-53{fill:#ef4136;}.cls-54{fill:#f7941e;}.cls-55{fill:#006838;}.cls-56{fill:#054715;}.cls-57{fill:#f9ed32;}.cls-58{fill:#974219;}.cls-59{fill:#66260e;}.cls-60{fill:#ffc38d;}</style><clipPath id="clip-path"><rect id="_Rectangle_" data-name="&lt;Rectangle&gt;" class="cls-1" width="1080" height="1080"/></clipPath><linearGradient id="linear-gradient" x1="-30.67" y1="376.15" x2="716.32" y2="376.15" gradientUnits="userSpaceOnUse"><stop offset="0" stop-color="#cfddcc"/><stop offset="1" stop-color="#e8d5b4"/></linearGradient><linearGradient id="linear-gradient-2" x1="716.32" y1="376.15" x2="948.01" y2="376.15" xlink:href="#linear-gradient"/><linearGradient id="linear-gradient-3" x1="-120.44" y1="142.78" x2="909.63" y2="661.67" gradientUnits="userSpaceOnUse"><stop offset="0" stop-color="#0e7973"/><stop offset="1" stop-color="#045769"/></linearGradient><linearGradient id="linear-gradient-4" x1="-49.32" y1="-74.36" x2="1006.62" y2="457.56" xlink:href="#linear-gradient-3"/><linearGradient id="linear-gradient-5" x1="-174.64" y1="16.77" x2="1342.06" y2="16.77" gradientUnits="userSpaceOnUse"><stop offset="0" stop-color="#a48583"/><stop offset="1" stop-color="#8a7379"/></linearGradient><linearGradient id="linear-gradient-6" x1="326.49" y1="701.54" x2="395.54" y2="701.54" xlink:href="#linear-gradient"/><linearGradient id="linear-gradient-7" x1="385.7" y1="731.61" x2="454.75" y2="731.61" xlink:href="#linear-gradient"/><linearGradient id="linear-gradient-8" x1="363.98" y1="671.95" x2="433.04" y2="671.95" xlink:href="#linear-gradient"/></defs><title>Special Education</title><g id="Layer_3" data-name="Layer 3" class="cls-2"><g id="Layer_5" data-name="Layer 5"><g class="cls-3"><rect id="_Rectangle_2" data-name="&lt;Rectangle&gt;" class="cls-1" width="1080" height="1080"/><g class="cls-4"><g id="_Group_" data-name="&lt;Group&gt;"><path class="cls-5" d="M-145.62,2.19V1086.71H1261.52V2.19ZM1126,802c-.39,6.57-9.24,6.27-10,0-.59-4.84-1-9.68-1.39-14.53a5.71,5.71,0,0,1-4.56-.27c-.07.38-.16.75-.23,1.13-.75,4.13-5.11,4.42-7.73,2.37a5.75,5.75,0,0,1-5.4,2.15c-1.58,4.29-8.84,3.93-9.61-1a4.32,4.32,0,0,1-5.4-3.48c-.58-2.78-1-5.56-1.3-8.35a5.1,5.1,0,0,1-.38-2v-2.41c-.73-10.66,0-21.39,0-32.09V735c0-6.23,9.35-6.43,10-.61,2.09-2.09,6.31-1.77,7.77,1,.48-4.78.93-9.55,1.26-14.34.37-5.29,8.81-7.19,9.82-1.33.53,3.05,1.07,6.11,1.61,9.16a154.7,154.7,0,0,1,3.75-28.16c1.13-4.7,7.32-4.46,9.24-.95A4.54,4.54,0,0,1,1126,704c0,4,0,8.07.09,12.1A4.55,4.55,0,0,1,1128,720c0,13.1-.63,26.18-1.17,39.26C1127,773.51,1126.85,787.76,1126,802Z"/><g id="_Group_2" data-name="&lt;Group&gt;"><g id="_Group_3" data-name="&lt;Group&gt;"><rect id="_Path_" data-name="&lt;Path&gt;" class="cls-6" x="1060.82" y="73.24" width="32.64" height="38.26"/><polygon id="_Path_2" data-name="&lt;Path&gt;" class="cls-6" points="1070.35 222.64 1102.99 222.64 1102.99 184.38 1093.46 184.38 1093.46 133.37 1004.74 141.56 1004.74 189.84 1070.35 195.23 1070.35 222.64"/><polygon id="_Path_3" data-name="&lt;Path&gt;" class="cls-6" points="1019.21 308.26 1228.23 297.33 1228.23 245.41 1019.21 245.41 1019.21 308.26"/><polygon id="_Path_4" data-name="&lt;Path&gt;" class="cls-6" points="1004.74 607.47 1224.88 618.77 1224.88 333.77 1004.74 333.77 1004.74 607.47"/></g><g id="_Group_4" data-name="&lt;Group&gt;"><polygon id="_Path_5" data-name="&lt;Path&gt;" class="cls-7" points="1090.12 193.49 1001.39 186.2 1001.39 137.92 1090.12 129.72 1090.12 193.49"/><rect id="_Rectangle_3" data-name="&lt;Rectangle&gt;" class="cls-8" x="1057.47" y="69.6" width="32.64" height="38.26"/><rect id="_Rectangle_4" data-name="&lt;Rectangle&gt;" class="cls-9" x="1067" y="180.73" width="32.64" height="38.26"/><polygon id="_Path_6" data-name="&lt;Path&gt;" class="cls-10" points="1224.88 293.69 1015.86 304.62 1015.86 241.77 1224.88 241.77 1224.88 293.69"/><g id="_Group_5" data-name="&lt;Group&gt;"><polygon id="_Path_7" data-name="&lt;Path&gt;" class="cls-11" points="1221.53 615.13 1001.39 603.82 1001.39 330.13 1221.53 330.13 1221.53 615.13"/><rect id="_Path_8" data-name="&lt;Path&gt;" class="cls-12" x="1023.01" y="355.63" width="171.74" height="24.6"/><polygon id="_Path_9" data-name="&lt;Path&gt;" class="cls-13" points="1032.36 396.63 1194.74 408.47 1194.74 504.12 1032.36 492.27 1032.36 396.63"/></g></g></g><g id="_Group_6" data-name="&lt;Group&gt;"><g id="_Group_7" data-name="&lt;Group&gt;"><rect id="_Rectangle_5" data-name="&lt;Rectangle&gt;" class="cls-14" x="-30.67" y="85.98" width="746.98" height="580.33"/><polygon id="_Path_10" data-name="&lt;Path&gt;" class="cls-15" points="716.32 666.31 948.01 682.7 948.01 69.6 716.32 85.98 716.32 666.31"/></g><rect id="_Rectangle_6" data-name="&lt;Rectangle&gt;" class="cls-16" x="-9.28" y="107.86" width="704.21" height="536.58"/><polygon id="_Path_11" data-name="&lt;Path&gt;" class="cls-17" points="727.77 645.19 935.3 658.75 935.3 93.54 727.77 107.11 727.77 645.19"/><polygon id="_Path_12" data-name="&lt;Path&gt;" class="cls-18" points="-9.28 107.86 689.74 115.15 689.04 644.44 694.93 644.44 694.93 107.86 -9.28 107.86"/></g><path class="cls-19" d="M1126,707.05c0,3,0,6,.07,9.05A4.55,4.55,0,0,1,1128,720c0,13.1-.63,26.18-1.17,39.26.14,14.25,0,28.5-.83,42.74-.39,6.57-9.24,6.27-10,0-.59-4.84-1-9.68-1.39-14.53a5.71,5.71,0,0,1-4.56-.27c-.07.38-.16.75-.23,1.13-.75,4.13-5.11,4.42-7.73,2.37a5.75,5.75,0,0,1-5.4,2.15c-1.58,4.29-8.84,3.93-9.61-1a4.32,4.32,0,0,1-5.4-3.48c-.58-2.78-1-5.56-1.3-8.35a5.1,5.1,0,0,1-.38-2v-2.41c-.73-10.66,0-21.39,0-32.09V735c0-6.23,9.35-6.43,10-.61,2.09-2.09,6.31-1.77,7.77,1,.48-4.78.93-9.55,1.26-14.34.37-5.29,8.81-7.19,9.82-1.33q.79,4.58,1.61,9.16a169.65,169.65,0,0,1,2.34-21.46L-145.62,737.31v349.4H1261.52V703.83Z"/><rect id="_Rectangle_7" data-name="&lt;Rectangle&gt;" class="cls-20" x="-174.64" y="852.24" width="1476.52" height="14.92"/><rect id="_Rectangle_8" data-name="&lt;Rectangle&gt;" class="cls-21" x="-174.64" y="-6.92" width="1516.7" height="47.37"/></g><text class="cls-22" transform="translate(192.76 345.25)">B<tspan class="cls-23" x="138" y="0" xml:space="preserve"> for Ball</tspan></text></g></g></g></g><g id="Layer_4" data-name="Layer 4"><path class="cls-24" d="M173.52,278.51s-3.39,12.36-14.26,8.92-11.47-12.78-11.47-12.78-9.66.47-14.79-5c-7.32-7.91-8.82-26.83,1.42-28.87S156.09,255,156.09,255Z"/><path class="cls-25" d="M198.87,971s-3.54,1.75-3.57,2.93-1.85,16.81-1,19.54,48.8,8,48.8,8,24.21-1.18,26.73-4.31,1.46-5.46,0-5.85-57.28-21.69-57.28-21.69Z"/><path class="cls-25" d="M143.59,982.29s-3.53,1.75-3.58,2.93-1.84,16.81-.93,19.54,48.78,8,48.78,8,24.22-1.16,26.75-4.3,1.45-5.47,0-5.86-57.28-21.69-57.28-21.69Z"/><path class="cls-26" d="M240.23,394.11S234.9,324,248.69,336s62.38,101.31,27.18,221.71c0,0-25.05,13.13-16.3-24.39S276.85,436,240.23,394.11Z"/><path class="cls-27" d="M257.07,540.48a27.84,27.84,0,0,0-11.82,17.66c-2.33,12.05,4.9.87,22.2-19.76Z"/><path class="cls-27" d="M258.19,540.38A95.49,95.49,0,0,0,251,555.77c-3.78,9.94-3.65,10.72-5.3,17.42-1.15,4.63,2.66,1.73,3,1.67s-.42.52.9,1a8.23,8.23,0,0,0,4.15-.38c.69-.29,3.08-1.35,4.15-1.8,5-2.15,14.48-6.06,21-25.46C278.89,548.18,269.16,534.11,258.19,540.38Z"/><path class="cls-26" d="M261.86,534.21s12.21,276,17.09,348.48c0,0-95.92,21.12-141.52,5.28s62.88-252.48,64.32-254.4S261.86,534.21,261.86,534.21Z"/><path class="cls-28" d="M144.44,960.08s-.59,24.08-.46,24.52c1.13,3.64,11.47,3.88,14.55,1.11l6-23.17Z"/><path class="cls-28" d="M197.81,951s-.4,23.9-.23,24.52c1.08,3.66,11,4.34,14.08,1.54l4.47-24.05Z"/><path class="cls-25" d="M261.86,520.76s-7.68,173.52-16.05,254.81c0,0-43.7-7.1-48.11-25.79s3.91-219.37,3.91-219.37Z"/><path class="cls-25" d="M210.92,740s-11.52-2-13.26,4.29-2.82,190.5-2.82,234.52c0,0,20.14,5.55,25.48-2.53,8.24-12.42,25.49-200.73,25.49-200.73Z"/><path class="cls-29" d="M193.85,528c.61,8.8,64.4-4,65,5,2.18,33.74-51.72,128-51.63,129.23-20.95,145.38-34.88,289.44-42.65,320.06C161.32,995,140,985.22,140,985.22c-4.64-165.24-8.4-443.56-8.4-443.56C148,530.79,171.6,527.77,193.85,528Z"/><path class="cls-30" d="M255.52,351.88a6.61,6.61,0,0,1-7.31-1.19c-11.64-10.35-25.67-27.64-40.77-28-3.84-.08-6-2.87-6.52-6-8.75-.24-47.82,0-70.79,21.07,0,0-30.36,142.57,11,203.54,0,0,76.79,39.36,121.79-6.15C262.88,535.21,276.57,408.22,255.52,351.88Z"/><path class="cls-26" d="M196.45,313.07l.07,7.53s49.63,39.86,56.11,101.77,9,103.06,8.53,113.65,19-59.41,17.73-60.84-3.22-61-3.7-65.77-7.29-59.7-30.36-76.27C244.83,333.14,225.46,313.06,196.45,313.07Z"/><path class="cls-1" d="M164.14,313.84S186.92,387.78,208.26,429c0,0,13.84,435,12.27,464.86,0,0-68.59,12.34-151.79-16.67l39.54-357.63,6.81-160.78,7.17-29.89S144.45,316.82,164.14,313.84Z"/><path class="cls-27" d="M164.14,266s.29,32.65,1.6,53.55c0,0,26.59,35.09,35.17,32.11,11-3.84,1.32-16.6-4.39-31,0,0-1.54-54.86,10.1-63.24S164.14,266,164.14,266Z"/><path class="cls-28" d="M161.2,200.36s48-14.83,69.9,6.48c0,0-3.82,26.9-6.15,47.48s-12.82,41.93-19.17,41.93c0,0-46.27-2.17-52.15-31.6C148.33,238.15,151.11,207.15,161.2,200.36Z"/><path class="cls-28" d="M160.69,256.12c2.47,8.73.46,16.93-4.5,18.33s-11-4.53-13.42-13.27-.46-16.93,4.49-18.32S158.23,247.4,160.69,256.12Z"/><ellipse id="_Path_13" data-name="&lt;Path&gt;" class="cls-31" cx="318.22" cy="543.35" rx="22.58" ry="24.58" transform="translate(-258.09 289.66) rotate(-35.89)"/><path class="cls-28" d="M289.65,539.39c4.68-2.38,14.14-6.26,23.35-2.89,1.43.52,6.43,2.35,6.5,5,.1,3.77-9.88,6.68-11,7-4.57,1.3-15,3.14-30-4.1Z"/><path class="cls-28" d="M289.72,541.57a114,114,0,0,1,17.41,9.84c10.4,6.94,10.81,7.78,17,13.05,4.28,3.67-1.3,3.47-1.62,3.61s.75.21-.18,1.54a9.3,9.3,0,0,1-4.14,2.44c-.85.19-3.83.8-5.12,1.07-6.19,1.35-17.73,4-37.28-10.09C275.78,563,275.15,543,289.72,541.57Z"/><path class="cls-24" d="M239.46,172.89s-23.71-18.18-48.41-1.54c0,0-21.13.71-32.23,6.69,0,0-19.24.69-20.7,12.45,0,0-15.3,5.42-6.78,20.21,0,0-12.45,16.39-.43,28.23,0,0-6,5.71,4.6,11.23,0,0,2.2.6,4.42,1.11,1.31.29,5.4-3.85,8.51-7.29a20.42,20.42,0,0,1,3.34,2.43c2,8.51,3.15,2.91,4.41,5.52,3,6.31,5.11,5.6,5.11,5.6s-1.3-22,7.89-35.1c.52-.45,1.08-.88,1.62-1.31,8,1.27,26.31-2.13,37.45-6.82,16.38-5.6,22.84-4.69,20.71,8.1,0,0,21.4-.81,13.42-22.26C242.39,200.14,250.89,182.49,239.46,172.89Z"/><path class="cls-1" d="M160.08,345.56s-30-27.57-45.75-13.21c-35.59,32.43,32.18,167.86,159.38,234.26,0,0,25.65-16.91,14.05-30.07-19.51-22.14-72-82.73-72.67-85C209.79,432.56,194,380.6,160.08,345.56Z"/><g id="_Group_8" data-name="&lt;Group&gt;"><g id="_Group_9" data-name="&lt;Group&gt;"><path id="_Path_14" data-name="&lt;Path&gt;" class="cls-32" d="M764,842.56s-3.38-23.31-31.93-21.3-52.61,21.3-52.61,21.3Z"/><g id="_Group_10" data-name="&lt;Group&gt;"><polygon id="_Path_15" data-name="&lt;Path&gt;" class="cls-33" points="761.87 845 770.57 920.09 755.07 920.09 752.92 845 761.87 845"/><polygon id="_Path_16" data-name="&lt;Path&gt;" class="cls-34" points="755.07 920.09 748.61 915.2 747.38 845 752.92 845 755.07 920.09"/></g><g id="_Group_11" data-name="&lt;Group&gt;"><polygon id="_Path_17" data-name="&lt;Path&gt;" class="cls-34" points="756.38 853.21 765.08 928.3 749.59 928.3 747.43 853.21 756.38 853.21"/><polygon id="_Path_18" data-name="&lt;Path&gt;" class="cls-33" points="749.59 928.3 743.12 923.41 741.89 853.21 747.43 853.21 749.59 928.3"/></g><g id="_Group_12" data-name="&lt;Group&gt;"><polygon id="_Path_19" data-name="&lt;Path&gt;" class="cls-33" points="690.05 850.25 682.57 914.84 695.9 914.84 697.75 850.25 690.05 850.25"/><polygon id="_Path_20" data-name="&lt;Path&gt;" class="cls-34" points="695.9 914.84 701.46 910.63 702.52 850.25 697.75 850.25 695.9 914.84"/></g><g id="_Group_13" data-name="&lt;Group&gt;"><polygon id="_Path_21" data-name="&lt;Path&gt;" class="cls-33" points="670.25 853.95 661.55 929.04 677.05 929.04 679.2 853.95 670.25 853.95"/><polygon id="_Path_22" data-name="&lt;Path&gt;" class="cls-34" points="679.2 853.95 670.25 853.95 669.23 862.78 678.83 867.09 679.2 853.95"/><polygon id="_Path_23" data-name="&lt;Path&gt;" class="cls-34" points="677.05 929.04 683.51 924.14 684.75 853.95 679.2 853.95 677.05 929.04"/></g><path id="_Path_24" data-name="&lt;Path&gt;" class="cls-33" d="M751.54,857.78H674.86a12.7,12.7,0,0,1-12.69-12.7h0a12.69,12.69,0,0,1,12.69-12.69h76.68a12.69,12.69,0,0,1,12.69,12.69h0A12.7,12.7,0,0,1,751.54,857.78Z"/><path id="_Path_25" data-name="&lt;Path&gt;" class="cls-34" d="M712,844.19a194.8,194.8,0,0,1,33.27-11.8H674.86a12.7,12.7,0,0,0,0,25.39h32.91C707.82,851.12,709,845.19,712,844.19Z"/></g><path id="_Path_26" data-name="&lt;Path&gt;" class="cls-35" d="M642.32,850.25s-18.27,1.13-21.49,3c0,0,17.25,6.93,26.95,3.45l4.37-3.45Z"/><path id="_Path_27" data-name="&lt;Path&gt;" class="cls-35" d="M643,858.67s-12.88-2-22.13,0a150.06,150.06,0,0,0,18.45,7.85,8.42,8.42,0,0,0,10.11-4.23h0Z"/><polygon id="_Path_28" data-name="&lt;Path&gt;" class="cls-36" points="648.86 802.87 642.32 850.25 652.15 853.21 661.55 809.2 648.86 802.87"/><polygon id="_Path_29" data-name="&lt;Path&gt;" class="cls-37" points="642.96 858.67 658.9 802.87 674.03 816.04 672.58 832.93 649.39 862.29 642.96 858.67"/><path id="_Path_30" data-name="&lt;Path&gt;" class="cls-35" d="M774.35,681.63c0-13-1-26-1.21-39-.37-22.53-3.12-46.43-25.2-57.72-14.93-7.63-34.8-6.78-50.91-3.85a108.53,108.53,0,0,0-16.59,4.06c-3.3,1.16-5.88,3.45-9.08,4.58-.63.44-2.3,12.64-2.4,15.55-.33,9.72,1.69,18.3,3.15,27.8,2.89,18.86,6.08,41.48-3.94,58.57,16.49,5.18,35.81,4.58,53,6.26,9.9,1,20.9,2.19,30.64-.19,5.57-1.35,18.88-4.6,22.15-9.8C774.9,686.34,774.34,683.3,774.35,681.63Z"/><path id="_Path_31" data-name="&lt;Path&gt;" class="cls-36" d="M671.55,794.72a138.83,138.83,0,0,1,13.61-55.92c5.36,1.42,10.75,4,14.6,8-9.39,16.59-19.68,34.88-28.13,52C671.72,797.52,671.51,795.92,671.55,794.72Z"/><path id="_Path_32" data-name="&lt;Path&gt;" class="cls-38" d="M682,743.62l15.37,3.1L726,694.17c-.36.72-6.34-.78-7.42-.5-2.47.63-5.12,3.57-7,5.2A99,99,0,0,0,682,743.62Z"/><path id="_Path_33" data-name="&lt;Path&gt;" class="cls-38" d="M720.74,693.24c-13.17,11.72-22.79,27-29.94,43.11s-12,33.14-16.77,50.11c25.28,8.42,51.75,14.36,78.32,16.4.76-30.31,1.89-62.1-6.49-91.25-1.6-5.57-3.66-11.27-7.8-15.33S725.08,689.39,720.74,693.24Z"/><path id="_Path_34" data-name="&lt;Path&gt;" class="cls-38" d="M734.93,747.33c14.94,2.44,28.46,2.34,42.87-2.31,7.48-24.84-21.76-40.26-43.44-51.39C736.61,710.43,738.83,730.84,734.93,747.33Z"/><path id="_Path_35" data-name="&lt;Path&gt;" class="cls-36" d="M735.66,683.57c-.32,4.29,1.7,9.51-.62,13.14-3.79,5.91-7.66,11.91-13,16.46a9.17,9.17,0,0,1-3.68,2.15,3.76,3.76,0,0,1-3.89-1.18c-1-1.38-.56-3.3,0-4.89a38.41,38.41,0,0,1,5.3-10.38l.48-12.34C725.52,685.24,730.28,683,735.66,683.57Z"/><path id="_Path_36" data-name="&lt;Path&gt;" class="cls-37" d="M676.75,586.11a45.88,45.88,0,0,0-2.6,34c1.87,5.83,4.89,11.23,6.87,17s2.84,12.34.35,17.92c-1.52,3.4-4.17,6.21-5.57,9.66-3.14,7.72.86,16.73,6.9,22.47,9.07,8.63,22.44,12,34.84,10.25s23.84-8.17,33-16.69,16.25-19.09,22.28-30.07c5.18-9.43,9.69-19.38,11.58-30s1-21.94-4.11-31.4c-6.83-12.6-20.4-20.43-34.37-23.64a126.15,126.15,0,0,0-43-1.84C691.82,565.32,681.51,576.53,676.75,586.11Z"/><path id="_Path_37" data-name="&lt;Path&gt;" class="cls-37" d="M776.44,747.14c4.7-6.43,6.8-16.84,1.53-22.81-3.86-4.37-10.09-5.73-15.92-6.13a72.73,72.73,0,0,0-48.35,14.43c-7.11.13-14.38,6.3-14.15,13.42Z"/><path id="_Path_38" data-name="&lt;Path&gt;" class="cls-39" d="M732.51,648.44c0,2.22-4.91,4-11,4s-11-1.8-11-4,4.91-4,11-4S732.51,646.22,732.51,648.44Z"/><path id="_Path_39" data-name="&lt;Path&gt;" class="cls-40" d="M789.62,696.18c-13.86,8.62-31,14.14-47.73,10.16,10.88-13.3,10.49-31.6,8.71-48-1.57-14.49-3.89-29.4-5.22-43.86-9.63.46-20.93-5.67-29.33-10.71,2.23,3,4.56,5.91,7.08,8.75-9.68.3-26.79-8.72-26.9-19.73-2.27,2.9-.78,11.35.44,14.74-4-3.16-6.31-11.8-6-16.78-7.71,4.13-17.07,13.12-17.28,22.85-1.89-7.1-2-13.54-1.31-20.74-3,7.25-2.49,13.45-1.9,21.08-3.44-5.4-4.65-16-2.44-22a68.33,68.33,0,0,1,5.53-10.45c3-4.7,7-9.82,11.41-13.28,8.18-6.34,19.28-10.37,29.3-12.1,11.34-2,22-2,33.1,1.14,6.36,1.78,11.39,4.83,16.79,7.34,16.34-1.65,23.33,13.93,25.65,27.64a234.18,234.18,0,0,1,3,55.48c-.77,10.79-1.11,21.64-1.71,32.41C790.55,685.49,789.56,690.89,789.62,696.18Z"/><path id="_Path_40" data-name="&lt;Path&gt;" class="cls-41" d="M769.51,577.12c-1-5-10.44-12.82-15.65-12.84a17.93,17.93,0,0,1,5.24,6.05c-2.47-1.43-5.64-3.79-8.43-4,2.12,1.93,3.33,4.35,4.68,6.83-2.57-1.61-5.91-5.68-9-5.67-1.68,0-3.82,1.82-5.66,2.09a9.23,9.23,0,0,1,1.45,5.57c-2.26-1-7.45-4-9.52-2.72-3.05,1.9,1,3.41-3.49,2.92s-1.47-1.12-5,.61a17.27,17.27,0,0,1-5.78,2c-4.36.64-27.26.76-24.15-6.82-2.25-.23-4.42,1.9-6.27,3.07.7-2.29,2.52-4.44,4.2-6.28-5.09-.08-15.45,9.61-16.37,14.41,4-.13,4.77-4.27,8.4-4.77-.42,2.49-2.35,4.51-2.32,7.18,2.85-1.68,5.14-4.5,8.31-6,.3,1.87-.26,3.7-.25,5.54,4.15-.38,9.09,1.84,13.32,2.36,6.47.8,12.07.18,18.3-.64a29.14,29.14,0,0,0,8-2.25c.63-.25-.19-1.6,1.19-1.81,2-.29,6.3,3.22,8.55,3.6a26.39,26.39,0,0,0-.78-6.85,17.6,17.6,0,0,1,7.14,6c.24-3,1.13-6.11-.39-8.93,2.27,1.18,3.78,4.22,5.26,6.51-.32-2.29-.24-4.65-1.12-6.76.38-.19.74-.29,1.09-.48,2.92,2.71,6.64,5.66,8.92,8.79.89-3.48,0-6.14-1.2-9.06,4.43.86,5.39,8,9.16,8.39S770.12,580,769.51,577.12Z"/><path id="_Path_41" data-name="&lt;Path&gt;" class="cls-41" d="M755.26,622.15c-.61-3-1.34-6.49-1-9.6,3.26,2.71,4.06,8.11,7.1,10.85.14-2.12-.49-4.57.85-6.07,1.82,4.76,4.28,1.11,7.66.74,1.81-.2,1.61-1.25,3.21.1,2.09,1.76,2.17,9.47,3.12,12.09.53-3.39-1.08-11.91,1-14.44,1.07-1.33,5.44-2.54,7.1-2.88a14.11,14.11,0,0,0,2.51,4.07c.84-3.14-.19-6.62.68-9.71,1.92,7.71,4,18.36,1.73,26a20.9,20.9,0,0,0-2.87-8.66c.13,2,.42,4.23-.75,5.92-1.13-1.85-1.86-4-2.92-6a5.92,5.92,0,0,0-2.26,0c-.1,3.73.35,11-2.07,13.76-2.47-3-3.13-11.7-6.82-13-2.29-.84-7.2,2.37-7.77-1.66-1.06,3.21,1.09,7.48,1,11-2.35-2.9-2.8-6.28-4.53-9.15.07,4.33.6,8.68.67,13,.05,3.17-1.39,5.7-1.44,8.72C759.46,643.68,756.14,626.51,755.26,622.15Z"/><path id="_Path_42" data-name="&lt;Path&gt;" class="cls-42" d="M674,786.46c-7.54-.75-24.79,4.55-28,12.68,8.71,11.48,17.18,22.79,26.55,33.79,0,0,79.82,20.62,79.77-30.07Z"/></g><g id="_Group_14" data-name="&lt;Group&gt;"><path id="_Path_43" data-name="&lt;Path&gt;" class="cls-43" d="M1050.6,958.75s-153.23,33.16-342.26,33.16-342.26-33.16-342.26-33.16,153.23-33.17,342.26-33.17S1050.6,958.75,1050.6,958.75Z"/><g id="_Group_15" data-name="&lt;Group&gt;"><g id="_Group_16" data-name="&lt;Group&gt;"><path id="_Compound_Path_" data-name="&lt;Compound Path&gt;" class="cls-44" d="M447,686.75H382.18v29.61H447c7.51,0,13.6-6.63,13.6-14.8S454.52,686.75,447,686.75Z"/><path id="_Path_44" data-name="&lt;Path&gt;" class="cls-45" d="M384.27,713.8H326.49V689.28h57.78c6.23,0,11.27,5.49,11.27,12.26h0C395.54,708.31,390.5,713.8,384.27,713.8Z"/><path id="_Path_45" data-name="&lt;Path&gt;" class="cls-46" d="M385.46,686.75H320.63v5.32h62.84c4.82,0,8.72,4.25,8.72,9.49s-3.9,9.49-8.72,9.49H320.63v5.31h64.83c7.51,0,13.6-6.63,13.6-14.8S393,686.75,385.46,686.75Z"/></g><g id="_Group_17" data-name="&lt;Group&gt;"><path id="_Compound_Path_2" data-name="&lt;Compound Path&gt;" class="cls-47" d="M320.63,731.63c0,8.17,6.09,14.8,13.6,14.8h64.83V716.82H334.23C326.72,716.82,320.63,723.45,320.63,731.63Z"/><path id="_Path_46" data-name="&lt;Path&gt;" class="cls-48" d="M397,743.87h57.78V719.35H397c-6.23,0-11.27,5.49-11.27,12.26h0C385.7,738.38,390.74,743.87,397,743.87Z"/><path id="_Path_47" data-name="&lt;Path&gt;" class="cls-49" d="M395.78,716.82h64.83v5.32H397.77c-4.82,0-8.72,4.25-8.72,9.49s3.9,9.49,8.72,9.49h62.84v5.31H395.78c-7.51,0-13.6-6.63-13.6-14.8S388.27,716.82,395.78,716.82Z"/></g><g id="_Group_18" data-name="&lt;Group&gt;"><path id="_Compound_Path_3" data-name="&lt;Compound Path&gt;" class="cls-50" d="M298.91,672c0,8.17,6.09,14.8,13.6,14.8h64.84V657.16H312.51C305,657.16,298.91,663.79,298.91,672Z"/><path id="_Path_48" data-name="&lt;Path&gt;" class="cls-51" d="M375.25,684.21H433V659.69H375.25C369,659.69,364,665.18,364,672h0C364,678.72,369,684.21,375.25,684.21Z"/><path id="_Path_49" data-name="&lt;Path&gt;" class="cls-52" d="M374.06,657.16H438.9v5.32H376.05c-4.82,0-8.72,4.25-8.72,9.49s3.9,9.49,8.72,9.49H438.9v5.31H374.06c-7.51,0-13.6-6.63-13.6-14.8S366.55,657.16,374.06,657.16Z"/></g></g><g id="_Group_19" data-name="&lt;Group&gt;"><g id="_Group_20" data-name="&lt;Group&gt;"><rect id="_Rectangle_9" data-name="&lt;Rectangle&gt;" class="cls-53" x="911.73" y="663.63" width="47.97" height="39.13"/><rect id="_Rectangle_10" data-name="&lt;Rectangle&gt;" class="cls-54" x="911.73" y="663.63" width="20.16" height="39.13"/></g><g id="_Group_21" data-name="&lt;Group&gt;"><rect id="_Rectangle_11" data-name="&lt;Rectangle&gt;" class="cls-55" x="897.82" y="702.76" width="47.97" height="39.13" transform="translate(1843.61 1444.66) rotate(180)"/><rect id="_Rectangle_12" data-name="&lt;Rectangle&gt;" class="cls-56" x="925.63" y="702.76" width="20.16" height="39.13" transform="translate(1871.42 1444.66) rotate(180)"/></g></g><g id="_Group_22" data-name="&lt;Group&gt;"><ellipse id="_Path_50" data-name="&lt;Path&gt;" class="cls-31" cx="662.13" cy="726.62" rx="22.58" ry="24.58"/><path id="_Path_51" data-name="&lt;Path&gt;" class="cls-57" d="M700,707.39a21.37,21.37,0,0,0-14-5.35,20.92,20.92,0,0,0-9.26,2.18A28,28,0,0,0,700,707.39Z"/><path id="_Path_52" data-name="&lt;Path&gt;" class="cls-57" d="M670.82,744.83a21.49,21.49,0,0,0,15.12,6.36,21,21,0,0,0,9.87-2.49C688.47,743.94,679.78,743.44,670.82,744.83Z"/></g><g id="_Group_23" data-name="&lt;Group&gt;"><g id="_Group_24" data-name="&lt;Group&gt;"><g id="_Group_25" data-name="&lt;Group&gt;"><rect id="_Rectangle_13" data-name="&lt;Rectangle&gt;" class="cls-58" x="339.38" y="766.18" width="23.44" height="211.72"/><polygon id="_Path_53" data-name="&lt;Path&gt;" class="cls-59" points="362.82 766.18 339.38 766.18 339.38 815.57 362.82 837.79 362.82 766.18"/></g><g id="_Group_26" data-name="&lt;Group&gt;"><rect id="_Rectangle_14" data-name="&lt;Rectangle&gt;" class="cls-58" x="1050.6" y="766.18" width="23.44" height="211.72"/><polygon id="_Path_54" data-name="&lt;Path&gt;" class="cls-59" points="1074.04 766.18 1050.6 766.18 1050.6 815.57 1074.04 837.79 1074.04 766.18"/></g></g><g id="_Group_27" data-name="&lt;Group&gt;"><path class="cls-58" d="M1080,778V752.49H296.17c-6.95,0-12.58,6.13-12.58,13.69s5.63,13.69,12.58,13.69h784.17A5.19,5.19,0,0,1,1080,778Z"/><rect class="cls-60" x="283.59" y="745.94" width="796.41" height="6.55"/></g></g></g></g></svg>